<?xml version="1.0" encoding="utf-8"?>
<!-- Generator: Adobe Illustrator 23.0.6, SVG Export Plug-In . SVG Version: 6.00 Build 0)  -->
<!DOCTYPE svg PUBLIC "-//W3C//DTD SVG 1.1//EN" "http://www.w3.org/Graphics/SVG/1.1/DTD/svg11.dtd" [
	<!ENTITY ns_extend "http://ns.adobe.com/Extensibility/1.0/">
	<!ENTITY ns_ai "http://ns.adobe.com/AdobeIllustrator/10.0/">
	<!ENTITY ns_graphs "http://ns.adobe.com/Graphs/1.0/">
	<!ENTITY ns_vars "http://ns.adobe.com/Variables/1.0/">
	<!ENTITY ns_imrep "http://ns.adobe.com/ImageReplacement/1.0/">
	<!ENTITY ns_sfw "http://ns.adobe.com/SaveForWeb/1.0/">
	<!ENTITY ns_custom "http://ns.adobe.com/GenericCustomNamespace/1.0/">
	<!ENTITY ns_adobe_xpath "http://ns.adobe.com/XPath/1.0/">
]>
<svg version="1.1" xmlns:x="&ns_extend;" xmlns:i="&ns_ai;" xmlns:graph="&ns_graphs;"
	 xmlns="http://www.w3.org/2000/svg" xmlns:xlink="http://www.w3.org/1999/xlink" x="0px" y="0px" viewBox="0 0 1000 950"
	 enable-background="new 0 0 1000 950" xml:space="preserve">
<metadata>
	<sfw  xmlns="&ns_sfw;">
		<slices></slices>
		<sliceSourceBounds  bottomLeftOrigin="true" height="3296.396" width="7277.717" x="-4935.483" y="2344.023"></sliceSourceBounds>
	</sfw>
</metadata>
<g id="FILL-BACKGROUND">
	<rect fill="#FFFFFF" width="1000" height="950"/>
</g>
<g id="AG-DIAGRAM">
</g>
<g id="AG-DETAIL-DIAGRAM">
</g>
<g id="AG-DETAILS">
	<g id="POLYLINE_661_">
		<path fill="none" stroke="#00B9D2" stroke-width="2" stroke-linecap="round" stroke-linejoin="round" stroke-miterlimit="10" d="
			M371.336,781.541c7.341-0.041,14.601-1.627,21.249-4.76c7.196-3.391,13.531-8.521,18.357-14.844
			c4.684-6.136,7.9-13.357,9.336-20.941c0.638-3.369,0.871-6.771,0.871-10.193c0-2.053,0-4.106,0-6.159c0-3.835,0-7.67,0-11.505
			c0-5.448,0-10.897,0-16.346c0-6.853,0-13.706,0-20.559c0-8.164,0-16.328,0-24.492c0-9.273,0-18.546,0-27.82
			c0-10.185,0-20.371,0-30.556c0-10.954,0-21.908,0-32.862c0-11.588,0-23.175,0-34.763c0-12.024,0-24.048,0-36.072
			c0-12.225,0-24.451,0-36.676c0-12.391,0-24.783,0-37.174c0-12.324,0-24.647,0-36.971c0-12.087,0-24.174,0-36.262
			c0-11.621,0-23.242,0-34.863c0-11.113,0-22.226,0-33.339c0-10.372,0-20.744,0-31.117c0-9.439,0-18.878,0-28.317
			c0-8.368,0-16.735,0-25.103c0-7.147,0-14.294,0-21.44c0-5.733,0-11.467,0-17.2c0-4.134,0-8.267,0-12.401c0-2.411,0-4.822,0-7.233
			c0-2.313-0.034-4.617-0.278-6.922c-0.799-7.541-3.338-14.869-7.378-21.287c-4.221-6.706-10.044-12.362-16.871-16.384
			c-6.481-3.819-13.819-6.141-21.318-6.737c-2.875-0.229-5.773-0.159-8.655-0.159c-5.71,0-11.419,0-17.129,0
			c-8.856,0-17.712,0-26.568,0c-11.06,0-22.12,0-33.18,0c-12.181,0-24.363,0-36.544,0c-12.228,0-24.455,0-36.683,0
			c-11.271,0-22.543,0-33.814,0c-9.302,0-18.604,0-27.906,0c-6.258,0-12.516,0-18.774,0c-2.424,0-4.851-0.03-7.275,0.006
			c-7.397,0.111-14.745,1.889-21.373,5.175c-7.131,3.535-13.382,8.788-18.079,15.215c-4.517,6.181-7.581,13.385-8.885,20.929
			c-0.546,3.159-0.728,6.342-0.728,9.541c0,2.123,0,4.246,0,6.369c0,3.899,0,7.798,0,11.696c0,5.489,0,10.978,0,16.468
			c0,6.921,0,13.841,0,20.762c0,8.209,0,16.418,0,24.626c0,9.312,0,18.623,0,27.935c0,10.189,0,20.378,0,30.566
			c0,11.008,0,22.017,0,33.025c0,11.607,0,23.214,0,34.821c0,12.037,0,24.074,0,36.111c0,12.232,0,24.464,0,36.697
			c0,12.392,0,24.784,0,37.176c0,12.318,0,24.635,0,36.953c0,12.075,0,24.15,0,36.225c0,11.603,0,23.205,0,34.808
			c0,11.088,0,22.176,0,33.264c0,10.341,0,20.682,0,31.023c0,9.402,0,18.803,0,28.205c0,8.324,0,16.648,0,24.972
			c0,7.097,0,14.193,0,21.29c0,5.677,0,11.354,0,17.031c0,4.071,0,8.142,0,12.214c0,2.342,0,4.684,0,7.026
			c0,2.554,0.062,5.1,0.379,7.641c0.936,7.517,3.595,14.79,7.741,21.131c4.334,6.63,10.256,12.185,17.149,16.088
			c6.498,3.679,13.809,5.863,21.258,6.358c2.792,0.186,5.61,0.109,8.406,0.109c5.828,0,11.657,0,17.485,0c8.976,0,17.952,0,26.928,0
			c11.121,0,22.242,0,33.363,0c12.203,0,24.406,0,36.609,0c12.178,0,24.357,0,36.535,0c11.247,0,22.494,0,33.741,0
			c9.206,0,18.413,0,27.619,0c6.123,0,12.246,0,18.37,0C367.309,781.541,369.323,781.541,371.336,781.541z"/>
	</g>
	<g id="POLYLINE_660_">
		<path fill="none" stroke="#00B9D2" stroke-width="2" stroke-linecap="round" stroke-linejoin="round" stroke-miterlimit="10" d="
			M268.302,103.799c-0.001-1.617-1.15-3.06-2.727-3.42c-0.624-0.142-1.295-0.088-1.929-0.088c-1.669,0-3.338,0-5.007,0
			c-4.923,0-9.845,0-14.768,0c-2.656,0-5.397-0.199-8.047,0.008c-3.58,0.28-4.458,5.333-1.114,6.735
			c0.586,0.246,1.183,0.273,1.806,0.273c1.397,0.001,2.793,0,4.19,0c4.843,0,9.686,0,14.529,0c3.161,0,6.335,0.084,9.495,0
			c1.519-0.04,2.884-0.902,3.386-2.378C268.239,104.565,268.302,104.182,268.302,103.799z"/>
	</g>
	<g id="POLYLINE_659_">
		<path fill="none" stroke="#00B9D2" stroke-width="2" stroke-linecap="round" stroke-linejoin="round" stroke-miterlimit="10" d="
			M289.851,103.799c-0.001-2.296-1.482-4.4-3.644-5.174c-2.161-0.774-4.643-0.088-6.099,1.686c-1.457,1.774-1.647,4.342-0.467,6.311
			c1.18,1.969,3.532,3.014,5.784,2.567c2.243-0.445,4.016-2.297,4.363-4.557C289.83,104.356,289.851,104.077,289.851,103.799z"/>
	</g>
	<g id="POLYLINE_658_">
		
			<line fill="none" stroke="#00B9D2" stroke-width="2" stroke-linecap="round" stroke-linejoin="round" stroke-miterlimit="10" x1="427.463" y1="149.955" x2="421.149" y2="149.955"/>
	</g>
	<g id="POLYLINE_657_">
		
			<line fill="none" stroke="#00B9D2" stroke-width="2" stroke-linecap="round" stroke-linejoin="round" stroke-miterlimit="10" x1="427.463" y1="143.605" x2="421.149" y2="143.605"/>
	</g>
	<g id="POLYLINE_656_">
		
			<line fill="none" stroke="#00B9D2" stroke-width="2" stroke-linecap="round" stroke-linejoin="round" stroke-miterlimit="10" x1="73.396" y1="143.605" x2="79.71" y2="143.605"/>
	</g>
	<g id="POLYLINE_655_">
		
			<line fill="none" stroke="#00B9D2" stroke-width="2" stroke-linecap="round" stroke-linejoin="round" stroke-miterlimit="10" x1="73.396" y1="149.955" x2="79.71" y2="149.955"/>
	</g>
	<g id="POLYLINE_654_">
		
			<line fill="none" stroke="#00B9D2" stroke-width="2" stroke-linecap="round" stroke-linejoin="round" stroke-miterlimit="10" x1="73.396" y1="714.281" x2="79.71" y2="714.281"/>
	</g>
	<g id="POLYLINE_653_">
		
			<line fill="none" stroke="#00B9D2" stroke-width="2" stroke-linecap="round" stroke-linejoin="round" stroke-miterlimit="10" x1="73.396" y1="720.631" x2="79.71" y2="720.631"/>
	</g>
	<g id="POLYLINE_652_">
		
			<line fill="none" stroke="#00B9D2" stroke-width="2" stroke-linecap="round" stroke-linejoin="round" stroke-miterlimit="10" x1="427.463" y1="720.631" x2="421.149" y2="720.631"/>
	</g>
	<g id="POLYLINE_651_">
		
			<line fill="none" stroke="#00B9D2" stroke-width="2" stroke-linecap="round" stroke-linejoin="round" stroke-miterlimit="10" x1="427.463" y1="714.281" x2="421.149" y2="714.281"/>
	</g>
	<g id="POLYLINE_650_">
		
			<line fill="none" stroke="#00B9D2" stroke-width="2" stroke-linecap="round" stroke-linejoin="round" stroke-miterlimit="10" x1="146.971" y1="787.855" x2="146.971" y2="781.541"/>
	</g>
	<g id="POLYLINE_649_">
		
			<line fill="none" stroke="#00B9D2" stroke-width="2" stroke-linecap="round" stroke-linejoin="round" stroke-miterlimit="10" x1="140.62" y1="787.855" x2="140.62" y2="781.541"/>
	</g>
	<g id="POLYLINE_648_">
		
			<line fill="none" stroke="#00B9D2" stroke-width="2" stroke-linecap="round" stroke-linejoin="round" stroke-miterlimit="10" x1="357.629" y1="73.77" x2="357.629" y2="80.084"/>
	</g>
	<g id="POLYLINE_647_">
		
			<line fill="none" stroke="#00B9D2" stroke-width="2" stroke-linecap="round" stroke-linejoin="round" stroke-miterlimit="10" x1="351.279" y1="73.77" x2="351.279" y2="80.084"/>
	</g>
	<g id="POLYLINE_646_">
		<path fill="none" stroke="#00B9D2" stroke-width="2" stroke-linecap="round" stroke-linejoin="round" stroke-miterlimit="10" d="
			M624.962,188.506c4.161,3.181,9.222,5.071,14.462,5.307c5.255,0.236,10.525-1.171,14.957-4.008
			c4.432-2.837,7.917-7.033,9.903-11.904c1.974-4.841,2.406-10.261,1.237-15.356c-1.169-5.094-3.922-9.784-7.809-13.279
			c-3.912-3.518-8.878-5.774-14.103-6.394c-5.225-0.62-10.581,0.411-15.208,2.916c-4.597,2.489-8.371,6.403-10.701,11.083
			c-2.329,4.679-3.178,10.05-2.392,15.219c0.791,5.201,3.197,10.096,6.841,13.891C623.024,186.891,623.966,187.73,624.962,188.506z"
			/>
	</g>
	<g id="POLYLINE_645_">
		<path fill="none" stroke="#00B9D2" stroke-width="2" stroke-linecap="round" stroke-linejoin="round" stroke-miterlimit="10" d="
			M559.716,225.811c4.161,3.181,9.222,5.071,14.462,5.307c5.255,0.236,10.525-1.171,14.957-4.008
			c4.432-2.837,7.917-7.033,9.903-11.904c1.974-4.841,2.406-10.261,1.237-15.356c-1.169-5.094-3.922-9.784-7.809-13.279
			c-3.912-3.518-8.878-5.774-14.103-6.394c-5.225-0.62-10.581,0.411-15.208,2.916c-4.597,2.489-8.371,6.403-10.7,11.083
			c-2.329,4.679-3.178,10.05-2.392,15.219c0.791,5.201,3.197,10.096,6.841,13.891C557.778,224.196,558.72,225.035,559.716,225.811z"
			/>
	</g>
	<g id="POLYLINE_644_">
		<path fill="none" stroke="#00B9D2" stroke-width="2" stroke-linecap="round" stroke-linejoin="round" stroke-miterlimit="10" d="
			M559.716,151.085c4.161,3.181,9.222,5.071,14.462,5.307c5.255,0.236,10.525-1.171,14.957-4.008
			c4.432-2.837,7.917-7.033,9.903-11.904c1.974-4.841,2.406-10.261,1.237-15.356c-1.169-5.094-3.922-9.784-7.809-13.279
			c-3.912-3.518-8.878-5.774-14.103-6.394c-5.225-0.62-10.581,0.411-15.208,2.916c-4.597,2.489-8.371,6.403-10.7,11.083
			c-2.329,4.679-3.178,10.05-2.392,15.219c0.791,5.201,3.197,10.096,6.841,13.891C557.778,149.47,558.72,150.309,559.716,151.085z"
			/>
	</g>
	<g id="POLYLINE_643_">
		
			<path fill="none" stroke="#00B9D2" stroke-width="2.75" stroke-linecap="round" stroke-linejoin="round" stroke-miterlimit="10" d="
			M698.587,393.595c3.326,0.256,6.634-0.927,9.371-2.761c3.615-2.424,6.31-6.098,7.752-10.189c0.736-2.089,1.135-4.305,1.079-6.523
			c-0.01-0.414,0.07-1.226-0.252-1.358c-0.317-0.13-1.082,0.101-1.417,0.155c-1.035,0.168-2.052,0.445-3.038,0.798
			c-4.095,1.468-7.721,4.198-10.162,7.805c-2.207,3.262-3.69,7.267-3.415,11.25C698.508,392.839,698.561,393.595,698.587,393.595z"
			/>
	</g>
	<g id="POLYLINE_642_">
		
			<path fill="none" stroke="#00B9D2" stroke-width="2.75" stroke-linecap="round" stroke-linejoin="round" stroke-miterlimit="10" d="
			M723.375,420.794c-0.039-5.543,2.32-10.699,6.306-14.508c1.06-1.012,2.216-1.93,3.467-2.696c0.127-0.169-1.58-2.034-1.771-2.244
			c-0.584-0.642-1.21-1.246-1.874-1.806c-1.38-1.164-2.919-2.133-4.557-2.89c-3.222-1.49-6.92-2.243-10.471-2.085
			c-3.989,0.178-7.646,1.834-11.324,3.218c-1.192,0.449-2.472,0.952-3.766,0.98c-1.104,0.024-2.208-0.321-3.238-0.677
			c-3.505-1.212-6.878-2.971-10.641-3.221c-3.883-0.258-7.9,0.845-11.266,2.747c-3.759,2.125-6.828,5.339-8.883,9.127
			c-2.131,3.928-3.164,8.369-3.407,12.811c-0.254,4.646,0.316,9.32,1.416,13.832c1.059,4.345,2.618,8.574,4.63,12.568
			c1.977,3.925,4.485,7.637,7.294,11.016c1.933,2.325,4.242,4.648,7.152,5.688c2.634,0.941,5.465,0.448,8.017-0.524
			c2.007-0.765,3.923-1.735,6.026-2.224c1.807-0.421,3.693-0.537,5.54-0.379c3.881,0.333,7.052,2.654,10.816,3.332
			c2.375,0.428,4.814,0.183,6.985-0.901c2.867-1.432,5.041-3.963,6.931-6.482c2.627-3.501,4.971-7.192,6.768-11.189
			c0.421-0.937,0.813-1.886,1.177-2.847c0.203-0.536,0.398-1.076,0.577-1.62c0.232-0.704,0.289-0.693-0.322-0.975
			c-1.702-0.784-3.291-1.85-4.712-3.068c-3.033-2.599-5.252-6.053-6.236-9.935C723.592,424.192,723.394,422.494,723.375,420.794"/>
	</g>
	<g id="POLYLINE_641_">
		
			<line fill="none" stroke="#00B9D2" stroke-width="2" stroke-linecap="round" stroke-linejoin="round" stroke-miterlimit="10" x1="594.458" y1="73.77" x2="594.458" y2="80.084"/>
	</g>
	<g id="POLYLINE_640_">
		
			<line fill="none" stroke="#00B9D2" stroke-width="2" stroke-linecap="round" stroke-linejoin="round" stroke-miterlimit="10" x1="588.108" y1="73.77" x2="588.108" y2="80.084"/>
	</g>
	<g id="POLYLINE_639_">
		
			<line fill="none" stroke="#00B9D2" stroke-width="2" stroke-linecap="round" stroke-linejoin="round" stroke-miterlimit="10" x1="872.341" y1="149.955" x2="866.026" y2="149.955"/>
	</g>
	<g id="POLYLINE_638_">
		
			<line fill="none" stroke="#00B9D2" stroke-width="2" stroke-linecap="round" stroke-linejoin="round" stroke-miterlimit="10" x1="872.341" y1="143.605" x2="866.026" y2="143.605"/>
	</g>
	<g id="POLYLINE_637_">
		
			<line fill="none" stroke="#00B9D2" stroke-width="2" stroke-linecap="round" stroke-linejoin="round" stroke-miterlimit="10" x1="518.273" y1="143.605" x2="524.587" y2="143.605"/>
	</g>
	<g id="POLYLINE_636_">
		
			<line fill="none" stroke="#00B9D2" stroke-width="2" stroke-linecap="round" stroke-linejoin="round" stroke-miterlimit="10" x1="518.273" y1="149.955" x2="524.587" y2="149.955"/>
	</g>
	<g id="POLYLINE_635_">
		<path fill="none" stroke="#00B9D2" stroke-width="2" stroke-linecap="round" stroke-linejoin="round" stroke-miterlimit="10" d="
			M574.4,781.541c-7.341-0.041-14.601-1.627-21.249-4.76c-7.196-3.391-13.531-8.521-18.357-14.844
			c-4.684-6.136-7.9-13.357-9.336-20.941c-0.638-3.369-0.871-6.771-0.871-10.193c0-2.053,0-4.106,0-6.159c0-3.835,0-7.67,0-11.505
			c0-5.448,0-10.897,0-16.346c0-6.853,0-13.706,0-20.559c0-8.164,0-16.328,0-24.492c0-9.273,0-18.546,0-27.82
			c0-10.185,0-20.371,0-30.556c0-10.954,0-21.908,0-32.862c0-11.588,0-23.175,0-34.763c0-12.024,0-24.048,0-36.072
			c0-12.225,0-24.451,0-36.676c0-12.391,0-24.783,0-37.174c0-12.324,0-24.647,0-36.971c0-12.087,0-24.174,0-36.262
			c0-11.621,0-23.242,0-34.863c0-11.113,0-22.226,0-33.339c0-10.372,0-20.744,0-31.117c0-9.439,0-18.878,0-28.317
			c0-8.368,0-16.735,0-25.103c0-7.147,0-14.294,0-21.44c0-5.733,0-11.467,0-17.2c0-4.134,0-8.267,0-12.401c0-2.411,0-4.822,0-7.233
			c0-2.313,0.034-4.617,0.278-6.922c0.799-7.541,3.338-14.869,7.378-21.287c4.221-6.706,10.044-12.362,16.871-16.384
			c6.481-3.819,13.819-6.141,21.318-6.737c2.875-0.229,5.773-0.159,8.655-0.159c5.71,0,11.419,0,17.129,0c8.856,0,17.712,0,26.568,0
			c11.06,0,22.12,0,33.18,0c12.181,0,24.363,0,36.544,0c12.228,0,24.455,0,36.683,0c11.271,0,22.543,0,33.814,0
			c9.302,0,18.604,0,27.906,0c6.258,0,12.516,0,18.774,0c2.424,0,4.851-0.03,7.275,0.006c7.397,0.111,14.745,1.889,21.373,5.175
			c7.131,3.535,13.382,8.788,18.079,15.215c4.517,6.181,7.581,13.385,8.885,20.929c0.546,3.159,0.728,6.342,0.728,9.541
			c0,2.123,0,4.246,0,6.369c0,3.899,0,7.798,0,11.696c0,5.489,0,10.978,0,16.468c0,6.921,0,13.841,0,20.762
			c0,8.209,0,16.418,0,24.626c0,9.312,0,18.623,0,27.935c0,10.189,0,20.378,0,30.566c0,11.008,0,22.017,0,33.025
			c0,11.607,0,23.214,0,34.821c0,12.037,0,24.074,0,36.111c0,12.232,0,24.464,0,36.697c0,12.392,0,24.784,0,37.176
			c0,12.318,0,24.635,0,36.953c0,12.075,0,24.15,0,36.225c0,11.603,0,23.205,0,34.808c0,11.088,0,22.176,0,33.264
			c0,10.341,0,20.682,0,31.023c0,9.402,0,18.803,0,28.205c0,8.324,0,16.648,0,24.972c0,7.097,0,14.193,0,21.29
			c0,5.677,0,11.354,0,17.031c0,4.071,0,8.142,0,12.214c0,2.342,0,4.684,0,7.026c0,2.554-0.062,5.1-0.379,7.641
			c-0.936,7.517-3.595,14.79-7.741,21.131c-4.334,6.63-10.256,12.185-17.149,16.088c-6.498,3.679-13.809,5.863-21.258,6.358
			c-2.792,0.186-5.61,0.109-8.406,0.109c-5.828,0-11.657,0-17.485,0c-8.976,0-17.952,0-26.928,0c-11.121,0-22.242,0-33.363,0
			c-12.203,0-24.406,0-36.609,0c-12.178,0-24.357,0-36.535,0c-11.247,0-22.494,0-33.741,0c-9.206,0-18.413,0-27.619,0
			c-6.123,0-12.246,0-18.37,0C578.428,781.541,576.414,781.541,574.4,781.541z"/>
	</g>
	<g id="POLYLINE_634_">
		
			<line fill="none" stroke="#00B9D2" stroke-width="2" stroke-linecap="round" stroke-linejoin="round" stroke-miterlimit="10" x1="518.273" y1="714.281" x2="524.587" y2="714.281"/>
	</g>
	<g id="POLYLINE_633_">
		
			<line fill="none" stroke="#00B9D2" stroke-width="2" stroke-linecap="round" stroke-linejoin="round" stroke-miterlimit="10" x1="518.273" y1="720.631" x2="524.587" y2="720.631"/>
	</g>
	<g id="POLYLINE_632_">
		
			<line fill="none" stroke="#00B9D2" stroke-width="2" stroke-linecap="round" stroke-linejoin="round" stroke-miterlimit="10" x1="872.341" y1="720.631" x2="866.026" y2="720.631"/>
	</g>
	<g id="POLYLINE_631_">
		
			<line fill="none" stroke="#00B9D2" stroke-width="2" stroke-linecap="round" stroke-linejoin="round" stroke-miterlimit="10" x1="872.341" y1="714.281" x2="866.026" y2="714.281"/>
	</g>
	<g id="POLYLINE_630_">
		
			<line fill="none" stroke="#00B9D2" stroke-width="2" stroke-linecap="round" stroke-linejoin="round" stroke-miterlimit="10" x1="805.116" y1="787.855" x2="805.116" y2="781.541"/>
	</g>
	<g id="POLYLINE_629_">
		
			<line fill="none" stroke="#00B9D2" stroke-width="2" stroke-linecap="round" stroke-linejoin="round" stroke-miterlimit="10" x1="798.766" y1="787.855" x2="798.766" y2="781.541"/>
	</g>
	<g id="POLYLINE_628_">
		
			<line fill="none" stroke="#00B9D2" stroke-width="2" stroke-linecap="round" stroke-linejoin="round" stroke-miterlimit="10" x1="80.967" y1="855.87" x2="419.892" y2="855.87"/>
	</g>
	<g id="POLYLINE_627_">
		
			<line fill="none" stroke="#00B9D2" stroke-width="2" stroke-linecap="round" stroke-linejoin="round" stroke-miterlimit="10" x1="146.971" y1="891.664" x2="146.971" y2="855.87"/>
	</g>
	<g id="POLYLINE_626_">
		
			<line fill="none" stroke="#00B9D2" stroke-width="2" stroke-linecap="round" stroke-linejoin="round" stroke-miterlimit="10" x1="140.62" y1="855.87" x2="140.62" y2="891.664"/>
	</g>
</g>
<g id="N-DIMENSIONS">
	<g>
		<g>
			<g id="MTEXT_48_">
				<g>
					<g>
						<path fill="#00B9D2" d="M236.411,478.266c-0.733-0.36-1.293-0.83-1.68-1.41s-0.594-1.203-0.62-1.87v-0.04
							c0-0.106,0.04-0.193,0.12-0.26s0.173-0.1,0.28-0.1h0.979c0.28,0,0.46,0.146,0.54,0.439c0.2,0.72,0.57,1.257,1.11,1.61
							s1.163,0.529,1.87,0.529c0.906,0,1.66-0.276,2.26-0.829c0.6-0.554,0.9-1.317,0.9-2.29c0-0.894-0.301-1.604-0.9-2.131
							c-0.6-0.526-1.354-0.79-2.26-0.79c-0.48,0-0.867,0.061-1.16,0.181c-0.294,0.12-0.594,0.293-0.9,0.52
							c-0.173,0.134-0.316,0.23-0.43,0.29c-0.113,0.061-0.237,0.09-0.37,0.09h-0.96c-0.12,0-0.227-0.043-0.32-0.13
							c-0.093-0.086-0.133-0.189-0.12-0.31l0.62-6.66c0.04-0.333,0.207-0.5,0.5-0.5h6.92c0.146,0,0.261,0.04,0.341,0.12
							c0.079,0.08,0.119,0.193,0.119,0.34v0.74c0,0.133-0.043,0.24-0.13,0.319c-0.087,0.08-0.196,0.12-0.33,0.12h-5.76l-0.359,4.021
							c0.64-0.453,1.5-0.68,2.579-0.68c0.894,0,1.707,0.177,2.44,0.529c0.733,0.354,1.316,0.87,1.75,1.55
							c0.434,0.681,0.65,1.487,0.65,2.421c0,0.986-0.217,1.836-0.65,2.55c-0.434,0.713-1.033,1.253-1.8,1.62
							c-0.767,0.366-1.644,0.55-2.63,0.55C238.012,478.806,237.145,478.625,236.411,478.266z"/>
						<path fill="#00B9D2" d="M246.342,478.476c-0.087-0.087-0.13-0.196-0.13-0.33v-1.38c0-0.133,0.043-0.247,0.13-0.34
							c0.086-0.094,0.196-0.141,0.33-0.141h1.38c0.133,0,0.243,0.047,0.33,0.141c0.086,0.093,0.13,0.207,0.13,0.34v1.38
							c0,0.134-0.044,0.243-0.13,0.33c-0.087,0.087-0.197,0.13-0.33,0.13h-1.38C246.538,478.605,246.428,478.562,246.342,478.476z"
							/>
						<path fill="#00B9D2" d="M253.281,478.296c-0.793-0.341-1.41-0.83-1.85-1.471c-0.44-0.64-0.66-1.387-0.66-2.239
							c0-0.787,0.196-1.477,0.59-2.07s0.923-1.05,1.59-1.37c-0.533-0.307-0.946-0.71-1.24-1.21c-0.293-0.5-0.439-1.09-0.439-1.771
							c0-1.159,0.433-2.076,1.3-2.75c0.866-0.673,2.007-1.01,3.42-1.01s2.55,0.334,3.41,1c0.86,0.667,1.29,1.587,1.29,2.76
							c0,0.667-0.146,1.25-0.44,1.75c-0.293,0.5-0.699,0.91-1.22,1.23c0.667,0.32,1.196,0.776,1.59,1.37s0.59,1.29,0.59,2.09
							c0,0.854-0.22,1.597-0.659,2.23c-0.44,0.633-1.058,1.119-1.851,1.46c-0.793,0.34-1.696,0.51-2.71,0.51
							S254.074,478.636,253.281,478.296z M258.361,476.525c0.633-0.479,0.95-1.12,0.95-1.92s-0.317-1.44-0.95-1.92
							c-0.634-0.48-1.424-0.72-2.37-0.72c-0.96,0-1.757,0.239-2.39,0.72c-0.634,0.479-0.95,1.12-0.95,1.92s0.316,1.44,0.95,1.92
							c0.633,0.48,1.43,0.72,2.39,0.72C256.938,477.245,257.728,477.006,258.361,476.525z M258.052,469.806
							c0.56-0.4,0.84-0.934,0.84-1.601c0-0.68-0.277-1.223-0.83-1.63c-0.554-0.406-1.243-0.609-2.07-0.609
							c-0.84,0-1.533,0.203-2.08,0.609c-0.547,0.407-0.819,0.95-0.819,1.63c0,0.681,0.272,1.224,0.819,1.631
							c0.547,0.406,1.24,0.609,2.08,0.609C256.805,470.419,257.491,470.205,258.052,469.806z"/>
						<path fill="#00B9D2" d="M263.541,468.086c-0.06-0.08-0.077-0.181-0.05-0.301l0.439-2.8c0.054-0.387,0.24-0.58,0.561-0.58h1.28
							c0.093,0,0.17,0.033,0.229,0.101c0.061,0.066,0.09,0.146,0.09,0.239c0,0.134-0.02,0.24-0.06,0.32l-1.04,2.7
							c-0.067,0.146-0.141,0.257-0.22,0.33c-0.08,0.073-0.2,0.109-0.36,0.109h-0.62
							C263.685,468.205,263.601,468.165,263.541,468.086z M266.681,468.086c-0.06-0.08-0.076-0.181-0.05-0.301l0.44-2.8
							c0.053-0.387,0.24-0.58,0.56-0.58h1.28c0.093,0,0.17,0.033,0.229,0.101c0.061,0.066,0.091,0.146,0.091,0.239
							c0,0.134-0.021,0.24-0.061,0.32l-1.04,2.7c-0.066,0.146-0.14,0.257-0.22,0.33s-0.2,0.109-0.36,0.109h-0.62
							C266.824,468.205,266.741,468.165,266.681,468.086z"/>
					</g>
				</g>
			</g>
			<g id="POLYLINE_625_">
				
					<line fill="none" stroke="#00B9D2" stroke-width="2" stroke-linecap="round" stroke-linejoin="round" stroke-miterlimit="10" x1="130.548" y1="746.517" x2="237.587" y2="489.092"/>
			</g>
			<g id="POLYLINE_624_">
				
					<line fill="none" stroke="#00B9D2" stroke-width="2" stroke-linecap="round" stroke-linejoin="round" stroke-miterlimit="10" x1="250.841" y1="455.657" x2="384.25" y2="127.088"/>
			</g>
			<g id="POLYLINE_623_">
				
					<polyline fill="none" stroke="#00B9D2" stroke-width="2" stroke-linecap="round" stroke-linejoin="round" stroke-miterlimit="10" points="
					127.614,738.968 130.548,746.517 138.097,743.582 				"/>
			</g>
			<g id="POLYLINE_622_">
				
					<polyline fill="none" stroke="#00B9D2" stroke-width="2" stroke-linecap="round" stroke-linejoin="round" stroke-miterlimit="10" points="
					387.184,134.637 384.25,127.088 376.701,130.022 				"/>
			</g>
		</g>
		<g id="MTEXT_47_">
			<g>
				<path fill="#00B9D2" d="M135.761,168.191c-0.087-0.087-0.13-0.196-0.13-0.33v-2.92h-6.5c-0.134,0-0.243-0.043-0.33-0.13
					s-0.13-0.197-0.13-0.33v-0.74c0-0.187,0.073-0.387,0.22-0.6l6.021-8.48c0.066-0.106,0.166-0.189,0.3-0.25
					c0.133-0.06,0.28-0.09,0.439-0.09h1.36c0.146,0,0.26,0.04,0.34,0.12s0.12,0.193,0.12,0.34v8.48h1.82
					c0.133,0,0.243,0.043,0.33,0.13c0.086,0.087,0.13,0.196,0.13,0.33v0.76c0,0.133-0.044,0.243-0.13,0.33
					c-0.087,0.087-0.197,0.13-0.33,0.13h-1.82v2.92c0,0.134-0.043,0.243-0.13,0.33s-0.197,0.13-0.33,0.13h-0.92
					C135.957,168.321,135.848,168.278,135.761,168.191z M130.751,163.302h4.899v-6.961L130.751,163.302z"/>
				<path fill="#00B9D2" d="M143.631,167.981c-0.733-0.36-1.293-0.83-1.68-1.41s-0.594-1.203-0.62-1.87v-0.04
					c0-0.106,0.04-0.193,0.12-0.26s0.173-0.1,0.28-0.1h0.979c0.28,0,0.46,0.146,0.54,0.439c0.2,0.72,0.57,1.257,1.11,1.61
					s1.163,0.529,1.87,0.529c0.906,0,1.66-0.276,2.26-0.829c0.6-0.554,0.9-1.317,0.9-2.29c0-0.894-0.301-1.604-0.9-2.131
					c-0.6-0.526-1.354-0.79-2.26-0.79c-0.48,0-0.867,0.061-1.16,0.181c-0.294,0.12-0.594,0.293-0.9,0.52
					c-0.173,0.134-0.316,0.23-0.43,0.29c-0.113,0.061-0.237,0.09-0.37,0.09h-0.96c-0.12,0-0.227-0.043-0.32-0.13
					c-0.093-0.086-0.133-0.189-0.12-0.31l0.62-6.66c0.04-0.333,0.207-0.5,0.5-0.5h6.92c0.146,0,0.261,0.04,0.341,0.12
					c0.079,0.08,0.119,0.193,0.119,0.34v0.74c0,0.133-0.043,0.24-0.13,0.319c-0.087,0.08-0.196,0.12-0.33,0.12h-5.76l-0.359,4.021
					c0.64-0.453,1.5-0.68,2.579-0.68c0.894,0,1.707,0.177,2.44,0.529c0.733,0.354,1.316,0.87,1.75,1.55
					c0.434,0.681,0.65,1.487,0.65,2.421c0,0.986-0.217,1.836-0.65,2.55c-0.434,0.713-1.033,1.253-1.8,1.62
					c-0.767,0.366-1.644,0.55-2.63,0.55C145.231,168.521,144.364,168.341,143.631,167.981z"/>
				<path fill="#00B9D2" d="M155.881,168.012c-0.793-0.341-1.41-0.83-1.85-1.471c-0.44-0.64-0.66-1.387-0.66-2.239
					c0-0.787,0.196-1.477,0.59-2.07s0.923-1.05,1.59-1.37c-0.533-0.307-0.946-0.71-1.24-1.21c-0.293-0.5-0.439-1.09-0.439-1.771
					c0-1.159,0.433-2.076,1.3-2.75c0.866-0.673,2.007-1.01,3.42-1.01s2.55,0.334,3.41,1c0.86,0.667,1.29,1.587,1.29,2.76
					c0,0.667-0.146,1.25-0.44,1.75c-0.293,0.5-0.699,0.91-1.22,1.23c0.667,0.32,1.196,0.776,1.59,1.37s0.59,1.29,0.59,2.09
					c0,0.854-0.22,1.597-0.659,2.23c-0.44,0.633-1.058,1.119-1.851,1.46c-0.793,0.34-1.696,0.51-2.71,0.51
					S156.674,168.352,155.881,168.012z M160.961,166.241c0.633-0.479,0.95-1.12,0.95-1.92s-0.317-1.44-0.95-1.92
					c-0.634-0.48-1.424-0.72-2.37-0.72c-0.96,0-1.757,0.239-2.39,0.72c-0.634,0.479-0.95,1.12-0.95,1.92s0.316,1.44,0.95,1.92
					c0.633,0.48,1.43,0.72,2.39,0.72C159.537,166.961,160.327,166.722,160.961,166.241z M160.651,159.521
					c0.56-0.4,0.84-0.934,0.84-1.601c0-0.68-0.277-1.223-0.83-1.63c-0.554-0.406-1.243-0.609-2.07-0.609
					c-0.84,0-1.533,0.203-2.08,0.609c-0.547,0.407-0.819,0.95-0.819,1.63c0,0.681,0.272,1.224,0.819,1.631
					c0.547,0.406,1.24,0.609,2.08,0.609C159.404,160.135,160.091,159.921,160.651,159.521z"/>
				<path fill="#00B9D2" d="M171.5,172.001c-0.087-0.08-0.131-0.193-0.131-0.34v-13.28c0-0.146,0.044-0.26,0.131-0.34
					c0.086-0.08,0.196-0.12,0.33-0.12h0.84c0.146,0,0.26,0.04,0.34,0.12s0.12,0.193,0.12,0.34v0.881
					c0.772-1.027,1.873-1.54,3.3-1.54c1.4,0,2.45,0.443,3.15,1.33c0.699,0.887,1.069,2.017,1.109,3.39
					c0.014,0.146,0.021,0.373,0.021,0.68s-0.007,0.533-0.021,0.681c-0.04,1.359-0.41,2.486-1.109,3.38
					c-0.7,0.894-1.75,1.34-3.15,1.34c-1.427,0-2.507-0.507-3.24-1.521v4.66c0,0.133-0.043,0.243-0.13,0.33s-0.197,0.13-0.33,0.13
					h-0.899C171.696,172.121,171.586,172.081,171.5,172.001z M178.149,166.062c0.44-0.601,0.681-1.387,0.72-2.36
					c0.014-0.133,0.021-0.326,0.021-0.58c0-2.56-0.947-3.84-2.84-3.84c-0.934,0-1.637,0.31-2.11,0.93s-0.724,1.351-0.75,2.19
					c-0.014,0.146-0.02,0.407-0.02,0.78s0.006,0.633,0.02,0.779c0.026,0.813,0.283,1.518,0.771,2.11
					c0.486,0.594,1.183,0.89,2.09,0.89C177.01,166.961,177.71,166.661,178.149,166.062z"/>
				<path fill="#00B9D2" d="M183.381,172.001c-0.087-0.08-0.131-0.193-0.131-0.34v-13.28c0-0.146,0.044-0.26,0.131-0.34
					c0.086-0.08,0.196-0.12,0.33-0.12h0.84c0.146,0,0.26,0.04,0.34,0.12s0.12,0.193,0.12,0.34v0.881
					c0.772-1.027,1.873-1.54,3.3-1.54c1.4,0,2.45,0.443,3.15,1.33c0.699,0.887,1.069,2.017,1.109,3.39
					c0.014,0.146,0.021,0.373,0.021,0.68s-0.007,0.533-0.021,0.681c-0.04,1.359-0.41,2.486-1.109,3.38
					c-0.7,0.894-1.75,1.34-3.15,1.34c-1.427,0-2.507-0.507-3.24-1.521v4.66c0,0.133-0.043,0.243-0.13,0.33s-0.197,0.13-0.33,0.13
					h-0.899C183.577,172.121,183.467,172.081,183.381,172.001z M190.03,166.062c0.44-0.601,0.681-1.387,0.72-2.36
					c0.014-0.133,0.021-0.326,0.021-0.58c0-2.56-0.947-3.84-2.84-3.84c-0.934,0-1.637,0.31-2.11,0.93s-0.724,1.351-0.75,2.19
					c-0.014,0.146-0.02,0.407-0.02,0.78s0.006,0.633,0.02,0.779c0.026,0.813,0.283,1.518,0.771,2.11
					c0.486,0.594,1.183,0.89,2.09,0.89C188.891,166.961,189.591,166.661,190.03,166.062z"/>
				<path fill="#00B9D2" d="M195.079,155.831c-0.087-0.086-0.13-0.196-0.13-0.33v-1.04c0-0.133,0.043-0.246,0.13-0.34
					c0.087-0.093,0.197-0.14,0.33-0.14h1.181c0.133,0,0.246,0.047,0.34,0.14c0.093,0.094,0.14,0.207,0.14,0.34v1.04
					c0,0.134-0.047,0.244-0.14,0.33c-0.094,0.087-0.207,0.13-0.34,0.13h-1.181C195.276,155.961,195.166,155.918,195.079,155.831z
					 M195.239,168.191c-0.087-0.087-0.13-0.196-0.13-0.33v-9.48c0-0.133,0.043-0.243,0.13-0.329c0.087-0.087,0.196-0.131,0.33-0.131
					h0.88c0.133,0,0.243,0.044,0.33,0.131c0.087,0.086,0.13,0.196,0.13,0.329v9.48c0,0.134-0.043,0.243-0.13,0.33
					s-0.197,0.13-0.33,0.13h-0.88C195.436,168.321,195.326,168.278,195.239,168.191z"/>
			</g>
		</g>
		<g>
			<g id="POLYLINE_621_">
				
					<polyline fill="none" stroke="#00B9D2" stroke-width="2" stroke-linecap="round" stroke-linejoin="round" stroke-miterlimit="10" points="
					521.214,806.823 515.487,812.55 521.214,818.277 				"/>
			</g>
			<g id="POLYLINE_620_">
				
					<line fill="none" stroke="#00B9D2" stroke-width="2" stroke-linecap="round" stroke-linejoin="round" stroke-miterlimit="10" x1="515.487" y1="812.55" x2="665" y2="812.55"/>
			</g>
			<g id="POLYLINE_619_">
				
					<line fill="none" stroke="#00B9D2" stroke-width="2" stroke-linecap="round" stroke-linejoin="round" stroke-miterlimit="10" x1="825" y1="812.55" x2="871.861" y2="812.55"/>
			</g>
			<g id="POLYLINE_618_">
				
					<polyline fill="none" stroke="#00B9D2" stroke-width="2" stroke-linecap="round" stroke-linejoin="round" stroke-miterlimit="10" points="
					866.122,806.833 871.85,812.56 866.122,818.287 				"/>
			</g>
			<g id="MTEXT_46_">
				<g>
					<path fill="#00B9D2" d="M678.363,819.698c-0.087-0.087-0.13-0.196-0.13-0.33v-0.6c0-0.307,0.166-0.601,0.5-0.881l4.359-4.34
						c0.986-0.84,1.667-1.526,2.04-2.06s0.561-1.101,0.561-1.7c0-0.786-0.221-1.403-0.66-1.85c-0.44-0.447-1.08-0.67-1.92-0.67
						c-0.801,0-1.434,0.233-1.9,0.699c-0.467,0.467-0.753,1.094-0.86,1.88c-0.026,0.147-0.093,0.261-0.199,0.341
						c-0.107,0.08-0.214,0.12-0.32,0.12h-0.96c-0.12,0-0.22-0.04-0.3-0.12s-0.12-0.174-0.12-0.28c0.026-0.707,0.217-1.39,0.569-2.05
						c0.354-0.66,0.877-1.2,1.57-1.62s1.533-0.63,2.521-0.63c1.493,0,2.616,0.39,3.37,1.17c0.753,0.78,1.13,1.77,1.13,2.97
						c0,0.84-0.204,1.597-0.61,2.271c-0.407,0.673-1.043,1.383-1.91,2.13l-3.939,4h6.3c0.146,0,0.26,0.04,0.34,0.12
						c0.08,0.079,0.12,0.193,0.12,0.34v0.76c0,0.134-0.044,0.243-0.13,0.33c-0.087,0.087-0.197,0.13-0.33,0.13h-8.76
						C678.56,819.828,678.449,819.785,678.363,819.698z"/>
					<path fill="#00B9D2" d="M690.423,819.698c-0.087-0.087-0.13-0.196-0.13-0.33v-1.38c0-0.133,0.043-0.247,0.13-0.34
						c0.086-0.094,0.196-0.141,0.33-0.141h1.38c0.133,0,0.243,0.047,0.33,0.141c0.086,0.093,0.13,0.207,0.13,0.34v1.38
						c0,0.134-0.044,0.243-0.13,0.33c-0.087,0.087-0.197,0.13-0.33,0.13h-1.38C690.619,819.828,690.509,819.785,690.423,819.698z"/>
					<path fill="#00B9D2" d="M697.363,819.519c-0.793-0.341-1.41-0.83-1.85-1.471c-0.44-0.64-0.66-1.387-0.66-2.239
						c0-0.787,0.196-1.477,0.59-2.07s0.923-1.05,1.59-1.37c-0.533-0.307-0.946-0.71-1.24-1.21c-0.293-0.5-0.439-1.09-0.439-1.771
						c0-1.159,0.433-2.076,1.3-2.75c0.866-0.673,2.007-1.01,3.42-1.01s2.55,0.334,3.41,1c0.86,0.667,1.29,1.587,1.29,2.76
						c0,0.667-0.146,1.25-0.44,1.75c-0.293,0.5-0.699,0.91-1.22,1.23c0.667,0.32,1.196,0.776,1.59,1.37s0.59,1.29,0.59,2.09
						c0,0.854-0.22,1.597-0.659,2.23c-0.44,0.633-1.058,1.119-1.851,1.46c-0.793,0.34-1.696,0.51-2.71,0.51
						S698.156,819.858,697.363,819.519z M702.443,817.748c0.633-0.479,0.95-1.12,0.95-1.92s-0.317-1.44-0.95-1.92
						c-0.634-0.48-1.424-0.72-2.37-0.72c-0.96,0-1.757,0.239-2.39,0.72c-0.634,0.479-0.95,1.12-0.95,1.92s0.316,1.44,0.95,1.92
						c0.633,0.48,1.43,0.72,2.39,0.72C701.02,818.468,701.81,818.229,702.443,817.748z M702.134,811.028
						c0.56-0.4,0.84-0.934,0.84-1.601c0-0.68-0.277-1.223-0.83-1.63c-0.554-0.406-1.243-0.609-2.07-0.609
						c-0.84,0-1.533,0.203-2.08,0.609c-0.547,0.407-0.819,0.95-0.819,1.63c0,0.681,0.272,1.224,0.819,1.631
						c0.547,0.406,1.24,0.609,2.08,0.609C700.887,811.642,701.573,811.428,702.134,811.028z"/>
					<path fill="#00B9D2" d="M711.613,819.698c-0.08-0.087-0.12-0.196-0.12-0.33v-11.28l-3.36,2.58c-0.093,0.08-0.193,0.12-0.3,0.12
						c-0.12,0-0.233-0.066-0.34-0.2l-0.48-0.62c-0.066-0.093-0.1-0.187-0.1-0.279c0-0.146,0.066-0.267,0.2-0.36l4.34-3.36
						c0.146-0.093,0.32-0.14,0.52-0.14h0.94c0.133,0,0.243,0.043,0.33,0.13s0.13,0.197,0.13,0.33v13.08
						c0,0.134-0.043,0.243-0.13,0.33s-0.197,0.13-0.33,0.13h-0.98C711.8,819.828,711.693,819.785,711.613,819.698z"/>
					<path fill="#00B9D2" d="M716.122,809.309c-0.06-0.08-0.077-0.181-0.05-0.301l0.439-2.8c0.054-0.387,0.24-0.58,0.561-0.58h1.28
						c0.093,0,0.17,0.033,0.229,0.101c0.061,0.066,0.09,0.146,0.09,0.239c0,0.134-0.02,0.24-0.06,0.32l-1.04,2.7
						c-0.067,0.146-0.141,0.257-0.22,0.33c-0.08,0.073-0.2,0.109-0.36,0.109h-0.62C716.266,809.428,716.182,809.388,716.122,809.309
						z M719.262,809.309c-0.06-0.08-0.076-0.181-0.05-0.301l0.44-2.8c0.053-0.387,0.24-0.58,0.56-0.58h1.28
						c0.093,0,0.17,0.033,0.229,0.101c0.061,0.066,0.091,0.146,0.091,0.239c0,0.134-0.021,0.24-0.061,0.32l-1.04,2.7
						c-0.066,0.146-0.14,0.257-0.22,0.33s-0.2,0.109-0.36,0.109h-0.62C719.405,809.428,719.322,809.388,719.262,809.309z"/>
					<path fill="#00B9D2" d="M729.132,823.858c-0.08-0.087-0.12-0.197-0.12-0.33v-21.16c0-0.133,0.04-0.243,0.12-0.33
						s0.187-0.13,0.32-0.13h0.739c0.134,0,0.243,0.043,0.33,0.13s0.13,0.197,0.13,0.33v21.16c0,0.133-0.043,0.243-0.13,0.33
						c-0.087,0.086-0.196,0.13-0.33,0.13h-0.739C729.318,823.988,729.212,823.944,729.132,823.858z"/>
					<path fill="#00B9D2" d="M739.762,819.698c-0.073-0.087-0.11-0.19-0.11-0.311l0.04-0.18l5-11.7h-6.6
						c-0.134,0-0.243-0.043-0.33-0.13c-0.087-0.086-0.13-0.196-0.13-0.33v-0.739c0-0.147,0.04-0.264,0.12-0.351
						s0.193-0.13,0.34-0.13h8.16c0.146,0,0.26,0.043,0.34,0.13s0.12,0.203,0.12,0.351v0.68c0,0.24-0.054,0.5-0.16,0.78l-4.94,11.56
						c-0.066,0.146-0.14,0.267-0.22,0.36c-0.08,0.093-0.193,0.14-0.34,0.14h-1C739.932,819.828,739.835,819.785,739.762,819.698z"/>
					<path fill="#00B9D2" d="M752.451,819.698c-0.08-0.087-0.12-0.196-0.12-0.33v-11.28l-3.36,2.58c-0.093,0.08-0.193,0.12-0.3,0.12
						c-0.12,0-0.233-0.066-0.34-0.2l-0.48-0.62c-0.066-0.093-0.1-0.187-0.1-0.279c0-0.146,0.066-0.267,0.2-0.36l4.34-3.36
						c0.146-0.093,0.32-0.14,0.52-0.14h0.94c0.133,0,0.243,0.043,0.33,0.13s0.13,0.197,0.13,0.33v13.08
						c0,0.134-0.043,0.243-0.13,0.33s-0.197,0.13-0.33,0.13h-0.98C752.638,819.828,752.531,819.785,752.451,819.698z"/>
					<path fill="#00B9D2" d="M757.241,819.698c-0.087-0.087-0.13-0.196-0.13-0.33v-1.38c0-0.133,0.043-0.247,0.13-0.34
						c0.086-0.094,0.196-0.141,0.33-0.141h1.38c0.133,0,0.243,0.047,0.33,0.141c0.086,0.093,0.13,0.207,0.13,0.34v1.38
						c0,0.134-0.044,0.243-0.13,0.33c-0.087,0.087-0.197,0.13-0.33,0.13h-1.38C757.438,819.828,757.327,819.785,757.241,819.698z"/>
					<path fill="#00B9D2" d="M768.142,819.698c-0.087-0.087-0.13-0.196-0.13-0.33v-2.92h-6.5c-0.134,0-0.243-0.043-0.33-0.13
						s-0.13-0.197-0.13-0.33v-0.74c0-0.187,0.073-0.387,0.22-0.6l6.021-8.48c0.066-0.106,0.166-0.189,0.3-0.25
						c0.133-0.06,0.28-0.09,0.439-0.09h1.36c0.146,0,0.26,0.04,0.34,0.12s0.12,0.193,0.12,0.34v8.48h1.82
						c0.133,0,0.243,0.043,0.33,0.13c0.086,0.087,0.13,0.196,0.13,0.33v0.76c0,0.133-0.044,0.243-0.13,0.33
						c-0.087,0.087-0.197,0.13-0.33,0.13h-1.82v2.92c0,0.134-0.043,0.243-0.13,0.33s-0.197,0.13-0.33,0.13h-0.92
						C768.338,819.828,768.229,819.785,768.142,819.698z M763.132,814.809h4.899v-6.961L763.132,814.809z"/>
					<path fill="#00B9D2" d="M779.341,819.698c-0.087-0.087-0.13-0.196-0.13-0.33v-9.48c0-0.133,0.043-0.243,0.13-0.329
						c0.087-0.087,0.196-0.131,0.33-0.131h0.84c0.134,0,0.24,0.044,0.32,0.131c0.08,0.086,0.12,0.196,0.12,0.329v0.681
						c0.72-0.894,1.693-1.34,2.92-1.34c1.467,0,2.507,0.613,3.12,1.84c0.319-0.561,0.776-1.007,1.37-1.34
						c0.593-0.334,1.256-0.5,1.989-0.5c1.094,0,1.987,0.373,2.681,1.119c0.692,0.747,1.04,1.827,1.04,3.24v5.78
						c0,0.134-0.044,0.243-0.13,0.33c-0.087,0.087-0.197,0.13-0.33,0.13h-0.86c-0.134,0-0.243-0.043-0.33-0.13
						s-0.13-0.196-0.13-0.33v-5.6c0-1.067-0.22-1.83-0.66-2.29c-0.439-0.46-1.02-0.69-1.74-0.69c-0.64,0-1.189,0.237-1.649,0.71
						c-0.46,0.474-0.69,1.23-0.69,2.271v5.6c0,0.134-0.043,0.243-0.13,0.33s-0.197,0.13-0.33,0.13h-0.88
						c-0.134,0-0.243-0.043-0.33-0.13s-0.13-0.196-0.13-0.33v-5.6c0-1.054-0.23-1.813-0.69-2.28s-1.029-0.7-1.71-0.7
						c-0.64,0-1.189,0.233-1.649,0.7s-0.69,1.22-0.69,2.26v5.62c0,0.134-0.043,0.243-0.13,0.33s-0.197,0.13-0.33,0.13h-0.88
						C779.537,819.828,779.428,819.785,779.341,819.698z"/>
					<path fill="#00B9D2" d="M797.101,819.698c-0.087-0.087-0.13-0.196-0.13-0.33v-9.48c0-0.133,0.043-0.243,0.13-0.329
						c0.087-0.087,0.196-0.131,0.33-0.131h0.84c0.134,0,0.24,0.044,0.32,0.131c0.08,0.086,0.12,0.196,0.12,0.329v0.681
						c0.72-0.894,1.693-1.34,2.92-1.34c1.467,0,2.507,0.613,3.12,1.84c0.319-0.561,0.776-1.007,1.37-1.34
						c0.593-0.334,1.256-0.5,1.989-0.5c1.094,0,1.987,0.373,2.681,1.119c0.692,0.747,1.04,1.827,1.04,3.24v5.78
						c0,0.134-0.044,0.243-0.13,0.33c-0.087,0.087-0.197,0.13-0.33,0.13h-0.86c-0.134,0-0.243-0.043-0.33-0.13
						s-0.13-0.196-0.13-0.33v-5.6c0-1.067-0.22-1.83-0.66-2.29c-0.439-0.46-1.02-0.69-1.74-0.69c-0.64,0-1.189,0.237-1.649,0.71
						c-0.46,0.474-0.69,1.23-0.69,2.271v5.6c0,0.134-0.043,0.243-0.13,0.33s-0.197,0.13-0.33,0.13h-0.88
						c-0.134,0-0.243-0.043-0.33-0.13s-0.13-0.196-0.13-0.33v-5.6c0-1.054-0.23-1.813-0.69-2.28s-1.029-0.7-1.71-0.7
						c-0.64,0-1.189,0.233-1.649,0.7s-0.69,1.22-0.69,2.26v5.62c0,0.134-0.043,0.243-0.13,0.33s-0.197,0.13-0.33,0.13h-0.88
						C797.297,819.828,797.188,819.785,797.101,819.698z"/>
				</g>
			</g>
		</g>
		<g>
			<g id="POLYLINE_617_">
				
					<polyline fill="none" stroke="#00B9D2" stroke-width="2" stroke-linecap="round" stroke-linejoin="round" stroke-miterlimit="10" points="
					119.837,702.766 114.11,708.493 119.837,714.22 				"/>
			</g>
			<g id="POLYLINE_616_">
				
					<line fill="none" stroke="#00B9D2" stroke-width="2" stroke-linecap="round" stroke-linejoin="round" stroke-miterlimit="10" x1="114.11" y1="708.493" x2="241.031" y2="708.493"/>
			</g>
			<g id="POLYLINE_615_">
				
					<line fill="none" stroke="#00B9D2" stroke-width="2" stroke-linecap="round" stroke-linejoin="round" stroke-miterlimit="10" x1="325" y1="708.493" x2="382.09" y2="708.493"/>
			</g>
			<g id="POLYLINE_614_">
				
					<polyline fill="none" stroke="#00B9D2" stroke-width="2" stroke-linecap="round" stroke-linejoin="round" stroke-miterlimit="10" points="
					376.351,702.776 382.079,708.503 376.351,714.23 				"/>
			</g>
			<g id="MTEXT_45_">
				<g>
					<path fill="#00B9D2" d="M255.851,714.642c-0.08-0.087-0.12-0.196-0.12-0.33v-11.28l-3.36,2.58c-0.093,0.08-0.193,0.12-0.3,0.12
						c-0.12,0-0.233-0.066-0.34-0.2l-0.48-0.62c-0.066-0.093-0.1-0.187-0.1-0.279c0-0.146,0.066-0.267,0.2-0.36l4.34-3.36
						c0.146-0.093,0.32-0.14,0.52-0.14h0.94c0.133,0,0.243,0.043,0.33,0.13s0.13,0.197,0.13,0.33v13.08
						c0,0.134-0.043,0.243-0.13,0.33s-0.197,0.13-0.33,0.13h-0.98C256.037,714.771,255.931,714.729,255.851,714.642z"/>
					<path fill="#00B9D2" d="M264.351,714.642c-0.08-0.087-0.12-0.196-0.12-0.33v-11.28l-3.36,2.58c-0.093,0.08-0.193,0.12-0.3,0.12
						c-0.12,0-0.233-0.066-0.34-0.2l-0.48-0.62c-0.066-0.093-0.1-0.187-0.1-0.279c0-0.146,0.066-0.267,0.2-0.36l4.34-3.36
						c0.146-0.093,0.32-0.14,0.52-0.14h0.94c0.133,0,0.243,0.043,0.33,0.13s0.13,0.197,0.13,0.33v13.08
						c0,0.134-0.043,0.243-0.13,0.33s-0.197,0.13-0.33,0.13h-0.98C264.537,714.771,264.431,714.729,264.351,714.642z"/>
					<path fill="#00B9D2" d="M268.761,714.642c-0.087-0.087-0.13-0.196-0.13-0.33v-0.6c0-0.307,0.166-0.601,0.5-0.881l4.359-4.34
						c0.986-0.84,1.667-1.526,2.04-2.06s0.561-1.101,0.561-1.7c0-0.786-0.221-1.403-0.66-1.85c-0.44-0.447-1.08-0.67-1.92-0.67
						c-0.801,0-1.434,0.233-1.9,0.699c-0.467,0.467-0.753,1.094-0.86,1.88c-0.026,0.147-0.093,0.261-0.199,0.341
						c-0.107,0.08-0.214,0.12-0.32,0.12h-0.96c-0.12,0-0.22-0.04-0.3-0.12s-0.12-0.174-0.12-0.28c0.026-0.707,0.217-1.39,0.569-2.05
						c0.354-0.66,0.877-1.2,1.57-1.62s1.533-0.63,2.521-0.63c1.493,0,2.616,0.39,3.37,1.17c0.753,0.78,1.13,1.77,1.13,2.97
						c0,0.84-0.204,1.597-0.61,2.271c-0.407,0.673-1.043,1.383-1.91,2.13l-3.939,4h6.3c0.146,0,0.26,0.04,0.34,0.12
						c0.08,0.079,0.12,0.193,0.12,0.34v0.76c0,0.134-0.044,0.243-0.13,0.33c-0.087,0.087-0.197,0.13-0.33,0.13h-8.76
						C268.957,714.771,268.847,714.729,268.761,714.642z"/>
					<path fill="#00B9D2" d="M282.55,714.432c-0.733-0.36-1.293-0.83-1.68-1.41s-0.594-1.203-0.62-1.87v-0.04
						c0-0.106,0.04-0.193,0.12-0.26s0.173-0.1,0.28-0.1h0.979c0.28,0,0.46,0.146,0.54,0.439c0.2,0.72,0.57,1.257,1.11,1.61
						s1.163,0.529,1.87,0.529c0.906,0,1.66-0.276,2.26-0.829c0.6-0.554,0.9-1.317,0.9-2.29c0-0.894-0.301-1.604-0.9-2.131
						c-0.6-0.526-1.354-0.79-2.26-0.79c-0.48,0-0.867,0.061-1.16,0.181c-0.294,0.12-0.594,0.293-0.9,0.52
						c-0.173,0.134-0.316,0.23-0.43,0.29c-0.113,0.061-0.237,0.09-0.37,0.09h-0.96c-0.12,0-0.227-0.043-0.32-0.13
						c-0.093-0.086-0.133-0.189-0.12-0.31l0.62-6.66c0.04-0.333,0.207-0.5,0.5-0.5h6.92c0.146,0,0.261,0.04,0.341,0.12
						c0.079,0.08,0.119,0.193,0.119,0.34v0.74c0,0.133-0.043,0.24-0.13,0.319c-0.087,0.08-0.196,0.12-0.33,0.12h-5.76l-0.359,4.021
						c0.64-0.453,1.5-0.68,2.579-0.68c0.894,0,1.707,0.177,2.44,0.529c0.733,0.354,1.316,0.87,1.75,1.55
						c0.434,0.681,0.65,1.487,0.65,2.421c0,0.986-0.217,1.836-0.65,2.55c-0.434,0.713-1.033,1.253-1.8,1.62
						c-0.767,0.366-1.644,0.55-2.63,0.55C284.15,714.972,283.283,714.791,282.55,714.432z"/>
					<path fill="#00B9D2" d="M297.74,718.451c-0.087-0.08-0.131-0.193-0.131-0.34v-13.28c0-0.146,0.044-0.26,0.131-0.34
						c0.086-0.08,0.196-0.12,0.33-0.12h0.84c0.146,0,0.26,0.04,0.34,0.12s0.12,0.193,0.12,0.34v0.881
						c0.772-1.027,1.873-1.54,3.3-1.54c1.4,0,2.45,0.443,3.15,1.33c0.699,0.887,1.069,2.017,1.109,3.39
						c0.014,0.146,0.021,0.373,0.021,0.68s-0.007,0.533-0.021,0.681c-0.04,1.359-0.41,2.486-1.109,3.38
						c-0.7,0.894-1.75,1.34-3.15,1.34c-1.427,0-2.507-0.507-3.24-1.521v4.66c0,0.133-0.043,0.243-0.13,0.33s-0.197,0.13-0.33,0.13
						h-0.899C297.937,718.571,297.826,718.531,297.74,718.451z M304.39,712.512c0.44-0.601,0.681-1.387,0.72-2.36
						c0.014-0.133,0.021-0.326,0.021-0.58c0-2.56-0.947-3.84-2.84-3.84c-0.934,0-1.637,0.31-2.11,0.93s-0.724,1.351-0.75,2.19
						c-0.014,0.146-0.02,0.407-0.02,0.78s0.006,0.633,0.02,0.779c0.026,0.813,0.283,1.518,0.771,2.11
						c0.486,0.594,1.183,0.89,2.09,0.89C303.25,713.411,303.95,713.111,304.39,712.512z"/>
					<path fill="#00B9D2" d="M308.409,714.651c-0.08-0.08-0.12-0.18-0.12-0.3s0.047-0.247,0.141-0.38l3.479-4.521l-3.26-4.3
						c-0.106-0.146-0.16-0.267-0.16-0.36c0-0.119,0.043-0.22,0.13-0.3s0.184-0.12,0.29-0.12h0.96c0.2,0,0.373,0.107,0.521,0.32
						l2.7,3.5l2.699-3.5c0.08-0.106,0.157-0.187,0.23-0.24c0.073-0.053,0.17-0.08,0.29-0.08h0.92c0.106,0,0.2,0.04,0.28,0.12
						s0.12,0.174,0.12,0.28c0,0.134-0.047,0.26-0.141,0.38l-3.3,4.34l3.48,4.48c0.093,0.133,0.14,0.26,0.14,0.38
						s-0.04,0.22-0.12,0.3s-0.18,0.12-0.3,0.12h-0.98c-0.2,0-0.373-0.1-0.52-0.3l-2.86-3.7l-2.859,3.7
						c-0.08,0.093-0.157,0.167-0.23,0.22c-0.073,0.054-0.17,0.08-0.29,0.08h-0.94C308.59,714.771,308.489,714.731,308.409,714.651z"
						/>
				</g>
			</g>
		</g>
		<g>
			<g id="POLYLINE_613_">
				
					<polyline fill="none" stroke="#00B9D2" stroke-width="2" stroke-linecap="round" stroke-linejoin="round" stroke-miterlimit="10" points="
					354.491,123.815 348.764,118.088 343.038,123.815 				"/>
			</g>
			<g id="POLYLINE_612_">
				
					<line fill="none" stroke="#00B9D2" stroke-width="2" stroke-linecap="round" stroke-linejoin="round" stroke-miterlimit="10" x1="348.764" y1="118.088" x2="348.764" y2="587.259"/>
			</g>
			<g id="POLYLINE_611_">
				
					<line fill="none" stroke="#00B9D2" stroke-width="2" stroke-linecap="round" stroke-linejoin="round" stroke-miterlimit="10" x1="348.764" y1="616.959" x2="348.764" y2="745.143"/>
			</g>
			<g id="POLYLINE_610_">
				
					<polyline fill="none" stroke="#00B9D2" stroke-width="2" stroke-linecap="round" stroke-linejoin="round" stroke-miterlimit="10" points="
					354.481,739.404 348.754,745.131 343.027,739.404 				"/>
			</g>
			<g id="MTEXT_44_">
				<g>
					<path fill="#00B9D2" d="M308.493,608.78c-0.087-0.087-0.13-0.196-0.13-0.33v-0.6c0-0.307,0.166-0.601,0.5-0.881l4.359-4.34
						c0.986-0.84,1.667-1.526,2.04-2.06s0.561-1.101,0.561-1.7c0-0.786-0.221-1.403-0.66-1.85c-0.44-0.447-1.08-0.67-1.92-0.67
						c-0.801,0-1.434,0.233-1.9,0.699c-0.467,0.467-0.753,1.094-0.86,1.88c-0.026,0.147-0.093,0.261-0.199,0.341
						c-0.107,0.08-0.214,0.12-0.32,0.12h-0.96c-0.12,0-0.22-0.04-0.3-0.12s-0.12-0.174-0.12-0.28c0.026-0.707,0.217-1.39,0.569-2.05
						c0.354-0.66,0.877-1.2,1.57-1.62s1.533-0.63,2.521-0.63c1.493,0,2.616,0.39,3.37,1.17c0.753,0.78,1.13,1.77,1.13,2.97
						c0,0.84-0.204,1.597-0.61,2.271c-0.407,0.673-1.043,1.383-1.91,2.13l-3.939,4h6.3c0.146,0,0.26,0.04,0.34,0.12
						c0.08,0.079,0.12,0.193,0.12,0.34v0.76c0,0.134-0.044,0.243-0.13,0.33c-0.087,0.087-0.197,0.13-0.33,0.13h-8.76
						C308.689,608.91,308.579,608.867,308.493,608.78z"/>
					<path fill="#00B9D2" d="M326.573,608.78c-0.087-0.087-0.13-0.196-0.13-0.33v-2.92h-6.5c-0.134,0-0.243-0.043-0.33-0.13
						s-0.13-0.197-0.13-0.33v-0.74c0-0.187,0.073-0.387,0.22-0.6l6.021-8.48c0.066-0.106,0.166-0.189,0.3-0.25
						c0.133-0.06,0.28-0.09,0.439-0.09h1.36c0.146,0,0.26,0.04,0.34,0.12s0.12,0.193,0.12,0.34v8.48h1.82
						c0.133,0,0.243,0.043,0.33,0.13c0.086,0.087,0.13,0.196,0.13,0.33v0.76c0,0.133-0.044,0.243-0.13,0.33
						c-0.087,0.087-0.197,0.13-0.33,0.13h-1.82v2.92c0,0.134-0.043,0.243-0.13,0.33s-0.197,0.13-0.33,0.13h-0.92
						C326.77,608.91,326.66,608.867,326.573,608.78z M321.563,603.891h4.899v-6.961L321.563,603.891z"/>
					<path fill="#00B9D2" d="M334.442,608.601c-0.76-0.341-1.337-0.783-1.729-1.33c-0.394-0.547-0.604-1.113-0.63-1.7
						c0-0.12,0.04-0.217,0.12-0.29c0.079-0.073,0.18-0.11,0.3-0.11h0.899c0.146,0,0.267,0.03,0.36,0.09
						c0.093,0.061,0.167,0.178,0.22,0.351c0.174,0.68,0.55,1.16,1.13,1.439c0.58,0.28,1.264,0.42,2.051,0.42
						c0.96,0,1.723-0.229,2.29-0.689c0.566-0.46,0.85-1.116,0.85-1.97c0-1.627-0.993-2.44-2.98-2.44h-1.88
						c-0.133,0-0.243-0.043-0.33-0.13s-0.13-0.196-0.13-0.33v-0.52c0-0.2,0.073-0.374,0.221-0.521l3.899-4.32h-5.92
						c-0.134,0-0.243-0.04-0.33-0.12c-0.087-0.079-0.13-0.187-0.13-0.319v-0.72c0-0.147,0.043-0.264,0.13-0.351
						s0.196-0.13,0.33-0.13h7.92c0.146,0,0.264,0.043,0.351,0.13c0.086,0.087,0.13,0.203,0.13,0.351v0.659
						c0,0.147-0.067,0.301-0.2,0.46l-3.9,4.381h0.32c1.36,0.039,2.437,0.393,3.229,1.06c0.794,0.667,1.19,1.64,1.19,2.92
						c0,0.88-0.217,1.637-0.65,2.271c-0.433,0.633-1.036,1.119-1.81,1.46c-0.773,0.34-1.646,0.51-2.62,0.51
						C336.103,609.11,335.203,608.94,334.442,608.601z"/>
					<path fill="#00B9D2" d="M346.553,608.46c-0.78-0.433-1.374-1.017-1.78-1.75s-0.609-1.533-0.609-2.399
						c0-1.146,0.46-2.373,1.38-3.681l3.819-5.319c0.014-0.014,0.051-0.061,0.11-0.141s0.137-0.143,0.229-0.189
						c0.094-0.047,0.2-0.07,0.32-0.07h0.98c0.12,0,0.216,0.043,0.29,0.13c0.073,0.087,0.109,0.19,0.109,0.311
						c0,0.066-0.033,0.153-0.1,0.26l-2.92,4.08c0.347-0.08,0.733-0.12,1.16-0.12c0.973,0,1.83,0.217,2.569,0.649
						c0.74,0.434,1.313,1.007,1.721,1.721c0.406,0.713,0.609,1.497,0.609,2.35c0,0.854-0.203,1.65-0.609,2.39
						c-0.407,0.74-0.997,1.33-1.771,1.771s-1.687,0.66-2.74,0.66C348.256,609.11,347.333,608.894,346.553,608.46z M350.923,607.09
						c0.493-0.239,0.887-0.597,1.18-1.069c0.293-0.474,0.44-1.044,0.44-1.71c0-0.653-0.15-1.217-0.45-1.69
						c-0.3-0.473-0.697-0.833-1.19-1.08c-0.493-0.246-1.026-0.37-1.6-0.37s-1.107,0.124-1.601,0.37
						c-0.493,0.247-0.887,0.607-1.18,1.08c-0.293,0.474-0.439,1.037-0.439,1.69c0,0.666,0.146,1.236,0.439,1.71
						c0.293,0.473,0.687,0.83,1.18,1.069c0.493,0.24,1.027,0.36,1.601,0.36C349.89,607.45,350.429,607.33,350.923,607.09z"/>
					<path fill="#00B9D2" d="M361.753,612.59c-0.087-0.08-0.131-0.193-0.131-0.34v-13.28c0-0.146,0.044-0.26,0.131-0.34
						c0.086-0.08,0.196-0.12,0.33-0.12h0.84c0.146,0,0.26,0.04,0.34,0.12s0.12,0.193,0.12,0.34v0.881
						c0.772-1.027,1.873-1.54,3.3-1.54c1.4,0,2.45,0.443,3.15,1.33c0.699,0.887,1.069,2.017,1.109,3.39
						c0.014,0.146,0.021,0.373,0.021,0.68s-0.007,0.533-0.021,0.681c-0.04,1.359-0.41,2.486-1.109,3.38
						c-0.7,0.894-1.75,1.34-3.15,1.34c-1.427,0-2.507-0.507-3.24-1.521v4.66c0,0.133-0.043,0.243-0.13,0.33s-0.197,0.13-0.33,0.13
						h-0.899C361.949,612.71,361.839,612.67,361.753,612.59z M368.402,606.65c0.44-0.601,0.681-1.387,0.72-2.36
						c0.014-0.133,0.021-0.326,0.021-0.58c0-2.56-0.947-3.84-2.84-3.84c-0.934,0-1.637,0.31-2.11,0.93s-0.724,1.351-0.75,2.19
						c-0.014,0.146-0.02,0.407-0.02,0.78s0.006,0.633,0.02,0.779c0.026,0.813,0.283,1.518,0.771,2.11
						c0.486,0.594,1.183,0.89,2.09,0.89C367.263,607.55,367.963,607.25,368.402,606.65z"/>
					<path fill="#00B9D2" d="M372.422,608.79c-0.08-0.08-0.12-0.18-0.12-0.3s0.047-0.247,0.141-0.38l3.479-4.521l-3.26-4.3
						c-0.106-0.146-0.16-0.267-0.16-0.36c0-0.119,0.043-0.22,0.13-0.3s0.184-0.12,0.29-0.12h0.96c0.2,0,0.373,0.107,0.521,0.32
						l2.7,3.5l2.699-3.5c0.08-0.106,0.157-0.187,0.23-0.24c0.073-0.053,0.17-0.08,0.29-0.08h0.92c0.106,0,0.2,0.04,0.28,0.12
						s0.12,0.174,0.12,0.28c0,0.134-0.047,0.26-0.141,0.38l-3.3,4.34l3.48,4.48c0.093,0.133,0.14,0.26,0.14,0.38
						s-0.04,0.22-0.12,0.3s-0.18,0.12-0.3,0.12h-0.98c-0.2,0-0.373-0.1-0.52-0.3l-2.86-3.7l-2.859,3.7
						c-0.08,0.093-0.157,0.167-0.23,0.22c-0.073,0.054-0.17,0.08-0.29,0.08h-0.94C372.603,608.91,372.502,608.87,372.422,608.79z"/>
				</g>
			</g>
		</g>
		<g>
			<g id="POLYLINE_609_">
				
					<polyline fill="none" stroke="#00B9D2" stroke-width="2" stroke-linecap="round" stroke-linejoin="round" stroke-miterlimit="10" points="
					902.157,79.811 896.43,74.084 890.703,79.811 				"/>
			</g>
			<g id="POLYLINE_608_">
				
					<line fill="none" stroke="#00B9D2" stroke-width="2" stroke-linecap="round" stroke-linejoin="round" stroke-miterlimit="10" x1="896.43" y1="74.084" x2="896.43" y2="405.727"/>
			</g>
			<g id="POLYLINE_607_">
				
					<line fill="none" stroke="#00B9D2" stroke-width="2" stroke-linecap="round" stroke-linejoin="round" stroke-miterlimit="10" x1="896.43" y1="465" x2="896.43" y2="785.69"/>
			</g>
			<g id="POLYLINE_606_">
				
					<polyline fill="none" stroke="#00B9D2" stroke-width="2" stroke-linecap="round" stroke-linejoin="round" stroke-miterlimit="10" points="
					902.147,779.951 896.42,785.678 890.693,779.951 				"/>
			</g>
			<g id="MTEXT_41_" opacity="0.98">
				<g>
					<path fill="#00B9D2" d="M893.372,431.206c-0.733-0.36-1.293-0.83-1.68-1.41s-0.594-1.203-0.62-1.87v-0.04
						c0-0.106,0.04-0.193,0.12-0.26s0.173-0.1,0.28-0.1h0.979c0.28,0,0.46,0.146,0.54,0.439c0.2,0.72,0.57,1.257,1.11,1.61
						s1.163,0.529,1.87,0.529c0.906,0,1.66-0.276,2.26-0.829c0.6-0.554,0.9-1.317,0.9-2.29c0-0.894-0.301-1.604-0.9-2.131
						c-0.6-0.526-1.354-0.79-2.26-0.79c-0.48,0-0.867,0.061-1.16,0.181c-0.294,0.12-0.594,0.293-0.9,0.52
						c-0.173,0.134-0.316,0.23-0.43,0.29c-0.113,0.061-0.237,0.09-0.37,0.09h-0.96c-0.12,0-0.227-0.043-0.32-0.13
						c-0.093-0.086-0.133-0.189-0.12-0.31l0.62-6.66c0.04-0.333,0.207-0.5,0.5-0.5h6.92c0.146,0,0.261,0.04,0.341,0.12
						c0.079,0.08,0.119,0.193,0.119,0.34v0.74c0,0.133-0.043,0.24-0.13,0.319c-0.087,0.08-0.196,0.12-0.33,0.12h-5.76l-0.359,4.021
						c0.64-0.453,1.5-0.68,2.579-0.68c0.894,0,1.707,0.177,2.44,0.529c0.733,0.354,1.316,0.87,1.75,1.55
						c0.434,0.681,0.65,1.487,0.65,2.421c0,0.986-0.217,1.836-0.65,2.55c-0.434,0.713-1.033,1.253-1.8,1.62
						c-0.767,0.366-1.644,0.55-2.63,0.55C894.973,431.746,894.105,431.565,893.372,431.206z"/>
					<path fill="#00B9D2" d="M903.303,431.416c-0.087-0.087-0.13-0.196-0.13-0.33v-1.38c0-0.133,0.043-0.247,0.13-0.34
						c0.086-0.094,0.196-0.141,0.33-0.141h1.38c0.133,0,0.243,0.047,0.33,0.141c0.086,0.093,0.13,0.207,0.13,0.34v1.38
						c0,0.134-0.044,0.243-0.13,0.33c-0.087,0.087-0.197,0.13-0.33,0.13h-1.38C903.499,431.546,903.389,431.503,903.303,431.416z"/>
					<path fill="#00B9D2" d="M909.942,431.096c-0.78-0.433-1.374-1.017-1.78-1.75s-0.609-1.533-0.609-2.399
						c0-1.146,0.46-2.373,1.38-3.681l3.819-5.319c0.014-0.014,0.051-0.061,0.11-0.141s0.137-0.143,0.229-0.189
						c0.094-0.047,0.2-0.07,0.32-0.07h0.98c0.12,0,0.216,0.043,0.29,0.13c0.073,0.087,0.109,0.19,0.109,0.311
						c0,0.066-0.033,0.153-0.1,0.26l-2.92,4.08c0.347-0.08,0.733-0.12,1.16-0.12c0.973,0,1.83,0.217,2.569,0.649
						c0.74,0.434,1.313,1.007,1.721,1.721c0.406,0.713,0.609,1.497,0.609,2.35c0,0.854-0.203,1.65-0.609,2.39
						c-0.407,0.74-0.997,1.33-1.771,1.771s-1.687,0.66-2.74,0.66C911.646,431.746,910.723,431.529,909.942,431.096z
						 M914.312,429.726c0.493-0.239,0.887-0.597,1.18-1.069c0.293-0.474,0.44-1.044,0.44-1.71c0-0.653-0.15-1.217-0.45-1.69
						c-0.3-0.473-0.697-0.833-1.19-1.08c-0.493-0.246-1.026-0.37-1.6-0.37s-1.107,0.124-1.601,0.37
						c-0.493,0.247-0.887,0.607-1.18,1.08c-0.293,0.474-0.439,1.037-0.439,1.69c0,0.666,0.146,1.236,0.439,1.71
						c0.293,0.473,0.687,0.83,1.18,1.069c0.493,0.24,1.027,0.36,1.601,0.36C913.279,430.086,913.818,429.966,914.312,429.726z"/>
					<path fill="#00B9D2" d="M920.663,431.416c-0.073-0.087-0.11-0.19-0.11-0.311l0.04-0.18l5-11.7h-6.6
						c-0.134,0-0.243-0.043-0.33-0.13c-0.087-0.086-0.13-0.196-0.13-0.33v-0.739c0-0.147,0.04-0.264,0.12-0.351
						s0.193-0.13,0.34-0.13h8.16c0.146,0,0.26,0.043,0.34,0.13s0.12,0.203,0.12,0.351v0.68c0,0.24-0.054,0.5-0.16,0.78l-4.94,11.56
						c-0.066,0.146-0.14,0.267-0.22,0.36c-0.08,0.093-0.193,0.14-0.34,0.14h-1C920.833,431.546,920.736,431.503,920.663,431.416z"/>
					<path fill="#00B9D2" d="M929.362,421.026c-0.06-0.08-0.077-0.181-0.05-0.301l0.439-2.8c0.054-0.387,0.24-0.58,0.561-0.58h1.28
						c0.093,0,0.17,0.033,0.229,0.101c0.061,0.066,0.09,0.146,0.09,0.239c0,0.134-0.02,0.24-0.06,0.32l-1.04,2.7
						c-0.067,0.146-0.141,0.257-0.22,0.33c-0.08,0.073-0.2,0.109-0.36,0.109h-0.62C929.506,421.146,929.422,421.105,929.362,421.026
						z M932.502,421.026c-0.06-0.08-0.076-0.181-0.05-0.301l0.44-2.8c0.053-0.387,0.24-0.58,0.56-0.58h1.28
						c0.093,0,0.17,0.033,0.229,0.101c0.061,0.066,0.091,0.146,0.091,0.239c0,0.134-0.021,0.24-0.061,0.32l-1.04,2.7
						c-0.066,0.146-0.14,0.257-0.22,0.33s-0.2,0.109-0.36,0.109h-0.62C932.646,421.146,932.562,421.105,932.502,421.026z"/>
					<path fill="#00B9D2" d="M895.353,453.216c-0.08-0.087-0.12-0.196-0.12-0.33v-11.28l-3.36,2.58c-0.093,0.08-0.193,0.12-0.3,0.12
						c-0.12,0-0.233-0.066-0.34-0.2l-0.48-0.62c-0.066-0.093-0.1-0.187-0.1-0.279c0-0.146,0.066-0.267,0.2-0.36l4.34-3.36
						c0.146-0.093,0.32-0.14,0.52-0.14h0.94c0.133,0,0.243,0.043,0.33,0.13s0.13,0.197,0.13,0.33v13.08
						c0,0.134-0.043,0.243-0.13,0.33s-0.197,0.13-0.33,0.13h-0.98C895.539,453.346,895.433,453.303,895.353,453.216z"/>
					<path fill="#00B9D2" d="M906.362,453.216c-0.087-0.087-0.13-0.196-0.13-0.33v-2.92h-6.5c-0.134,0-0.243-0.043-0.33-0.13
						s-0.13-0.197-0.13-0.33v-0.74c0-0.187,0.073-0.387,0.22-0.6l6.021-8.48c0.066-0.106,0.166-0.189,0.3-0.25
						c0.133-0.06,0.28-0.09,0.439-0.09h1.36c0.146,0,0.26,0.04,0.34,0.12s0.12,0.193,0.12,0.34v8.48h1.82
						c0.133,0,0.243,0.043,0.33,0.13c0.086,0.087,0.13,0.196,0.13,0.33v0.76c0,0.133-0.044,0.243-0.13,0.33
						c-0.087,0.087-0.197,0.13-0.33,0.13h-1.82v2.92c0,0.134-0.043,0.243-0.13,0.33s-0.197,0.13-0.33,0.13h-0.92
						C906.559,453.346,906.449,453.303,906.362,453.216z M901.353,448.326h4.899v-6.961L901.353,448.326z"/>
					<path fill="#00B9D2" d="M918.722,453.216c-0.087-0.087-0.13-0.196-0.13-0.33v-2.92h-6.5c-0.134,0-0.243-0.043-0.33-0.13
						s-0.13-0.197-0.13-0.33v-0.74c0-0.187,0.073-0.387,0.22-0.6l6.021-8.48c0.066-0.106,0.166-0.189,0.3-0.25
						c0.133-0.06,0.28-0.09,0.439-0.09h1.36c0.146,0,0.26,0.04,0.34,0.12s0.12,0.193,0.12,0.34v8.48h1.82
						c0.133,0,0.243,0.043,0.33,0.13c0.086,0.087,0.13,0.196,0.13,0.33v0.76c0,0.133-0.044,0.243-0.13,0.33
						c-0.087,0.087-0.197,0.13-0.33,0.13h-1.82v2.92c0,0.134-0.043,0.243-0.13,0.33s-0.197,0.13-0.33,0.13h-0.92
						C918.918,453.346,918.809,453.303,918.722,453.216z M913.712,448.326h4.899v-6.961L913.712,448.326z"/>
					<path fill="#00B9D2" d="M929.922,453.216c-0.087-0.087-0.13-0.196-0.13-0.33v-9.48c0-0.133,0.043-0.243,0.13-0.329
						c0.087-0.087,0.196-0.131,0.33-0.131h0.84c0.134,0,0.24,0.044,0.32,0.131c0.08,0.086,0.12,0.196,0.12,0.329v0.681
						c0.72-0.894,1.693-1.34,2.92-1.34c1.467,0,2.507,0.613,3.12,1.84c0.319-0.561,0.776-1.007,1.37-1.34
						c0.593-0.334,1.256-0.5,1.989-0.5c1.094,0,1.987,0.373,2.681,1.119c0.692,0.747,1.04,1.827,1.04,3.24v5.78
						c0,0.134-0.044,0.243-0.13,0.33c-0.087,0.087-0.197,0.13-0.33,0.13h-0.86c-0.134,0-0.243-0.043-0.33-0.13
						s-0.13-0.196-0.13-0.33v-5.6c0-1.067-0.22-1.83-0.66-2.29c-0.439-0.46-1.02-0.69-1.74-0.69c-0.64,0-1.189,0.237-1.649,0.71
						c-0.46,0.474-0.69,1.23-0.69,2.271v5.6c0,0.134-0.043,0.243-0.13,0.33s-0.197,0.13-0.33,0.13h-0.88
						c-0.134,0-0.243-0.043-0.33-0.13s-0.13-0.196-0.13-0.33v-5.6c0-1.054-0.23-1.813-0.69-2.28s-1.029-0.7-1.71-0.7
						c-0.64,0-1.189,0.233-1.649,0.7s-0.69,1.22-0.69,2.26v5.62c0,0.134-0.043,0.243-0.13,0.33s-0.197,0.13-0.33,0.13h-0.88
						C930.118,453.346,930.009,453.303,929.922,453.216z"/>
					<path fill="#00B9D2" d="M947.682,453.216c-0.087-0.087-0.13-0.196-0.13-0.33v-9.48c0-0.133,0.043-0.243,0.13-0.329
						c0.087-0.087,0.196-0.131,0.33-0.131h0.84c0.134,0,0.24,0.044,0.32,0.131c0.08,0.086,0.12,0.196,0.12,0.329v0.681
						c0.72-0.894,1.693-1.34,2.92-1.34c1.467,0,2.507,0.613,3.12,1.84c0.319-0.561,0.776-1.007,1.37-1.34
						c0.593-0.334,1.256-0.5,1.989-0.5c1.094,0,1.987,0.373,2.681,1.119c0.692,0.747,1.04,1.827,1.04,3.24v5.78
						c0,0.134-0.044,0.243-0.13,0.33c-0.087,0.087-0.197,0.13-0.33,0.13h-0.86c-0.134,0-0.243-0.043-0.33-0.13
						s-0.13-0.196-0.13-0.33v-5.6c0-1.067-0.22-1.83-0.66-2.29c-0.439-0.46-1.02-0.69-1.74-0.69c-0.64,0-1.189,0.237-1.649,0.71
						c-0.46,0.474-0.69,1.23-0.69,2.271v5.6c0,0.134-0.043,0.243-0.13,0.33s-0.197,0.13-0.33,0.13h-0.88
						c-0.134,0-0.243-0.043-0.33-0.13s-0.13-0.196-0.13-0.33v-5.6c0-1.054-0.23-1.813-0.69-2.28s-1.029-0.7-1.71-0.7
						c-0.64,0-1.189,0.233-1.649,0.7s-0.69,1.22-0.69,2.26v5.62c0,0.134-0.043,0.243-0.13,0.33s-0.197,0.13-0.33,0.13h-0.88
						C947.878,453.346,947.769,453.303,947.682,453.216z"/>
				</g>
			</g>
		</g>
		<g>
			<g id="POLYLINE_605_">
				
					<polyline fill="none" stroke="#00B9D2" stroke-width="2" stroke-linecap="round" stroke-linejoin="round" stroke-miterlimit="10" points="
					453.157,857.811 447.43,852.084 441.703,857.811 				"/>
			</g>
			<g id="POLYLINE_604_">
				
					<line fill="none" stroke="#00B9D2" stroke-width="2" stroke-linecap="round" stroke-linejoin="round" stroke-miterlimit="10" x1="447.43" y1="853" x2="447.43" y2="890.69"/>
			</g>
			<g id="POLYLINE_603_">
				
					<polyline fill="none" stroke="#00B9D2" stroke-width="2" stroke-linecap="round" stroke-linejoin="round" stroke-miterlimit="10" points="
					453.147,884.951 447.42,890.678 441.693,884.951 				"/>
			</g>
			<g id="MTEXT_23_" opacity="0.98">
				<g>
					<path fill="#00B9D2" d="M467.643,877.416c-0.087-0.087-0.13-0.196-0.13-0.33v-1.38c0-0.133,0.043-0.247,0.13-0.34
						c0.086-0.094,0.196-0.141,0.33-0.141h1.38c0.133,0,0.243,0.047,0.33,0.141c0.086,0.093,0.13,0.207,0.13,0.34v1.38
						c0,0.134-0.044,0.243-0.13,0.33c-0.087,0.087-0.197,0.13-0.33,0.13h-1.38C467.839,877.546,467.729,877.503,467.643,877.416z"/>
					<path fill="#00B9D2" d="M474.372,877.236c-0.76-0.341-1.337-0.783-1.729-1.33c-0.394-0.547-0.604-1.113-0.63-1.7
						c0-0.12,0.04-0.217,0.12-0.29c0.079-0.073,0.18-0.11,0.3-0.11h0.899c0.146,0,0.267,0.03,0.36,0.09
						c0.093,0.061,0.167,0.178,0.22,0.351c0.174,0.68,0.55,1.16,1.13,1.439c0.58,0.28,1.264,0.42,2.051,0.42
						c0.96,0,1.723-0.229,2.29-0.689c0.566-0.46,0.85-1.116,0.85-1.97c0-1.627-0.993-2.44-2.98-2.44h-1.88
						c-0.133,0-0.243-0.043-0.33-0.13s-0.13-0.196-0.13-0.33v-0.52c0-0.2,0.073-0.374,0.221-0.521l3.899-4.32h-5.92
						c-0.134,0-0.243-0.04-0.33-0.12c-0.087-0.079-0.13-0.187-0.13-0.319v-0.72c0-0.147,0.043-0.264,0.13-0.351
						s0.196-0.13,0.33-0.13h7.92c0.146,0,0.264,0.043,0.351,0.13c0.086,0.087,0.13,0.203,0.13,0.351v0.659
						c0,0.147-0.067,0.301-0.2,0.46l-3.9,4.381h0.32c1.36,0.039,2.437,0.393,3.229,1.06c0.794,0.667,1.19,1.64,1.19,2.92
						c0,0.88-0.217,1.637-0.65,2.271c-0.433,0.633-1.036,1.119-1.81,1.46c-0.773,0.34-1.646,0.51-2.62,0.51
						C476.032,877.746,475.133,877.576,474.372,877.236z"/>
					<path fill="#00B9D2" d="M484.223,877.416c-0.087-0.087-0.13-0.196-0.13-0.33v-0.6c0-0.307,0.166-0.601,0.5-0.881l4.359-4.34
						c0.986-0.84,1.667-1.526,2.04-2.06s0.561-1.101,0.561-1.7c0-0.786-0.221-1.403-0.66-1.85c-0.44-0.447-1.08-0.67-1.92-0.67
						c-0.801,0-1.434,0.233-1.9,0.699c-0.467,0.467-0.753,1.094-0.86,1.88c-0.026,0.147-0.093,0.261-0.199,0.341
						c-0.107,0.08-0.214,0.12-0.32,0.12h-0.96c-0.12,0-0.22-0.04-0.3-0.12s-0.12-0.174-0.12-0.28c0.026-0.707,0.217-1.39,0.569-2.05
						c0.354-0.66,0.877-1.2,1.57-1.62s1.533-0.63,2.521-0.63c1.493,0,2.616,0.39,3.37,1.17c0.753,0.78,1.13,1.77,1.13,2.97
						c0,0.84-0.204,1.597-0.61,2.271c-0.407,0.673-1.043,1.383-1.91,2.13l-3.939,4h6.3c0.146,0,0.26,0.04,0.34,0.12
						c0.08,0.079,0.12,0.193,0.12,0.34v0.76c0,0.134-0.044,0.243-0.13,0.33c-0.087,0.087-0.197,0.13-0.33,0.13h-8.76
						C484.419,877.546,484.309,877.503,484.223,877.416z"/>
					<path fill="#00B9D2" d="M496.002,867.026c-0.06-0.08-0.077-0.181-0.05-0.301l0.439-2.8c0.054-0.387,0.24-0.58,0.561-0.58h1.28
						c0.093,0,0.17,0.033,0.229,0.101c0.061,0.066,0.09,0.146,0.09,0.239c0,0.134-0.02,0.24-0.06,0.32l-1.04,2.7
						c-0.067,0.146-0.141,0.257-0.22,0.33c-0.08,0.073-0.2,0.109-0.36,0.109h-0.62C496.146,867.146,496.062,867.105,496.002,867.026
						z M499.142,867.026c-0.06-0.08-0.076-0.181-0.05-0.301l0.44-2.8c0.053-0.387,0.24-0.58,0.56-0.58h1.28
						c0.093,0,0.17,0.033,0.229,0.101c0.061,0.066,0.091,0.146,0.091,0.239c0,0.134-0.021,0.24-0.061,0.32l-1.04,2.7
						c-0.066,0.146-0.14,0.257-0.22,0.33s-0.2,0.109-0.36,0.109h-0.62C499.285,867.146,499.202,867.105,499.142,867.026z"/>
					<path fill="#00B9D2" d="M509.012,881.576c-0.08-0.087-0.12-0.197-0.12-0.33v-21.16c0-0.133,0.04-0.243,0.12-0.33
						s0.187-0.13,0.32-0.13h0.739c0.134,0,0.243,0.043,0.33,0.13s0.13,0.197,0.13,0.33v21.16c0,0.133-0.043,0.243-0.13,0.33
						c-0.087,0.086-0.196,0.13-0.33,0.13h-0.739C509.198,881.706,509.092,881.662,509.012,881.576z"/>
					<path fill="#00B9D2" d="M520.562,877.236c-0.793-0.341-1.41-0.83-1.85-1.471c-0.44-0.64-0.66-1.387-0.66-2.239
						c0-0.787,0.196-1.477,0.59-2.07s0.923-1.05,1.59-1.37c-0.533-0.307-0.946-0.71-1.24-1.21c-0.293-0.5-0.439-1.09-0.439-1.771
						c0-1.159,0.433-2.076,1.3-2.75c0.866-0.673,2.007-1.01,3.42-1.01s2.55,0.334,3.41,1c0.86,0.667,1.29,1.587,1.29,2.76
						c0,0.667-0.146,1.25-0.44,1.75c-0.293,0.5-0.699,0.91-1.22,1.23c0.667,0.32,1.196,0.776,1.59,1.37s0.59,1.29,0.59,2.09
						c0,0.854-0.22,1.597-0.659,2.23c-0.44,0.633-1.058,1.119-1.851,1.46c-0.793,0.34-1.696,0.51-2.71,0.51
						S521.354,877.576,520.562,877.236z M525.642,875.466c0.633-0.479,0.95-1.12,0.95-1.92s-0.317-1.44-0.95-1.92
						c-0.634-0.48-1.424-0.72-2.37-0.72c-0.96,0-1.757,0.239-2.39,0.72c-0.634,0.479-0.95,1.12-0.95,1.92s0.316,1.44,0.95,1.92
						c0.633,0.48,1.43,0.72,2.39,0.72C524.218,876.186,525.008,875.946,525.642,875.466z M525.332,868.746
						c0.56-0.4,0.84-0.934,0.84-1.601c0-0.68-0.277-1.223-0.83-1.63c-0.554-0.406-1.243-0.609-2.07-0.609
						c-0.84,0-1.533,0.203-2.08,0.609c-0.547,0.407-0.819,0.95-0.819,1.63c0,0.681,0.272,1.224,0.819,1.631
						c0.547,0.406,1.24,0.609,2.08,0.609C524.085,869.359,524.771,869.146,525.332,868.746z"/>
					<path fill="#00B9D2" d="M530.901,877.416c-0.087-0.087-0.13-0.196-0.13-0.33v-1.38c0-0.133,0.043-0.247,0.13-0.34
						c0.086-0.094,0.196-0.141,0.33-0.141h1.38c0.133,0,0.243,0.047,0.33,0.141c0.086,0.093,0.13,0.207,0.13,0.34v1.38
						c0,0.134-0.044,0.243-0.13,0.33c-0.087,0.087-0.197,0.13-0.33,0.13h-1.38C531.098,877.546,530.987,877.503,530.901,877.416z"/>
					<path fill="#00B9D2" d="M538.271,877.416c-0.08-0.087-0.12-0.196-0.12-0.33v-11.28l-3.36,2.58c-0.093,0.08-0.193,0.12-0.3,0.12
						c-0.12,0-0.233-0.066-0.34-0.2l-0.48-0.62c-0.066-0.093-0.1-0.187-0.1-0.279c0-0.146,0.066-0.267,0.2-0.36l4.34-3.36
						c0.146-0.093,0.32-0.14,0.52-0.14h0.94c0.133,0,0.243,0.043,0.33,0.13s0.13,0.197,0.13,0.33v13.08
						c0,0.134-0.043,0.243-0.13,0.33s-0.197,0.13-0.33,0.13h-0.98C538.458,877.546,538.352,877.503,538.271,877.416z"/>
					<path fill="#00B9D2" d="M548.121,877.416c-0.087-0.087-0.13-0.196-0.13-0.33v-9.48c0-0.133,0.043-0.243,0.13-0.329
						c0.087-0.087,0.196-0.131,0.33-0.131h0.84c0.134,0,0.24,0.044,0.32,0.131c0.08,0.086,0.12,0.196,0.12,0.329v0.681
						c0.72-0.894,1.693-1.34,2.92-1.34c1.467,0,2.507,0.613,3.12,1.84c0.319-0.561,0.776-1.007,1.37-1.34
						c0.593-0.334,1.256-0.5,1.989-0.5c1.094,0,1.987,0.373,2.681,1.119c0.692,0.747,1.04,1.827,1.04,3.24v5.78
						c0,0.134-0.044,0.243-0.13,0.33c-0.087,0.087-0.197,0.13-0.33,0.13h-0.86c-0.134,0-0.243-0.043-0.33-0.13
						s-0.13-0.196-0.13-0.33v-5.6c0-1.067-0.22-1.83-0.66-2.29c-0.439-0.46-1.02-0.69-1.74-0.69c-0.64,0-1.189,0.237-1.649,0.71
						c-0.46,0.474-0.69,1.23-0.69,2.271v5.6c0,0.134-0.043,0.243-0.13,0.33s-0.197,0.13-0.33,0.13h-0.88
						c-0.134,0-0.243-0.043-0.33-0.13s-0.13-0.196-0.13-0.33v-5.6c0-1.054-0.23-1.813-0.69-2.28s-1.029-0.7-1.71-0.7
						c-0.64,0-1.189,0.233-1.649,0.7s-0.69,1.22-0.69,2.26v5.62c0,0.134-0.043,0.243-0.13,0.33s-0.197,0.13-0.33,0.13h-0.88
						C548.317,877.546,548.208,877.503,548.121,877.416z"/>
					<path fill="#00B9D2" d="M565.88,877.416c-0.087-0.087-0.13-0.196-0.13-0.33v-9.48c0-0.133,0.043-0.243,0.13-0.329
						c0.087-0.087,0.196-0.131,0.33-0.131h0.84c0.134,0,0.24,0.044,0.32,0.131c0.08,0.086,0.12,0.196,0.12,0.329v0.681
						c0.72-0.894,1.693-1.34,2.92-1.34c1.467,0,2.507,0.613,3.12,1.84c0.319-0.561,0.776-1.007,1.37-1.34
						c0.593-0.334,1.256-0.5,1.989-0.5c1.094,0,1.987,0.373,2.681,1.119c0.692,0.747,1.04,1.827,1.04,3.24v5.78
						c0,0.134-0.044,0.243-0.13,0.33c-0.087,0.087-0.197,0.13-0.33,0.13h-0.86c-0.134,0-0.243-0.043-0.33-0.13
						s-0.13-0.196-0.13-0.33v-5.6c0-1.067-0.22-1.83-0.66-2.29c-0.439-0.46-1.02-0.69-1.74-0.69c-0.64,0-1.189,0.237-1.649,0.71
						c-0.46,0.474-0.69,1.23-0.69,2.271v5.6c0,0.134-0.043,0.243-0.13,0.33s-0.197,0.13-0.33,0.13h-0.88
						c-0.134,0-0.243-0.043-0.33-0.13s-0.13-0.196-0.13-0.33v-5.6c0-1.054-0.23-1.813-0.69-2.28s-1.029-0.7-1.71-0.7
						c-0.64,0-1.189,0.233-1.649,0.7s-0.69,1.22-0.69,2.26v5.62c0,0.134-0.043,0.243-0.13,0.33s-0.197,0.13-0.33,0.13h-0.88
						C566.076,877.546,565.967,877.503,565.88,877.416z"/>
				</g>
			</g>
		</g>
	</g>
</g>
<g id="N-TEXT">
</g>
<g id="AG-DIGITAL">
	<g id="POLYLINE_543_">
		
			<path fill="none" stroke="#00B9D2" stroke-width="2.75" stroke-linecap="round" stroke-linejoin="round" stroke-miterlimit="10" d="
			M427.463,236.737c0.482,0,2.243-0.244,2.479,0.068c0.107,0.142,0,0.789,0,0.96c0,1.619,0,3.237,0,4.856c0,6.014,0,12.029,0,18.043
			c0,7.666,0,15.332,0,22.998c0,6.728,0,13.457,0,20.185c0,2.246,0,4.491,0,6.737c0,0.695,0,1.39,0,2.086
			c0,0.242,0.122,0.894,0,1.108c-0.167,0.292-1.795,0.267-2.196,0.133c-0.393-0.131-0.246,0.04-0.283-0.419
			c-0.106-1.292,0-2.638,0-3.933c0-5.637,0-11.274,0-16.911c0-7.602,0-15.204,0-22.806c0-7.003,0-14.006,0-21.01
			c0-3.851,0-7.702,0-11.553C427.463,237.098,427.463,236.918,427.463,236.737z"/>
	</g>
	<g id="POLYLINE_542_">
		
			<path fill="none" stroke="#00B9D2" stroke-width="2.75" stroke-linecap="round" stroke-linejoin="round" stroke-miterlimit="10" d="
			M70.917,172.327c0.446,0,0.892,0,1.338,0c0.147,0,1.037-0.103,1.142,0.008c0.103,0.11,0,0.817,0,0.96c0,1.881,0,3.762,0,5.642
			c0,5.094,0,10.187,0,15.281c0,1.278,0,2.556,0,3.834c0-0.1-2.334,0.146-2.479-0.008c-0.103-0.11,0-0.817,0-0.96
			c0-1.881,0-3.762,0-5.642c0-5.094,0-10.187,0-15.281C70.917,174.883,70.917,173.605,70.917,172.327z"/>
	</g>
	<g id="POLYLINE_541_">
		
			<path fill="none" stroke="#00B9D2" stroke-width="2.75" stroke-linecap="round" stroke-linejoin="round" stroke-miterlimit="10" d="
			M70.917,221.056c0.393,0,2.256-0.255,2.479,0c0.047,0.053-0.012,0.294,0,0.363c0.151,0.847,0,1.864,0,2.722
			c0,3.737,0,7.475,0,11.212c0,9.189,0,18.379,0,27.568c0,1.459,0,2.917,0,4.376c0,0.387,0.234,1.753,0,2.081
			c-0.157,0.219-2.327,0.222-2.479,0c-0.239-0.349,0-1.718,0-2.126c0-8.26,0-16.519,0-24.779c0-7.018,0-14.036,0-21.055
			C70.917,221.298,70.917,221.177,70.917,221.056z"/>
	</g>
	<g id="POLYLINE_540_">
		
			<path fill="none" stroke="#00B9D2" stroke-width="2.75" stroke-linecap="round" stroke-linejoin="round" stroke-miterlimit="10" d="
			M70.917,281.86c0.393,0,2.256-0.255,2.479,0c0.047,0.053-0.012,0.294,0,0.363c0.151,0.847,0,1.864,0,2.722
			c0,3.737,0,7.475,0,11.212c0,9.189,0,18.379,0,27.568c0,1.459,0,2.917,0,4.376c0,0.387,0.234,1.753,0,2.081
			c-0.157,0.219-2.327,0.222-2.479,0c-0.239-0.349,0-1.718,0-2.126c0-8.26,0-16.519,0-24.779c0-7.018,0-14.036,0-21.055
			C70.917,282.102,70.917,281.981,70.917,281.86z"/>
	</g>
	<g id="POLYLINE_539_">
		
			<path fill="none" stroke="#00B9D2" stroke-width="2.75" stroke-linecap="round" stroke-linejoin="round" stroke-miterlimit="10" d="
			M371.336,787.855c7.754-0.043,15.442-1.607,22.548-4.729c6.932-3.045,13.224-7.492,18.402-13.016
			c5.145-5.489,9.157-12.007,11.749-19.069c2.277-6.204,3.414-12.782,3.428-19.388c0.003-1.358,0-2.717,0-4.075
			c0-3.281,0-6.563,0-9.844c0-5.026,0-10.053,0-15.079c0-6.592,0-13.184,0-19.776c0-7.978,0-15.956,0-23.934
			c0-9.236,0-18.472,0-27.707c0-10.217,0-20.433,0-30.65c0-11.063,0-22.126,0-33.189c0-11.73,0-23.46,0-35.191
			c0-12.283,0-24.566,0-36.849c0-12.527,0-25.054,0-37.581c0-12.654,0-25.309,0-37.963c0-12.602,0-25.205,0-37.807
			c0-12.371,0-24.742,0-37.113c0-12.022,0-24.043,0-36.065c0-11.366,0-22.732,0-34.098c0-10.595,0-21.19,0-31.785
			c0-9.644,0-19.289,0-28.933c0-8.556,0-17.112,0-25.668c0-7.197,0-14.395,0-21.592c0-5.707,0-11.415,0-17.122
			c0-4.038,0-8.076,0-12.114c0-2.189,0-4.378,0-6.567c0-3.805-0.254-7.588-0.95-11.336c-1.353-7.284-4.172-14.279-8.228-20.477
			c-4.21-6.433-9.758-11.981-16.191-16.191c-6.198-4.056-13.193-6.875-20.477-8.228c-4.257-0.791-8.529-0.95-12.841-0.95
			c-5.031,0-10.063,0-15.094,0c-8.582,0-17.164,0-25.746,0c-11.021,0-22.043,0-33.064,0c-12.349,0-24.699,0-37.048,0
			c-12.631,0-25.261,0-37.892,0c-11.663,0-23.326,0-34.989,0c-9.651,0-19.302,0-28.952,0c-6.527,0-13.054,0-19.581,0
			c-2.636,0-5.276-0.038-7.912,0.01c-7.648,0.14-15.248,1.859-22.211,5.026c-6.932,3.153-13.21,7.727-18.324,13.371
			c-5.037,5.558-8.929,12.102-11.414,19.178c-2.104,5.99-3.139,12.311-3.152,18.656c-0.003,1.433,0,2.866,0,4.299
			c0,3.349,0,6.697,0,10.046c0,5.087,0,10.174,0,15.262c0,6.646,0,13.292,0,19.939c0,8.071,0,16.143,0,24.214
			c0,9.231,0,18.463,0,27.694c0,10.251,0,20.502,0,30.753c0,11.091,0,22.182,0,33.273c0,11.783,0,23.566,0,35.349
			c0,12.266,0,24.532,0,36.798c0,12.535,0,25.07,0,37.604c0,12.656,0,25.311,0,37.967c0,12.597,0,25.194,0,37.792
			c0,12.423,0,24.846,0,37.269c0,11.939,0,23.878,0,35.816c0,11.341,0,22.681,0,34.022c0,10.563,0,21.126,0,31.689
			c0,9.63,0,19.26,0,28.889c0,8.487,0,16.973,0,25.46c0,7.146,0,14.292,0,21.437c0,5.649,0,11.298,0,16.947
			c0,3.973,0,7.946,0,11.919c0,2.123,0,4.247,0,6.37c0,4.1,0.32,8.174,1.148,12.196c1.483,7.204,4.385,14.085,8.504,20.179
			c4.291,6.348,9.9,11.79,16.366,15.9c6.286,3.996,13.355,6.709,20.696,7.964c4.084,0.698,8.177,0.796,12.302,0.796
			c5.182,0,10.364,0,15.546,0c8.692,0,17.383,0,26.075,0c11.09,0,22.18,0,33.27,0c12.444,0,24.887,0,37.331,0
			c12.551,0,25.101,0,37.652,0c11.609,0,23.217,0,34.826,0c9.555,0,19.111,0,28.666,0c6.402,0,12.805,0,19.207,0
			C367.102,787.855,369.219,787.855,371.336,787.855z"/>
	</g>
	<g id="POLYLINE_538_">
		
			<path fill="none" stroke="#00B9D2" stroke-width="2.75" stroke-linecap="round" stroke-linejoin="round" stroke-miterlimit="10" d="
			M312.881,123.115c-3.978,0-7.955,0-11.933,0c-9.548,0-19.096,0-28.644,0c-11.726,0-23.452,0-35.179,0c-10.43,0-20.86,0-31.289,0
			c-5.673,0-11.346,0-17.02,0c-5.363,0-10.935-0.685-15.394-3.931c-2.804-2.041-4.808-4.934-6.013-8.166
			c-0.568-1.524-0.969-3.108-1.243-4.71c-0.211-1.228-0.277-2.484-0.731-3.657c-0.626-1.62-1.895-2.712-3.645-2.893
			c-2.869-0.295-5.883-0.03-8.76-0.03c-5.661,0-11.323,0-16.984,0c-2.92,0-5.884-0.134-8.8,0.087
			c-7.412,0.561-14.479,3.918-19.598,9.309c-5.091,5.362-8.074,12.545-8.279,19.935c-0.031,1.12-0.012,2.243-0.012,3.364
			c0,2.57,0,5.14,0,7.711c0,4.18,0,8.36,0,12.54c0,5.595,0,11.189,0,16.784c0,6.881,0,13.762,0,20.643c0,8.067,0,16.135,0,24.202
			c0,9.016,0,18.031,0,27.047c0,9.858,0,19.716,0,29.574c0,10.614,0,21.228,0,31.842c0,11.103,0,22.206,0,33.309
			c0,11.535,0,23.069,0,34.604c0,11.787,0,23.574,0,35.361c0,11.857,0,23.714,0,35.571c0,11.878,0,23.756,0,35.634
			c0,11.618,0,23.237,0,34.855c0,11.277,0,22.555,0,33.832c0,10.848,0,21.696,0,32.544c0,10.149,0,20.298,0,30.447
			c0,9.39,0,18.779,0,28.169c0,8.452,0,16.904,0,25.356c0,7.346,0,14.693,0,22.039c0,6.149,0,12.297,0,18.446
			c0,4.734,0,9.468,0,14.203c0,3.21,0,6.42,0,9.63c0,1.542-0.001,3.084,0,4.626c0.005,4.778,1.022,9.476,3.154,13.766
			c3.415,6.871,9.447,12.269,16.653,14.904c3.909,1.43,7.928,1.836,12.051,1.836c4.162,0,8.323,0,12.485,0
			c7.497,0,14.994,0,22.491,0c9.83,0,19.66,0,29.491,0c11.283,0,22.566,0,33.85,0c11.888,0,23.777,0,35.665,0
			c11.443,0,22.886,0,34.328,0c10.149,0,20.298,0,30.447,0c7.978,0,15.956,0,23.934,0c4.8,0,9.599,0,14.399,0
			c3.286,0,6.518-0.019,9.752-0.758c7.434-1.698,14.065-6.251,18.319-12.58c3.358-4.995,5.112-10.906,5.131-16.915
			c0.004-1.234,0-2.468,0-3.702c0-2.93,0-5.859,0-8.789c0-4.479,0-8.959,0-13.438c0-5.918,0-11.837,0-17.755
			c0-7.143,0-14.286,0-21.429c0-8.274,0-16.548,0-24.821c0-9.237,0-18.475,0-27.712c0-10.023,0-20.046,0-30.069
			c0-10.747,0-21.494,0-32.242c0-11.203,0-22.406,0-33.609c0-11.57,0-23.139,0-34.709c0-11.855,0-23.71,0-35.565
			c0-11.86,0-23.72,0-35.579c0-11.816,0-23.631,0-35.447c0-11.589,0-23.178,0-34.767c0-11.183,0-22.366,0-33.549
			c0-10.72,0-21.441,0-32.161c0-9.99,0-19.98,0-29.969c0-9.173,0-18.346,0-27.519c0-8.252,0-16.503,0-24.755
			c0-7.09,0-14.18,0-21.269c0-5.829,0-11.659,0-17.488c0-4.442,0-8.884,0-13.326c0-2.856,0-5.713,0-8.569
			c0-1.153,0.005-2.306,0-3.459c-0.026-6.358-2.006-12.592-5.739-17.75c-4.438-6.131-11.165-10.432-18.589-11.897
			c-2.673-0.527-5.347-0.571-8.057-0.571c-5.134,0-10.268,0-15.401,0c-4.446,0-8.892,0-13.339,0c-1.52,0-2.986,0.163-4.052,1.379
			c-1.506,1.718-1.405,4.246-1.853,6.353c-0.727,3.423-2.111,6.751-4.457,9.387C325.696,121.704,319.114,123.069,312.881,123.115z"
			/>
	</g>
	<g id="POLYLINE_537_">
		
			<path fill="none" stroke="#00B9D2" stroke-width="2.75" stroke-linecap="round" stroke-linejoin="round" stroke-miterlimit="10" d="
			M646.431,219.87c-0.002-2.438-1.573-4.673-3.87-5.495c-2.295-0.822-4.931-0.093-6.478,1.791c-1.547,1.884-1.749,4.611-0.497,6.702
			c1.252,2.092,3.751,3.201,6.143,2.727c2.383-0.473,4.264-2.439,4.633-4.84C646.409,220.463,646.431,220.167,646.431,219.87z"/>
	</g>
	<g id="POLYLINE_536_">
		
			<path fill="none" stroke="#00B9D2" stroke-width="2.75" stroke-linecap="round" stroke-linejoin="round" stroke-miterlimit="10" d="
			M653.612,118.03c-0.01-5.439-3.505-10.42-8.63-12.255c-5.119-1.832-10.996-0.208-14.447,3.994
			c-3.451,4.203-3.899,10.282-1.107,14.948c2.792,4.665,8.368,7.139,13.7,6.081c5.311-1.054,9.514-5.44,10.334-10.794
			C653.517,119.639,653.836,118.33,653.612,118.03z"/>
	</g>
	<g id="POLYLINE_535_">
		
			<path fill="none" stroke="#00B9D2" stroke-width="2.75" stroke-linecap="round" stroke-linejoin="round" stroke-miterlimit="10" d="
			M621.93,192.431c4.993,3.787,10.992,6.049,17.267,6.336c6.272,0.287,12.569-1.401,17.857-4.785
			c5.287-3.384,9.46-8.397,11.823-14.212c2.351-5.785,2.874-12.246,1.476-18.333c-1.397-6.087-4.685-11.673-9.323-15.854
			c-4.663-4.203-10.604-6.894-16.837-7.634c-6.235-0.74-12.638,0.487-18.157,3.481c-5.488,2.977-9.993,7.642-12.775,13.232
			c-2.783,5.59-3.789,11.996-2.856,18.17c0.938,6.208,3.819,12.057,8.168,16.585C619.618,190.503,620.745,191.499,621.93,192.431z"
			/>
	</g>
	<g id="POLYLINE_465_">
		
			<path fill="none" stroke="#00B9D2" stroke-width="2.75" stroke-linecap="round" stroke-linejoin="round" stroke-miterlimit="10" d="
			M575.349,95.415c-3.63,0.007-7.25,0.56-10.71,1.658c-3.543,1.125-6.905,2.806-9.926,4.972c-3.122,2.238-5.873,4.982-8.118,8.1
			c-2.172,3.018-3.864,6.376-4.996,9.918c-1.108,3.469-1.663,7.09-1.681,10.73c-0.018,3.596,0,7.192,0,10.787
			c0,6.368,0,12.735,0,19.103c0,2.671,0,5.342,0,8.013c0,4.678,0,9.357,0,14.035c0,6.107,0,12.214,0,18.321
			c0,2.973-0.096,5.961,0.274,8.918c0.445,3.554,1.432,7.041,2.919,10.3c1.568,3.436,3.685,6.619,6.255,9.388
			c2.592,2.794,5.634,5.168,8.979,6.996c3.188,1.742,6.642,2.994,10.209,3.689c3.011,0.587,6.024,0.658,9.079,0.658
			c5.909,0,11.819,0,17.728,0c3.566,0,7.132,0,10.698,0c4.391,0,8.781,0,13.172,0c5.944,0,11.888,0,17.832,0
			c2.973,0,5.925,0.02,8.871-0.46c3.559-0.58,7.027-1.703,10.247-3.327c3.408-1.718,6.535-3.986,9.222-6.697
			c2.667-2.691,4.899-5.808,6.581-9.203c1.61-3.248,2.718-6.739,3.273-10.322c0.449-2.899,0.418-5.804,0.418-8.726
			c0-5.855,0-11.71,0-17.566c0-5.127,0-10.254,0-15.38c0-2.354,0-4.708,0-7.062c0-6.271,0-12.542,0-18.813
			c0-4.158,0.009-8.316,0-12.474c-0.007-3.34-0.448-6.661-1.368-9.874c-1.021-3.566-2.605-6.971-4.679-10.047
			c-2.132-3.162-4.773-5.977-7.798-8.299c-2.972-2.281-6.304-4.091-9.839-5.331c-3.364-1.18-6.899-1.849-10.462-1.981
			c-3.655-0.135-7.331-0.024-10.988-0.024c-6.263,0-12.526,0-18.789,0c-2.508,0-5.017,0-7.525,0c-5.716,0-11.432,0-17.148,0
			C586.402,95.415,575.349,95.415,575.349,95.415z"/>
	</g>
	<g id="POLYLINE_419_">
		
			<path fill="none" stroke="#00B9D2" stroke-width="2.75" stroke-linecap="round" stroke-linejoin="round" stroke-miterlimit="10" d="
			M556.684,229.736c4.993,3.787,10.992,6.049,17.267,6.336c6.272,0.287,12.569-1.401,17.857-4.785
			c5.287-3.384,9.46-8.397,11.823-14.212c2.351-5.785,2.874-12.246,1.476-18.333c-1.397-6.087-4.685-11.673-9.323-15.854
			c-4.663-4.203-10.604-6.894-16.837-7.634c-6.235-0.74-12.638,0.487-18.156,3.481c-5.488,2.977-9.993,7.642-12.775,13.232
			c-2.783,5.59-3.789,11.996-2.856,18.17c0.938,6.208,3.819,12.057,8.168,16.585c0.512,0.533,1.043,1.047,1.592,1.542
			C555.238,228.549,556.269,229.736,556.684,229.736z"/>
	</g>
	<g id="POLYLINE_418_">
		
			<path fill="none" stroke="#00B9D2" stroke-width="2.75" stroke-linecap="round" stroke-linejoin="round" stroke-miterlimit="10" d="
			M556.684,155.01c4.993,3.787,10.992,6.049,17.267,6.336c6.272,0.287,12.569-1.401,17.857-4.785
			c5.287-3.384,9.46-8.397,11.823-14.212c2.351-5.785,2.874-12.246,1.476-18.333s-4.685-11.673-9.323-15.854
			c-4.663-4.203-10.604-6.894-16.837-7.634c-6.235-0.74-12.638,0.487-18.156,3.481c-5.488,2.977-9.993,7.642-12.775,13.232
			c-2.783,5.59-3.789,11.996-2.856,18.17c0.938,6.208,3.819,12.057,8.168,16.585C553.594,152.272,556.688,155.002,556.684,155.01z"
			/>
	</g>
	<g id="POLYLINE_417_">
		
			<path fill="none" stroke="#00B9D2" stroke-width="2.75" stroke-linecap="round" stroke-linejoin="round" stroke-miterlimit="10" d="
			M574.4,787.855c-7.754-0.043-15.442-1.607-22.548-4.729c-6.932-3.045-13.224-7.492-18.402-13.016
			c-5.145-5.489-9.157-12.007-11.749-19.069c-2.277-6.204-3.414-12.782-3.428-19.388c-0.003-1.358,0-2.717,0-4.075
			c0-3.281,0-6.563,0-9.844c0-5.026,0-10.053,0-15.079c0-6.592,0-13.184,0-19.776c0-7.978,0-15.956,0-23.934
			c0-9.236,0-18.472,0-27.707c0-10.217,0-20.433,0-30.65c0-11.063,0-22.126,0-33.189c0-11.73,0-23.46,0-35.191
			c0-12.283,0-24.566,0-36.849c0-12.527,0-25.054,0-37.581c0-12.654,0-25.309,0-37.963c0-12.602,0-25.205,0-37.807
			c0-12.371,0-24.742,0-37.113c0-12.022,0-24.043,0-36.065c0-11.366,0-22.732,0-34.098c0-10.595,0-21.19,0-31.785
			c0-9.644,0-19.289,0-28.933c0-8.556,0-17.112,0-25.668c0-7.197,0-14.395,0-21.592c0-5.707,0-11.415,0-17.122
			c0-4.038,0-8.076,0-12.114c0-2.189,0-4.378,0-6.567c0-3.805,0.254-7.588,0.95-11.336c1.353-7.284,4.172-14.279,8.228-20.477
			c4.21-6.433,9.758-11.981,16.191-16.191c6.198-4.056,13.193-6.875,20.477-8.228c4.257-0.791,8.529-0.95,12.841-0.95
			c5.031,0,10.063,0,15.094,0c8.582,0,17.164,0,25.746,0c11.021,0,22.043,0,33.064,0c12.349,0,24.699,0,37.048,0
			c12.63,0,25.261,0,37.892,0c11.663,0,23.326,0,34.989,0c9.651,0,19.302,0,28.952,0c6.527,0,13.054,0,19.581,0
			c2.636,0,5.276-0.038,7.912,0.01c7.648,0.14,15.248,1.859,22.211,5.026c6.932,3.153,13.21,7.727,18.324,13.371
			c5.037,5.558,8.929,12.102,11.414,19.178c2.104,5.99,3.139,12.311,3.152,18.656c0.003,1.433,0,2.866,0,4.299
			c0,3.349,0,6.697,0,10.046c0,5.087,0,10.174,0,15.262c0,6.646,0,13.292,0,19.939c0,8.071,0,16.143,0,24.214
			c0,9.231,0,18.463,0,27.694c0,10.251,0,20.502,0,30.753c0,11.091,0,22.182,0,33.273c0,11.783,0,23.566,0,35.349
			c0,12.266,0,24.532,0,36.798c0,12.535,0,25.07,0,37.604c0,12.656,0,25.311,0,37.967c0,12.597,0,25.194,0,37.792
			c0,12.423,0,24.846,0,37.269c0,11.939,0,23.878,0,35.816c0,11.341,0,22.681,0,34.022c0,10.563,0,21.126,0,31.689
			c0,9.63,0,19.26,0,28.889c0,8.487,0,16.973,0,25.46c0,7.146,0,14.292,0,21.437c0,5.649,0,11.298,0,16.947
			c0,3.973,0,7.946,0,11.919c0,2.123,0,4.247,0,6.37c0,4.1-0.32,8.174-1.148,12.196c-1.483,7.204-4.385,14.085-8.504,20.179
			c-4.291,6.348-9.9,11.79-16.366,15.9c-6.286,3.996-13.355,6.709-20.696,7.964c-4.084,0.698-8.177,0.796-12.302,0.796
			c-5.182,0-10.364,0-15.546,0c-8.692,0-17.383,0-26.075,0c-11.09,0-22.18,0-33.27,0c-12.444,0-24.887,0-37.331,0
			c-12.55,0-25.101,0-37.652,0c-11.609,0-23.217,0-34.826,0c-9.555,0-19.111,0-28.666,0c-6.402,0-12.805,0-19.207,0
			C578.635,787.855,576.518,787.855,574.4,787.855z"/>
	</g>
	<g id="POLYLINE_416_">
		
			<path fill="none" stroke="#00B9D2" stroke-width="2.75" stroke-linecap="round" stroke-linejoin="round" stroke-miterlimit="10" d="
			M874.82,281.86c-0.393,0-2.256-0.255-2.479,0c-0.047,0.053,0.012,0.294,0,0.363c-0.151,0.847,0,1.864,0,2.722
			c0,3.737,0,7.475,0,11.212c0,9.189,0,18.379,0,27.568c0,1.459,0,2.917,0,4.376c0,0.387-0.234,1.753,0,2.081
			c0.156,0.219,2.327,0.222,2.479,0c0.239-0.349,0-1.718,0-2.126c0-8.26,0-16.519,0-24.779c0-7.018,0-14.036,0-21.055
			C874.82,282.102,874.82,281.981,874.82,281.86z"/>
	</g>
	<g id="POLYLINE_415_">
		
			<path fill="none" stroke="#00B9D2" stroke-width="2.75" stroke-linecap="round" stroke-linejoin="round" stroke-miterlimit="10" d="
			M874.82,221.056c-0.393,0-2.256-0.255-2.479,0c-0.047,0.053,0.012,0.294,0,0.363c-0.151,0.847,0,1.864,0,2.722
			c0,3.737,0,7.475,0,11.212c0,9.189,0,18.379,0,27.568c0,1.459,0,2.917,0,4.376c0,0.387-0.234,1.753,0,2.081
			c0.156,0.219,2.327,0.222,2.479,0c0.239-0.349,0-1.718,0-2.126c0-8.26,0-16.519,0-24.779c0-7.018,0-14.036,0-21.055
			C874.82,221.298,874.82,221.177,874.82,221.056z"/>
	</g>
	<g id="POLYLINE_414_">
		
			<path fill="none" stroke="#00B9D2" stroke-width="2.75" stroke-linecap="round" stroke-linejoin="round" stroke-miterlimit="10" d="
			M874.82,172.327c-0.446,0-0.892,0-1.337,0c-0.147,0-1.037-0.103-1.142,0.008c-0.103,0.11,0,0.817,0,0.96c0,1.881,0,3.762,0,5.642
			c0,5.094,0,10.187,0,15.281c0,1.278,0,2.556,0,3.834c0-0.1,2.334,0.146,2.479-0.008c0.103-0.11,0-0.817,0-0.96
			c0-1.881,0-3.762,0-5.642c0-5.094,0-10.187,0-15.281C874.82,174.883,874.82,173.605,874.82,172.327z"/>
	</g>
	<g id="POLYLINE_413_">
		
			<path fill="none" stroke="#00B9D2" stroke-width="2.75" stroke-linecap="round" stroke-linejoin="round" stroke-miterlimit="10" d="
			M518.273,236.737c-0.482,0-2.243-0.244-2.479,0.068c-0.107,0.142,0,0.789,0,0.96c0,1.619,0,3.237,0,4.856
			c0,6.014,0,12.029,0,18.043c0,7.666,0,15.332,0,22.998c0,6.728,0,13.457,0,20.185c0,2.246,0,4.491,0,6.737c0,0.695,0,1.39,0,2.086
			c0,0.242-0.122,0.894,0,1.108c0.167,0.292,1.795,0.267,2.196,0.133c0.393-0.131,0.246,0.04,0.283-0.419
			c0.106-1.292,0-2.638,0-3.933c0-5.637,0-11.274,0-16.911c0-7.602,0-15.204,0-22.806c0-7.003,0-14.006,0-21.01
			c0-3.851,0-7.702,0-11.553C518.273,237.098,518.273,236.918,518.273,236.737z"/>
	</g>
	<g id="POLYLINE_412_">
		
			<path fill="none" stroke="#00B9D2" stroke-width="2.75" stroke-linecap="round" stroke-linejoin="round" stroke-miterlimit="10" d="
			M287.352,874.796c-3.414-0.002-5-4.426-2.36-6.594c2.639-2.167,6.673,0.248,6.008,3.598
			C290.659,873.52,289.106,874.796,287.352,874.796z"/>
	</g>
	<g id="POLYLINE_411_">
		
			<path fill="none" stroke="#00B9D2" stroke-width="2.75" stroke-linecap="round" stroke-linejoin="round" stroke-miterlimit="10" d="
			M313.115,874.359c-3.013-0.001-4.412-3.906-2.083-5.818c2.329-1.912,5.888,0.219,5.302,3.175
			C316.033,873.234,314.662,874.358,313.115,874.359z"/>
	</g>
	<g id="POLYLINE_410_">
		
			<path fill="none" stroke="#00B9D2" stroke-width="2.75" stroke-linecap="round" stroke-linejoin="round" stroke-miterlimit="10" d="
			M324.521,874.359c-3.013-0.001-4.412-3.906-2.083-5.818c2.329-1.912,5.888,0.219,5.302,3.175
			C327.439,873.233,326.068,874.359,324.521,874.359z"/>
	</g>
	<g id="POLYLINE_409_">
		
			<path fill="none" stroke="#00B9D2" stroke-width="2.75" stroke-linecap="round" stroke-linejoin="round" stroke-miterlimit="10" d="
			M335.926,874.359c-3.013-0.001-4.412-3.906-2.083-5.818c2.329-1.912,5.888,0.219,5.302,3.175
			C338.844,873.233,337.473,874.359,335.926,874.359z"/>
	</g>
	<g id="POLYLINE_408_">
		
			<path fill="none" stroke="#00B9D2" stroke-width="2.75" stroke-linecap="round" stroke-linejoin="round" stroke-miterlimit="10" d="
			M347.332,874.359c-3.013-0.001-4.412-3.906-2.083-5.818c2.329-1.912,5.888,0.219,5.302,3.175
			C350.25,873.233,348.879,874.359,347.332,874.359z"/>
	</g>
	<g id="POLYLINE_407_">
		
			<path fill="none" stroke="#00B9D2" stroke-width="2.75" stroke-linecap="round" stroke-linejoin="round" stroke-miterlimit="10" d="
			M358.737,874.359c-3.013-0.001-4.412-3.906-2.083-5.818c2.329-1.912,5.888,0.219,5.302,3.175
			C361.655,873.234,360.285,874.358,358.737,874.359z"/>
	</g>
	<g id="POLYLINE_406_">
		
			<path fill="none" stroke="#00B9D2" stroke-width="2.75" stroke-linecap="round" stroke-linejoin="round" stroke-miterlimit="10" d="
			M370.143,874.359c-3.013-0.001-4.412-3.906-2.083-5.818c2.329-1.912,5.888,0.219,5.302,3.175
			C373.061,873.233,371.69,874.359,370.143,874.359z"/>
	</g>
	<g id="POLYLINE_405_">
		
			<path fill="none" stroke="#00B9D2" stroke-width="2.75" stroke-linecap="round" stroke-linejoin="round" stroke-miterlimit="10" d="
			M173.565,874.359c3.013-0.001,4.412-3.906,2.083-5.818c-2.329-1.912-5.888,0.219-5.302,3.175
			C170.647,873.234,172.018,874.358,173.565,874.359z"/>
	</g>
	<g id="POLYLINE_403_">
		
			<path fill="none" stroke="#00B9D2" stroke-width="2.75" stroke-linecap="round" stroke-linejoin="round" stroke-miterlimit="10" d="
			M184.971,874.359c3.013-0.001,4.412-3.906,2.083-5.818c-2.329-1.912-5.888,0.219-5.302,3.175
			C182.053,873.234,183.424,874.358,184.971,874.359z"/>
	</g>
	<g id="POLYLINE_402_">
		
			<path fill="none" stroke="#00B9D2" stroke-width="2.75" stroke-linecap="round" stroke-linejoin="round" stroke-miterlimit="10" d="
			M196.377,874.359c3.013-0.001,4.412-3.906,2.083-5.818c-2.329-1.912-5.888,0.219-5.302,3.175
			C193.458,873.233,194.829,874.359,196.377,874.359z"/>
	</g>
	<g id="POLYLINE_401_">
		
			<path fill="none" stroke="#00B9D2" stroke-width="2.75" stroke-linecap="round" stroke-linejoin="round" stroke-miterlimit="10" d="
			M222.14,874.796c3.414-0.002,5-4.426,2.36-6.594c-2.639-2.167-6.673,0.248-6.008,3.598
			C218.833,873.52,220.386,874.796,222.14,874.796z"/>
	</g>
	<g id="POLYLINE_400_">
		
			<path fill="none" stroke="#00B9D2" stroke-width="2.75" stroke-linecap="round" stroke-linejoin="round" stroke-miterlimit="10" d="
			M240.365,878.284c-1.638-0.001-3.204-0.835-4.117-2.195c-0.909-1.354-1.091-3.11-0.48-4.622c0.613-1.518,1.975-2.658,3.578-2.995
			c0.9-0.189,1.866-0.106,2.778-0.106c2.956,0,5.912,0,8.867,0c5.93,0,11.86-0.016,17.79,0c1.579,0.004,3.042,0.492,4.101,1.719
			c1.065,1.235,1.458,2.956,1.034,4.53c-0.426,1.581-1.64,2.877-3.191,3.404c-0.72,0.245-1.444,0.264-2.195,0.264
			c-2.466,0-4.932,0-7.398,0c-6.496,0-12.991,0-19.487,0C241.218,878.284,240.792,878.284,240.365,878.284z"/>
	</g>
	<g id="POLYLINE_393_">
		
			<path fill="none" stroke="#00B9D2" stroke-width="2.75" stroke-linecap="round" stroke-linejoin="round" stroke-miterlimit="10" d="
			M93.48,851.497c-5.825,0.007-11.471,2.598-15.26,7.026c-3.7,4.324-5.41,10.145-4.638,15.782c0.807,5.893,4.281,11.233,9.341,14.36
			c3.308,2.044,7.073,2.996,10.942,2.998c1.765,0.001,3.531,0,5.296,0c3.63,0,7.26,0,10.889,0c5.23,0,10.461,0,15.691,0
			c6.567,0,13.135,0,19.702,0c7.64,0,15.281,0,22.921,0c8.45,0,16.899,0,25.349,0c8.995,0,17.99,0,26.985,0
			c9.277,0,18.554,0,27.831,0c9.295,0,18.589,0,27.884,0c9.049,0,18.098,0,27.147,0c8.539,0,17.078,0,25.617,0
			c7.766,0,15.531,0,23.297,0c6.728,0,13.457,0,20.185,0c5.427,0,10.855,0,16.282,0c3.862,0,7.725,0,11.587,0
			c2.034,0,4.068,0,6.102,0c3.158,0,6.227-0.502,9.12-1.828c5.458-2.503,9.585-7.441,11.079-13.256
			c1.399-5.445,0.415-11.347-2.677-16.043c-3.261-4.952-8.675-8.269-14.568-8.918c-1.52-0.168-3.06-0.122-4.588-0.122
			c-2.764,0-5.528,0-8.291,0c-4.492,0-8.983,0-13.475,0c-5.956,0-11.911,0-17.867,0c-7.156,0-14.312,0-21.468,0
			c-8.092,0-16.185,0-24.277,0c-8.765,0-17.53,0-26.295,0c-9.141,0-18.282,0-27.422,0c-9.319,0-18.638,0-27.957,0
			c-9.201,0-18.402,0-27.604,0c-8.82,0-17.639,0-26.459,0c-8.174,0-16.349,0-24.523,0c-7.265,0-14.53,0-21.796,0
			c-6.092,0-12.184,0-18.277,0c-4.656,0-9.311,0-13.967,0c-2.955,0-5.91,0-8.865,0C96.223,851.497,93.583,851.703,93.48,851.497z"/>
	</g>
</g>
<g id="AG-OUTLINE">
	<g id="POLYLINE_392_">
		
			<path fill="none" stroke="#00B9D2" stroke-width="3.5" stroke-linecap="round" stroke-linejoin="round" stroke-miterlimit="10" d="
			M93.48,851.497c-5.825,0.007-11.471,2.598-15.26,7.026c-3.7,4.324-5.41,10.145-4.638,15.782c0.807,5.893,4.281,11.233,9.341,14.36
			c3.308,2.044,7.073,2.996,10.942,2.998c1.765,0.001,3.531,0,5.296,0c3.63,0,7.26,0,10.889,0c5.23,0,10.461,0,15.691,0
			c6.567,0,13.135,0,19.702,0c7.64,0,15.281,0,22.921,0c8.45,0,16.899,0,25.349,0c8.995,0,17.99,0,26.985,0
			c9.277,0,18.554,0,27.831,0c9.295,0,18.589,0,27.884,0c9.049,0,18.098,0,27.147,0c8.539,0,17.078,0,25.617,0
			c7.766,0,15.531,0,23.297,0c6.728,0,13.457,0,20.185,0c5.427,0,10.855,0,16.282,0c3.862,0,7.725,0,11.587,0
			c2.034,0,4.068,0,6.102,0c3.158,0,6.227-0.502,9.12-1.828c5.458-2.503,9.585-7.441,11.079-13.256
			c1.399-5.445,0.415-11.347-2.677-16.043c-3.261-4.952-8.675-8.269-14.568-8.918c-1.52-0.168-3.06-0.122-4.588-0.122
			c-2.764,0-5.528,0-8.291,0c-4.492,0-8.983,0-13.475,0c-5.956,0-11.911,0-17.867,0c-7.156,0-14.312,0-21.468,0
			c-8.092,0-16.185,0-24.277,0c-8.765,0-17.53,0-26.295,0c-9.141,0-18.282,0-27.422,0c-9.319,0-18.638,0-27.957,0
			c-9.201,0-18.402,0-27.604,0c-8.82,0-17.639,0-26.459,0c-8.174,0-16.349,0-24.523,0c-7.265,0-14.53,0-21.796,0
			c-6.092,0-12.184,0-18.277,0c-4.656,0-9.311,0-13.967,0c-2.955,0-5.91,0-8.865,0C96.223,851.497,93.583,851.703,93.48,851.497z"/>
	</g>
	<g id="POLYLINE_391_">
		
			<path fill="none" stroke="#00B9D2" stroke-width="3.5" stroke-linecap="round" stroke-linejoin="round" stroke-miterlimit="10" d="
			M574.4,787.855c2.493,0,4.985,0,7.478,0c6.681,0,13.362,0,20.043,0c9.758,0,19.516,0,29.274,0c11.723,0,23.447,0,35.17,0
			c12.644,0,25.288,0,37.932,0c12.316,0,24.632,0,36.948,0c10.941,0,21.882,0,32.823,0c8.455,0,16.91,0,25.365,0
			c4.857,0,9.715,0,14.572,0c4.594,0,9.143-0.238,13.658-1.181c7.199-1.503,14.083-4.426,20.16-8.568
			c6.302-4.295,11.697-9.876,15.785-16.313c3.996-6.293,6.707-13.382,7.949-20.731c0.59-3.493,0.782-7.01,0.782-10.546
			c0-2.27,0-4.541,0-6.811c0-4.112,0-8.224,0-12.336c0-5.774,0-11.548,0-17.321c0-7.256,0-14.513,0-21.769
			c0-8.607,0-17.215,0-25.822c0-9.688,0-19.376,0-29.064c0-10.631,0-21.262,0-31.893c0-11.394,0-22.789,0-34.183
			c0-12.043,0-24.085,0-36.128c0-12.384,0-24.769,0-37.153c0-12.608,0-25.217,0-37.825c0-12.653,0-25.305,0-37.958
			c0-12.518,0-25.035,0-37.553c0-12.266,0-24.532,0-36.798c0-11.706,0-23.411,0-35.117c0-11.031,0-22.062,0-33.093
			c0-10.177,0-20.354,0-30.531c0-9.188,0-18.377,0-27.565c0-7.923,0-15.847,0-23.77c0-6.53,0-13.059,0-19.589
			c0-4.957,0-9.913,0-14.87c0-3.204,0-6.408,0-9.612c0-1.273,0.003-2.546,0-3.819c-0.016-6.862-1.257-13.686-3.707-20.099
			c-2.713-7.099-6.887-13.624-12.184-19.072c-5.268-5.418-11.633-9.746-18.606-12.659c-6.848-2.86-14.225-4.318-21.644-4.336
			c-2.667-0.007-5.333,0-8,0c-6.814,0-13.628,0-20.442,0c-9.85,0-19.7,0-29.55,0c-11.775,0-23.549,0-35.324,0
			c-12.654,0-25.308,0-37.963,0c-12.285,0-24.57,0-36.855,0c-10.869,0-21.739,0-32.608,0c-8.342,0-16.684,0-25.027,0
			c-4.717,0-9.434,0-14.151,0c-4.733,0-9.415,0.306-14.052,1.336c-7.226,1.605-14.127,4.652-20.174,8.923
			c-6.221,4.394-11.511,10.037-15.5,16.525c-3.937,6.405-6.554,13.612-7.665,21.046c-0.479,3.204-0.617,6.423-0.617,9.656
			c0,2.341,0,4.683,0,7.024c0,4.176,0,8.353,0,12.529c0,5.832,0,11.663,0,17.495c0,7.35,0,14.699,0,22.049c0,8.61,0,17.22,0,25.83
			c0,9.726,0,19.452,0,29.178c0,10.662,0,21.325,0,31.987c0,11.45,0,22.9,0,34.35c0,12.03,0,24.06,0,36.09
			c0,12.396,0,24.792,0,37.187c0,12.613,0,25.226,0,37.839c0,12.651,0,25.302,0,37.953c0,12.574,0,25.149,0,37.723
			c0,12.186,0,24.372,0,36.557c0,11.684,0,23.368,0,35.052c0,11.003,0,22.006,0,33.009c0,10.167,0,20.335,0,30.503
			c0,9.121,0,18.243,0,27.364c0,7.875,0,15.75,0,23.625c0,6.475,0,12.95,0,19.425c0,4.895,0,9.79,0,14.685c0,3.147,0,6.295,0,9.442
			c0,1.186-0.003,2.373,0,3.559c0.018,7.134,1.367,14.217,4.008,20.845c2.807,7.044,7.07,13.499,12.431,18.86
			c5.378,5.378,11.853,9.644,18.92,12.455c3.07,1.221,6.244,2.17,9.48,2.836c1.874,0.386,3.767,0.673,5.671,0.866
			c0.962,0.097,1.927,0.168,2.893,0.215C571.983,787.803,574.317,787.69,574.4,787.855z"/>
	</g>
	<g id="POLYLINE_390_">
		
			<path fill="none" stroke="#00B9D2" stroke-width="3.5" stroke-linecap="round" stroke-linejoin="round" stroke-miterlimit="10" d="
			M371.336,787.855c7.754-0.043,15.442-1.607,22.548-4.729c6.932-3.045,13.224-7.492,18.402-13.016
			c5.145-5.489,9.157-12.007,11.749-19.069c2.277-6.204,3.414-12.782,3.428-19.388c0.003-1.358,0-2.717,0-4.075
			c0-3.281,0-6.563,0-9.844c0-5.026,0-10.053,0-15.079c0-6.592,0-13.184,0-19.776c0-7.978,0-15.956,0-23.934
			c0-9.236,0-18.472,0-27.707c0-10.217,0-20.433,0-30.65c0-11.063,0-22.126,0-33.189c0-11.73,0-23.46,0-35.191
			c0-12.283,0-24.566,0-36.849c0-12.527,0-25.054,0-37.581c0-12.654,0-25.309,0-37.963c0-12.602,0-25.205,0-37.807
			c0-12.371,0-24.742,0-37.113c0-12.022,0-24.043,0-36.065c0-11.366,0-22.732,0-34.098c0-10.595,0-21.19,0-31.785
			c0-9.644,0-19.289,0-28.933c0-8.556,0-17.112,0-25.668c0-7.197,0-14.395,0-21.592c0-5.707,0-11.415,0-17.122
			c0-4.038,0-8.076,0-12.114c0-2.189,0-4.378,0-6.567c0-3.805-0.254-7.588-0.95-11.336c-1.353-7.284-4.172-14.279-8.228-20.477
			c-4.21-6.433-9.758-11.981-16.191-16.191c-6.198-4.056-13.193-6.875-20.477-8.228c-4.257-0.791-8.529-0.95-12.841-0.95
			c-5.031,0-10.063,0-15.094,0c-8.582,0-17.164,0-25.746,0c-11.021,0-22.043,0-33.064,0c-12.349,0-24.699,0-37.048,0
			c-12.631,0-25.261,0-37.892,0c-11.663,0-23.326,0-34.989,0c-9.651,0-19.302,0-28.952,0c-6.527,0-13.054,0-19.581,0
			c-2.636,0-5.276-0.038-7.912,0.01c-7.648,0.14-15.248,1.859-22.211,5.026c-6.932,3.153-13.21,7.727-18.324,13.371
			c-5.037,5.558-8.929,12.102-11.414,19.178c-2.104,5.99-3.139,12.311-3.152,18.656c-0.003,1.433,0,2.866,0,4.299
			c0,3.349,0,6.697,0,10.046c0,5.087,0,10.174,0,15.262c0,6.646,0,13.292,0,19.939c0,8.071,0,16.143,0,24.214
			c0,9.231,0,18.463,0,27.694c0,10.251,0,20.502,0,30.753c0,11.091,0,22.182,0,33.273c0,11.783,0,23.566,0,35.349
			c0,12.266,0,24.532,0,36.798c0,12.535,0,25.07,0,37.604c0,12.656,0,25.311,0,37.967c0,12.597,0,25.194,0,37.792
			c0,12.423,0,24.846,0,37.269c0,11.939,0,23.878,0,35.816c0,11.341,0,22.681,0,34.022c0,10.563,0,21.126,0,31.689
			c0,9.63,0,19.26,0,28.889c0,8.487,0,16.973,0,25.46c0,7.146,0,14.292,0,21.437c0,5.649,0,11.298,0,16.947
			c0,3.973,0,7.946,0,11.919c0,2.123,0,4.247,0,6.37c0,4.1,0.32,8.174,1.148,12.196c1.483,7.204,4.385,14.085,8.504,20.179
			c4.291,6.348,9.9,11.79,16.366,15.9c6.286,3.996,13.355,6.709,20.696,7.964c4.084,0.698,8.177,0.796,12.302,0.796
			c5.182,0,10.364,0,15.546,0c8.692,0,17.383,0,26.075,0c11.09,0,22.18,0,33.27,0c12.444,0,24.887,0,37.331,0
			c12.551,0,25.101,0,37.652,0c11.609,0,23.217,0,34.826,0c9.555,0,19.111,0,28.666,0c6.402,0,12.805,0,19.207,0
			C367.102,787.855,369.219,787.855,371.336,787.855z"/>
	</g>
</g>
<g id="Layer_1">
</g>
</svg>
