<?xml version="1.0" encoding="utf-8"?>
<!-- Generator: Adobe Illustrator 23.0.6, SVG Export Plug-In . SVG Version: 6.00 Build 0)  -->
<!DOCTYPE svg PUBLIC "-//W3C//DTD SVG 1.1//EN" "http://www.w3.org/Graphics/SVG/1.1/DTD/svg11.dtd" [
	<!ENTITY ns_extend "http://ns.adobe.com/Extensibility/1.0/">
	<!ENTITY ns_ai "http://ns.adobe.com/AdobeIllustrator/10.0/">
	<!ENTITY ns_graphs "http://ns.adobe.com/Graphs/1.0/">
	<!ENTITY ns_vars "http://ns.adobe.com/Variables/1.0/">
	<!ENTITY ns_imrep "http://ns.adobe.com/ImageReplacement/1.0/">
	<!ENTITY ns_sfw "http://ns.adobe.com/SaveForWeb/1.0/">
	<!ENTITY ns_custom "http://ns.adobe.com/GenericCustomNamespace/1.0/">
	<!ENTITY ns_adobe_xpath "http://ns.adobe.com/XPath/1.0/">
]>
<svg version="1.1" xmlns:x="&ns_extend;" xmlns:i="&ns_ai;" xmlns:graph="&ns_graphs;"
	 xmlns="http://www.w3.org/2000/svg" xmlns:xlink="http://www.w3.org/1999/xlink" x="0px" y="0px" viewBox="0 0 1000 900"
	 enable-background="new 0 0 1000 900" xml:space="preserve">
<metadata>
	<sfw  xmlns="&ns_sfw;">
		<slices></slices>
		<sliceSourceBounds  bottomLeftOrigin="true" height="3296.396" width="7277.717" x="-4935.483" y="2344.023"></sliceSourceBounds>
	</sfw>
</metadata>
<g id="FILL-BACKGROUND">
	<rect fill="#FFFFFF" width="1000" height="900"/>
</g>
<g id="AG-DIAGRAM">
</g>
<g id="AG-DETAIL-DIAGRAM">
</g>
<g id="AG-DETAILS">
	<g id="POLYLINE_755_">
		
			<line fill="none" stroke="#00B9D2" stroke-width="2" stroke-linecap="round" stroke-linejoin="round" stroke-miterlimit="10" x1="409.735" y1="129.746" x2="404.288" y2="129.746"/>
	</g>
	<g id="POLYLINE_754_">
		
			<line fill="none" stroke="#00B9D2" stroke-width="2" stroke-linecap="round" stroke-linejoin="round" stroke-miterlimit="10" x1="409.735" y1="123.665" x2="404.288" y2="123.665"/>
	</g>
	<g id="POLYLINE_753_">
		
			<line fill="none" stroke="#00B9D2" stroke-width="2" stroke-linecap="round" stroke-linejoin="round" stroke-miterlimit="10" x1="342.861" y1="56.791" x2="342.861" y2="62.239"/>
	</g>
	<g id="POLYLINE_752_">
		
			<line fill="none" stroke="#00B9D2" stroke-width="2" stroke-linecap="round" stroke-linejoin="round" stroke-miterlimit="10" x1="336.781" y1="56.791" x2="336.781" y2="62.239"/>
	</g>
	<g id="POLYLINE_751_">
		
			<line fill="none" stroke="#00B9D2" stroke-width="2" stroke-linecap="round" stroke-linejoin="round" stroke-miterlimit="10" x1="70.679" y1="123.665" x2="76.127" y2="123.665"/>
	</g>
	<g id="POLYLINE_750_">
		
			<line fill="none" stroke="#00B9D2" stroke-width="2" stroke-linecap="round" stroke-linejoin="round" stroke-miterlimit="10" x1="70.679" y1="129.746" x2="76.127" y2="129.746"/>
	</g>
	<g id="POLYLINE_749_">
		
			<line fill="none" stroke="#00B9D2" stroke-width="2" stroke-linecap="round" stroke-linejoin="round" stroke-miterlimit="10" x1="409.735" y1="674.907" x2="404.288" y2="674.907"/>
	</g>
	<g id="POLYLINE_748_">
		
			<line fill="none" stroke="#00B9D2" stroke-width="2" stroke-linecap="round" stroke-linejoin="round" stroke-miterlimit="10" x1="409.735" y1="680.988" x2="404.288" y2="680.988"/>
	</g>
	<g id="POLYLINE_747_">
		
			<line fill="none" stroke="#00B9D2" stroke-width="2" stroke-linecap="round" stroke-linejoin="round" stroke-miterlimit="10" x1="141.134" y1="745.363" x2="141.134" y2="739.915"/>
	</g>
	<g id="POLYLINE_746_">
		
			<line fill="none" stroke="#00B9D2" stroke-width="2" stroke-linecap="round" stroke-linejoin="round" stroke-miterlimit="10" x1="135.054" y1="745.363" x2="135.054" y2="739.915"/>
	</g>
	<g id="POLYLINE_745_">
		
			<line fill="none" stroke="#00B9D2" stroke-width="2" stroke-linecap="round" stroke-linejoin="round" stroke-miterlimit="10" x1="70.679" y1="680.988" x2="76.127" y2="680.988"/>
	</g>
	<g id="POLYLINE_744_">
		
			<line fill="none" stroke="#00B9D2" stroke-width="2" stroke-linecap="round" stroke-linejoin="round" stroke-miterlimit="10" x1="70.679" y1="674.907" x2="76.127" y2="674.907"/>
	</g>
	<g id="POLYLINE_743_">
		<path fill="none" stroke="#00B9D2" stroke-width="2" stroke-linecap="round" stroke-linejoin="round" stroke-miterlimit="10" d="
			M277.065,84.319c-0.001-2.199-1.419-4.213-3.489-4.955c-2.069-0.741-4.446-0.084-5.841,1.615
			c-1.395,1.699-1.577,4.158-0.448,6.043c1.13,1.886,3.382,2.886,5.539,2.459c2.148-0.426,3.846-2.199,4.178-4.364
			C277.044,84.853,277.065,84.586,277.065,84.319z"/>
	</g>
	<g id="POLYLINE_742_">
		<path fill="none" stroke="#00B9D2" stroke-width="2" stroke-linecap="round" stroke-linejoin="round" stroke-miterlimit="10" d="
			M256.429,84.319c0-1.506-1.043-2.862-2.499-3.247c-0.586-0.155-1.203-0.112-1.804-0.112c-1.605,0-3.21,0-4.816,0
			c-4.814,0-9.628,0-14.442,0c-2.509,0-5.158-0.249-7.658,0.018c-3.34,0.357-4.09,5.06-1.005,6.416
			c0.554,0.243,1.119,0.282,1.713,0.284c1.3,0.005,2.601,0,3.901,0c4.731,0,9.462,0,14.193,0c3.005,0,6.029,0.1,9.033,0
			c1.44-0.048,2.729-0.882,3.204-2.277C256.369,85.053,256.429,84.686,256.429,84.319z"/>
	</g>
	<g id="POLYLINE_741_">
		<path fill="none" stroke="#00B9D2" stroke-width="2" stroke-linecap="round" stroke-linejoin="round" stroke-miterlimit="10" d="
			M76.127,695.245c0.066,7.7,1.986,15.288,5.794,22c3.771,6.645,9.227,12.273,15.767,16.227c6.514,3.938,14.016,6.167,21.624,6.419
			c2.437,0.081,4.883,0.025,7.32,0.025c5.771,0,11.541,0,17.312,0c8.669,0,17.337,0,26.006,0c10.63,0,21.261,0,31.891,0
			c11.689,0,23.379,0,35.068,0c11.777,0,23.553,0,35.33,0c10.891,0,21.783,0,32.674,0c9.103,0,18.206,0,27.309,0
			c6.378,0,12.757,0,19.135,0c2.718,0,5.436,0.009,8.153,0c6.739-0.023,13.41-1.497,19.489-4.424
			c6.913-3.329,12.936-8.457,17.307-14.766c4.351-6.281,7.054-13.638,7.778-21.246c0.194-2.032,0.203-4.061,0.203-6.098
			c0-2.377,0-4.754,0-7.13c0-4.011,0-8.022,0-12.033c0-5.491,0-10.981,0-16.472c0-6.816,0-13.632,0-20.448c0-7.987,0-15.974,0-23.96
			c0-9.056,0-18.113,0-27.169c0-9.87,0-19.739,0-29.609c0-10.576,0-21.152,0-31.729c0-11.128,0-22.257,0-33.385
			c0-11.526,0-23.052,0-34.579c0-11.77,0-23.539,0-35.309c0-11.858,0-23.717,0-35.576c0-11.826,0-23.652,0-35.478
			c0-11.604,0-23.209,0-34.813c0-11.196,0-22.392,0-33.588c0-10.666,0-21.333,0-31.999c0-9.982,0-19.965,0-29.947
			c0-9.144,0-18.288,0-27.431c0-8.151,0-16.302,0-24.453c0-7.021,0-14.043,0-21.064c0-5.712,0-11.423,0-17.135
			c0-4.237,0-8.473,0-12.71c0-2.625,0-5.25,0-7.875c0-1.136,0.013-2.274-0.008-3.41c-0.144-7.683-2.298-15.285-6.207-21.901
			c-3.872-6.554-9.428-12.065-16.009-15.89c-6.608-3.84-14.163-5.926-21.803-6.045c-2.319-0.036-4.641-0.006-6.96-0.006
			c-5.902,0-11.804,0-17.706,0c-8.763,0-17.527,0-26.29,0c-10.688,0-21.377,0-32.065,0c-11.677,0-23.355,0-35.032,0
			c-11.73,0-23.46,0-35.19,0c-10.875,0-21.749,0-32.624,0c-9.042,0-18.084,0-27.126,0c-6.252,0-12.504,0-18.757,0
			c-2.555,0-5.109-0.009-7.664,0c-6.995,0.025-13.924,1.635-20.174,4.79c-6.86,3.463-12.774,8.702-17.039,15.095
			c-4.225,6.332-6.78,13.729-7.37,21.318c-0.142,1.829-0.136,3.654-0.136,5.486c0,2.453,0,4.906,0,7.358c0,4.072,0,8.144,0,12.216
			c0,5.546,0,11.091,0,16.637c0,6.865,0,13.73,0,20.595c0,8.03,0,16.059,0,24.089c0,9.04,0,18.08,0,27.12c0,9.896,0,19.792,0,29.688
			c0,10.628,0,21.256,0,31.884c0,11.178,0,22.355,0,33.533c0,11.539,0,23.077,0,34.616c0,11.776,0,23.552,0,35.328
			c0,11.859,0,23.718,0,35.577c0,11.787,0,23.575,0,35.362c0,11.561,0,23.123,0,34.684c0,11.212,0,22.423,0,33.635
			c0,10.673,0,21.346,0,32.02c0,9.952,0,19.905,0,29.857c0,9.108,0,18.215,0,27.323c0,8.109,0,16.217,0,24.326
			c0,6.955,0,13.91,0,20.865c0,5.647,0,11.294,0,16.942c0,4.194,0,8.389,0,12.583c0,2.568,0,5.136,0,7.704
			C76.127,693.66,76.127,694.453,76.127,695.245z"/>
	</g>
	<g id="POLYLINE_740_">
		<path fill="none" stroke="#00B9D2" stroke-width="2" stroke-linecap="round" stroke-linejoin="round" stroke-miterlimit="10" d="
			M854.283,695.245c-0.066,7.7-1.986,15.288-5.794,22c-3.771,6.645-9.227,12.273-15.767,16.227
			c-6.514,3.938-14.016,6.167-21.624,6.419c-2.437,0.081-4.883,0.025-7.32,0.025c-5.771,0-11.541,0-17.312,0
			c-8.669,0-17.337,0-26.006,0c-10.63,0-21.261,0-31.891,0c-11.689,0-23.379,0-35.068,0c-11.777,0-23.553,0-35.33,0
			c-10.891,0-21.783,0-32.674,0c-9.103,0-18.206,0-27.309,0c-6.378,0-12.757,0-19.135,0c-2.718,0-5.436,0.009-8.153,0
			c-6.739-0.023-13.411-1.497-19.489-4.424c-6.913-3.329-12.937-8.457-17.307-14.766c-4.351-6.281-7.054-13.638-7.778-21.246
			c-0.194-2.032-0.203-4.061-0.203-6.098c0-2.377,0-4.754,0-7.13c0-4.011,0-8.022,0-12.033c0-5.491,0-10.981,0-16.472
			c0-6.816,0-13.632,0-20.448c0-7.987,0-15.974,0-23.96c0-9.056,0-18.113,0-27.169c0-9.87,0-19.739,0-29.609
			c0-10.576,0-21.152,0-31.729c0-11.128,0-22.257,0-33.385c0-11.526,0-23.052,0-34.579c0-11.77,0-23.539,0-35.309
			c0-11.858,0-23.717,0-35.576c0-11.826,0-23.652,0-35.478c0-11.604,0-23.209,0-34.813c0-11.196,0-22.392,0-33.588
			c0-10.666,0-21.333,0-31.999c0-9.982,0-19.965,0-29.947c0-9.144,0-18.288,0-27.431c0-8.151,0-16.302,0-24.453
			c0-7.021,0-14.043,0-21.064c0-5.712,0-11.423,0-17.135c0-4.237,0-8.473,0-12.71c0-2.625,0-5.25,0-7.875
			c0-1.136-0.013-2.274,0.008-3.41c0.144-7.683,2.298-15.285,6.207-21.901c3.872-6.554,9.428-12.065,16.009-15.89
			c6.608-3.84,14.163-5.926,21.803-6.045c2.319-0.036,4.641-0.006,6.96-0.006c5.902,0,11.804,0,17.706,0c8.763,0,17.527,0,26.29,0
			c10.688,0,21.377,0,32.065,0c11.677,0,23.355,0,35.032,0c11.73,0,23.46,0,35.19,0c10.875,0,21.749,0,32.624,0
			c9.042,0,18.084,0,27.126,0c6.252,0,12.504,0,18.757,0c2.555,0,5.109-0.009,7.664,0c6.995,0.025,13.924,1.635,20.174,4.79
			c6.86,3.463,12.774,8.702,17.039,15.095c4.225,6.332,6.78,13.729,7.37,21.318c0.142,1.829,0.136,3.654,0.136,5.486
			c0,2.453,0,4.906,0,7.358c0,4.072,0,8.144,0,12.216c0,5.546,0,11.091,0,16.637c0,6.865,0,13.73,0,20.595c0,8.03,0,16.059,0,24.089
			c0,9.04,0,18.08,0,27.12c0,9.896,0,19.792,0,29.688c0,10.628,0,21.256,0,31.884c0,11.178,0,22.355,0,33.533
			c0,11.539,0,23.077,0,34.616c0,11.776,0,23.552,0,35.328c0,11.859,0,23.718,0,35.577c0,11.787,0,23.575,0,35.362
			c0,11.561,0,23.123,0,34.684c0,11.212,0,22.423,0,33.635c0,10.673,0,21.346,0,32.02c0,9.952,0,19.905,0,29.857
			c0,9.108,0,18.215,0,27.323c0,8.109,0,16.217,0,24.326c0,6.955,0,13.91,0,20.865c0,5.647,0,11.294,0,16.942
			c0,4.194,0,8.389,0,12.583c0,2.568,0,5.136,0,7.704C854.283,693.66,854.283,694.453,854.283,695.245z"/>
	</g>
	<g id="POLYLINE_739_">
		
			<line fill="none" stroke="#00B9D2" stroke-width="2" stroke-linecap="round" stroke-linejoin="round" stroke-miterlimit="10" x1="859.731" y1="674.907" x2="854.283" y2="674.907"/>
	</g>
	<g id="POLYLINE_738_">
		
			<line fill="none" stroke="#00B9D2" stroke-width="2" stroke-linecap="round" stroke-linejoin="round" stroke-miterlimit="10" x1="859.731" y1="680.988" x2="854.283" y2="680.988"/>
	</g>
	<g id="POLYLINE_737_">
		
			<line fill="none" stroke="#00B9D2" stroke-width="2" stroke-linecap="round" stroke-linejoin="round" stroke-miterlimit="10" x1="795.356" y1="745.363" x2="795.356" y2="739.915"/>
	</g>
	<g id="POLYLINE_736_">
		
			<line fill="none" stroke="#00B9D2" stroke-width="2" stroke-linecap="round" stroke-linejoin="round" stroke-miterlimit="10" x1="789.275" y1="745.363" x2="789.275" y2="739.915"/>
	</g>
	<g id="POLYLINE_735_">
		
			<line fill="none" stroke="#00B9D2" stroke-width="2" stroke-linecap="round" stroke-linejoin="round" stroke-miterlimit="10" x1="520.675" y1="680.988" x2="526.122" y2="680.988"/>
	</g>
	<g id="POLYLINE_734_">
		
			<line fill="none" stroke="#00B9D2" stroke-width="2" stroke-linecap="round" stroke-linejoin="round" stroke-miterlimit="10" x1="520.675" y1="674.907" x2="526.122" y2="674.907"/>
	</g>
	<g id="POLYLINE_733_">
		
			<line fill="none" stroke="#00B9D2" stroke-width="2" stroke-linecap="round" stroke-linejoin="round" stroke-miterlimit="10" x1="859.731" y1="129.746" x2="854.283" y2="129.746"/>
	</g>
	<g id="POLYLINE_732_">
		
			<line fill="none" stroke="#00B9D2" stroke-width="2" stroke-linecap="round" stroke-linejoin="round" stroke-miterlimit="10" x1="859.731" y1="123.665" x2="854.283" y2="123.665"/>
	</g>
	<g id="POLYLINE_731_">
		
			<line fill="none" stroke="#00B9D2" stroke-width="2" stroke-linecap="round" stroke-linejoin="round" stroke-miterlimit="10" x1="593.629" y1="56.791" x2="593.629" y2="62.239"/>
	</g>
	<g id="POLYLINE_730_">
		
			<line fill="none" stroke="#00B9D2" stroke-width="2" stroke-linecap="round" stroke-linejoin="round" stroke-miterlimit="10" x1="587.548" y1="56.791" x2="587.548" y2="62.239"/>
	</g>
	<g id="POLYLINE_729_">
		
			<line fill="none" stroke="#00B9D2" stroke-width="2" stroke-linecap="round" stroke-linejoin="round" stroke-miterlimit="10" x1="520.675" y1="123.665" x2="526.122" y2="123.665"/>
	</g>
	<g id="POLYLINE_728_">
		
			<line fill="none" stroke="#00B9D2" stroke-width="2" stroke-linecap="round" stroke-linejoin="round" stroke-miterlimit="10" x1="520.675" y1="129.746" x2="526.122" y2="129.746"/>
	</g>
	<g id="POLYLINE_727_">
		<path fill="none" stroke="#00B9D2" stroke-width="2" stroke-linecap="round" stroke-linejoin="round" stroke-miterlimit="10" d="
			M625.606,166.307c3.819,2.941,8.508,4.672,13.326,4.89c4.842,0.219,9.699-1.08,13.782-3.693c4.082-2.613,7.297-6.48,9.125-10.969
			c1.817-4.462,2.217-9.454,1.139-14.149c-1.078-4.696-3.615-9.013-7.196-12.236c-3.602-3.242-8.182-5.321-12.995-5.892
			c-4.814-0.571-9.751,0.378-14.013,2.687c-4.236,2.295-7.713,5.899-9.86,10.212c-2.147,4.313-2.926,9.259-2.204,14.023
			c0.726,4.792,2.947,9.304,6.304,12.8C623.82,164.818,624.688,165.594,625.606,166.307z"/>
	</g>
	<g id="POLYLINE_726_">
		<path fill="none" stroke="#00B9D2" stroke-width="2" stroke-linecap="round" stroke-linejoin="round" stroke-miterlimit="10" d="
			M562.092,130.278c3.819,2.941,8.508,4.672,13.326,4.89c4.842,0.219,9.699-1.08,13.782-3.693c4.082-2.613,7.297-6.48,9.125-10.969
			c1.817-4.462,2.217-9.454,1.139-14.149c-1.078-4.696-3.615-9.013-7.196-12.236c-3.602-3.242-8.182-5.321-12.995-5.892
			c-4.814-0.571-9.751,0.378-14.013,2.687c-4.236,2.295-7.713,5.899-9.86,10.212c-2.147,4.313-2.926,9.259-2.204,14.023
			c0.726,4.792,2.947,9.304,6.304,12.8C559.708,128.165,562.095,130.272,562.092,130.278z"/>
	</g>
	<g id="POLYLINE_725_">
		
			<path fill="none" stroke="#00B9D2" stroke-width="2.75" stroke-linecap="round" stroke-linejoin="round" stroke-miterlimit="10" d="
			M714.091,391.175c-0.033-4.985,2.042-9.633,5.582-13.108c1.025-1.006,2.154-1.915,3.379-2.665
			c-1.804-2.635-4.251-4.764-7.118-6.172c-2.984-1.466-6.416-2.201-9.742-2.112c-3.603,0.096-6.943,1.537-10.254,2.811
			c-2.068,0.795-3.785,1.326-5.939,0.707c-3.646-1.048-6.976-3.056-10.847-3.246c-3.496-0.171-7.081,0.818-10.111,2.532
			c-3.282,1.856-6.002,4.621-7.876,7.886c-1.971,3.434-2.999,7.332-3.325,11.261c-0.338,4.068,0.048,8.176,0.892,12.162
			c0.832,3.928,2.126,7.766,3.811,11.409c1.798,3.886,4.124,7.488,6.771,10.849c1.765,2.241,3.811,4.506,6.441,5.735
			c2.069,0.967,4.3,0.97,6.483,0.399c1.928-0.504,3.688-1.467,5.566-2.112c1.793-0.616,3.667-0.906,5.562-0.877
			c1.805,0.027,3.564,0.377,5.252,1.012c1.765,0.665,3.44,1.571,5.291,1.992c2.032,0.462,4.196,0.406,6.145-0.367
			c2.691-1.068,4.761-3.255,6.518-5.485c2.599-3.298,4.899-6.871,6.655-10.689c0.419-0.912,0.81-1.837,1.17-2.774
			c0.165-0.43,0.324-0.862,0.474-1.298c0.077-0.225,0.257-0.579,0.267-0.812c0.015-0.383,0.082-0.172-0.217-0.392
			c-0.594-0.437-1.403-0.695-2.039-1.088c-0.756-0.467-1.481-0.985-2.168-1.55c-2.76-2.268-4.847-5.286-5.859-8.723
			C714.347,394.744,714.11,392.96,714.091,391.175"/>
	</g>
	<g id="POLYLINE_724_">
		
			<path fill="none" stroke="#00B9D2" stroke-width="2.75" stroke-linecap="round" stroke-linejoin="round" stroke-miterlimit="10" d="
			M691.363,366.236c3.049,0.235,6.083-0.85,8.592-2.532c3.298-2.212,5.763-5.559,7.089-9.289c0.687-1.931,1.06-3.981,1.008-6.034
			c-0.009-0.367,0.053-1.102-0.207-1.246c-0.235-0.13-1.009,0.093-1.273,0.135c-0.949,0.149-1.88,0.401-2.785,0.722
			c-3.776,1.34-7.122,3.853-9.369,7.175c-2.024,2.991-3.384,6.663-3.131,10.315C691.304,365.734,691.33,365.986,691.363,366.236z"/>
	</g>
	<g id="POLYLINE_723_">
		<path fill="none" stroke="#00B9D2" stroke-width="2" stroke-linecap="round" stroke-linejoin="round" stroke-miterlimit="10" d="
			M562.092,202.336c3.819,2.941,8.508,4.672,13.326,4.89c4.842,0.219,9.699-1.08,13.782-3.693c4.082-2.613,7.297-6.48,9.125-10.969
			c1.817-4.462,2.217-9.454,1.139-14.149c-1.078-4.696-3.615-9.013-7.196-12.236c-3.602-3.242-8.182-5.321-12.995-5.892
			c-4.814-0.571-9.751,0.378-14.013,2.687c-4.236,2.295-7.713,5.899-9.86,10.212c-2.147,4.313-2.926,9.259-2.204,14.023
			c0.726,4.792,2.947,9.304,6.304,12.8c0.395,0.411,0.805,0.808,1.229,1.19C560.976,201.42,561.772,202.336,562.092,202.336z"/>
	</g>
	<g id="POLYLINE_722_">
		
			<line fill="none" stroke="#00B9D2" stroke-width="2" stroke-linecap="round" stroke-linejoin="round" stroke-miterlimit="10" x1="77.333" y1="810.768" x2="403.081" y2="810.768"/>
	</g>
	<g id="POLYLINE_721_">
		
			<line fill="none" stroke="#00B9D2" stroke-width="2" stroke-linecap="round" stroke-linejoin="round" stroke-miterlimit="10" x1="141.134" y1="842.225" x2="141.134" y2="810.768"/>
	</g>
	<g id="POLYLINE_720_">
		
			<line fill="none" stroke="#00B9D2" stroke-width="2" stroke-linecap="round" stroke-linejoin="round" stroke-miterlimit="10" x1="135.554" y1="810.768" x2="135.554" y2="842.225"/>
	</g>
</g>
<g id="N-DIMENSIONS">
	<g>
		<g>
			<g id="MTEXT_32_">
				<g>
					<g>
						<path fill="#00B9D2" d="M224.562,442.155c-0.78-0.433-1.374-1.017-1.78-1.75s-0.609-1.533-0.609-2.399
							c0-1.146,0.46-2.373,1.38-3.681l3.819-5.319c0.014-0.014,0.051-0.061,0.11-0.141s0.137-0.143,0.229-0.189
							c0.094-0.047,0.2-0.07,0.32-0.07h0.98c0.12,0,0.216,0.043,0.29,0.13c0.073,0.087,0.109,0.19,0.109,0.311
							c0,0.066-0.033,0.153-0.1,0.26l-2.92,4.08c0.347-0.08,0.733-0.12,1.16-0.12c0.973,0,1.83,0.217,2.569,0.649
							c0.74,0.434,1.313,1.007,1.721,1.721c0.406,0.713,0.609,1.497,0.609,2.35c0,0.854-0.203,1.65-0.609,2.39
							c-0.407,0.74-0.997,1.33-1.771,1.771s-1.687,0.66-2.74,0.66C226.265,442.806,225.342,442.589,224.562,442.155z
							 M228.932,440.785c0.493-0.239,0.887-0.597,1.18-1.069c0.293-0.474,0.44-1.044,0.44-1.71c0-0.653-0.15-1.217-0.45-1.69
							c-0.3-0.473-0.697-0.833-1.19-1.08c-0.493-0.246-1.026-0.37-1.6-0.37s-1.107,0.124-1.601,0.37
							c-0.493,0.247-0.887,0.607-1.18,1.08c-0.293,0.474-0.439,1.037-0.439,1.69c0,0.666,0.146,1.236,0.439,1.71
							c0.293,0.473,0.687,0.83,1.18,1.069c0.493,0.24,1.027,0.36,1.601,0.36C227.898,441.146,228.438,441.025,228.932,440.785z"/>
						<path fill="#00B9D2" d="M234.682,442.476c-0.087-0.087-0.13-0.196-0.13-0.33v-1.38c0-0.133,0.043-0.247,0.13-0.34
							c0.086-0.094,0.196-0.141,0.33-0.141h1.38c0.133,0,0.243,0.047,0.33,0.141c0.086,0.093,0.13,0.207,0.13,0.34v1.38
							c0,0.134-0.044,0.243-0.13,0.33c-0.087,0.087-0.197,0.13-0.33,0.13h-1.38C234.878,442.605,234.768,442.562,234.682,442.476z"
							/>
						<path fill="#00B9D2" d="M241.411,442.266c-0.733-0.36-1.293-0.83-1.68-1.41s-0.594-1.203-0.62-1.87v-0.04
							c0-0.106,0.04-0.193,0.12-0.26s0.173-0.1,0.28-0.1h0.979c0.28,0,0.46,0.146,0.54,0.439c0.2,0.72,0.57,1.257,1.11,1.61
							s1.163,0.529,1.87,0.529c0.906,0,1.66-0.276,2.26-0.829c0.6-0.554,0.9-1.317,0.9-2.29c0-0.894-0.301-1.604-0.9-2.131
							c-0.6-0.526-1.354-0.79-2.26-0.79c-0.48,0-0.867,0.061-1.16,0.181c-0.294,0.12-0.594,0.293-0.9,0.52
							c-0.173,0.134-0.316,0.23-0.43,0.29c-0.113,0.061-0.237,0.09-0.37,0.09h-0.96c-0.12,0-0.227-0.043-0.32-0.13
							c-0.093-0.086-0.133-0.189-0.12-0.31l0.62-6.66c0.04-0.333,0.207-0.5,0.5-0.5h6.92c0.146,0,0.261,0.04,0.341,0.12
							c0.079,0.08,0.119,0.193,0.119,0.34v0.74c0,0.133-0.043,0.24-0.13,0.319c-0.087,0.08-0.196,0.12-0.33,0.12h-5.76l-0.359,4.021
							c0.64-0.453,1.5-0.68,2.579-0.68c0.894,0,1.707,0.177,2.44,0.529c0.733,0.354,1.316,0.87,1.75,1.55
							c0.434,0.681,0.65,1.487,0.65,2.421c0,0.986-0.217,1.836-0.65,2.55c-0.434,0.713-1.033,1.253-1.8,1.62
							c-0.767,0.366-1.644,0.55-2.63,0.55C243.012,442.806,242.145,442.625,241.411,442.266z"/>
						<path fill="#00B9D2" d="M251.241,432.086c-0.06-0.08-0.077-0.181-0.05-0.301l0.439-2.8c0.054-0.387,0.24-0.58,0.561-0.58h1.28
							c0.093,0,0.17,0.033,0.229,0.101c0.061,0.066,0.09,0.146,0.09,0.239c0,0.134-0.02,0.24-0.06,0.32l-1.04,2.7
							c-0.067,0.146-0.141,0.257-0.22,0.33c-0.08,0.073-0.2,0.109-0.36,0.109h-0.62
							C251.385,432.205,251.301,432.165,251.241,432.086z M254.381,432.086c-0.06-0.08-0.076-0.181-0.05-0.301l0.44-2.8
							c0.053-0.387,0.24-0.58,0.56-0.58h1.28c0.093,0,0.17,0.033,0.229,0.101c0.061,0.066,0.091,0.146,0.091,0.239
							c0,0.134-0.021,0.24-0.061,0.32l-1.04,2.7c-0.066,0.146-0.14,0.257-0.22,0.33s-0.2,0.109-0.36,0.109h-0.62
							C254.524,432.205,254.441,432.165,254.381,432.086z"/>
					</g>
				</g>
			</g>
			<g id="POLYLINE_696_">
				
					<line fill="none" stroke="#00B9D2" stroke-width="2" stroke-linecap="round" stroke-linejoin="round" stroke-miterlimit="10" x1="118.548" y1="710.517" x2="225.587" y2="453.092"/>
			</g>
			<g id="POLYLINE_695_">
				
					<line fill="none" stroke="#00B9D2" stroke-width="2" stroke-linecap="round" stroke-linejoin="round" stroke-miterlimit="10" x1="238.841" y1="419.657" x2="372.25" y2="91.088"/>
			</g>
			<g id="POLYLINE_694_">
				
					<polyline fill="none" stroke="#00B9D2" stroke-width="2" stroke-linecap="round" stroke-linejoin="round" stroke-miterlimit="10" points="
					115.614,702.968 118.548,710.517 126.097,707.582 				"/>
			</g>
			<g id="POLYLINE_693_">
				
					<polyline fill="none" stroke="#00B9D2" stroke-width="2" stroke-linecap="round" stroke-linejoin="round" stroke-miterlimit="10" points="
					375.184,98.637 372.25,91.088 364.701,94.022 				"/>
			</g>
		</g>
		<g id="MTEXT_27_">
			<g>
				<path fill="#00B9D2" d="M125.761,139.191c-0.087-0.087-0.13-0.196-0.13-0.33v-2.92h-6.5c-0.134,0-0.243-0.043-0.33-0.13
					s-0.13-0.197-0.13-0.33v-0.74c0-0.187,0.073-0.387,0.22-0.6l6.021-8.48c0.066-0.106,0.166-0.189,0.3-0.25
					c0.133-0.06,0.28-0.09,0.439-0.09h1.36c0.146,0,0.26,0.04,0.34,0.12s0.12,0.193,0.12,0.34v8.48h1.82
					c0.133,0,0.243,0.043,0.33,0.13c0.086,0.087,0.13,0.196,0.13,0.33v0.76c0,0.133-0.044,0.243-0.13,0.33
					c-0.087,0.087-0.197,0.13-0.33,0.13h-1.82v2.92c0,0.134-0.043,0.243-0.13,0.33s-0.197,0.13-0.33,0.13h-0.92
					C125.957,139.321,125.848,139.278,125.761,139.191z M120.751,134.302h4.899v-6.961L120.751,134.302z"/>
				<path fill="#00B9D2" d="M133.631,138.981c-0.733-0.36-1.293-0.83-1.68-1.41s-0.594-1.203-0.62-1.87v-0.04
					c0-0.106,0.04-0.193,0.12-0.26s0.173-0.1,0.28-0.1h0.979c0.28,0,0.46,0.146,0.54,0.439c0.2,0.72,0.57,1.257,1.11,1.61
					s1.163,0.529,1.87,0.529c0.906,0,1.66-0.276,2.26-0.829c0.6-0.554,0.9-1.317,0.9-2.29c0-0.894-0.301-1.604-0.9-2.131
					c-0.6-0.526-1.354-0.79-2.26-0.79c-0.48,0-0.867,0.061-1.16,0.181c-0.294,0.12-0.594,0.293-0.9,0.52
					c-0.173,0.134-0.316,0.23-0.43,0.29c-0.113,0.061-0.237,0.09-0.37,0.09h-0.96c-0.12,0-0.227-0.043-0.32-0.13
					c-0.093-0.086-0.133-0.189-0.12-0.31l0.62-6.66c0.04-0.333,0.207-0.5,0.5-0.5h6.92c0.146,0,0.261,0.04,0.341,0.12
					c0.079,0.08,0.119,0.193,0.119,0.34v0.74c0,0.133-0.043,0.24-0.13,0.319c-0.087,0.08-0.196,0.12-0.33,0.12h-5.76l-0.359,4.021
					c0.64-0.453,1.5-0.68,2.579-0.68c0.894,0,1.707,0.177,2.44,0.529c0.733,0.354,1.316,0.87,1.75,1.55
					c0.434,0.681,0.65,1.487,0.65,2.421c0,0.986-0.217,1.836-0.65,2.55c-0.434,0.713-1.033,1.253-1.8,1.62
					c-0.767,0.366-1.644,0.55-2.63,0.55C135.231,139.521,134.364,139.341,133.631,138.981z"/>
				<path fill="#00B9D2" d="M145.881,139.012c-0.793-0.341-1.41-0.83-1.85-1.471c-0.44-0.64-0.66-1.387-0.66-2.239
					c0-0.787,0.196-1.477,0.59-2.07s0.923-1.05,1.59-1.37c-0.533-0.307-0.946-0.71-1.24-1.21c-0.293-0.5-0.439-1.09-0.439-1.771
					c0-1.159,0.433-2.076,1.3-2.75c0.866-0.673,2.007-1.01,3.42-1.01s2.55,0.334,3.41,1c0.86,0.667,1.29,1.587,1.29,2.76
					c0,0.667-0.146,1.25-0.44,1.75c-0.293,0.5-0.699,0.91-1.22,1.23c0.667,0.32,1.196,0.776,1.59,1.37s0.59,1.29,0.59,2.09
					c0,0.854-0.22,1.597-0.659,2.23c-0.44,0.633-1.058,1.119-1.851,1.46c-0.793,0.34-1.696,0.51-2.71,0.51
					S146.674,139.352,145.881,139.012z M150.961,137.241c0.633-0.479,0.95-1.12,0.95-1.92s-0.317-1.44-0.95-1.92
					c-0.634-0.48-1.424-0.72-2.37-0.72c-0.96,0-1.757,0.239-2.39,0.72c-0.634,0.479-0.95,1.12-0.95,1.92s0.316,1.44,0.95,1.92
					c0.633,0.48,1.43,0.72,2.39,0.72C149.537,137.961,150.327,137.722,150.961,137.241z M150.651,130.521
					c0.56-0.4,0.84-0.934,0.84-1.601c0-0.68-0.277-1.223-0.83-1.63c-0.554-0.406-1.243-0.609-2.07-0.609
					c-0.84,0-1.533,0.203-2.08,0.609c-0.547,0.407-0.819,0.95-0.819,1.63c0,0.681,0.272,1.224,0.819,1.631
					c0.547,0.406,1.24,0.609,2.08,0.609C149.404,131.135,150.091,130.921,150.651,130.521z"/>
				<path fill="#00B9D2" d="M161.5,143.001c-0.087-0.08-0.131-0.193-0.131-0.34v-13.28c0-0.146,0.044-0.26,0.131-0.34
					c0.086-0.08,0.196-0.12,0.33-0.12h0.84c0.146,0,0.26,0.04,0.34,0.12s0.12,0.193,0.12,0.34v0.881
					c0.772-1.027,1.873-1.54,3.3-1.54c1.4,0,2.45,0.443,3.15,1.33c0.699,0.887,1.069,2.017,1.109,3.39
					c0.014,0.146,0.021,0.373,0.021,0.68s-0.007,0.533-0.021,0.681c-0.04,1.359-0.41,2.486-1.109,3.38
					c-0.7,0.894-1.75,1.34-3.15,1.34c-1.427,0-2.507-0.507-3.24-1.521v4.66c0,0.133-0.043,0.243-0.13,0.33s-0.197,0.13-0.33,0.13
					h-0.899C161.696,143.121,161.586,143.081,161.5,143.001z M168.149,137.062c0.44-0.601,0.681-1.387,0.72-2.36
					c0.014-0.133,0.021-0.326,0.021-0.58c0-2.56-0.947-3.84-2.84-3.84c-0.934,0-1.637,0.31-2.11,0.93s-0.724,1.351-0.75,2.19
					c-0.014,0.146-0.02,0.407-0.02,0.78s0.006,0.633,0.02,0.779c0.026,0.813,0.283,1.518,0.771,2.11
					c0.486,0.594,1.183,0.89,2.09,0.89C167.01,137.961,167.71,137.661,168.149,137.062z"/>
				<path fill="#00B9D2" d="M173.381,143.001c-0.087-0.08-0.131-0.193-0.131-0.34v-13.28c0-0.146,0.044-0.26,0.131-0.34
					c0.086-0.08,0.196-0.12,0.33-0.12h0.84c0.146,0,0.26,0.04,0.34,0.12s0.12,0.193,0.12,0.34v0.881
					c0.772-1.027,1.873-1.54,3.3-1.54c1.4,0,2.45,0.443,3.15,1.33c0.699,0.887,1.069,2.017,1.109,3.39
					c0.014,0.146,0.021,0.373,0.021,0.68s-0.007,0.533-0.021,0.681c-0.04,1.359-0.41,2.486-1.109,3.38
					c-0.7,0.894-1.75,1.34-3.15,1.34c-1.427,0-2.507-0.507-3.24-1.521v4.66c0,0.133-0.043,0.243-0.13,0.33s-0.197,0.13-0.33,0.13
					h-0.899C173.577,143.121,173.467,143.081,173.381,143.001z M180.03,137.062c0.44-0.601,0.681-1.387,0.72-2.36
					c0.014-0.133,0.021-0.326,0.021-0.58c0-2.56-0.947-3.84-2.84-3.84c-0.934,0-1.637,0.31-2.11,0.93s-0.724,1.351-0.75,2.19
					c-0.014,0.146-0.02,0.407-0.02,0.78s0.006,0.633,0.02,0.779c0.026,0.813,0.283,1.518,0.771,2.11
					c0.486,0.594,1.183,0.89,2.09,0.89C178.891,137.961,179.591,137.661,180.03,137.062z"/>
				<path fill="#00B9D2" d="M185.079,126.831c-0.087-0.086-0.13-0.196-0.13-0.33v-1.04c0-0.133,0.043-0.246,0.13-0.34
					c0.087-0.093,0.197-0.14,0.33-0.14h1.181c0.133,0,0.246,0.047,0.34,0.14c0.093,0.094,0.14,0.207,0.14,0.34v1.04
					c0,0.134-0.047,0.244-0.14,0.33c-0.094,0.087-0.207,0.13-0.34,0.13h-1.181C185.276,126.961,185.166,126.918,185.079,126.831z
					 M185.239,139.191c-0.087-0.087-0.13-0.196-0.13-0.33v-9.48c0-0.133,0.043-0.243,0.13-0.329c0.087-0.087,0.196-0.131,0.33-0.131
					h0.88c0.133,0,0.243,0.044,0.33,0.131c0.087,0.086,0.13,0.196,0.13,0.329v9.48c0,0.134-0.043,0.243-0.13,0.33
					s-0.197,0.13-0.33,0.13h-0.88C185.436,139.321,185.326,139.278,185.239,139.191z"/>
			</g>
		</g>
		<g>
			<g id="POLYLINE_692_">
				
					<polyline fill="none" stroke="#00B9D2" stroke-width="2" stroke-linecap="round" stroke-linejoin="round" stroke-miterlimit="10" points="
					526.214,765.823 520.487,771.55 526.214,777.277 				"/>
			</g>
			<g id="POLYLINE_691_">
				
					<line fill="none" stroke="#00B9D2" stroke-width="2" stroke-linecap="round" stroke-linejoin="round" stroke-miterlimit="10" x1="520.487" y1="771.55" x2="653" y2="771.55"/>
			</g>
			<g id="POLYLINE_690_">
				
					<line fill="none" stroke="#00B9D2" stroke-width="2" stroke-linecap="round" stroke-linejoin="round" stroke-miterlimit="10" x1="813" y1="771.55" x2="859.861" y2="771.55"/>
			</g>
			<g id="POLYLINE_689_">
				
					<polyline fill="none" stroke="#00B9D2" stroke-width="2" stroke-linecap="round" stroke-linejoin="round" stroke-miterlimit="10" points="
					854.122,765.833 859.85,771.56 854.122,777.287 				"/>
			</g>
			<g id="MTEXT_25_">
				<g>
					<path fill="#00B9D2" d="M666.013,777.519c-0.76-0.341-1.337-0.783-1.729-1.33c-0.394-0.547-0.604-1.113-0.63-1.7
						c0-0.12,0.04-0.217,0.12-0.29c0.079-0.073,0.18-0.11,0.3-0.11h0.899c0.146,0,0.267,0.03,0.36,0.09
						c0.093,0.061,0.167,0.178,0.22,0.351c0.174,0.68,0.55,1.16,1.13,1.439c0.58,0.28,1.264,0.42,2.051,0.42
						c0.96,0,1.723-0.229,2.29-0.689c0.566-0.46,0.85-1.116,0.85-1.97c0-1.627-0.993-2.44-2.98-2.44h-1.88
						c-0.133,0-0.243-0.043-0.33-0.13s-0.13-0.196-0.13-0.33v-0.52c0-0.2,0.073-0.374,0.221-0.521l3.899-4.32h-5.92
						c-0.134,0-0.243-0.04-0.33-0.12c-0.087-0.079-0.13-0.187-0.13-0.319v-0.72c0-0.147,0.043-0.264,0.13-0.351
						s0.196-0.13,0.33-0.13h7.92c0.146,0,0.264,0.043,0.351,0.13c0.086,0.087,0.13,0.203,0.13,0.351v0.659
						c0,0.147-0.067,0.301-0.2,0.46l-3.9,4.381h0.32c1.36,0.039,2.437,0.393,3.229,1.06c0.794,0.667,1.19,1.64,1.19,2.92
						c0,0.88-0.217,1.637-0.65,2.271c-0.433,0.633-1.036,1.119-1.81,1.46c-0.773,0.34-1.646,0.51-2.62,0.51
						C667.673,778.028,666.773,777.858,666.013,777.519z"/>
					<path fill="#00B9D2" d="M676.243,777.698c-0.087-0.087-0.13-0.196-0.13-0.33v-1.38c0-0.133,0.043-0.247,0.13-0.34
						c0.086-0.094,0.196-0.141,0.33-0.141h1.38c0.133,0,0.243,0.047,0.33,0.141c0.086,0.093,0.13,0.207,0.13,0.34v1.38
						c0,0.134-0.044,0.243-0.13,0.33c-0.087,0.087-0.197,0.13-0.33,0.13h-1.38C676.439,777.828,676.329,777.785,676.243,777.698z"/>
					<path fill="#00B9D2" d="M681.982,776.519c-0.793-1.007-1.217-2.323-1.27-3.95l-0.021-1.721l0.021-1.779
						c0.04-1.613,0.463-2.924,1.27-3.931c0.807-1.006,2.063-1.51,3.771-1.51c1.72,0,2.982,0.504,3.79,1.51
						c0.807,1.007,1.229,2.317,1.27,3.931c0.014,0.373,0.021,0.967,0.021,1.779c0,0.787-0.007,1.36-0.021,1.721
						c-0.054,1.627-0.477,2.943-1.27,3.95c-0.794,1.007-2.058,1.51-3.79,1.51C684.032,778.028,682.775,777.525,681.982,776.519z
						 M688.072,775.348c0.521-0.68,0.794-1.64,0.82-2.88c0.013-0.386,0.021-0.939,0.021-1.659c0-0.733-0.008-1.28-0.021-1.641
						c-0.026-1.227-0.304-2.183-0.83-2.87c-0.526-0.687-1.297-1.029-2.31-1.029c-1.014,0-1.78,0.343-2.301,1.029
						c-0.52,0.688-0.793,1.644-0.819,2.87l-0.021,1.641l0.021,1.659c0.026,1.24,0.3,2.2,0.819,2.88
						c0.521,0.681,1.287,1.021,2.301,1.021C686.779,776.368,687.553,776.028,688.072,775.348z"/>
					<path fill="#00B9D2" d="M695.463,777.378c-0.78-0.433-1.374-1.017-1.78-1.75s-0.609-1.533-0.609-2.399
						c0-1.146,0.46-2.373,1.38-3.681l3.819-5.319c0.014-0.014,0.051-0.061,0.11-0.141s0.137-0.143,0.229-0.189
						c0.094-0.047,0.2-0.07,0.32-0.07h0.98c0.12,0,0.216,0.043,0.29,0.13c0.073,0.087,0.109,0.19,0.109,0.311
						c0,0.066-0.033,0.153-0.1,0.26l-2.92,4.08c0.347-0.08,0.733-0.12,1.16-0.12c0.973,0,1.83,0.217,2.569,0.649
						c0.74,0.434,1.313,1.007,1.721,1.721c0.406,0.713,0.609,1.497,0.609,2.35c0,0.854-0.203,1.65-0.609,2.39
						c-0.407,0.74-0.997,1.33-1.771,1.771s-1.687,0.66-2.74,0.66C697.166,778.028,696.243,777.812,695.463,777.378z
						 M699.833,776.008c0.493-0.239,0.887-0.597,1.18-1.069c0.293-0.474,0.44-1.044,0.44-1.71c0-0.653-0.15-1.217-0.45-1.69
						c-0.3-0.473-0.697-0.833-1.19-1.08c-0.493-0.246-1.026-0.37-1.6-0.37s-1.107,0.124-1.601,0.37
						c-0.493,0.247-0.887,0.607-1.18,1.08c-0.293,0.474-0.439,1.037-0.439,1.69c0,0.666,0.146,1.236,0.439,1.71
						c0.293,0.473,0.687,0.83,1.18,1.069c0.493,0.24,1.027,0.36,1.601,0.36C698.8,776.368,699.339,776.248,699.833,776.008z"/>
					<path fill="#00B9D2" d="M705.303,767.309c-0.06-0.08-0.077-0.181-0.05-0.301l0.439-2.8c0.054-0.387,0.24-0.58,0.561-0.58h1.28
						c0.093,0,0.17,0.033,0.229,0.101c0.061,0.066,0.09,0.146,0.09,0.239c0,0.134-0.02,0.24-0.06,0.32l-1.04,2.7
						c-0.067,0.146-0.141,0.257-0.22,0.33c-0.08,0.073-0.2,0.109-0.36,0.109h-0.62C705.446,767.428,705.362,767.388,705.303,767.309
						z M708.442,767.309c-0.06-0.08-0.076-0.181-0.05-0.301l0.44-2.8c0.053-0.387,0.24-0.58,0.56-0.58h1.28
						c0.093,0,0.17,0.033,0.229,0.101c0.061,0.066,0.091,0.146,0.091,0.239c0,0.134-0.021,0.24-0.061,0.32l-1.04,2.7
						c-0.066,0.146-0.14,0.257-0.22,0.33s-0.2,0.109-0.36,0.109h-0.62C708.586,767.428,708.503,767.388,708.442,767.309z"/>
					<path fill="#00B9D2" d="M718.312,781.858c-0.08-0.087-0.12-0.197-0.12-0.33v-21.16c0-0.133,0.04-0.243,0.12-0.33
						s0.187-0.13,0.32-0.13h0.739c0.134,0,0.243,0.043,0.33,0.13s0.13,0.197,0.13,0.33v21.16c0,0.133-0.043,0.243-0.13,0.33
						c-0.087,0.086-0.196,0.13-0.33,0.13h-0.739C718.499,781.988,718.393,781.944,718.312,781.858z"/>
					<path fill="#00B9D2" d="M728.941,777.698c-0.073-0.087-0.11-0.19-0.11-0.311l0.04-0.18l5-11.7h-6.6
						c-0.134,0-0.243-0.043-0.33-0.13c-0.087-0.086-0.13-0.196-0.13-0.33v-0.739c0-0.147,0.04-0.264,0.12-0.351
						s0.193-0.13,0.34-0.13h8.16c0.146,0,0.26,0.043,0.34,0.13s0.12,0.203,0.12,0.351v0.68c0,0.24-0.054,0.5-0.16,0.78l-4.94,11.56
						c-0.066,0.146-0.14,0.267-0.22,0.36c-0.08,0.093-0.193,0.14-0.34,0.14h-1C729.111,777.828,729.015,777.785,728.941,777.698z"/>
					<path fill="#00B9D2" d="M739.142,777.698c-0.073-0.087-0.11-0.19-0.11-0.311l0.04-0.18l5-11.7h-6.6
						c-0.134,0-0.243-0.043-0.33-0.13c-0.087-0.086-0.13-0.196-0.13-0.33v-0.739c0-0.147,0.04-0.264,0.12-0.351
						s0.193-0.13,0.34-0.13h8.16c0.146,0,0.26,0.043,0.34,0.13s0.12,0.203,0.12,0.351v0.68c0,0.24-0.054,0.5-0.16,0.78l-4.94,11.56
						c-0.066,0.146-0.14,0.267-0.22,0.36c-0.08,0.093-0.193,0.14-0.34,0.14h-1C739.312,777.828,739.215,777.785,739.142,777.698z"/>
					<path fill="#00B9D2" d="M746.802,777.698c-0.087-0.087-0.13-0.196-0.13-0.33v-1.38c0-0.133,0.043-0.247,0.13-0.34
						c0.086-0.094,0.196-0.141,0.33-0.141h1.38c0.133,0,0.243,0.047,0.33,0.141c0.086,0.093,0.13,0.207,0.13,0.34v1.38
						c0,0.134-0.044,0.243-0.13,0.33c-0.087,0.087-0.197,0.13-0.33,0.13h-1.38C746.998,777.828,746.888,777.785,746.802,777.698z"/>
					<path fill="#00B9D2" d="M753.741,777.519c-0.793-0.341-1.41-0.83-1.85-1.471c-0.44-0.64-0.66-1.387-0.66-2.239
						c0-0.787,0.196-1.477,0.59-2.07s0.923-1.05,1.59-1.37c-0.533-0.307-0.946-0.71-1.24-1.21c-0.293-0.5-0.439-1.09-0.439-1.771
						c0-1.159,0.433-2.076,1.3-2.75c0.866-0.673,2.007-1.01,3.42-1.01s2.55,0.334,3.41,1c0.86,0.667,1.29,1.587,1.29,2.76
						c0,0.667-0.146,1.25-0.44,1.75c-0.293,0.5-0.699,0.91-1.22,1.23c0.667,0.32,1.196,0.776,1.59,1.37s0.59,1.29,0.59,2.09
						c0,0.854-0.22,1.597-0.659,2.23c-0.44,0.633-1.058,1.119-1.851,1.46c-0.793,0.34-1.696,0.51-2.71,0.51
						S754.534,777.858,753.741,777.519z M758.821,775.748c0.633-0.479,0.95-1.12,0.95-1.92s-0.317-1.44-0.95-1.92
						c-0.634-0.48-1.424-0.72-2.37-0.72c-0.96,0-1.757,0.239-2.39,0.72c-0.634,0.479-0.95,1.12-0.95,1.92s0.316,1.44,0.95,1.92
						c0.633,0.48,1.43,0.72,2.39,0.72C757.397,776.468,758.188,776.229,758.821,775.748z M758.512,769.028
						c0.56-0.4,0.84-0.934,0.84-1.601c0-0.68-0.277-1.223-0.83-1.63c-0.554-0.406-1.243-0.609-2.07-0.609
						c-0.84,0-1.533,0.203-2.08,0.609c-0.547,0.407-0.819,0.95-0.819,1.63c0,0.681,0.272,1.224,0.819,1.631
						c0.547,0.406,1.24,0.609,2.08,0.609C757.265,769.642,757.951,769.428,758.512,769.028z"/>
					<path fill="#00B9D2" d="M769.341,777.698c-0.087-0.087-0.13-0.196-0.13-0.33v-9.48c0-0.133,0.043-0.243,0.13-0.329
						c0.087-0.087,0.196-0.131,0.33-0.131h0.84c0.134,0,0.24,0.044,0.32,0.131c0.08,0.086,0.12,0.196,0.12,0.329v0.681
						c0.72-0.894,1.693-1.34,2.92-1.34c1.467,0,2.507,0.613,3.12,1.84c0.319-0.561,0.776-1.007,1.37-1.34
						c0.593-0.334,1.256-0.5,1.989-0.5c1.094,0,1.987,0.373,2.681,1.119c0.692,0.747,1.04,1.827,1.04,3.24v5.78
						c0,0.134-0.044,0.243-0.13,0.33c-0.087,0.087-0.197,0.13-0.33,0.13h-0.86c-0.134,0-0.243-0.043-0.33-0.13
						s-0.13-0.196-0.13-0.33v-5.6c0-1.067-0.22-1.83-0.66-2.29c-0.439-0.46-1.02-0.69-1.74-0.69c-0.64,0-1.189,0.237-1.649,0.71
						c-0.46,0.474-0.69,1.23-0.69,2.271v5.6c0,0.134-0.043,0.243-0.13,0.33s-0.197,0.13-0.33,0.13h-0.88
						c-0.134,0-0.243-0.043-0.33-0.13s-0.13-0.196-0.13-0.33v-5.6c0-1.054-0.23-1.813-0.69-2.28s-1.029-0.7-1.71-0.7
						c-0.64,0-1.189,0.233-1.649,0.7s-0.69,1.22-0.69,2.26v5.62c0,0.134-0.043,0.243-0.13,0.33s-0.197,0.13-0.33,0.13h-0.88
						C769.537,777.828,769.428,777.785,769.341,777.698z"/>
					<path fill="#00B9D2" d="M787.101,777.698c-0.087-0.087-0.13-0.196-0.13-0.33v-9.48c0-0.133,0.043-0.243,0.13-0.329
						c0.087-0.087,0.196-0.131,0.33-0.131h0.84c0.134,0,0.24,0.044,0.32,0.131c0.08,0.086,0.12,0.196,0.12,0.329v0.681
						c0.72-0.894,1.693-1.34,2.92-1.34c1.467,0,2.507,0.613,3.12,1.84c0.319-0.561,0.776-1.007,1.37-1.34
						c0.593-0.334,1.256-0.5,1.989-0.5c1.094,0,1.987,0.373,2.681,1.119c0.692,0.747,1.04,1.827,1.04,3.24v5.78
						c0,0.134-0.044,0.243-0.13,0.33c-0.087,0.087-0.197,0.13-0.33,0.13h-0.86c-0.134,0-0.243-0.043-0.33-0.13
						s-0.13-0.196-0.13-0.33v-5.6c0-1.067-0.22-1.83-0.66-2.29c-0.439-0.46-1.02-0.69-1.74-0.69c-0.64,0-1.189,0.237-1.649,0.71
						c-0.46,0.474-0.69,1.23-0.69,2.271v5.6c0,0.134-0.043,0.243-0.13,0.33s-0.197,0.13-0.33,0.13h-0.88
						c-0.134,0-0.243-0.043-0.33-0.13s-0.13-0.196-0.13-0.33v-5.6c0-1.054-0.23-1.813-0.69-2.28s-1.029-0.7-1.71-0.7
						c-0.64,0-1.189,0.233-1.649,0.7s-0.69,1.22-0.69,2.26v5.62c0,0.134-0.043,0.243-0.13,0.33s-0.197,0.13-0.33,0.13h-0.88
						C787.297,777.828,787.188,777.785,787.101,777.698z"/>
				</g>
			</g>
		</g>
		<g>
			<g id="POLYLINE_688_">
				
					<polyline fill="none" stroke="#00B9D2" stroke-width="2" stroke-linecap="round" stroke-linejoin="round" stroke-miterlimit="10" points="
					116.837,666.766 111.11,672.493 116.837,678.22 				"/>
			</g>
			<g id="POLYLINE_687_">
				
					<line fill="none" stroke="#00B9D2" stroke-width="2" stroke-linecap="round" stroke-linejoin="round" stroke-miterlimit="10" x1="111.11" y1="672.493" x2="238.031" y2="672.493"/>
			</g>
			<g id="POLYLINE_686_">
				
					<line fill="none" stroke="#00B9D2" stroke-width="2" stroke-linecap="round" stroke-linejoin="round" stroke-miterlimit="10" x1="323" y1="672.493" x2="379.09" y2="672.493"/>
			</g>
			<g id="POLYLINE_685_">
				
					<polyline fill="none" stroke="#00B9D2" stroke-width="2" stroke-linecap="round" stroke-linejoin="round" stroke-miterlimit="10" points="
					373.351,666.776 379.079,672.503 373.351,678.23 				"/>
			</g>
			<g id="MTEXT_24_">
				<g>
					<path fill="#00B9D2" d="M249.851,678.642c-0.08-0.087-0.12-0.196-0.12-0.33v-11.28l-3.36,2.58c-0.093,0.08-0.193,0.12-0.3,0.12
						c-0.12,0-0.233-0.066-0.34-0.2l-0.48-0.62c-0.066-0.093-0.1-0.187-0.1-0.279c0-0.146,0.066-0.267,0.2-0.36l4.34-3.36
						c0.146-0.093,0.32-0.14,0.52-0.14h0.94c0.133,0,0.243,0.043,0.33,0.13s0.13,0.197,0.13,0.33v13.08
						c0,0.134-0.043,0.243-0.13,0.33s-0.197,0.13-0.33,0.13h-0.98C250.037,678.771,249.931,678.729,249.851,678.642z"/>
					<path fill="#00B9D2" d="M254.261,678.642c-0.087-0.087-0.13-0.196-0.13-0.33v-0.6c0-0.307,0.166-0.601,0.5-0.881l4.359-4.34
						c0.986-0.84,1.667-1.526,2.04-2.06s0.561-1.101,0.561-1.7c0-0.786-0.221-1.403-0.66-1.85c-0.44-0.447-1.08-0.67-1.92-0.67
						c-0.801,0-1.434,0.233-1.9,0.699c-0.467,0.467-0.753,1.094-0.86,1.88c-0.026,0.147-0.093,0.261-0.199,0.341
						c-0.107,0.08-0.214,0.12-0.32,0.12h-0.96c-0.12,0-0.22-0.04-0.3-0.12s-0.12-0.174-0.12-0.28c0.026-0.707,0.217-1.39,0.569-2.05
						c0.354-0.66,0.877-1.2,1.57-1.62s1.533-0.63,2.521-0.63c1.493,0,2.616,0.39,3.37,1.17c0.753,0.78,1.13,1.77,1.13,2.97
						c0,0.84-0.204,1.597-0.61,2.271c-0.407,0.673-1.043,1.383-1.91,2.13l-3.939,4h6.3c0.146,0,0.26,0.04,0.34,0.12
						c0.08,0.079,0.12,0.193,0.12,0.34v0.76c0,0.134-0.044,0.243-0.13,0.33c-0.087,0.087-0.197,0.13-0.33,0.13h-8.76
						C254.457,678.771,254.347,678.729,254.261,678.642z"/>
					<path fill="#00B9D2" d="M272.34,678.642c-0.087-0.087-0.13-0.196-0.13-0.33v-2.92h-6.5c-0.134,0-0.243-0.043-0.33-0.13
						s-0.13-0.197-0.13-0.33v-0.74c0-0.187,0.073-0.387,0.22-0.6l6.021-8.48c0.066-0.106,0.166-0.189,0.3-0.25
						c0.133-0.06,0.28-0.09,0.439-0.09h1.36c0.146,0,0.26,0.04,0.34,0.12s0.12,0.193,0.12,0.34v8.48h1.82
						c0.133,0,0.243,0.043,0.33,0.13c0.086,0.087,0.13,0.196,0.13,0.33v0.76c0,0.133-0.044,0.243-0.13,0.33
						c-0.087,0.087-0.197,0.13-0.33,0.13h-1.82v2.92c0,0.134-0.043,0.243-0.13,0.33s-0.197,0.13-0.33,0.13h-0.92
						C272.536,678.771,272.427,678.729,272.34,678.642z M267.33,673.752h4.899v-6.961L267.33,673.752z"/>
					<path fill="#00B9D2" d="M278.101,678.642c-0.087-0.087-0.13-0.196-0.13-0.33v-0.6c0-0.307,0.166-0.601,0.5-0.881l4.359-4.34
						c0.986-0.84,1.667-1.526,2.04-2.06s0.561-1.101,0.561-1.7c0-0.786-0.221-1.403-0.66-1.85c-0.44-0.447-1.08-0.67-1.92-0.67
						c-0.801,0-1.434,0.233-1.9,0.699c-0.467,0.467-0.753,1.094-0.86,1.88c-0.026,0.147-0.093,0.261-0.199,0.341
						c-0.107,0.08-0.214,0.12-0.32,0.12h-0.96c-0.12,0-0.22-0.04-0.3-0.12s-0.12-0.174-0.12-0.28c0.026-0.707,0.217-1.39,0.569-2.05
						c0.354-0.66,0.877-1.2,1.57-1.62s1.533-0.63,2.521-0.63c1.493,0,2.616,0.39,3.37,1.17c0.753,0.78,1.13,1.77,1.13,2.97
						c0,0.84-0.204,1.597-0.61,2.271c-0.407,0.673-1.043,1.383-1.91,2.13l-3.939,4h6.3c0.146,0,0.26,0.04,0.34,0.12
						c0.08,0.079,0.12,0.193,0.12,0.34v0.76c0,0.134-0.044,0.243-0.13,0.33c-0.087,0.087-0.197,0.13-0.33,0.13h-8.76
						C278.297,678.771,278.187,678.729,278.101,678.642z"/>
					<path fill="#00B9D2" d="M295.24,682.451c-0.087-0.08-0.131-0.193-0.131-0.34v-13.28c0-0.146,0.044-0.26,0.131-0.34
						c0.086-0.08,0.196-0.12,0.33-0.12h0.84c0.146,0,0.26,0.04,0.34,0.12s0.12,0.193,0.12,0.34v0.881
						c0.772-1.027,1.873-1.54,3.3-1.54c1.4,0,2.45,0.443,3.15,1.33c0.699,0.887,1.069,2.017,1.109,3.39
						c0.014,0.146,0.021,0.373,0.021,0.68s-0.007,0.533-0.021,0.681c-0.04,1.359-0.41,2.486-1.109,3.38
						c-0.7,0.894-1.75,1.34-3.15,1.34c-1.427,0-2.507-0.507-3.24-1.521v4.66c0,0.133-0.043,0.243-0.13,0.33s-0.197,0.13-0.33,0.13
						h-0.899C295.437,682.571,295.326,682.531,295.24,682.451z M301.89,676.512c0.44-0.601,0.681-1.387,0.72-2.36
						c0.014-0.133,0.021-0.326,0.021-0.58c0-2.56-0.947-3.84-2.84-3.84c-0.934,0-1.637,0.31-2.11,0.93s-0.724,1.351-0.75,2.19
						c-0.014,0.146-0.02,0.407-0.02,0.78s0.006,0.633,0.02,0.779c0.026,0.813,0.283,1.518,0.771,2.11
						c0.486,0.594,1.183,0.89,2.09,0.89C300.75,677.411,301.45,677.111,301.89,676.512z"/>
					<path fill="#00B9D2" d="M305.909,678.651c-0.08-0.08-0.12-0.18-0.12-0.3s0.047-0.247,0.141-0.38l3.479-4.521l-3.26-4.3
						c-0.106-0.146-0.16-0.267-0.16-0.36c0-0.119,0.043-0.22,0.13-0.3s0.184-0.12,0.29-0.12h0.96c0.2,0,0.373,0.107,0.521,0.32
						l2.7,3.5l2.699-3.5c0.08-0.106,0.157-0.187,0.23-0.24c0.073-0.053,0.17-0.08,0.29-0.08h0.92c0.106,0,0.2,0.04,0.28,0.12
						s0.12,0.174,0.12,0.28c0,0.134-0.047,0.26-0.141,0.38l-3.3,4.34l3.48,4.48c0.093,0.133,0.14,0.26,0.14,0.38
						s-0.04,0.22-0.12,0.3s-0.18,0.12-0.3,0.12h-0.98c-0.2,0-0.373-0.1-0.52-0.3l-2.86-3.7l-2.859,3.7
						c-0.08,0.093-0.157,0.167-0.23,0.22c-0.073,0.054-0.17,0.08-0.29,0.08h-0.94C306.09,678.771,305.989,678.731,305.909,678.651z"
						/>
				</g>
			</g>
		</g>
		<g>
			<g id="POLYLINE_684_">
				
					<polyline fill="none" stroke="#00B9D2" stroke-width="2" stroke-linecap="round" stroke-linejoin="round" stroke-miterlimit="10" points="
					349.491,94.815 343.764,89.088 338.038,94.815 				"/>
			</g>
			<g id="POLYLINE_683_">
				
					<line fill="none" stroke="#00B9D2" stroke-width="2" stroke-linecap="round" stroke-linejoin="round" stroke-miterlimit="10" x1="343.764" y1="89.088" x2="343.764" y2="558.259"/>
			</g>
			<g id="POLYLINE_682_">
				
					<line fill="none" stroke="#00B9D2" stroke-width="2" stroke-linecap="round" stroke-linejoin="round" stroke-miterlimit="10" x1="343.764" y1="587.959" x2="343.764" y2="716.143"/>
			</g>
			<g id="POLYLINE_681_">
				
					<polyline fill="none" stroke="#00B9D2" stroke-width="2" stroke-linecap="round" stroke-linejoin="round" stroke-miterlimit="10" points="
					349.481,710.404 343.754,716.131 338.027,710.404 				"/>
			</g>
			<g id="MTEXT_19_">
				<g>
					<path fill="#00B9D2" d="M303.493,579.78c-0.087-0.087-0.13-0.196-0.13-0.33v-0.6c0-0.307,0.166-0.601,0.5-0.881l4.359-4.34
						c0.986-0.84,1.667-1.526,2.04-2.06s0.561-1.101,0.561-1.7c0-0.786-0.221-1.403-0.66-1.85c-0.44-0.447-1.08-0.67-1.92-0.67
						c-0.801,0-1.434,0.233-1.9,0.699c-0.467,0.467-0.753,1.094-0.86,1.88c-0.026,0.147-0.093,0.261-0.199,0.341
						c-0.107,0.08-0.214,0.12-0.32,0.12h-0.96c-0.12,0-0.22-0.04-0.3-0.12s-0.12-0.174-0.12-0.28c0.026-0.707,0.217-1.39,0.569-2.05
						c0.354-0.66,0.877-1.2,1.57-1.62s1.533-0.63,2.521-0.63c1.493,0,2.616,0.39,3.37,1.17c0.753,0.78,1.13,1.77,1.13,2.97
						c0,0.84-0.204,1.597-0.61,2.271c-0.407,0.673-1.043,1.383-1.91,2.13l-3.939,4h6.3c0.146,0,0.26,0.04,0.34,0.12
						c0.08,0.079,0.12,0.193,0.12,0.34v0.76c0,0.134-0.044,0.243-0.13,0.33c-0.087,0.087-0.197,0.13-0.33,0.13h-8.76
						C303.689,579.91,303.579,579.867,303.493,579.78z"/>
					<path fill="#00B9D2" d="M317.433,579.46c-0.78-0.433-1.374-1.017-1.78-1.75s-0.609-1.533-0.609-2.399
						c0-1.146,0.46-2.373,1.38-3.681l3.819-5.319c0.014-0.014,0.051-0.061,0.11-0.141s0.137-0.143,0.229-0.189
						c0.094-0.047,0.2-0.07,0.32-0.07h0.98c0.12,0,0.216,0.043,0.29,0.13c0.073,0.087,0.109,0.19,0.109,0.311
						c0,0.066-0.033,0.153-0.1,0.26l-2.92,4.08c0.347-0.08,0.733-0.12,1.16-0.12c0.973,0,1.83,0.217,2.569,0.649
						c0.74,0.434,1.313,1.007,1.721,1.721c0.406,0.713,0.609,1.497,0.609,2.35c0,0.854-0.203,1.65-0.609,2.39
						c-0.407,0.74-0.997,1.33-1.771,1.771s-1.687,0.66-2.74,0.66C319.136,580.11,318.213,579.894,317.433,579.46z M321.803,578.09
						c0.493-0.239,0.887-0.597,1.18-1.069c0.293-0.474,0.44-1.044,0.44-1.71c0-0.653-0.15-1.217-0.45-1.69
						c-0.3-0.473-0.697-0.833-1.19-1.08c-0.493-0.246-1.026-0.37-1.6-0.37s-1.107,0.124-1.601,0.37
						c-0.493,0.247-0.887,0.607-1.18,1.08c-0.293,0.474-0.439,1.037-0.439,1.69c0,0.666,0.146,1.236,0.439,1.71
						c0.293,0.473,0.687,0.83,1.18,1.069c0.493,0.24,1.027,0.36,1.601,0.36C320.77,578.45,321.309,578.33,321.803,578.09z"/>
					<path fill="#00B9D2" d="M329.692,579.601c-0.793-0.341-1.41-0.83-1.85-1.471c-0.44-0.64-0.66-1.387-0.66-2.239
						c0-0.787,0.196-1.477,0.59-2.07s0.923-1.05,1.59-1.37c-0.533-0.307-0.946-0.71-1.24-1.21c-0.293-0.5-0.439-1.09-0.439-1.771
						c0-1.159,0.433-2.076,1.3-2.75c0.866-0.673,2.007-1.01,3.42-1.01s2.55,0.334,3.41,1c0.86,0.667,1.29,1.587,1.29,2.76
						c0,0.667-0.146,1.25-0.44,1.75c-0.293,0.5-0.699,0.91-1.22,1.23c0.667,0.32,1.196,0.776,1.59,1.37s0.59,1.29,0.59,2.09
						c0,0.854-0.22,1.597-0.659,2.23c-0.44,0.633-1.058,1.119-1.851,1.46c-0.793,0.34-1.696,0.51-2.71,0.51
						S330.485,579.94,329.692,579.601z M334.772,577.83c0.633-0.479,0.95-1.12,0.95-1.92s-0.317-1.44-0.95-1.92
						c-0.634-0.48-1.424-0.72-2.37-0.72c-0.96,0-1.757,0.239-2.39,0.72c-0.634,0.479-0.95,1.12-0.95,1.92s0.316,1.44,0.95,1.92
						c0.633,0.48,1.43,0.72,2.39,0.72C333.349,578.55,334.139,578.311,334.772,577.83z M334.463,571.11
						c0.56-0.4,0.84-0.934,0.84-1.601c0-0.68-0.277-1.223-0.83-1.63c-0.554-0.406-1.243-0.609-2.07-0.609
						c-0.84,0-1.533,0.203-2.08,0.609c-0.547,0.407-0.819,0.95-0.819,1.63c0,0.681,0.272,1.224,0.819,1.631
						c0.547,0.406,1.24,0.609,2.08,0.609C333.216,571.724,333.902,571.51,334.463,571.11z"/>
					<path fill="#00B9D2" d="M342.372,579.601c-0.793-0.341-1.41-0.83-1.85-1.471c-0.44-0.64-0.66-1.387-0.66-2.239
						c0-0.787,0.196-1.477,0.59-2.07s0.923-1.05,1.59-1.37c-0.533-0.307-0.946-0.71-1.24-1.21c-0.293-0.5-0.439-1.09-0.439-1.771
						c0-1.159,0.433-2.076,1.3-2.75c0.866-0.673,2.007-1.01,3.42-1.01s2.55,0.334,3.41,1c0.86,0.667,1.29,1.587,1.29,2.76
						c0,0.667-0.146,1.25-0.44,1.75c-0.293,0.5-0.699,0.91-1.22,1.23c0.667,0.32,1.196,0.776,1.59,1.37s0.59,1.29,0.59,2.09
						c0,0.854-0.22,1.597-0.659,2.23c-0.44,0.633-1.058,1.119-1.851,1.46c-0.793,0.34-1.696,0.51-2.71,0.51
						S343.165,579.94,342.372,579.601z M347.452,577.83c0.633-0.479,0.95-1.12,0.95-1.92s-0.317-1.44-0.95-1.92
						c-0.634-0.48-1.424-0.72-2.37-0.72c-0.96,0-1.757,0.239-2.39,0.72c-0.634,0.479-0.95,1.12-0.95,1.92s0.316,1.44,0.95,1.92
						c0.633,0.48,1.43,0.72,2.39,0.72C346.028,578.55,346.818,578.311,347.452,577.83z M347.143,571.11
						c0.56-0.4,0.84-0.934,0.84-1.601c0-0.68-0.277-1.223-0.83-1.63c-0.554-0.406-1.243-0.609-2.07-0.609
						c-0.84,0-1.533,0.203-2.08,0.609c-0.547,0.407-0.819,0.95-0.819,1.63c0,0.681,0.272,1.224,0.819,1.631
						c0.547,0.406,1.24,0.609,2.08,0.609C345.896,571.724,346.582,571.51,347.143,571.11z"/>
					<path fill="#00B9D2" d="M357.992,583.59c-0.087-0.08-0.131-0.193-0.131-0.34v-13.28c0-0.146,0.044-0.26,0.131-0.34
						c0.086-0.08,0.196-0.12,0.33-0.12h0.84c0.146,0,0.26,0.04,0.34,0.12s0.12,0.193,0.12,0.34v0.881
						c0.772-1.027,1.873-1.54,3.3-1.54c1.4,0,2.45,0.443,3.15,1.33c0.699,0.887,1.069,2.017,1.109,3.39
						c0.014,0.146,0.021,0.373,0.021,0.68s-0.007,0.533-0.021,0.681c-0.04,1.359-0.41,2.486-1.109,3.38
						c-0.7,0.894-1.75,1.34-3.15,1.34c-1.427,0-2.507-0.507-3.24-1.521v4.66c0,0.133-0.043,0.243-0.13,0.33s-0.197,0.13-0.33,0.13
						h-0.899C358.188,583.71,358.078,583.67,357.992,583.59z M364.642,577.65c0.44-0.601,0.681-1.387,0.72-2.36
						c0.014-0.133,0.021-0.326,0.021-0.58c0-2.56-0.947-3.84-2.84-3.84c-0.934,0-1.637,0.31-2.11,0.93s-0.724,1.351-0.75,2.19
						c-0.014,0.146-0.02,0.407-0.02,0.78s0.006,0.633,0.02,0.779c0.026,0.813,0.283,1.518,0.771,2.11
						c0.486,0.594,1.183,0.89,2.09,0.89C363.502,578.55,364.202,578.25,364.642,577.65z"/>
					<path fill="#00B9D2" d="M368.661,579.79c-0.08-0.08-0.12-0.18-0.12-0.3s0.047-0.247,0.141-0.38l3.479-4.521l-3.26-4.3
						c-0.106-0.146-0.16-0.267-0.16-0.36c0-0.119,0.043-0.22,0.13-0.3s0.184-0.12,0.29-0.12h0.96c0.2,0,0.373,0.107,0.521,0.32
						l2.7,3.5l2.699-3.5c0.08-0.106,0.157-0.187,0.23-0.24c0.073-0.053,0.17-0.08,0.29-0.08h0.92c0.106,0,0.2,0.04,0.28,0.12
						s0.12,0.174,0.12,0.28c0,0.134-0.047,0.26-0.141,0.38l-3.3,4.34l3.48,4.48c0.093,0.133,0.14,0.26,0.14,0.38
						s-0.04,0.22-0.12,0.3s-0.18,0.12-0.3,0.12h-0.98c-0.2,0-0.373-0.1-0.52-0.3l-2.86-3.7l-2.859,3.7
						c-0.08,0.093-0.157,0.167-0.23,0.22c-0.073,0.054-0.17,0.08-0.29,0.08h-0.94C368.842,579.91,368.741,579.87,368.661,579.79z"/>
				</g>
			</g>
		</g>
		<g>
			<g id="POLYLINE_680_">
				
					<polyline fill="none" stroke="#00B9D2" stroke-width="2" stroke-linecap="round" stroke-linejoin="round" stroke-miterlimit="10" points="
					890.157,62.811 884.43,57.084 878.703,62.811 				"/>
			</g>
			<g id="POLYLINE_679_">
				
					<line fill="none" stroke="#00B9D2" stroke-width="2" stroke-linecap="round" stroke-linejoin="round" stroke-miterlimit="10" x1="884.43" y1="57.084" x2="884.43" y2="362.727"/>
			</g>
			<g id="POLYLINE_678_">
				
					<line fill="none" stroke="#00B9D2" stroke-width="2" stroke-linecap="round" stroke-linejoin="round" stroke-miterlimit="10" x1="884.43" y1="422" x2="884.43" y2="742.69"/>
			</g>
			<g id="POLYLINE_677_">
				
					<polyline fill="none" stroke="#00B9D2" stroke-width="2" stroke-linecap="round" stroke-linejoin="round" stroke-miterlimit="10" points="
					890.147,736.951 884.42,742.678 878.693,736.951 				"/>
			</g>
			<g id="MTEXT_16_" opacity="0.98">
				<g>
					<path fill="#00B9D2" d="M881.522,388.096c-0.78-0.433-1.374-1.017-1.78-1.75s-0.609-1.533-0.609-2.399
						c0-1.146,0.46-2.373,1.38-3.681l3.819-5.319c0.014-0.014,0.051-0.061,0.11-0.141s0.137-0.143,0.229-0.189
						c0.094-0.047,0.2-0.07,0.32-0.07h0.98c0.12,0,0.216,0.043,0.29,0.13c0.073,0.087,0.109,0.19,0.109,0.311
						c0,0.066-0.033,0.153-0.1,0.26l-2.92,4.08c0.347-0.08,0.733-0.12,1.16-0.12c0.973,0,1.83,0.217,2.569,0.649
						c0.74,0.434,1.313,1.007,1.721,1.721c0.406,0.713,0.609,1.497,0.609,2.35c0,0.854-0.203,1.65-0.609,2.39
						c-0.407,0.74-0.997,1.33-1.771,1.771s-1.687,0.66-2.74,0.66C883.226,388.746,882.303,388.529,881.522,388.096z
						 M885.893,386.726c0.493-0.239,0.887-0.597,1.18-1.069c0.293-0.474,0.44-1.044,0.44-1.71c0-0.653-0.15-1.217-0.45-1.69
						c-0.3-0.473-0.697-0.833-1.19-1.08c-0.493-0.246-1.026-0.37-1.6-0.37s-1.107,0.124-1.601,0.37
						c-0.493,0.247-0.887,0.607-1.18,1.08c-0.293,0.474-0.439,1.037-0.439,1.69c0,0.666,0.146,1.236,0.439,1.71
						c0.293,0.473,0.687,0.83,1.18,1.069c0.493,0.24,1.027,0.36,1.601,0.36C884.859,387.086,885.398,386.966,885.893,386.726z"/>
					<path fill="#00B9D2" d="M891.643,388.416c-0.087-0.087-0.13-0.196-0.13-0.33v-1.38c0-0.133,0.043-0.247,0.13-0.34
						c0.086-0.094,0.196-0.141,0.33-0.141h1.38c0.133,0,0.243,0.047,0.33,0.141c0.086,0.093,0.13,0.207,0.13,0.34v1.38
						c0,0.134-0.044,0.243-0.13,0.33c-0.087,0.087-0.197,0.13-0.33,0.13h-1.38C891.839,388.546,891.729,388.503,891.643,388.416z"/>
					<path fill="#00B9D2" d="M896.263,388.416c-0.087-0.087-0.13-0.196-0.13-0.33v-0.6c0-0.307,0.166-0.601,0.5-0.881l4.359-4.34
						c0.986-0.84,1.667-1.526,2.04-2.06s0.561-1.101,0.561-1.7c0-0.786-0.221-1.403-0.66-1.85c-0.44-0.447-1.08-0.67-1.92-0.67
						c-0.801,0-1.434,0.233-1.9,0.699c-0.467,0.467-0.753,1.094-0.86,1.88c-0.026,0.147-0.093,0.261-0.199,0.341
						c-0.107,0.08-0.214,0.12-0.32,0.12h-0.96c-0.12,0-0.22-0.04-0.3-0.12s-0.12-0.174-0.12-0.28c0.026-0.707,0.217-1.39,0.569-2.05
						c0.354-0.66,0.877-1.2,1.57-1.62s1.533-0.63,2.521-0.63c1.493,0,2.616,0.39,3.37,1.17c0.753,0.78,1.13,1.77,1.13,2.97
						c0,0.84-0.204,1.597-0.61,2.271c-0.407,0.673-1.043,1.383-1.91,2.13l-3.939,4h6.3c0.146,0,0.26,0.04,0.34,0.12
						c0.08,0.079,0.12,0.193,0.12,0.34v0.76c0,0.134-0.044,0.243-0.13,0.33c-0.087,0.087-0.197,0.13-0.33,0.13h-8.76
						C896.459,388.546,896.349,388.503,896.263,388.416z"/>
					<path fill="#00B9D2" d="M907.942,388.416c-0.087-0.087-0.13-0.196-0.13-0.33v-0.6c0-0.307,0.166-0.601,0.5-0.881l4.359-4.34
						c0.986-0.84,1.667-1.526,2.04-2.06s0.561-1.101,0.561-1.7c0-0.786-0.221-1.403-0.66-1.85c-0.44-0.447-1.08-0.67-1.92-0.67
						c-0.801,0-1.434,0.233-1.9,0.699c-0.467,0.467-0.753,1.094-0.86,1.88c-0.026,0.147-0.093,0.261-0.199,0.341
						c-0.107,0.08-0.214,0.12-0.32,0.12h-0.96c-0.12,0-0.22-0.04-0.3-0.12s-0.12-0.174-0.12-0.28c0.026-0.707,0.217-1.39,0.569-2.05
						c0.354-0.66,0.877-1.2,1.57-1.62s1.533-0.63,2.521-0.63c1.493,0,2.616,0.39,3.37,1.17c0.753,0.78,1.13,1.77,1.13,2.97
						c0,0.84-0.204,1.597-0.61,2.271c-0.407,0.673-1.043,1.383-1.91,2.13l-3.939,4h6.3c0.146,0,0.26,0.04,0.34,0.12
						c0.08,0.079,0.12,0.193,0.12,0.34v0.76c0,0.134-0.044,0.243-0.13,0.33c-0.087,0.087-0.197,0.13-0.33,0.13h-8.76
						C908.139,388.546,908.028,388.503,907.942,388.416z"/>
					<path fill="#00B9D2" d="M919.722,378.026c-0.06-0.08-0.077-0.181-0.05-0.301l0.439-2.8c0.054-0.387,0.24-0.58,0.561-0.58h1.28
						c0.093,0,0.17,0.033,0.229,0.101c0.061,0.066,0.09,0.146,0.09,0.239c0,0.134-0.02,0.24-0.06,0.32l-1.04,2.7
						c-0.067,0.146-0.141,0.257-0.22,0.33c-0.08,0.073-0.2,0.109-0.36,0.109h-0.62C919.865,378.146,919.781,378.105,919.722,378.026
						z M922.861,378.026c-0.06-0.08-0.076-0.181-0.05-0.301l0.44-2.8c0.053-0.387,0.24-0.58,0.56-0.58h1.28
						c0.093,0,0.17,0.033,0.229,0.101c0.061,0.066,0.091,0.146,0.091,0.239c0,0.134-0.021,0.24-0.061,0.32l-1.04,2.7
						c-0.066,0.146-0.14,0.257-0.22,0.33s-0.2,0.109-0.36,0.109h-0.62C923.005,378.146,922.922,378.105,922.861,378.026z"/>
					<path fill="#00B9D2" d="M883.353,410.216c-0.08-0.087-0.12-0.196-0.12-0.33v-11.28l-3.36,2.58c-0.093,0.08-0.193,0.12-0.3,0.12
						c-0.12,0-0.233-0.066-0.34-0.2l-0.48-0.62c-0.066-0.093-0.1-0.187-0.1-0.279c0-0.146,0.066-0.267,0.2-0.36l4.34-3.36
						c0.146-0.093,0.32-0.14,0.52-0.14h0.94c0.133,0,0.243,0.043,0.33,0.13s0.13,0.197,0.13,0.33v13.08
						c0,0.134-0.043,0.243-0.13,0.33s-0.197,0.13-0.33,0.13h-0.98C883.539,410.346,883.433,410.303,883.353,410.216z"/>
					<path fill="#00B9D2" d="M889.872,410.006c-0.733-0.36-1.293-0.83-1.68-1.41s-0.594-1.203-0.62-1.87v-0.04
						c0-0.106,0.04-0.193,0.12-0.26s0.173-0.1,0.28-0.1h0.979c0.28,0,0.46,0.146,0.54,0.439c0.2,0.72,0.57,1.257,1.11,1.61
						s1.163,0.529,1.87,0.529c0.906,0,1.66-0.276,2.26-0.829c0.6-0.554,0.9-1.317,0.9-2.29c0-0.894-0.301-1.604-0.9-2.131
						c-0.6-0.526-1.354-0.79-2.26-0.79c-0.48,0-0.867,0.061-1.16,0.181c-0.294,0.12-0.594,0.293-0.9,0.52
						c-0.173,0.134-0.316,0.23-0.43,0.29c-0.113,0.061-0.237,0.09-0.37,0.09h-0.96c-0.12,0-0.227-0.043-0.32-0.13
						c-0.093-0.086-0.133-0.189-0.12-0.31l0.62-6.66c0.04-0.333,0.207-0.5,0.5-0.5h6.92c0.146,0,0.261,0.04,0.341,0.12
						c0.079,0.08,0.119,0.193,0.119,0.34v0.74c0,0.133-0.043,0.24-0.13,0.319c-0.087,0.08-0.196,0.12-0.33,0.12h-5.76l-0.359,4.021
						c0.64-0.453,1.5-0.68,2.579-0.68c0.894,0,1.707,0.177,2.44,0.529c0.733,0.354,1.316,0.87,1.75,1.55
						c0.434,0.681,0.65,1.487,0.65,2.421c0,0.986-0.217,1.836-0.65,2.55c-0.434,0.713-1.033,1.253-1.8,1.62
						c-0.767,0.366-1.644,0.55-2.63,0.55C891.473,410.546,890.605,410.365,889.872,410.006z"/>
					<path fill="#00B9D2" d="M902.122,410.036c-0.793-0.341-1.41-0.83-1.85-1.471c-0.44-0.64-0.66-1.387-0.66-2.239
						c0-0.787,0.196-1.477,0.59-2.07s0.923-1.05,1.59-1.37c-0.533-0.307-0.946-0.71-1.24-1.21c-0.293-0.5-0.439-1.09-0.439-1.771
						c0-1.159,0.433-2.076,1.3-2.75c0.866-0.673,2.007-1.01,3.42-1.01s2.55,0.334,3.41,1c0.86,0.667,1.29,1.587,1.29,2.76
						c0,0.667-0.146,1.25-0.44,1.75c-0.293,0.5-0.699,0.91-1.22,1.23c0.667,0.32,1.196,0.776,1.59,1.37s0.59,1.29,0.59,2.09
						c0,0.854-0.22,1.597-0.659,2.23c-0.44,0.633-1.058,1.119-1.851,1.46c-0.793,0.34-1.696,0.51-2.71,0.51
						S902.915,410.376,902.122,410.036z M907.202,408.266c0.633-0.479,0.95-1.12,0.95-1.92s-0.317-1.44-0.95-1.92
						c-0.634-0.48-1.424-0.72-2.37-0.72c-0.96,0-1.757,0.239-2.39,0.72c-0.634,0.479-0.95,1.12-0.95,1.92s0.316,1.44,0.95,1.92
						c0.633,0.48,1.43,0.72,2.39,0.72C905.778,408.985,906.568,408.746,907.202,408.266z M906.893,401.546
						c0.56-0.4,0.84-0.934,0.84-1.601c0-0.68-0.277-1.223-0.83-1.63c-0.554-0.406-1.243-0.609-2.07-0.609
						c-0.84,0-1.533,0.203-2.08,0.609c-0.547,0.407-0.819,0.95-0.819,1.63c0,0.681,0.272,1.224,0.819,1.631
						c0.547,0.406,1.24,0.609,2.08,0.609C905.646,402.159,906.332,401.945,906.893,401.546z"/>
					<path fill="#00B9D2" d="M917.722,410.216c-0.087-0.087-0.13-0.196-0.13-0.33v-9.48c0-0.133,0.043-0.243,0.13-0.329
						c0.087-0.087,0.196-0.131,0.33-0.131h0.84c0.134,0,0.24,0.044,0.32,0.131c0.08,0.086,0.12,0.196,0.12,0.329v0.681
						c0.72-0.894,1.693-1.34,2.92-1.34c1.467,0,2.507,0.613,3.12,1.84c0.319-0.561,0.776-1.007,1.37-1.34
						c0.593-0.334,1.256-0.5,1.989-0.5c1.094,0,1.987,0.373,2.681,1.119c0.692,0.747,1.04,1.827,1.04,3.24v5.78
						c0,0.134-0.044,0.243-0.13,0.33c-0.087,0.087-0.197,0.13-0.33,0.13h-0.86c-0.134,0-0.243-0.043-0.33-0.13
						s-0.13-0.196-0.13-0.33v-5.6c0-1.067-0.22-1.83-0.66-2.29c-0.439-0.46-1.02-0.69-1.74-0.69c-0.64,0-1.189,0.237-1.649,0.71
						c-0.46,0.474-0.69,1.23-0.69,2.271v5.6c0,0.134-0.043,0.243-0.13,0.33s-0.197,0.13-0.33,0.13h-0.88
						c-0.134,0-0.243-0.043-0.33-0.13s-0.13-0.196-0.13-0.33v-5.6c0-1.054-0.23-1.813-0.69-2.28s-1.029-0.7-1.71-0.7
						c-0.64,0-1.189,0.233-1.649,0.7s-0.69,1.22-0.69,2.26v5.62c0,0.134-0.043,0.243-0.13,0.33s-0.197,0.13-0.33,0.13h-0.88
						C917.918,410.346,917.809,410.303,917.722,410.216z"/>
					<path fill="#00B9D2" d="M935.481,410.216c-0.087-0.087-0.13-0.196-0.13-0.33v-9.48c0-0.133,0.043-0.243,0.13-0.329
						c0.087-0.087,0.196-0.131,0.33-0.131h0.84c0.134,0,0.24,0.044,0.32,0.131c0.08,0.086,0.12,0.196,0.12,0.329v0.681
						c0.72-0.894,1.693-1.34,2.92-1.34c1.467,0,2.507,0.613,3.12,1.84c0.319-0.561,0.776-1.007,1.37-1.34
						c0.593-0.334,1.256-0.5,1.989-0.5c1.094,0,1.987,0.373,2.681,1.119c0.692,0.747,1.04,1.827,1.04,3.24v5.78
						c0,0.134-0.044,0.243-0.13,0.33c-0.087,0.087-0.197,0.13-0.33,0.13h-0.86c-0.134,0-0.243-0.043-0.33-0.13
						s-0.13-0.196-0.13-0.33v-5.6c0-1.067-0.22-1.83-0.66-2.29c-0.439-0.46-1.02-0.69-1.74-0.69c-0.64,0-1.189,0.237-1.649,0.71
						c-0.46,0.474-0.69,1.23-0.69,2.271v5.6c0,0.134-0.043,0.243-0.13,0.33s-0.197,0.13-0.33,0.13h-0.88
						c-0.134,0-0.243-0.043-0.33-0.13s-0.13-0.196-0.13-0.33v-5.6c0-1.054-0.23-1.813-0.69-2.28s-1.029-0.7-1.71-0.7
						c-0.64,0-1.189,0.233-1.649,0.7s-0.69,1.22-0.69,2.26v5.62c0,0.134-0.043,0.243-0.13,0.33s-0.197,0.13-0.33,0.13h-0.88
						C935.678,410.346,935.568,410.303,935.481,410.216z"/>
				</g>
			</g>
		</g>
		<g>
			<g id="POLYLINE_676_">
				
					<polyline fill="none" stroke="#00B9D2" stroke-width="2" stroke-linecap="round" stroke-linejoin="round" stroke-miterlimit="10" points="
					436.157,811.811 430.43,806.084 424.703,811.811 				"/>
			</g>
			<g id="POLYLINE_675_">
				
					<line fill="none" stroke="#00B9D2" stroke-width="2" stroke-linecap="round" stroke-linejoin="round" stroke-miterlimit="10" x1="430.43" y1="807" x2="430.43" y2="841.69"/>
			</g>
			<g id="POLYLINE_674_">
				
					<polyline fill="none" stroke="#00B9D2" stroke-width="2" stroke-linecap="round" stroke-linejoin="round" stroke-miterlimit="10" points="
					436.147,835.951 430.42,841.678 424.693,835.951 				"/>
			</g>
			<g id="MTEXT_5_" opacity="0.98">
				<g>
					<path fill="#00B9D2" d="M448.643,830.416c-0.087-0.087-0.13-0.196-0.13-0.33v-1.38c0-0.133,0.043-0.247,0.13-0.34
						c0.086-0.094,0.196-0.141,0.33-0.141h1.38c0.133,0,0.243,0.047,0.33,0.141c0.086,0.093,0.13,0.207,0.13,0.34v1.38
						c0,0.134-0.044,0.243-0.13,0.33c-0.087,0.087-0.197,0.13-0.33,0.13h-1.38C448.839,830.546,448.729,830.503,448.643,830.416z"/>
					<path fill="#00B9D2" d="M455.372,830.236c-0.76-0.341-1.337-0.783-1.729-1.33c-0.394-0.547-0.604-1.113-0.63-1.7
						c0-0.12,0.04-0.217,0.12-0.29c0.079-0.073,0.18-0.11,0.3-0.11h0.899c0.146,0,0.267,0.03,0.36,0.09
						c0.093,0.061,0.167,0.178,0.22,0.351c0.174,0.68,0.55,1.16,1.13,1.439c0.58,0.28,1.264,0.42,2.051,0.42
						c0.96,0,1.723-0.229,2.29-0.689c0.566-0.46,0.85-1.116,0.85-1.97c0-1.627-0.993-2.44-2.98-2.44h-1.88
						c-0.133,0-0.243-0.043-0.33-0.13s-0.13-0.196-0.13-0.33v-0.52c0-0.2,0.073-0.374,0.221-0.521l3.899-4.32h-5.92
						c-0.134,0-0.243-0.04-0.33-0.12c-0.087-0.079-0.13-0.187-0.13-0.319v-0.72c0-0.147,0.043-0.264,0.13-0.351
						s0.196-0.13,0.33-0.13h7.92c0.146,0,0.264,0.043,0.351,0.13c0.086,0.087,0.13,0.203,0.13,0.351v0.659
						c0,0.147-0.067,0.301-0.2,0.46l-3.9,4.381h0.32c1.36,0.039,2.437,0.393,3.229,1.06c0.794,0.667,1.19,1.64,1.19,2.92
						c0,0.88-0.217,1.637-0.65,2.271c-0.433,0.633-1.036,1.119-1.81,1.46c-0.773,0.34-1.646,0.51-2.62,0.51
						C457.032,830.746,456.133,830.576,455.372,830.236z"/>
					<path fill="#00B9D2" d="M465.223,830.416c-0.087-0.087-0.13-0.196-0.13-0.33v-0.6c0-0.307,0.166-0.601,0.5-0.881l4.359-4.34
						c0.986-0.84,1.667-1.526,2.04-2.06s0.561-1.101,0.561-1.7c0-0.786-0.221-1.403-0.66-1.85c-0.44-0.447-1.08-0.67-1.92-0.67
						c-0.801,0-1.434,0.233-1.9,0.699c-0.467,0.467-0.753,1.094-0.86,1.88c-0.026,0.147-0.093,0.261-0.199,0.341
						c-0.107,0.08-0.214,0.12-0.32,0.12h-0.96c-0.12,0-0.22-0.04-0.3-0.12s-0.12-0.174-0.12-0.28c0.026-0.707,0.217-1.39,0.569-2.05
						c0.354-0.66,0.877-1.2,1.57-1.62s1.533-0.63,2.521-0.63c1.493,0,2.616,0.39,3.37,1.17c0.753,0.78,1.13,1.77,1.13,2.97
						c0,0.84-0.204,1.597-0.61,2.271c-0.407,0.673-1.043,1.383-1.91,2.13l-3.939,4h6.3c0.146,0,0.26,0.04,0.34,0.12
						c0.08,0.079,0.12,0.193,0.12,0.34v0.76c0,0.134-0.044,0.243-0.13,0.33c-0.087,0.087-0.197,0.13-0.33,0.13h-8.76
						C465.419,830.546,465.309,830.503,465.223,830.416z"/>
					<path fill="#00B9D2" d="M477.002,820.026c-0.06-0.08-0.077-0.181-0.05-0.301l0.439-2.8c0.054-0.387,0.24-0.58,0.561-0.58h1.28
						c0.093,0,0.17,0.033,0.229,0.101c0.061,0.066,0.09,0.146,0.09,0.239c0,0.134-0.02,0.24-0.06,0.32l-1.04,2.7
						c-0.067,0.146-0.141,0.257-0.22,0.33c-0.08,0.073-0.2,0.109-0.36,0.109h-0.62C477.146,820.146,477.062,820.105,477.002,820.026
						z M480.142,820.026c-0.06-0.08-0.076-0.181-0.05-0.301l0.44-2.8c0.053-0.387,0.24-0.58,0.56-0.58h1.28
						c0.093,0,0.17,0.033,0.229,0.101c0.061,0.066,0.091,0.146,0.091,0.239c0,0.134-0.021,0.24-0.061,0.32l-1.04,2.7
						c-0.066,0.146-0.14,0.257-0.22,0.33s-0.2,0.109-0.36,0.109h-0.62C480.285,820.146,480.202,820.105,480.142,820.026z"/>
					<path fill="#00B9D2" d="M490.012,834.576c-0.08-0.087-0.12-0.197-0.12-0.33v-21.16c0-0.133,0.04-0.243,0.12-0.33
						s0.187-0.13,0.32-0.13h0.739c0.134,0,0.243,0.043,0.33,0.13s0.13,0.197,0.13,0.33v21.16c0,0.133-0.043,0.243-0.13,0.33
						c-0.087,0.086-0.196,0.13-0.33,0.13h-0.739C490.198,834.706,490.092,834.662,490.012,834.576z"/>
					<path fill="#00B9D2" d="M501.562,830.236c-0.793-0.341-1.41-0.83-1.85-1.471c-0.44-0.64-0.66-1.387-0.66-2.239
						c0-0.787,0.196-1.477,0.59-2.07s0.923-1.05,1.59-1.37c-0.533-0.307-0.946-0.71-1.24-1.21c-0.293-0.5-0.439-1.09-0.439-1.771
						c0-1.159,0.433-2.076,1.3-2.75c0.866-0.673,2.007-1.01,3.42-1.01s2.55,0.334,3.41,1c0.86,0.667,1.29,1.587,1.29,2.76
						c0,0.667-0.146,1.25-0.44,1.75c-0.293,0.5-0.699,0.91-1.22,1.23c0.667,0.32,1.196,0.776,1.59,1.37s0.59,1.29,0.59,2.09
						c0,0.854-0.22,1.597-0.659,2.23c-0.44,0.633-1.058,1.119-1.851,1.46c-0.793,0.34-1.696,0.51-2.71,0.51
						S502.354,830.576,501.562,830.236z M506.642,828.466c0.633-0.479,0.95-1.12,0.95-1.92s-0.317-1.44-0.95-1.92
						c-0.634-0.48-1.424-0.72-2.37-0.72c-0.96,0-1.757,0.239-2.39,0.72c-0.634,0.479-0.95,1.12-0.95,1.92s0.316,1.44,0.95,1.92
						c0.633,0.48,1.43,0.72,2.39,0.72C505.218,829.186,506.008,828.946,506.642,828.466z M506.332,821.746
						c0.56-0.4,0.84-0.934,0.84-1.601c0-0.68-0.277-1.223-0.83-1.63c-0.554-0.406-1.243-0.609-2.07-0.609
						c-0.84,0-1.533,0.203-2.08,0.609c-0.547,0.407-0.819,0.95-0.819,1.63c0,0.681,0.272,1.224,0.819,1.631
						c0.547,0.406,1.24,0.609,2.08,0.609C505.085,822.359,505.771,822.146,506.332,821.746z"/>
					<path fill="#00B9D2" d="M511.901,830.416c-0.087-0.087-0.13-0.196-0.13-0.33v-1.38c0-0.133,0.043-0.247,0.13-0.34
						c0.086-0.094,0.196-0.141,0.33-0.141h1.38c0.133,0,0.243,0.047,0.33,0.141c0.086,0.093,0.13,0.207,0.13,0.34v1.38
						c0,0.134-0.044,0.243-0.13,0.33c-0.087,0.087-0.197,0.13-0.33,0.13h-1.38C512.098,830.546,511.987,830.503,511.901,830.416z"/>
					<path fill="#00B9D2" d="M519.271,830.416c-0.08-0.087-0.12-0.196-0.12-0.33v-11.28l-3.36,2.58c-0.093,0.08-0.193,0.12-0.3,0.12
						c-0.12,0-0.233-0.066-0.34-0.2l-0.48-0.62c-0.066-0.093-0.1-0.187-0.1-0.279c0-0.146,0.066-0.267,0.2-0.36l4.34-3.36
						c0.146-0.093,0.32-0.14,0.52-0.14h0.94c0.133,0,0.243,0.043,0.33,0.13s0.13,0.197,0.13,0.33v13.08
						c0,0.134-0.043,0.243-0.13,0.33s-0.197,0.13-0.33,0.13h-0.98C519.458,830.546,519.352,830.503,519.271,830.416z"/>
					<path fill="#00B9D2" d="M529.121,830.416c-0.087-0.087-0.13-0.196-0.13-0.33v-9.48c0-0.133,0.043-0.243,0.13-0.329
						c0.087-0.087,0.196-0.131,0.33-0.131h0.84c0.134,0,0.24,0.044,0.32,0.131c0.08,0.086,0.12,0.196,0.12,0.329v0.681
						c0.72-0.894,1.693-1.34,2.92-1.34c1.467,0,2.507,0.613,3.12,1.84c0.319-0.561,0.776-1.007,1.37-1.34
						c0.593-0.334,1.256-0.5,1.989-0.5c1.094,0,1.987,0.373,2.681,1.119c0.692,0.747,1.04,1.827,1.04,3.24v5.78
						c0,0.134-0.044,0.243-0.13,0.33c-0.087,0.087-0.197,0.13-0.33,0.13h-0.86c-0.134,0-0.243-0.043-0.33-0.13
						s-0.13-0.196-0.13-0.33v-5.6c0-1.067-0.22-1.83-0.66-2.29c-0.439-0.46-1.02-0.69-1.74-0.69c-0.64,0-1.189,0.237-1.649,0.71
						c-0.46,0.474-0.69,1.23-0.69,2.271v5.6c0,0.134-0.043,0.243-0.13,0.33s-0.197,0.13-0.33,0.13h-0.88
						c-0.134,0-0.243-0.043-0.33-0.13s-0.13-0.196-0.13-0.33v-5.6c0-1.054-0.23-1.813-0.69-2.28s-1.029-0.7-1.71-0.7
						c-0.64,0-1.189,0.233-1.649,0.7s-0.69,1.22-0.69,2.26v5.62c0,0.134-0.043,0.243-0.13,0.33s-0.197,0.13-0.33,0.13h-0.88
						C529.317,830.546,529.208,830.503,529.121,830.416z"/>
					<path fill="#00B9D2" d="M546.88,830.416c-0.087-0.087-0.13-0.196-0.13-0.33v-9.48c0-0.133,0.043-0.243,0.13-0.329
						c0.087-0.087,0.196-0.131,0.33-0.131h0.84c0.134,0,0.24,0.044,0.32,0.131c0.08,0.086,0.12,0.196,0.12,0.329v0.681
						c0.72-0.894,1.693-1.34,2.92-1.34c1.467,0,2.507,0.613,3.12,1.84c0.319-0.561,0.776-1.007,1.37-1.34
						c0.593-0.334,1.256-0.5,1.989-0.5c1.094,0,1.987,0.373,2.681,1.119c0.692,0.747,1.04,1.827,1.04,3.24v5.78
						c0,0.134-0.044,0.243-0.13,0.33c-0.087,0.087-0.197,0.13-0.33,0.13h-0.86c-0.134,0-0.243-0.043-0.33-0.13
						s-0.13-0.196-0.13-0.33v-5.6c0-1.067-0.22-1.83-0.66-2.29c-0.439-0.46-1.02-0.69-1.74-0.69c-0.64,0-1.189,0.237-1.649,0.71
						c-0.46,0.474-0.69,1.23-0.69,2.271v5.6c0,0.134-0.043,0.243-0.13,0.33s-0.197,0.13-0.33,0.13h-0.88
						c-0.134,0-0.243-0.043-0.33-0.13s-0.13-0.196-0.13-0.33v-5.6c0-1.054-0.23-1.813-0.69-2.28s-1.029-0.7-1.71-0.7
						c-0.64,0-1.189,0.233-1.649,0.7s-0.69,1.22-0.69,2.26v5.62c0,0.134-0.043,0.243-0.13,0.33s-0.197,0.13-0.33,0.13h-0.88
						C547.076,830.546,546.967,830.503,546.88,830.416z"/>
				</g>
			</g>
		</g>
	</g>
</g>
<g id="N-TEXT">
</g>
<g id="AG-DIGITAL">
	<g id="POLYLINE_673_">
		
			<path fill="none" stroke="#00B9D2" stroke-width="2.75" stroke-linecap="round" stroke-linejoin="round" stroke-miterlimit="10" d="
			M68.305,153.348c0.44,0,2.131-0.244,2.374,0.034c0.128,0.147,0,1.012,0,1.194c0,2.103,0,4.207,0,6.31c0,5.084,0,10.169,0,15.253
			c0,0.361,0.194,1.422,0,1.74c-0.205,0.336-1.884,0.103-2.374,0.103c0,0,0-19.801,0-21.541
			C68.305,155.411,68.305,154.379,68.305,153.348z"/>
	</g>
	<g id="POLYLINE_672_">
		
			<path fill="none" stroke="#00B9D2" stroke-width="2.75" stroke-linecap="round" stroke-linejoin="round" stroke-miterlimit="10" d="
			M68.305,200.012c0.369,0,2.172-0.24,2.374,0c0.047,0.055-0.012,0.29,0,0.359c0.143,0.807,0,1.774,0,2.591
			c0,3.565,0,7.131,0,10.696c0,8.829,0,17.658,0,26.488c0,1.381,0,2.762,0,4.143c0,0.394,0.224,1.647,0,1.989
			c-0.146,0.223-2.229,0.223-2.374,0c-0.229-0.35,0-1.63,0-2.034c0-7.915,0-15.83,0-23.746c0-6.715,0-13.431,0-20.146
			C68.305,200.239,68.305,200.125,68.305,200.012z"/>
	</g>
	<g id="POLYLINE_671_">
		
			<path fill="none" stroke="#00B9D2" stroke-width="2.75" stroke-linecap="round" stroke-linejoin="round" stroke-miterlimit="10" d="
			M68.305,258.238c0.369,0,2.172-0.24,2.374,0c0.047,0.055-0.012,0.29,0,0.359c0.143,0.807,0,1.774,0,2.591
			c0,3.565,0,7.131,0,10.696c0,8.829,0,17.658,0,26.488c0,1.381,0,2.762,0,4.143c0,0.394,0.224,1.647,0,1.989
			c-0.146,0.223-2.229,0.223-2.374,0c-0.229-0.35,0-1.63,0-2.034c0-7.915,0-15.83,0-23.746c0-6.715,0-13.431,0-20.146
			C68.305,258.465,68.305,258.352,68.305,258.238z"/>
	</g>
	<g id="POLYLINE_670_">
		
			<path fill="none" stroke="#00B9D2" stroke-width="2.75" stroke-linecap="round" stroke-linejoin="round" stroke-miterlimit="10" d="
			M409.735,214.565c0.46,0,2.154-0.231,2.374,0.071c0.102,0.141,0,0.754,0,0.921c0,1.55,0,3.1,0,4.65c0,5.781,0,11.563,0,17.344
			c0,7.3,0,14.6,0,21.899c0,6.463,0,12.926,0,19.389c0,2.147,0,4.294,0,6.441c0,0.67,0,1.339,0,2.009c0,0.233,0.115,0.84,0,1.049
			c-0.149,0.269-1.773,0.28-2.137,0.129c-0.334-0.139-0.2,0.014-0.238-0.419c-0.108-1.227,0-2.514,0-3.744c0-5.417,0-10.834,0-16.25
			c0-7.271,0-14.543,0-21.814c0-6.697,0-13.393,0-20.09c0-3.686,0-7.372,0-11.058C409.735,214.916,409.735,214.741,409.735,214.565z
			"/>
	</g>
	<g id="POLYLINE_669_">
		
			<path fill="none" stroke="#00B9D2" stroke-width="2.75" stroke-linecap="round" stroke-linejoin="round" stroke-miterlimit="10" d="
			M159.096,75.749c-8.727,0-17.454,0-26.181,0c-3.88,0-7.76-0.002-11.64,0c-2.698,0.001-5.367,0.269-7.989,0.919
			c-6.262,1.552-11.972,5.082-16.166,9.983c-4.194,4.902-6.798,11.089-7.362,17.516c-0.142,1.612-0.121,3.225-0.121,4.841
			c0,2.482,0,4.963,0,7.445c0,4.125,0,8.251,0,12.376c0,5.63,0,11.26,0,16.889c0,6.966,0,13.933,0,20.899c0,8.121,0,16.241,0,24.362
			c0,9.135,0,18.271,0,27.406c0,10.022,0,20.044,0,30.066c0,10.726,0,21.452,0,32.178c0,11.24,0,22.479,0,33.719
			c0,11.625,0,23.251,0,34.876c0,11.92,0,23.841,0,35.761c0,11.925,0,23.851,0,35.776c0,11.839,0,23.678,0,35.517
			c0,11.595,0,23.191,0,34.786c0,11.256,0,22.512,0,33.768c0,10.634,0,21.268,0,31.901c0,9.918,0,19.836,0,29.755
			c0,9.046,0,18.091,0,27.137c0,8.058,0,16.115,0,24.173c0,6.822,0,13.645,0,20.467c0,5.478,0,10.956,0,16.433
			c0,3.985,0,7.97,0,11.955c0,2.317,0,4.633,0,6.95c0,2.102,0.034,4.188,0.348,6.276c0.955,6.348,3.899,12.329,8.347,16.958
			c4.468,4.649,10.366,7.841,16.705,9.03c3.035,0.569,6.069,0.538,9.136,0.538c5.008,0,10.016,0,15.024,0c8.151,0,16.303,0,24.454,0
			c10.374,0,20.748,0,31.122,0c11.617,0,23.235,0,34.852,0c11.868,0,23.737,0,35.605,0c11.198,0,22.396,0,33.594,0
			c9.623,0,19.246,0,28.869,0c6.984,0,13.969,0,20.953,0c3.453,0,6.905,0,10.358,0c4.742,0,9.379-0.885,13.698-2.88
			c5.877-2.715,10.822-7.277,14.018-12.904c2.674-4.708,4.039-10.05,4.058-15.457c0.004-1.251,0-2.502,0-3.753
			c0-3.003,0-6.007,0-9.01c0-4.629,0-9.258,0-13.887c0-6.045,0-12.09,0-18.135c0-7.326,0-14.651,0-21.977c0-8.474,0-16.948,0-25.422
			c0-9.445,0-18.891,0-28.337c0-10.229,0-20.458,0-30.687c0-10.88,0-21.761,0-32.641c0-11.407,0-22.814,0-34.222
			c0-11.746,0-23.492,0-35.238c0-11.893,0-23.786,0-35.679c0-11.915,0-23.831,0-35.746c0-11.846,0-23.692,0-35.538
			c0-11.487,0-22.974,0-34.461c0-11.037,0-22.075,0-33.112c0-10.431,0-20.861,0-31.292c0-9.718,0-19.437,0-29.155
			c0-8.74,0-17.481,0-26.221c0-7.662,0-15.323,0-22.985c0-6.426,0-12.852,0-19.278c0-5.057,0-10.114,0-15.171
			c0-3.474,0-6.948,0-10.422c0-1.766,0-3.532,0-5.299c0-3.738-0.529-7.419-1.776-10.954c-2.154-6.105-6.223-11.459-11.528-15.169
			c-5.226-3.654-11.492-5.597-17.861-5.625c-8.787-0.038-17.575,0-26.362,0c-3.849,0-7.698-0.004-11.547,0
			c-1.449,0.002-2.811,0.3-3.747,1.501c-1.529,1.96-1.344,4.949-1.884,7.253c-0.735,3.137-1.966,6.248-4.09,8.714
			c-3.515,4.081-8.468,4.927-13.582,4.927c-9.331,0-18.661,0-27.992,0c-9.47,0-18.94,0-28.41,0c-4.808,0-9.617,0-14.425,0
			c-11.288,0-22.576,0-33.865,0c-3.826,0-7.651,0-11.477,0c-2.118,0-4.222,0.003-6.302-0.477
			c-6.38-1.473-10.017-6.762-11.512-12.847C163.59,81.442,163.953,75.743,159.096,75.749z"/>
	</g>
	<g id="POLYLINE_668_">
		
			<path fill="none" stroke="#00B9D2" stroke-width="2.75" stroke-linecap="round" stroke-linejoin="round" stroke-miterlimit="10" d="
			M70.679,695.245c0.065,7.548,1.702,14.978,4.984,21.788c3.277,6.798,8.109,12.814,14.02,17.501
			c5.881,4.663,12.808,7.959,20.128,9.608c4.252,0.958,8.547,1.22,12.887,1.22c4.449,0,8.899,0,13.348,0c7.909,0,15.819,0,23.728,0
			c10.308,0,20.616,0,30.924,0c11.715,0,23.43,0,35.146,0c12.146,0,24.292,0,36.438,0c11.47,0,22.939,0,34.409,0
			c9.906,0,19.813,0,29.719,0c7.229,0,14.459,0,21.688,0c3.619,0,7.238,0,10.858,0c5.491,0,10.914-0.757,16.146-2.454
			c7.14-2.315,13.72-6.257,19.147-11.439c5.471-5.225,9.705-11.686,12.346-18.772c2.096-5.624,3.121-11.586,3.139-17.583
			c0.004-1.383,0-2.766,0-4.149c0-3.193,0-6.385,0-9.578c0-4.837,0-9.674,0-14.511c0-6.334,0-12.668,0-19.002
			c0-7.607,0-15.214,0-22.822c0-8.797,0-17.594,0-26.391c0-9.725,0-19.449,0-29.174c0-10.592,0-21.184,0-31.776
			c0-11.21,0-22.419,0-33.629c0-11.688,0-23.377,0-35.065c0-12.034,0-24.068,0-36.102c0-12.113,0-24.227,0-36.34
			c0-12.159,0-24.318,0-36.477c0-11.906,0-23.812,0-35.718c0-11.617,0-23.234,0-34.85c0-11.094,0-22.187,0-33.281
			c0-10.348,0-20.696,0-31.044c0-9.549,0-19.098,0-28.647c0-8.48,0-16.96,0-25.439c0-7.337,0-14.674,0-22.01
			c0-5.962,0-11.924,0-17.886c0-4.443,0-8.885,0-13.328c0-2.762,0-5.524,0-8.285c0-1.189,0.013-2.379-0.007-3.567
			c-0.13-7.519-1.975-14.984-5.36-21.699c-3.378-6.703-8.273-12.607-14.222-17.182c-5.982-4.601-13.002-7.803-20.39-9.334
			c-4.078-0.845-8.184-1.038-12.329-1.038c-4.599,0-9.198,0-13.797,0c-8.021,0-16.042,0-24.063,0c-10.35,0-20.7,0-31.05,0
			c-11.78,0-23.56,0-35.34,0c-12.108,0-24.217,0-36.325,0c-11.459,0-22.918,0-34.376,0c-9.824,0-19.648,0-29.471,0
			c-7.109,0-14.217,0-21.326,0c-3.459,0-6.918,0-10.377,0c-5.684,0-11.307,0.852-16.694,2.687
			c-7.144,2.433-13.698,6.505-19.063,11.809c-5.38,5.318-9.502,11.852-12.02,18.983c-1.909,5.405-2.829,11.095-2.845,16.821
			c-0.004,1.456,0,2.911,0,4.367c0,3.247,0,6.495,0,9.742c0,4.908,0,9.816,0,14.724c0,6.368,0,12.737,0,19.105
			c0,7.673,0,15.347,0,23.02c0,8.838,0,17.675,0,26.513c0,9.759,0,19.517,0,29.276c0,10.62,0,21.24,0,31.86
			c0,11.199,0,22.399,0,33.598c0,11.735,0,23.47,0,35.205c0,12.043,0,24.085,0,36.128c0,12.116,0,24.231,0,36.347
			c0,12.155,0,24.31,0,36.465c0,11.896,0,23.791,0,35.687c0,11.6,0,23.2,0,34.8c0,11.012,0,22.023,0,33.035
			c0,10.377,0,20.754,0,31.131c0,9.513,0,19.026,0,28.539c0,8.438,0,16.875,0,25.312c0,7.288,0,14.576,0,21.863
			c0,5.893,0,11.785,0,17.678c0,4.395,0,8.79,0,13.185c0,2.689,0,5.377,0,8.066C70.679,693.573,70.679,694.409,70.679,695.245z"/>
	</g>
	<g id="POLYLINE_667_">
		
			<path fill="none" stroke="#00B9D2" stroke-width="2.75" stroke-linecap="round" stroke-linejoin="round" stroke-miterlimit="10" d="
			M859.731,695.245c-0.065,7.548-1.702,14.978-4.984,21.788c-3.277,6.798-8.109,12.814-14.02,17.501
			c-5.881,4.663-12.808,7.959-20.128,9.608c-4.252,0.958-8.547,1.22-12.887,1.22c-4.449,0-8.899,0-13.348,0
			c-7.909,0-15.819,0-23.728,0c-10.308,0-20.616,0-30.924,0c-11.715,0-23.43,0-35.146,0c-12.146,0-24.292,0-36.438,0
			c-11.47,0-22.939,0-34.409,0c-9.906,0-19.813,0-29.719,0c-7.229,0-14.459,0-21.688,0c-3.619,0-7.238,0-10.858,0
			c-5.491,0-10.914-0.757-16.146-2.454c-7.14-2.315-13.72-6.257-19.147-11.439c-5.471-5.225-9.705-11.686-12.346-18.772
			c-2.096-5.624-3.121-11.586-3.139-17.583c-0.004-1.383,0-2.766,0-4.149c0-3.193,0-6.385,0-9.578c0-4.837,0-9.674,0-14.511
			c0-6.334,0-12.668,0-19.002c0-7.607,0-15.214,0-22.822c0-8.797,0-17.594,0-26.391c0-9.725,0-19.449,0-29.174
			c0-10.592,0-21.184,0-31.776c0-11.21,0-22.419,0-33.629c0-11.688,0-23.377,0-35.065c0-12.034,0-24.068,0-36.102
			c0-12.113,0-24.227,0-36.34c0-12.159,0-24.318,0-36.477c0-11.906,0-23.812,0-35.718c0-11.617,0-23.234,0-34.85
			c0-11.094,0-22.187,0-33.281c0-10.348,0-20.696,0-31.044c0-9.549,0-19.098,0-28.647c0-8.48,0-16.96,0-25.439
			c0-7.337,0-14.674,0-22.01c0-5.962,0-11.924,0-17.886c0-4.443,0-8.885,0-13.328c0-2.762,0-5.524,0-8.285
			c0-1.189-0.013-2.379,0.007-3.567c0.13-7.519,1.975-14.984,5.36-21.699c3.378-6.703,8.273-12.607,14.222-17.182
			c5.982-4.601,13.002-7.803,20.39-9.334c4.078-0.845,8.184-1.038,12.329-1.038c4.599,0,9.198,0,13.797,0c8.021,0,16.042,0,24.063,0
			c10.35,0,20.7,0,31.05,0c11.78,0,23.56,0,35.34,0c12.108,0,24.217,0,36.325,0c11.459,0,22.918,0,34.376,0
			c9.824,0,19.648,0,29.471,0c7.109,0,14.217,0,21.326,0c3.459,0,6.918,0,10.377,0c5.684,0,11.307,0.852,16.694,2.687
			c7.143,2.433,13.698,6.505,19.063,11.809c5.38,5.318,9.502,11.852,12.02,18.983c1.909,5.405,2.829,11.095,2.845,16.821
			c0.004,1.456,0,2.911,0,4.367c0,3.247,0,6.495,0,9.742c0,4.908,0,9.816,0,14.724c0,6.368,0,12.737,0,19.105
			c0,7.673,0,15.347,0,23.02c0,8.838,0,17.675,0,26.513c0,9.759,0,19.517,0,29.276c0,10.62,0,21.24,0,31.86
			c0,11.199,0,22.399,0,33.598c0,11.735,0,23.47,0,35.205c0,12.043,0,24.085,0,36.128c0,12.116,0,24.231,0,36.347
			c0,12.155,0,24.31,0,36.465c0,11.896,0,23.791,0,35.687c0,11.6,0,23.2,0,34.8c0,11.012,0,22.023,0,33.035
			c0,10.377,0,20.754,0,31.131c0,9.513,0,19.026,0,28.539c0,8.438,0,16.875,0,25.312c0,7.288,0,14.576,0,21.863
			c0,5.893,0,11.785,0,17.678c0,4.395,0,8.79,0,13.185c0,2.689,0,5.377,0,8.066C859.731,693.573,859.731,694.409,859.731,695.245z"
			/>
	</g>
	<g id="POLYLINE_666_">
		
			<path fill="none" stroke="#00B9D2" stroke-width="2.75" stroke-linecap="round" stroke-linejoin="round" stroke-miterlimit="10" d="
			M520.675,214.565c-0.46,0-2.154-0.231-2.374,0.071c-0.102,0.141,0,0.754,0,0.921c0,1.55,0,3.1,0,4.65c0,5.781,0,11.563,0,17.344
			c0,7.3,0,14.6,0,21.899c0,6.463,0,12.926,0,19.389c0,2.147,0,4.294,0,6.441c0,0.67,0,1.339,0,2.009c0,0.233-0.115,0.84,0,1.049
			c0.149,0.269,1.773,0.28,2.137,0.129c0.334-0.139,0.2,0.014,0.238-0.419c0.108-1.227,0-2.514,0-3.744c0-5.417,0-10.834,0-16.25
			c0-7.271,0-14.543,0-21.814c0-6.697,0-13.393,0-20.09c0-3.686,0-7.372,0-11.058C520.675,214.916,520.675,214.741,520.675,214.565z
			"/>
	</g>
	<g id="POLYLINE_665_">
		
			<path fill="none" stroke="#00B9D2" stroke-width="2.75" stroke-linecap="round" stroke-linejoin="round" stroke-miterlimit="10" d="
			M862.105,258.238c-0.369,0-2.172-0.24-2.374,0c-0.047,0.055,0.012,0.29,0,0.359c-0.143,0.807,0,1.774,0,2.591
			c0,3.565,0,7.131,0,10.696c0,8.829,0,17.658,0,26.488c0,1.381,0,2.762,0,4.143c0,0.394-0.224,1.647,0,1.989
			c0.146,0.223,2.229,0.223,2.374,0c0.229-0.35,0-1.63,0-2.034c0-7.915,0-15.83,0-23.746c0-6.715,0-13.431,0-20.146
			C862.105,258.465,862.105,258.352,862.105,258.238z"/>
	</g>
	<g id="POLYLINE_664_">
		
			<path fill="none" stroke="#00B9D2" stroke-width="2.75" stroke-linecap="round" stroke-linejoin="round" stroke-miterlimit="10" d="
			M862.105,200.012c-0.369,0-2.172-0.24-2.374,0c-0.047,0.055,0.012,0.29,0,0.359c-0.143,0.807,0,1.774,0,2.591
			c0,3.565,0,7.131,0,10.696c0,8.829,0,17.658,0,26.488c0,1.381,0,2.762,0,4.143c0,0.394-0.224,1.647,0,1.989
			c0.146,0.223,2.229,0.223,2.374,0c0.229-0.35,0-1.63,0-2.034c0-7.915,0-15.83,0-23.746c0-6.715,0-13.431,0-20.146
			C862.105,200.239,862.105,200.125,862.105,200.012z"/>
	</g>
	<g id="POLYLINE_663_">
		
			<path fill="none" stroke="#00B9D2" stroke-width="2.75" stroke-linecap="round" stroke-linejoin="round" stroke-miterlimit="10" d="
			M862.105,153.348c-0.364,0-2.183-0.229-2.374,0.009c-0.108,0.134,0,0.791,0,0.954c0,1.798,0,3.597,0,5.395
			c0,4.895,0,9.791,0,14.686c0,0.788,0,1.575,0,2.363c0,0.191-0.129,1.023,0,1.175c0.128,0.151,1.975,0.186,2.198,0.053
			c0.243-0.145,0.176-0.175,0.176-0.586c0-4.143,0-8.287,0-12.43C862.105,161.094,862.105,157.221,862.105,153.348z"/>
	</g>
	<g id="POLYLINE_662_">
		
			<path fill="none" stroke="#00B9D2" stroke-width="2.75" stroke-linecap="round" stroke-linejoin="round" stroke-miterlimit="10" d="
			M651.451,98.711c-0.006-4.78-3.082-9.158-7.585-10.77c-4.499-1.61-9.664-0.183-12.696,3.51c-3.032,3.693-3.428,9.037-0.973,13.137
			c2.455,4.099,7.353,6.274,12.04,5.344c4.67-0.926,8.359-4.781,9.081-9.486C651.379,100.049,651.633,99.076,651.451,98.711z"/>
	</g>
	<g id="POLYLINE_464_">
		
			<path fill="none" stroke="#00B9D2" stroke-width="2.75" stroke-linecap="round" stroke-linejoin="round" stroke-miterlimit="10" d="
			M645.14,197.471c-0.001-2.143-1.383-4.107-3.401-4.829c-2.017-0.722-4.333-0.082-5.693,1.574c-1.36,1.656-1.537,4.052-0.436,5.89
			c1.101,1.838,3.297,2.813,5.399,2.396c2.094-0.415,3.748-2.144,4.072-4.253C645.12,197.991,645.14,197.731,645.14,197.471z"/>
	</g>
	<g id="POLYLINE_463_">
		
			<path fill="none" stroke="#00B9D2" stroke-width="2.75" stroke-linecap="round" stroke-linejoin="round" stroke-miterlimit="10" d="
			M622.276,170.618c4.744,3.599,10.445,5.747,16.407,6.021c5.96,0.273,11.943-1.331,16.968-4.547
			c5.024-3.216,8.987-7.978,11.234-13.505c2.235-5.496,2.73-11.637,1.403-17.42s-4.451-11.094-8.859-15.065
			c-4.433-3.993-10.075-6.551-15.999-7.254c-5.924-0.703-12.008,0.463-17.252,3.308c-5.215,2.829-9.495,7.261-12.139,12.573
			s-3.6,11.398-2.714,17.265c0.892,5.899,3.629,11.456,7.761,15.759C620.079,168.786,621.15,169.733,622.276,170.618z"/>
	</g>
	<g id="POLYLINE_462_">
		
			<path fill="none" stroke="#00B9D2" stroke-width="2.75" stroke-linecap="round" stroke-linejoin="round" stroke-miterlimit="10" d="
			M558.762,134.589c4.744,3.599,10.445,5.747,16.407,6.021c5.96,0.273,11.943-1.331,16.968-4.547
			c5.024-3.216,8.987-7.978,11.234-13.505c2.235-5.496,2.73-11.637,1.403-17.42c-1.327-5.783-4.451-11.094-8.859-15.065
			c-4.432-3.993-10.075-6.551-15.999-7.254c-5.924-0.703-12.008,0.463-17.252,3.308c-5.215,2.829-9.495,7.261-12.139,12.573
			c-2.644,5.311-3.6,11.398-2.714,17.265c0.892,5.899,3.629,11.456,7.761,15.759C556.565,132.757,557.636,133.703,558.762,134.589z"
			/>
	</g>
	<g id="POLYLINE_461_">
		
			<path fill="none" stroke="#00B9D2" stroke-width="2.75" stroke-linecap="round" stroke-linejoin="round" stroke-miterlimit="10" d="
			M558.762,160.726c4.744-3.599,10.445-5.747,16.407-6.021c5.96-0.273,11.943,1.331,16.968,4.547
			c5.024,3.216,8.987,7.978,11.234,13.505c2.235,5.496,2.73,11.637,1.403,17.42c-1.327,5.783-4.451,11.094-8.859,15.065
			c-4.432,3.993-10.075,6.551-15.999,7.254s-12.008-0.463-17.252-3.308c-5.215-2.829-9.495-7.261-12.139-12.573
			c-2.644-5.311-3.6-11.398-2.714-17.265c0.892-5.899,3.629-11.456,7.761-15.759C556.565,162.558,557.636,161.612,558.762,160.726z"
			/>
	</g>
	<g id="POLYLINE_460_">
		
			<path fill="none" stroke="#00B9D2" stroke-width="2.75" stroke-linecap="round" stroke-linejoin="round" stroke-miterlimit="10" d="
			M576.497,76.605c-7.234,0.011-14.378,2.278-20.279,6.468c-5.957,4.23-10.492,10.313-12.86,17.223
			c-2.293,6.693-1.884,13.651-1.884,20.614c0,9.022,0,18.044,0,27.066c0,10.352,0,20.704,0,31.056c0,3-0.102,6.021,0.271,9.004
			c0.429,3.431,1.37,6.794,2.782,9.95c2.983,6.669,8.065,12.325,14.387,15.99c5.85,3.391,12.259,4.734,18.966,4.734
			c9.322,0,18.643,0,27.965,0c9.816,0,19.632,0,29.448,0c3.033,0,6.04,0.011,9.042-0.501c3.397-0.58,6.707-1.666,9.789-3.211
			c6.584-3.3,12.036-8.683,15.419-15.225c1.588-3.07,2.717-6.376,3.339-9.777c0.531-2.901,0.573-5.807,0.573-8.743
			c0-10.708,0-21.415,0-32.123c0-8.235,0-16.47,0-24.705c0-4.208,0.007-8.416,0-12.624c-0.006-3.298-0.434-6.571-1.334-9.746
			c-1.974-6.964-6.142-13.233-11.79-17.759c-5.532-4.432-12.375-7.105-19.444-7.605c-3.46-0.245-6.973-0.087-10.438-0.087
			c-6.133,0-12.265,0-18.398,0c-8.049,0-16.099,0-24.148,0C584.101,76.605,580.299,76.605,576.497,76.605z"/>
	</g>
	<g id="POLYLINE_459_">
		
			<path fill="none" stroke="#00B9D2" stroke-width="2.75" stroke-linecap="round" stroke-linejoin="round" stroke-miterlimit="10" d="
			M231.362,830.466c-1.368-0.001-2.684-0.662-3.499-1.76c-0.819-1.103-1.07-2.563-0.667-3.877c0.401-1.307,1.42-2.371,2.709-2.829
			c0.614-0.218,1.233-0.25,1.877-0.251c2.356-0.002,4.712,0,7.068,0c5.817,0,11.634-0.016,17.45,0
			c1.343,0.004,2.584,0.376,3.525,1.385c0.933,1,1.347,2.414,1.1,3.759c-0.247,1.345-1.135,2.52-2.362,3.124
			c-0.609,0.299-1.256,0.429-1.93,0.448c-1.732,0.049-3.473,0-5.205,0c-6.243,0-12.485,0-18.728,0
			C232.254,830.466,231.808,830.466,231.362,830.466z"/>
	</g>
	<g id="POLYLINE_458_">
		
			<path fill="none" stroke="#00B9D2" stroke-width="2.75" stroke-linecap="round" stroke-linejoin="round" stroke-miterlimit="10" d="
			M215.345,827.401c3-0.001,4.394-3.889,2.074-5.795c-2.319-1.904-5.864,0.218-5.28,3.162c0.144,0.728,0.54,1.396,1.11,1.872
			C213.394,826.761,215.345,827.679,215.345,827.401z"/>
	</g>
	<g id="POLYLINE_457_">
		
			<path fill="none" stroke="#00B9D2" stroke-width="2.75" stroke-linecap="round" stroke-linejoin="round" stroke-miterlimit="10" d="
			M192.704,827.017c2.648-0.001,3.878-3.432,1.83-5.113c-2.047-1.681-5.175,0.193-4.66,2.79c0.127,0.643,0.477,1.232,0.979,1.652
			c0.257,0.215,0.551,0.384,0.866,0.498C191.808,826.875,192.706,827.023,192.704,827.017z"/>
	</g>
	<g id="POLYLINE_456_">
		
			<path fill="none" stroke="#00B9D2" stroke-width="2.75" stroke-linecap="round" stroke-linejoin="round" stroke-miterlimit="10" d="
			M182.68,827.017c2.648-0.001,3.878-3.432,1.83-5.113c-2.047-1.681-5.175,0.193-4.66,2.79c0.127,0.643,0.477,1.232,0.979,1.652
			C180.959,826.452,182.68,827.262,182.68,827.017z"/>
	</g>
	<g id="POLYLINE_455_">
		
			<path fill="none" stroke="#00B9D2" stroke-width="2.75" stroke-linecap="round" stroke-linejoin="round" stroke-miterlimit="10" d="
			M172.657,827.017c2.648-0.001,3.878-3.432,1.83-5.113c-2.047-1.681-5.175,0.193-4.66,2.79c0.127,0.643,0.477,1.232,0.979,1.652
			C170.935,826.452,172.657,827.262,172.657,827.017z"/>
	</g>
	<g id="POLYLINE_454_">
		
			<path fill="none" stroke="#00B9D2" stroke-width="2.75" stroke-linecap="round" stroke-linejoin="round" stroke-miterlimit="10" d="
			M345.415,827.017c-2.648-0.001-3.878-3.432-1.83-5.113c2.047-1.681,5.175,0.193,4.66,2.79c-0.127,0.643-0.477,1.232-0.979,1.652
			c-0.257,0.215-0.551,0.384-0.866,0.498C346.293,826.882,345.427,826.991,345.415,827.017z"/>
	</g>
	<g id="POLYLINE_453_">
		
			<path fill="none" stroke="#00B9D2" stroke-width="2.75" stroke-linecap="round" stroke-linejoin="round" stroke-miterlimit="10" d="
			M335.391,827.017c-2.648-0.001-3.878-3.432-1.83-5.113c2.047-1.681,5.175,0.193,4.66,2.79c-0.127,0.643-0.477,1.232-0.979,1.652
			c-0.257,0.215-0.551,0.384-0.866,0.498C336.287,826.875,335.389,827.023,335.391,827.017z"/>
	</g>
	<g id="POLYLINE_452_">
		
			<path fill="none" stroke="#00B9D2" stroke-width="2.75" stroke-linecap="round" stroke-linejoin="round" stroke-miterlimit="10" d="
			M325.368,827.017c-2.648-0.001-3.878-3.432-1.83-5.113c2.047-1.681,5.175,0.193,4.66,2.79c-0.127,0.643-0.477,1.232-0.979,1.652
			C327.089,826.452,325.368,827.262,325.368,827.017z"/>
	</g>
	<g id="POLYLINE_451_">
		
			<path fill="none" stroke="#00B9D2" stroke-width="2.75" stroke-linecap="round" stroke-linejoin="round" stroke-miterlimit="10" d="
			M315.344,827.017c-2.648-0.001-3.878-3.432-1.83-5.113c2.047-1.681,5.175,0.193,4.66,2.79c-0.127,0.643-0.477,1.232-0.979,1.652
			c-0.257,0.215-0.551,0.384-0.866,0.498C316.223,826.882,315.357,826.991,315.344,827.017z"/>
	</g>
	<g id="POLYLINE_450_">
		
			<path fill="none" stroke="#00B9D2" stroke-width="2.75" stroke-linecap="round" stroke-linejoin="round" stroke-miterlimit="10" d="
			M305.321,827.017c-2.648-0.001-3.878-3.432-1.83-5.113c2.047-1.681,5.175,0.193,4.66,2.79c-0.127,0.643-0.477,1.232-0.979,1.652
			c-0.257,0.215-0.551,0.384-0.866,0.498C306.199,826.882,305.333,826.991,305.321,827.017z"/>
	</g>
	<g id="POLYLINE_449_">
		
			<path fill="none" stroke="#00B9D2" stroke-width="2.75" stroke-linecap="round" stroke-linejoin="round" stroke-miterlimit="10" d="
			M295.297,827.017c-2.648-0.001-3.878-3.432-1.83-5.113c2.047-1.681,5.175,0.193,4.66,2.79c-0.127,0.643-0.477,1.232-0.979,1.652
			C297.019,826.452,295.297,827.262,295.297,827.017z"/>
	</g>
	<g id="POLYLINE_448_">
		
			<path fill="none" stroke="#00B9D2" stroke-width="2.75" stroke-linecap="round" stroke-linejoin="round" stroke-miterlimit="10" d="
			M272.656,827.401c-3-0.001-4.394-3.889-2.074-5.795c2.319-1.904,5.864,0.218,5.28,3.162c-0.144,0.728-0.54,1.396-1.11,1.872
			C274.607,826.761,272.656,827.679,272.656,827.401z"/>
	</g>
	<g id="POLYLINE_447_">
		
			<path fill="none" stroke="#00B9D2" stroke-width="2.75" stroke-linecap="round" stroke-linejoin="round" stroke-miterlimit="10" d="
			M88.329,806.924c-4.98,0.004-9.824,2.162-13.147,5.875c-3.265,3.648-4.889,8.59-4.422,13.462
			c0.482,5.022,3.162,9.689,7.257,12.638c3.068,2.208,6.736,3.315,10.501,3.326c1.534,0.004,3.068,0,4.602,0
			c3.389,0,6.778,0,10.167,0c4.962,0,9.925,0,14.887,0c6.287,0,12.573,0,18.86,0c7.381,0,14.763,0,22.144,0
			c8.194,0,16.388,0,24.583,0c8.713,0,17.426,0,26.14,0c9.003,0,18.006,0,27.008,0c9.067,0,18.134,0,27.201,0
			c8.838,0,17.675,0,26.513,0c8.318,0,16.635,0,24.953,0c7.599,0,15.197,0,22.796,0c6.565,0,13.13,0,19.695,0
			c5.319,0,10.638,0,15.957,0c3.775,0,7.551,0,11.326,0c1.999,0,3.999,0,5.998,0c2.747,0,5.416-0.407,7.945-1.539
			c4.685-2.095,8.29-6.227,9.732-11.152c1.342-4.584,0.743-9.612-1.636-13.754c-2.549-4.438-7.01-7.607-12.04-8.552
			c-1.697-0.319-3.389-0.304-5.103-0.304c-2.519,0-5.038,0-7.557,0c-4.227,0-8.453,0-12.68,0c-5.699,0-11.399,0-17.098,0
			c-6.899,0-13.797,0-20.696,0c-7.807,0-15.613,0-23.42,0c-8.48,0-16.959,0-25.439,0c-8.928,0-17.855,0-26.783,0
			c-9.084,0-18.169,0-27.253,0c-8.948,0-17.896,0-26.844,0c-8.617,0-17.234,0-25.85,0c-7.964,0-15.927,0-23.891,0
			c-7.109,0-14.217,0-21.326,0c-5.943,0-11.885,0-17.828,0c-4.56,0-9.12,0-13.68,0c-2.892,0-5.784,0-8.677,0
			C90.26,806.924,89.294,806.924,88.329,806.924z"/>
	</g>
	<g id="POLYLINE_446_">
		
			<path fill="none" stroke="#00B9D2" stroke-width="2.75" stroke-linecap="round" stroke-linejoin="round" stroke-miterlimit="10" d="
			M355.438,827.017c-2.648-0.001-3.878-3.432-1.83-5.113c2.047-1.681,5.175,0.193,4.66,2.79c-0.127,0.643-0.477,1.232-0.979,1.652
			C357.16,826.452,355.438,827.262,355.438,827.017z"/>
	</g>
	<g id="POLYLINE_445_">
		
			<path fill="none" stroke="#00B9D2" stroke-width="2.75" stroke-linecap="round" stroke-linejoin="round" stroke-miterlimit="10" d="
			M162.633,827.017c2.648-0.001,3.878-3.432,1.83-5.113c-2.047-1.681-5.175,0.193-4.66,2.79c0.127,0.643,0.477,1.232,0.979,1.652
			c0.257,0.215,0.551,0.384,0.866,0.498C161.755,826.882,162.621,826.991,162.633,827.017z"/>
	</g>
</g>
<g id="AG-OUTLINE">
	<g id="POLYLINE_139_">
		
			<path fill="none" stroke="#00B9D2" stroke-width="3.5" stroke-linecap="round" stroke-linejoin="round" stroke-miterlimit="10" d="
			M88.329,806.924c-4.98,0.004-9.824,2.162-13.147,5.875c-3.265,3.648-4.889,8.59-4.422,13.462
			c0.482,5.022,3.162,9.689,7.257,12.638c3.068,2.208,6.736,3.315,10.501,3.326c1.534,0.004,3.068,0,4.602,0
			c3.389,0,6.778,0,10.167,0c4.962,0,9.925,0,14.887,0c6.287,0,12.573,0,18.86,0c7.381,0,14.763,0,22.144,0
			c8.194,0,16.388,0,24.583,0c8.713,0,17.426,0,26.14,0c9.003,0,18.006,0,27.008,0c9.067,0,18.134,0,27.201,0
			c8.838,0,17.675,0,26.513,0c8.318,0,16.635,0,24.953,0c7.599,0,15.197,0,22.796,0c6.565,0,13.13,0,19.695,0
			c5.319,0,10.638,0,15.957,0c3.775,0,7.551,0,11.326,0c1.999,0,3.999,0,5.998,0c2.747,0,5.416-0.407,7.945-1.539
			c4.685-2.095,8.29-6.227,9.732-11.152c1.342-4.584,0.743-9.612-1.636-13.754c-2.549-4.438-7.01-7.607-12.04-8.552
			c-1.697-0.319-3.389-0.304-5.103-0.304c-2.519,0-5.038,0-7.557,0c-4.227,0-8.453,0-12.68,0c-5.699,0-11.399,0-17.098,0
			c-6.899,0-13.797,0-20.696,0c-7.807,0-15.613,0-23.42,0c-8.48,0-16.959,0-25.439,0c-8.928,0-17.855,0-26.783,0
			c-9.084,0-18.169,0-27.253,0c-8.948,0-17.896,0-26.844,0c-8.617,0-17.234,0-25.85,0c-7.964,0-15.927,0-23.891,0
			c-7.109,0-14.217,0-21.326,0c-5.943,0-11.885,0-17.828,0c-4.56,0-9.12,0-13.68,0c-2.892,0-5.784,0-8.677,0
			C90.26,806.924,89.294,806.924,88.329,806.924z"/>
	</g>
	<g id="POLYLINE_138_">
		
			<path fill="none" stroke="#00B9D2" stroke-width="3.5" stroke-linecap="round" stroke-linejoin="round" stroke-miterlimit="10" d="
			M859.731,695.245c0-0.984,0-1.968,0-2.951c0-2.839,0-5.679,0-8.518c0-4.527,0-9.054,0-13.582c0-6.01,0-12.021,0-18.031
			c0-7.392,0-14.785,0-22.177c0-8.578,0-17.155,0-25.733c0-9.568,0-19.135,0-28.703c0-10.413,0-20.826,0-31.239
			c0-11.123,0-22.247,0-33.37c0-11.638,0-23.276,0-34.915c0-11.919,0-23.838,0-35.758c0-12.164,0-24.328,0-36.492
			c0-12.176,0-24.353,0-36.529c0-12.021,0-24.042,0-36.063c0-11.635,0-23.27,0-34.905c0-11.21,0-22.42,0-33.629
			c0-10.552,0-21.104,0-31.656c0-9.701,0-19.402,0-29.102c0-8.713,0-17.426,0-26.139c0-7.578,0-15.156,0-22.733
			c0-6.249,0-12.499,0-18.749c0-4.732,0-9.464,0-14.195c0-3.099,0-6.198,0-9.297c0-1.268,0.003-2.536,0-3.804
			c-0.014-6.145-1.118-12.254-3.317-17.995c-2.791-7.288-7.3-13.892-13.075-19.142c-5.703-5.184-12.585-9.016-19.996-11.129
			c-4.774-1.361-9.668-1.918-14.622-1.918c-3.807,0-7.614,0-11.421,0c-7.398,0-14.796,0-22.195,0c-10.01,0-20.02,0-30.031,0
			c-11.589,0-23.178,0-34.767,0c-12.084,0-24.169,0-36.253,0c-11.7,0-23.4,0-35.1,0c-10.232,0-20.464,0-30.697,0
			c-7.747,0-15.494,0-23.242,0c-4.233,0-8.466,0-12.699,0c-4.355,0-8.661,0.317-12.916,1.312
			c-7.448,1.741-14.456,5.196-20.374,10.041c-6.072,4.971-10.935,11.377-14.099,18.558c-2.802,6.36-4.235,13.264-4.254,20.211
			c-0.003,1.058,0,2.116,0,3.173c0,2.907,0,5.814,0,8.721c0,4.559,0,9.118,0,13.677c0,6.094,0,12.188,0,18.282
			c0,7.441,0,14.882,0,22.322c0,8.62,0,17.239,0,25.859c0,9.576,0,19.151,0,28.727c0,10.47,0,20.94,0,31.409
			c0,11.146,0,22.292,0,33.438c0,11.655,0,23.309,0,34.964c0,11.929,0,23.858,0,35.787c0,12.168,0,24.335,0,36.503
			c0,12.174,0,24.347,0,36.521c0,11.979,0,23.959,0,35.938c0,11.652,0,23.304,0,34.956c0,11.188,0,22.375,0,33.563
			c0,10.523,0,21.047,0,31.57c0,9.641,0,19.281,0,28.922c0,8.697,0,17.394,0,26.091c0,7.53,0,15.06,0,22.59
			c0,6.195,0,12.391,0,18.586c0,4.672,0,9.343,0,14.015c0,3.032,0,6.064,0,9.096c0,1.195-0.003,2.389,0,3.584
			c0.016,6.424,1.232,12.811,3.635,18.773c2.92,7.244,7.543,13.763,13.409,18.919c5.8,5.098,12.781,8.817,20.246,10.792
			c4.564,1.207,9.213,1.67,13.922,1.67c3.947,0,7.895,0,11.842,0c7.532,0,15.064,0,22.596,0c10.089,0,20.179,0,30.268,0
			c11.629,0,23.258,0,34.888,0c12.086,0,24.172,0,36.257,0c11.662,0,23.325,0,34.987,0c10.156,0,20.312,0,30.468,0
			c7.615,0,15.231,0,22.846,0c4.096,0,8.193,0,12.289,0c4.52,0,8.983-0.39,13.382-1.482c7.505-1.864,14.555-5.489,20.435-10.512
			c5.899-5.04,10.592-11.437,13.618-18.581C858.374,708.622,859.731,701.94,859.731,695.245z"/>
	</g>
	<g id="POLYLINE_137_">
		
			<path fill="none" stroke="#00B9D2" stroke-width="3.5" stroke-linecap="round" stroke-linejoin="round" stroke-miterlimit="10" d="
			M70.679,695.245c0.04,7.289,1.593,14.502,4.668,21.119c3.3,7.102,8.272,13.383,14.418,18.236c6.032,4.762,13.166,8.1,20.686,9.683
			c4.009,0.844,8.049,1.08,12.13,1.08c4.419,0,8.838,0,13.258,0c7.877,0,15.754,0,23.631,0c10.287,0,20.574,0,30.861,0
			c11.705,0,23.411,0,35.116,0c12.147,0,24.294,0,36.442,0c11.541,0,23.083,0,34.624,0c9.87,0,19.74,0,29.61,0
			c7.294,0,14.589,0,21.883,0c3.642,0,7.284,0,10.926,0c5.18,0,10.301-0.659,15.265-2.169c7.405-2.252,14.262-6.233,19.88-11.559
			c5.643-5.35,10.002-11.996,12.655-19.306c2-5.511,2.991-11.336,3.003-17.195c0.003-1.345,0-2.691,0-4.036c0-3.159,0-6.319,0-9.478
			c0-4.822,0-9.645,0-14.467c0-6.311,0-12.622,0-18.933c0-7.587,0-15.174,0-22.761c0-8.779,0-17.559,0-26.338
			c0-9.766,0-19.531,0-29.297c0-10.584,0-21.168,0-31.752c0-11.172,0-22.344,0-33.516c0-11.715,0-23.431,0-35.146
			c0-12.031,0-24.063,0-36.094c0-12.146,0-24.292,0-36.438c0-12.127,0-24.254,0-36.381c0-11.974,0-23.947,0-35.921
			c0-11.619,0-23.238,0-34.858c0-11.038,0-22.076,0-33.114c0-10.411,0-20.822,0-31.233c0-9.554,0-19.108,0-28.662
			c0-8.529,0-17.059,0-25.588c0-7.3,0-14.6,0-21.901c0-5.984,0-11.968,0-17.953c0-4.457,0-8.914,0-13.371c0-2.757,0-5.513,0-8.27
			c0-1.156,0.011-2.313-0.006-3.469c-0.11-7.305-1.835-14.564-5.026-21.137c-3.44-7.085-8.561-13.325-14.844-18.076
			c-6.043-4.569-13.107-7.739-20.54-9.206c-3.895-0.769-7.812-0.948-11.766-0.948c-4.57,0-9.14,0-13.711,0
			c-7.989,0-15.978,0-23.968,0c-10.329,0-20.659,0-30.988,0c-11.77,0-23.541,0-35.311,0c-12.143,0-24.286,0-36.428,0
			c-11.498,0-22.996,0-34.494,0c-9.788,0-19.577,0-29.365,0c-7.173,0-14.347,0-21.52,0c-3.482,0-6.964,0-10.446,0
			c-5.413,0-10.777,0.759-15.935,2.428c-7.343,2.376-14.092,6.452-19.616,11.842c-5.601,5.466-9.882,12.254-12.407,19.661
			c-1.795,5.265-2.676,10.786-2.686,16.345c-0.003,1.412,0,2.823,0,4.235c0,3.232,0,6.464,0,9.696c0,4.882,0,9.765,0,14.647
			c0,6.365,0,12.729,0,19.094c0,7.634,0,15.268,0,22.902c0,8.82,0,17.64,0,26.461c0,9.8,0,19.6,0,29.4c0,10.582,0,21.164,0,31.746
			c0,11.223,0,22.447,0,33.67c0,11.731,0,23.461,0,35.192c0,12.04,0,24.08,0,36.12c0,12.115,0,24.23,0,36.345
			c0,12.156,0,24.312,0,36.469c0,11.963,0,23.926,0,35.89c0,11.602,0,23.205,0,34.807c0,11.015,0,22.03,0,33.045
			c0,10.381,0,20.763,0,31.144c0,9.518,0,19.036,0,28.554c0,8.465,0,16.93,0,25.396c0,7.273,0,14.546,0,21.82
			c0,5.929,0,11.858,0,17.787c0,4.395,0,8.79,0,13.185c0,2.684,0,5.368,0,8.051C70.679,693.563,70.679,694.404,70.679,695.245z"/>
	</g>
</g>
<g id="Layer_1">
</g>
</svg>
