<?xml version="1.0" encoding="utf-8"?>
<!-- Generator: Adobe Illustrator 23.0.6, SVG Export Plug-In . SVG Version: 6.00 Build 0)  -->
<!DOCTYPE svg PUBLIC "-//W3C//DTD SVG 1.1//EN" "http://www.w3.org/Graphics/SVG/1.1/DTD/svg11.dtd" [
	<!ENTITY ns_extend "http://ns.adobe.com/Extensibility/1.0/">
	<!ENTITY ns_ai "http://ns.adobe.com/AdobeIllustrator/10.0/">
	<!ENTITY ns_graphs "http://ns.adobe.com/Graphs/1.0/">
	<!ENTITY ns_vars "http://ns.adobe.com/Variables/1.0/">
	<!ENTITY ns_imrep "http://ns.adobe.com/ImageReplacement/1.0/">
	<!ENTITY ns_sfw "http://ns.adobe.com/SaveForWeb/1.0/">
	<!ENTITY ns_custom "http://ns.adobe.com/GenericCustomNamespace/1.0/">
	<!ENTITY ns_adobe_xpath "http://ns.adobe.com/XPath/1.0/">
]>
<svg version="1.1" xmlns:x="&ns_extend;" xmlns:i="&ns_ai;" xmlns:graph="&ns_graphs;"
	 xmlns="http://www.w3.org/2000/svg" xmlns:xlink="http://www.w3.org/1999/xlink" x="0px" y="0px" viewBox="0 0 1000 875"
	 enable-background="new 0 0 1000 875" xml:space="preserve">
<metadata>
	<sfw  xmlns="&ns_sfw;">
		<slices></slices>
		<sliceSourceBounds  bottomLeftOrigin="true" height="3296.396" width="7277.717" x="-4935.483" y="2344.023"></sliceSourceBounds>
	</sfw>
</metadata>
<g id="FILL-BACKGROUND">
	<rect fill="#FFFFFF" width="1000" height="875"/>
</g>
<g id="AG-DIAGRAM">
</g>
<g id="AG-DETAIL-DIAGRAM">
</g>
<g id="AG-DETAILS">
	<g id="POLYLINE_444_">
		<path fill="none" stroke="#00B9D2" stroke-width="2" stroke-linecap="round" stroke-linejoin="round" stroke-miterlimit="10" d="
			M549.691,129.351c3.84,2.957,8.555,4.698,13.399,4.917c4.868,0.22,9.752-1.086,13.857-3.713c4.104-2.627,7.337-6.516,9.175-11.029
			c1.827-4.487,2.229-9.505,1.146-14.227c-1.084-4.721-3.634-9.062-7.235-12.303c-3.622-3.26-8.227-5.35-13.066-5.924
			c-4.84-0.574-9.805,0.38-14.09,2.701c-4.259,2.307-7.755,5.932-9.914,10.268c-2.159,4.337-2.942,9.31-2.216,14.1
			c0.73,4.818,2.963,9.355,6.338,12.87C547.895,127.854,548.767,128.634,549.691,129.351z"/>
	</g>
	<g id="POLYLINE_443_">
		<path fill="none" stroke="#00B9D2" stroke-width="2" stroke-linecap="round" stroke-linejoin="round" stroke-miterlimit="10" d="
			M549.691,196.937c3.84,2.957,8.555,4.698,13.399,4.917c4.868,0.22,9.752-1.086,13.857-3.713c4.104-2.627,7.337-6.516,9.175-11.029
			c1.827-4.487,2.229-9.505,1.146-14.227c-1.084-4.721-3.634-9.062-7.235-12.303c-3.622-3.26-8.227-5.35-13.066-5.924
			c-4.84-0.574-9.805,0.38-14.09,2.701c-4.259,2.307-7.755,5.932-9.914,10.268c-2.159,4.337-2.942,9.31-2.216,14.1
			c0.73,4.818,2.963,9.355,6.338,12.87C547.895,195.44,548.767,196.22,549.691,196.937z"/>
	</g>
	<g id="POLYLINE_399_">
		
			<path fill="none" stroke="#00B9D2" stroke-width="2.75" stroke-linecap="round" stroke-linejoin="round" stroke-miterlimit="10" d="
			M680.839,368.873c3.081,0.237,6.147-0.858,8.682-2.558c3.333-2.235,5.823-5.617,7.163-9.387c0.694-1.952,1.071-4.023,1.019-6.097
			c-0.009-0.371,0.054-1.114-0.209-1.259c-0.238-0.132-1.019,0.094-1.287,0.136c-0.959,0.151-1.9,0.405-2.814,0.73
			c-3.815,1.354-7.196,3.894-9.467,7.25c-2.045,3.022-3.419,6.733-3.164,10.423C680.78,368.365,680.805,368.62,680.839,368.873z"/>
	</g>
	<g id="POLYLINE_398_">
		
			<path fill="none" stroke="#00B9D2" stroke-width="2.75" stroke-linecap="round" stroke-linejoin="round" stroke-miterlimit="10" d="
			M703.805,394.072c-0.034-5.082,2.102-9.824,5.737-13.34c1.011-0.978,2.117-1.863,3.317-2.598c0-0.506-1.237-1.631-1.578-2.009
			c-0.52-0.577-1.076-1.122-1.665-1.629c-1.199-1.031-2.53-1.902-3.949-2.599c-3.016-1.481-6.483-2.224-9.844-2.134
			c-3.641,0.097-7.016,1.553-10.361,2.84c-2.114,0.813-3.849,1.34-6.048,0.7c-3.684-1.071-7.06-3.097-10.978-3.269
			c-3.543-0.156-7.163,0.854-10.228,2.604c-3.347,1.91-6.104,4.756-7.989,8.111c-1.954,3.477-2.962,7.412-3.271,11.371
			c-0.324,4.16,0.091,8.368,0.985,12.435c0.87,3.958,2.19,7.824,3.914,11.492c1.828,3.889,4.185,7.515,6.864,10.872
			c1.78,2.23,3.847,4.478,6.498,5.666c2.134,0.956,4.439,0.894,6.658,0.268c1.938-0.546,3.717-1.525,5.627-2.151
			c1.771-0.58,3.619-0.838,5.48-0.799c1.82,0.038,3.591,0.409,5.291,1.058c1.765,0.674,3.445,1.573,5.301,1.987
			c2.07,0.462,4.268,0.388,6.243-0.417c2.679-1.093,4.743-3.278,6.5-5.508c2.626-3.332,4.95-6.943,6.724-10.801
			c0.428-0.93,0.827-1.874,1.193-2.83c0.173-0.451,0.339-0.905,0.495-1.363c0.073-0.215,0.232-0.519,0.243-0.742
			c0.019-0.38,0.085-0.198-0.244-0.407c-1.435-0.911-2.928-1.582-4.26-2.681c-2.806-2.316-4.915-5.401-5.922-8.907
			C704.053,397.595,703.824,395.835,703.805,394.072"/>
	</g>
	<g id="POLYLINE_397_">
		<path fill="none" stroke="#00B9D2" stroke-width="2" stroke-linecap="round" stroke-linejoin="round" stroke-miterlimit="10" d="
			M800.291,743.014c7.35-0.063,14.596-1.651,21.23-4.846c6.585-3.171,12.434-7.83,16.995-13.541
			c4.559-5.708,7.815-12.432,9.453-19.551c0.886-3.849,1.251-7.763,1.251-11.707c0-1.893,0-3.786,0-5.679c0-3.669,0-7.337,0-11.005
			c0-5.238,0-10.475,0-15.713c0-6.657,0-13.314,0-19.971c0-7.958,0-15.916,0-23.873c0-9.005,0-18.01,0-27.015
			c0-9.927,0-19.855,0-29.782c0-10.745,0-21.49,0-32.235c0-11.279,0-22.557,0-33.836c0-11.737,0-23.473,0-35.21
			c0-11.998,0-23.995,0-35.993c0-12.059,0-24.117,0-36.175c0-12.02,0-24.039,0-36.059c0-11.781,0-23.562,0-35.342
			c0-11.345,0-22.689,0-34.034c0-10.833,0-21.667,0-32.5c0-10.037,0-20.074,0-30.112c0-9.137,0-18.274,0-27.411
			c0-8.112,0-16.225,0-24.337c0-6.833,0-13.666,0-20.498c0-5.435,0-10.871,0-16.306c0-3.889,0-7.779,0-11.668
			c0-2.135,0-4.269,0-6.404c0-3.167-0.17-6.319-0.71-9.446c-1.242-7.199-4.104-14.098-8.341-20.051
			c-4.215-5.922-9.746-10.889-16.105-14.415c-6.407-3.553-13.592-5.659-20.909-6.08c-2.683-0.154-5.385-0.086-8.071-0.086
			c-5.729,0-11.459,0-17.188,0c-8.826,0-17.652,0-26.479,0c-10.826,0-21.652,0-32.478,0c-11.871,0-23.742,0-35.613,0
			c-11.985,0-23.969,0-35.954,0c-10.966,0-21.933,0-32.899,0c-9.041,0-18.081,0-27.122,0c-6.079,0-12.157,0-18.236,0
			c-2.398,0-4.798-0.034-7.196,0.007c-7.324,0.126-14.599,1.92-21.143,5.211c-6.528,3.284-12.3,8.042-16.759,13.832
			c-4.445,5.772-7.582,12.526-9.101,19.653c-0.777,3.645-1.082,7.337-1.082,11.057c0,1.964,0,3.927,0,5.891
			c0,3.708,0,7.416,0,11.125c0,5.321,0,10.641,0,15.962c0,6.709,0,13.417,0,20.126c0,7.98,0,15.959,0,23.939
			c0,9.067,0,18.135,0,27.202c0,9.96,0,19.919,0,29.879c0,10.741,0,21.481,0,32.222c0,11.329,0,22.657,0,33.986
			c0,11.717,0,23.434,0,35.151c0,12.037,0,24.074,0,36.111c0,12.059,0,24.118,0,36.176c0,11.981,0,23.961,0,35.942
			c0,11.801,0,23.602,0,35.403c0,11.326,0,22.651,0,33.977c0,10.751,0,21.501,0,32.252c0,10.063,0,20.126,0,30.189
			c0,9.099,0,18.197,0,27.296c0,8.047,0,16.094,0,24.141c0,6.802,0,13.605,0,20.407c0,5.378,0,10.756,0,16.134
			c0,3.825,0,7.651,0,11.476c0,2.064,0,4.129,0,6.193c0,3.384,0.219,6.749,0.849,10.081c1.362,7.198,4.345,14.067,8.697,19.963
			c4.317,5.848,9.933,10.719,16.352,14.135c6.423,3.418,13.563,5.375,20.831,5.71c2.616,0.121,5.248,0.051,7.866,0.051
			c5.866,0,11.731,0,17.597,0c8.897,0,17.793,0,26.69,0c10.913,0,21.825,0,32.738,0c11.891,0,23.783,0,35.674,0
			c11.966,0,23.933,0,35.899,0c10.91,0,21.819,0,32.729,0c8.924,0,17.848,0,26.772,0c5.965,0,11.931,0,17.896,0
			c1.445,0,2.889,0,4.334,0C799.055,743.014,800.03,742.84,800.291,743.014z"/>
	</g>
	<g id="POLYLINE_396_">
		
			<line fill="none" stroke="#00B9D2" stroke-width="2" stroke-linecap="round" stroke-linejoin="round" stroke-miterlimit="10" x1="507.632" y1="674.511" x2="513.835" y2="674.511"/>
	</g>
	<g id="POLYLINE_395_">
		
			<line fill="none" stroke="#00B9D2" stroke-width="2" stroke-linecap="round" stroke-linejoin="round" stroke-miterlimit="10" x1="507.632" y1="680.748" x2="513.835" y2="680.748"/>
	</g>
	<g id="POLYLINE_394_">
		
			<line fill="none" stroke="#00B9D2" stroke-width="2" stroke-linecap="round" stroke-linejoin="round" stroke-miterlimit="10" x1="507.632" y1="130.766" x2="513.835" y2="130.766"/>
	</g>
	<g id="POLYLINE_381_">
		
			<line fill="none" stroke="#00B9D2" stroke-width="2" stroke-linecap="round" stroke-linejoin="round" stroke-miterlimit="10" x1="507.632" y1="124.528" x2="513.835" y2="124.528"/>
	</g>
	<g id="POLYLINE_380_">
		
			<line fill="none" stroke="#00B9D2" stroke-width="2" stroke-linecap="round" stroke-linejoin="round" stroke-miterlimit="10" x1="855.424" y1="124.528" x2="849.221" y2="124.528"/>
	</g>
	<g id="POLYLINE_379_">
		
			<line fill="none" stroke="#00B9D2" stroke-width="2" stroke-linecap="round" stroke-linejoin="round" stroke-miterlimit="10" x1="855.424" y1="130.766" x2="849.221" y2="130.766"/>
	</g>
	<g id="POLYLINE_378_">
		
			<line fill="none" stroke="#00B9D2" stroke-width="2" stroke-linecap="round" stroke-linejoin="round" stroke-miterlimit="10" x1="855.424" y1="680.748" x2="849.221" y2="680.748"/>
	</g>
	<g id="POLYLINE_377_">
		
			<line fill="none" stroke="#00B9D2" stroke-width="2" stroke-linecap="round" stroke-linejoin="round" stroke-miterlimit="10" x1="855.424" y1="674.511" x2="849.221" y2="674.511"/>
	</g>
	<g id="POLYLINE_376_">
		
			<line fill="none" stroke="#00B9D2" stroke-width="2" stroke-linecap="round" stroke-linejoin="round" stroke-miterlimit="10" x1="70.405" y1="803.124" x2="403.821" y2="803.124"/>
	</g>
	<g id="POLYLINE_368_">
		
			<line fill="none" stroke="#00B9D2" stroke-width="2" stroke-linecap="round" stroke-linejoin="round" stroke-miterlimit="10" x1="411.009" y1="674.511" x2="404.806" y2="674.511"/>
	</g>
	<g id="POLYLINE_367_">
		
			<line fill="none" stroke="#00B9D2" stroke-width="2" stroke-linecap="round" stroke-linejoin="round" stroke-miterlimit="10" x1="411.009" y1="680.748" x2="404.806" y2="680.748"/>
	</g>
	<g id="POLYLINE_366_">
		
			<line fill="none" stroke="#00B9D2" stroke-width="2" stroke-linecap="round" stroke-linejoin="round" stroke-miterlimit="10" x1="411.009" y1="130.766" x2="404.806" y2="130.766"/>
	</g>
	<g id="POLYLINE_365_">
		
			<line fill="none" stroke="#00B9D2" stroke-width="2" stroke-linecap="round" stroke-linejoin="round" stroke-miterlimit="10" x1="411.009" y1="124.528" x2="404.806" y2="124.528"/>
	</g>
	<g id="POLYLINE_364_">
		
			<line fill="none" stroke="#00B9D2" stroke-width="2" stroke-linecap="round" stroke-linejoin="round" stroke-miterlimit="10" x1="63.217" y1="124.528" x2="69.42" y2="124.528"/>
	</g>
	<g id="POLYLINE_363_">
		
			<line fill="none" stroke="#00B9D2" stroke-width="2" stroke-linecap="round" stroke-linejoin="round" stroke-miterlimit="10" x1="63.217" y1="130.766" x2="69.42" y2="130.766"/>
	</g>
	<g id="POLYLINE_362_">
		
			<line fill="none" stroke="#00B9D2" stroke-width="2" stroke-linecap="round" stroke-linejoin="round" stroke-miterlimit="10" x1="63.217" y1="680.748" x2="69.42" y2="680.748"/>
	</g>
	<g id="POLYLINE_361_">
		
			<line fill="none" stroke="#00B9D2" stroke-width="2" stroke-linecap="round" stroke-linejoin="round" stroke-miterlimit="10" x1="63.217" y1="674.511" x2="69.42" y2="674.511"/>
	</g>
	<g id="POLYLINE_355_">
		<path fill="none" stroke="#00B9D2" stroke-width="2" stroke-linecap="round" stroke-linejoin="round" stroke-miterlimit="10" d="
			M355.876,743.014c7.35-0.063,14.596-1.651,21.23-4.846c6.585-3.171,12.434-7.83,16.995-13.541
			c4.559-5.708,7.815-12.432,9.453-19.551c0.886-3.849,1.251-7.763,1.251-11.707c0-1.893,0-3.786,0-5.679c0-3.669,0-7.337,0-11.005
			c0-5.238,0-10.475,0-15.713c0-6.657,0-13.314,0-19.971c0-7.958,0-15.916,0-23.873c0-9.005,0-18.01,0-27.015
			c0-9.927,0-19.855,0-29.782c0-10.745,0-21.49,0-32.235c0-11.279,0-22.557,0-33.836c0-11.737,0-23.473,0-35.21
			c0-11.998,0-23.995,0-35.993c0-12.059,0-24.117,0-36.175c0-12.02,0-24.039,0-36.059c0-11.781,0-23.562,0-35.342
			c0-11.345,0-22.689,0-34.034c0-10.833,0-21.667,0-32.5c0-10.037,0-20.074,0-30.112c0-9.137,0-18.274,0-27.411
			c0-8.112,0-16.225,0-24.337c0-6.833,0-13.666,0-20.498c0-5.435,0-10.871,0-16.306c0-3.889,0-7.779,0-11.668
			c0-2.135,0-4.269,0-6.404c0-3.167-0.17-6.319-0.71-9.446c-1.242-7.199-4.104-14.098-8.341-20.051
			c-4.215-5.922-9.746-10.889-16.105-14.415c-6.407-3.553-13.592-5.659-20.909-6.08c-2.683-0.154-5.385-0.086-8.071-0.086
			c-5.729,0-11.459,0-17.188,0c-8.826,0-17.652,0-26.479,0c-10.826,0-21.652,0-32.478,0c-11.871,0-23.742,0-35.613,0
			c-11.985,0-23.969,0-35.954,0c-10.966,0-21.933,0-32.899,0c-9.041,0-18.081,0-27.122,0c-6.079,0-12.157,0-18.236,0
			c-2.398,0-4.798-0.034-7.196,0.007c-7.324,0.126-14.599,1.92-21.143,5.211c-6.528,3.284-12.3,8.042-16.759,13.832
			c-4.445,5.772-7.582,12.526-9.101,19.653c-0.777,3.645-1.082,7.337-1.082,11.057c0,1.964,0,3.927,0,5.891
			c0,3.708,0,7.416,0,11.125c0,5.321,0,10.641,0,15.962c0,6.709,0,13.417,0,20.126c0,7.98,0,15.959,0,23.939
			c0,9.067,0,18.135,0,27.202c0,9.96,0,19.919,0,29.879c0,10.741,0,21.481,0,32.222c0,11.329,0,22.657,0,33.986
			c0,11.717,0,23.434,0,35.151c0,12.037,0,24.074,0,36.111c0,12.059,0,24.118,0,36.176c0,11.981,0,23.961,0,35.942
			c0,11.801,0,23.602,0,35.403c0,11.326,0,22.651,0,33.977c0,10.751,0,21.501,0,32.252c0,10.063,0,20.126,0,30.189
			c0,9.099,0,18.197,0,27.296c0,8.047,0,16.094,0,24.141c0,6.802,0,13.605,0,20.407c0,5.378,0,10.756,0,16.134
			c0,3.825,0,7.651,0,11.476c0,2.064,0,4.129,0,6.193c0,3.384,0.219,6.749,0.849,10.081c1.362,7.198,4.345,14.067,8.697,19.963
			c4.317,5.848,9.933,10.719,16.352,14.135c6.423,3.418,13.563,5.375,20.831,5.71c2.616,0.121,5.248,0.051,7.866,0.051
			c5.866,0,11.731,0,17.597,0c8.897,0,17.793,0,26.69,0c10.913,0,21.825,0,32.738,0c11.891,0,23.783,0,35.674,0
			c11.966,0,23.933,0,35.899,0c10.91,0,21.819,0,32.729,0c8.924,0,17.848,0,26.772,0c5.965,0,11.931,0,17.896,0
			C350.298,743.014,355.876,743.014,355.876,743.014z"/>
	</g>
	<g id="POLYLINE_354_">
		<path fill="none" stroke="#00B9D2" stroke-width="2" stroke-linecap="round" stroke-linejoin="round" stroke-miterlimit="10" d="
			M254.668,85.427c-0.001-1.567-1.1-2.971-2.621-3.346c-0.605-0.149-1.251-0.1-1.869-0.1c-1.65,0-3.301,0-4.951,0
			c-4.89,0-9.78,0-14.671,0c-2.582,0-5.276-0.226-7.851,0.013c-3.471,0.322-4.288,5.214-1.063,6.599
			c0.571,0.245,1.153,0.279,1.764,0.28c1.36,0.003,2.721,0,4.081,0c4.778,0,9.557,0,14.335,0c3.113,0,6.242,0.095,9.353,0
			c1.486-0.045,2.818-0.893,3.308-2.336C254.606,86.181,254.668,85.804,254.668,85.427z"/>
	</g>
	<g id="POLYLINE_353_">
		<path fill="none" stroke="#00B9D2" stroke-width="2" stroke-linecap="round" stroke-linejoin="round" stroke-miterlimit="10" d="
			M275.836,85.427c-0.001-2.255-1.455-4.322-3.579-5.082c-2.123-0.76-4.561-0.086-5.991,1.657c-1.431,1.743-1.618,4.265-0.459,6.199
			c1.159,1.934,3.469,2.961,5.682,2.522c2.203-0.437,3.945-2.256,4.285-4.476C275.815,85.975,275.836,85.701,275.836,85.427z"/>
	</g>
</g>
<g id="N-DIMENSIONS">
	<g>
		<g>
			<g id="MTEXT_40_">
				<g>
					<g>
						<path fill="#00B9D2" d="M224.562,436.155c-0.78-0.433-1.374-1.017-1.78-1.75s-0.609-1.533-0.609-2.399
							c0-1.146,0.46-2.373,1.38-3.681l3.819-5.319c0.014-0.014,0.051-0.061,0.11-0.141s0.137-0.143,0.229-0.189
							c0.094-0.047,0.2-0.07,0.32-0.07h0.98c0.12,0,0.216,0.043,0.29,0.13c0.073,0.087,0.109,0.19,0.109,0.311
							c0,0.066-0.033,0.153-0.1,0.26l-2.92,4.08c0.347-0.08,0.733-0.12,1.16-0.12c0.973,0,1.83,0.217,2.569,0.649
							c0.74,0.434,1.313,1.007,1.721,1.721c0.406,0.713,0.609,1.497,0.609,2.35c0,0.854-0.203,1.65-0.609,2.39
							c-0.407,0.74-0.997,1.33-1.771,1.771s-1.687,0.66-2.74,0.66C226.265,436.806,225.342,436.589,224.562,436.155z
							 M228.932,434.785c0.493-0.239,0.887-0.597,1.18-1.069c0.293-0.474,0.44-1.044,0.44-1.71c0-0.653-0.15-1.217-0.45-1.69
							c-0.3-0.473-0.697-0.833-1.19-1.08c-0.493-0.246-1.026-0.37-1.6-0.37s-1.107,0.124-1.601,0.37
							c-0.493,0.247-0.887,0.607-1.18,1.08c-0.293,0.474-0.439,1.037-0.439,1.69c0,0.666,0.146,1.236,0.439,1.71
							c0.293,0.473,0.687,0.83,1.18,1.069c0.493,0.24,1.027,0.36,1.601,0.36C227.898,435.146,228.438,435.025,228.932,434.785z"/>
						<path fill="#00B9D2" d="M234.682,436.476c-0.087-0.087-0.13-0.196-0.13-0.33v-1.38c0-0.133,0.043-0.247,0.13-0.34
							c0.086-0.094,0.196-0.141,0.33-0.141h1.38c0.133,0,0.243,0.047,0.33,0.141c0.086,0.093,0.13,0.207,0.13,0.34v1.38
							c0,0.134-0.044,0.243-0.13,0.33c-0.087,0.087-0.197,0.13-0.33,0.13h-1.38C234.878,436.605,234.768,436.562,234.682,436.476z"
							/>
						<path fill="#00B9D2" d="M242.052,436.476c-0.08-0.087-0.12-0.196-0.12-0.33v-11.28l-3.36,2.58
							c-0.093,0.08-0.193,0.12-0.3,0.12c-0.12,0-0.233-0.066-0.34-0.2l-0.48-0.62c-0.066-0.093-0.1-0.187-0.1-0.279
							c0-0.146,0.066-0.267,0.2-0.36l4.34-3.36c0.146-0.093,0.32-0.14,0.52-0.14h0.94c0.133,0,0.243,0.043,0.33,0.13
							s0.13,0.197,0.13,0.33v13.08c0,0.134-0.043,0.243-0.13,0.33s-0.197,0.13-0.33,0.13h-0.98
							C242.238,436.605,242.132,436.562,242.052,436.476z"/>
						<path fill="#00B9D2" d="M246.562,426.086c-0.06-0.08-0.077-0.181-0.05-0.301l0.439-2.8c0.054-0.387,0.24-0.58,0.561-0.58h1.28
							c0.093,0,0.17,0.033,0.229,0.101c0.061,0.066,0.09,0.146,0.09,0.239c0,0.134-0.02,0.24-0.06,0.32l-1.04,2.7
							c-0.067,0.146-0.141,0.257-0.22,0.33c-0.08,0.073-0.2,0.109-0.36,0.109h-0.62
							C246.705,426.205,246.621,426.165,246.562,426.086z M249.701,426.086c-0.06-0.08-0.076-0.181-0.05-0.301l0.44-2.8
							c0.053-0.387,0.24-0.58,0.56-0.58h1.28c0.093,0,0.17,0.033,0.229,0.101c0.061,0.066,0.091,0.146,0.091,0.239
							c0,0.134-0.021,0.24-0.061,0.32l-1.04,2.7c-0.066,0.146-0.14,0.257-0.22,0.33s-0.2,0.109-0.36,0.109h-0.62
							C249.845,426.205,249.762,426.165,249.701,426.086z"/>
					</g>
				</g>
			</g>
			<g id="POLYLINE_131_">
				
					<line fill="none" stroke="#00B9D2" stroke-width="2" stroke-linecap="round" stroke-linejoin="round" stroke-miterlimit="10" x1="118.548" y1="704.517" x2="225.587" y2="447.092"/>
			</g>
			<g id="POLYLINE_130_">
				
					<line fill="none" stroke="#00B9D2" stroke-width="2" stroke-linecap="round" stroke-linejoin="round" stroke-miterlimit="10" x1="238.841" y1="413.657" x2="363.25" y2="107.088"/>
			</g>
			<g id="POLYLINE_129_">
				
					<polyline fill="none" stroke="#00B9D2" stroke-width="2" stroke-linecap="round" stroke-linejoin="round" stroke-miterlimit="10" points="
					115.614,696.968 118.548,704.517 126.097,701.582 				"/>
			</g>
			<g id="POLYLINE_128_">
				
					<polyline fill="none" stroke="#00B9D2" stroke-width="2" stroke-linecap="round" stroke-linejoin="round" stroke-miterlimit="10" points="
					366.184,114.637 363.25,107.088 355.701,110.022 				"/>
			</g>
		</g>
		<g id="MTEXT_39_">
			<g>
				<path fill="#00B9D2" d="M119.271,139.012c-0.76-0.341-1.337-0.783-1.729-1.33c-0.394-0.547-0.604-1.113-0.63-1.7
					c0-0.12,0.04-0.217,0.12-0.29c0.079-0.073,0.18-0.11,0.3-0.11h0.899c0.146,0,0.267,0.03,0.36,0.09
					c0.093,0.061,0.167,0.178,0.22,0.351c0.174,0.68,0.55,1.16,1.13,1.439c0.58,0.28,1.264,0.42,2.051,0.42
					c0.96,0,1.723-0.229,2.29-0.689c0.566-0.46,0.85-1.116,0.85-1.97c0-1.627-0.993-2.44-2.98-2.44h-1.88
					c-0.133,0-0.243-0.043-0.33-0.13s-0.13-0.196-0.13-0.33v-0.52c0-0.2,0.073-0.374,0.221-0.521l3.899-4.32h-5.92
					c-0.134,0-0.243-0.04-0.33-0.12c-0.087-0.079-0.13-0.187-0.13-0.319v-0.72c0-0.147,0.043-0.264,0.13-0.351s0.196-0.13,0.33-0.13
					h7.92c0.146,0,0.264,0.043,0.351,0.13c0.086,0.087,0.13,0.203,0.13,0.351v0.659c0,0.147-0.067,0.301-0.2,0.46l-3.9,4.381h0.32
					c1.36,0.039,2.437,0.393,3.229,1.06c0.794,0.667,1.19,1.64,1.19,2.92c0,0.88-0.217,1.637-0.65,2.271
					c-0.433,0.633-1.036,1.119-1.81,1.46c-0.773,0.34-1.646,0.51-2.62,0.51C120.931,139.521,120.031,139.352,119.271,139.012z"/>
				<path fill="#00B9D2" d="M129.121,139.191c-0.087-0.087-0.13-0.196-0.13-0.33v-0.6c0-0.307,0.166-0.601,0.5-0.881l4.359-4.34
					c0.986-0.84,1.667-1.526,2.04-2.06s0.561-1.101,0.561-1.7c0-0.786-0.221-1.403-0.66-1.85c-0.44-0.447-1.08-0.67-1.92-0.67
					c-0.801,0-1.434,0.233-1.9,0.699c-0.467,0.467-0.753,1.094-0.86,1.88c-0.026,0.147-0.093,0.261-0.199,0.341
					c-0.107,0.08-0.214,0.12-0.32,0.12h-0.96c-0.12,0-0.22-0.04-0.3-0.12s-0.12-0.174-0.12-0.28c0.026-0.707,0.217-1.39,0.569-2.05
					c0.354-0.66,0.877-1.2,1.57-1.62s1.533-0.63,2.521-0.63c1.493,0,2.616,0.39,3.37,1.17c0.753,0.78,1.13,1.77,1.13,2.97
					c0,0.84-0.204,1.597-0.61,2.271c-0.407,0.673-1.043,1.383-1.91,2.13l-3.939,4h6.3c0.146,0,0.26,0.04,0.34,0.12
					c0.08,0.079,0.12,0.193,0.12,0.34v0.76c0,0.134-0.044,0.243-0.13,0.33c-0.087,0.087-0.197,0.13-0.33,0.13h-8.76
					C129.317,139.321,129.207,139.278,129.121,139.191z"/>
				<path fill="#00B9D2" d="M143.061,138.871c-0.78-0.433-1.374-1.017-1.78-1.75s-0.609-1.533-0.609-2.399
					c0-1.146,0.46-2.373,1.38-3.681l3.819-5.319c0.014-0.014,0.051-0.061,0.11-0.141s0.137-0.143,0.229-0.189
					c0.094-0.047,0.2-0.07,0.32-0.07h0.98c0.12,0,0.216,0.043,0.29,0.13c0.073,0.087,0.109,0.19,0.109,0.311
					c0,0.066-0.033,0.153-0.1,0.26l-2.92,4.08c0.347-0.08,0.733-0.12,1.16-0.12c0.973,0,1.83,0.217,2.569,0.649
					c0.74,0.434,1.313,1.007,1.721,1.721c0.406,0.713,0.609,1.497,0.609,2.35c0,0.854-0.203,1.65-0.609,2.39
					c-0.407,0.74-0.997,1.33-1.771,1.771s-1.687,0.66-2.74,0.66C144.764,139.521,143.841,139.305,143.061,138.871z M147.431,137.501
					c0.493-0.239,0.887-0.597,1.18-1.069c0.293-0.474,0.44-1.044,0.44-1.71c0-0.653-0.15-1.217-0.45-1.69
					c-0.3-0.473-0.697-0.833-1.19-1.08c-0.493-0.246-1.026-0.37-1.6-0.37s-1.107,0.124-1.601,0.37
					c-0.493,0.247-0.887,0.607-1.18,1.08c-0.293,0.474-0.439,1.037-0.439,1.69c0,0.666,0.146,1.236,0.439,1.71
					c0.293,0.473,0.687,0.83,1.18,1.069c0.493,0.24,1.027,0.36,1.601,0.36C146.397,137.861,146.937,137.741,147.431,137.501z"/>
				<path fill="#00B9D2" d="M158.261,143.001c-0.087-0.08-0.131-0.193-0.131-0.34v-13.28c0-0.146,0.044-0.26,0.131-0.34
					c0.086-0.08,0.196-0.12,0.33-0.12h0.84c0.146,0,0.26,0.04,0.34,0.12s0.12,0.193,0.12,0.34v0.881
					c0.772-1.027,1.873-1.54,3.3-1.54c1.4,0,2.45,0.443,3.15,1.33c0.699,0.887,1.069,2.017,1.109,3.39
					c0.014,0.146,0.021,0.373,0.021,0.68s-0.007,0.533-0.021,0.681c-0.04,1.359-0.41,2.486-1.109,3.38
					c-0.7,0.894-1.75,1.34-3.15,1.34c-1.427,0-2.507-0.507-3.24-1.521v4.66c0,0.133-0.043,0.243-0.13,0.33s-0.197,0.13-0.33,0.13
					h-0.899C158.457,143.121,158.347,143.081,158.261,143.001z M164.91,137.062c0.44-0.601,0.681-1.387,0.72-2.36
					c0.014-0.133,0.021-0.326,0.021-0.58c0-2.56-0.947-3.84-2.84-3.84c-0.934,0-1.637,0.31-2.11,0.93s-0.724,1.351-0.75,2.19
					c-0.014,0.146-0.02,0.407-0.02,0.78s0.006,0.633,0.02,0.779c0.026,0.813,0.283,1.518,0.771,2.11
					c0.486,0.594,1.183,0.89,2.09,0.89C163.771,137.961,164.471,137.661,164.91,137.062z"/>
				<path fill="#00B9D2" d="M170.141,143.001c-0.087-0.08-0.131-0.193-0.131-0.34v-13.28c0-0.146,0.044-0.26,0.131-0.34
					c0.086-0.08,0.196-0.12,0.33-0.12h0.84c0.146,0,0.26,0.04,0.34,0.12s0.12,0.193,0.12,0.34v0.881
					c0.772-1.027,1.873-1.54,3.3-1.54c1.4,0,2.45,0.443,3.15,1.33c0.699,0.887,1.069,2.017,1.109,3.39
					c0.014,0.146,0.021,0.373,0.021,0.68s-0.007,0.533-0.021,0.681c-0.04,1.359-0.41,2.486-1.109,3.38
					c-0.7,0.894-1.75,1.34-3.15,1.34c-1.427,0-2.507-0.507-3.24-1.521v4.66c0,0.133-0.043,0.243-0.13,0.33s-0.197,0.13-0.33,0.13
					h-0.899C170.337,143.121,170.227,143.081,170.141,143.001z M176.79,137.062c0.44-0.601,0.681-1.387,0.72-2.36
					c0.014-0.133,0.021-0.326,0.021-0.58c0-2.56-0.947-3.84-2.84-3.84c-0.934,0-1.637,0.31-2.11,0.93s-0.724,1.351-0.75,2.19
					c-0.014,0.146-0.02,0.407-0.02,0.78s0.006,0.633,0.02,0.779c0.026,0.813,0.283,1.518,0.771,2.11
					c0.486,0.594,1.183,0.89,2.09,0.89C175.65,137.961,176.351,137.661,176.79,137.062z"/>
				<path fill="#00B9D2" d="M181.84,126.831c-0.087-0.086-0.13-0.196-0.13-0.33v-1.04c0-0.133,0.043-0.246,0.13-0.34
					c0.087-0.093,0.197-0.14,0.33-0.14h1.181c0.133,0,0.246,0.047,0.34,0.14c0.093,0.094,0.14,0.207,0.14,0.34v1.04
					c0,0.134-0.047,0.244-0.14,0.33c-0.094,0.087-0.207,0.13-0.34,0.13h-1.181C182.037,126.961,181.927,126.918,181.84,126.831z
					 M182,139.191c-0.087-0.087-0.13-0.196-0.13-0.33v-9.48c0-0.133,0.043-0.243,0.13-0.329c0.087-0.087,0.196-0.131,0.33-0.131
					h0.88c0.133,0,0.243,0.044,0.33,0.131c0.087,0.086,0.13,0.196,0.13,0.329v9.48c0,0.134-0.043,0.243-0.13,0.33
					s-0.197,0.13-0.33,0.13h-0.88C182.196,139.321,182.087,139.278,182,139.191z"/>
			</g>
		</g>
		<g>
			<g id="POLYLINE_127_">
				
					<polyline fill="none" stroke="#00B9D2" stroke-width="2" stroke-linecap="round" stroke-linejoin="round" stroke-miterlimit="10" points="
					513.214,767.823 507.487,773.55 513.214,779.277 				"/>
			</g>
			<g id="POLYLINE_126_">
				
					<line fill="none" stroke="#00B9D2" stroke-width="2" stroke-linecap="round" stroke-linejoin="round" stroke-miterlimit="10" x1="507.487" y1="773.55" x2="648" y2="773.55"/>
			</g>
			<g id="POLYLINE_125_">
				
					<line fill="none" stroke="#00B9D2" stroke-width="2" stroke-linecap="round" stroke-linejoin="round" stroke-miterlimit="10" x1="808" y1="773.55" x2="854.861" y2="773.55"/>
			</g>
			<g id="POLYLINE_124_">
				
					<polyline fill="none" stroke="#00B9D2" stroke-width="2" stroke-linecap="round" stroke-linejoin="round" stroke-miterlimit="10" points="
					849.122,767.833 854.85,773.56 849.122,779.287 				"/>
			</g>
			<g id="MTEXT_35_">
				<g>
					<path fill="#00B9D2" d="M662.023,780.698c-0.087-0.087-0.13-0.196-0.13-0.33v-0.6c0-0.307,0.166-0.601,0.5-0.881l4.359-4.34
						c0.986-0.84,1.667-1.526,2.04-2.06s0.561-1.101,0.561-1.7c0-0.786-0.221-1.403-0.66-1.85c-0.44-0.447-1.08-0.67-1.92-0.67
						c-0.801,0-1.434,0.233-1.9,0.699c-0.467,0.467-0.753,1.094-0.86,1.88c-0.026,0.147-0.093,0.261-0.199,0.341
						c-0.107,0.08-0.214,0.12-0.32,0.12h-0.96c-0.12,0-0.22-0.04-0.3-0.12s-0.12-0.174-0.12-0.28c0.026-0.707,0.217-1.39,0.569-2.05
						c0.354-0.66,0.877-1.2,1.57-1.62s1.533-0.63,2.521-0.63c1.493,0,2.616,0.39,3.37,1.17c0.753,0.78,1.13,1.77,1.13,2.97
						c0,0.84-0.204,1.597-0.61,2.271c-0.407,0.673-1.043,1.383-1.91,2.13l-3.939,4h6.3c0.146,0,0.26,0.04,0.34,0.12
						c0.08,0.079,0.12,0.193,0.12,0.34v0.76c0,0.134-0.044,0.243-0.13,0.33c-0.087,0.087-0.197,0.13-0.33,0.13h-8.76
						C662.22,780.828,662.109,780.785,662.023,780.698z"/>
					<path fill="#00B9D2" d="M674.083,780.698c-0.087-0.087-0.13-0.196-0.13-0.33v-1.38c0-0.133,0.043-0.247,0.13-0.34
						c0.086-0.094,0.196-0.141,0.33-0.141h1.38c0.133,0,0.243,0.047,0.33,0.141c0.086,0.093,0.13,0.207,0.13,0.34v1.38
						c0,0.134-0.044,0.243-0.13,0.33c-0.087,0.087-0.197,0.13-0.33,0.13h-1.38C674.279,780.828,674.169,780.785,674.083,780.698z"/>
					<path fill="#00B9D2" d="M680.283,780.698c-0.073-0.087-0.109-0.19-0.109-0.311c0-0.093,0.026-0.18,0.079-0.26l3.08-4.28
						c-0.319,0.08-0.693,0.12-1.12,0.12c-0.96-0.013-1.8-0.236-2.52-0.67c-0.72-0.433-1.27-1-1.65-1.7
						c-0.38-0.699-0.569-1.449-0.569-2.25c0-0.8,0.189-1.56,0.569-2.279c0.381-0.721,0.947-1.307,1.7-1.76s1.663-0.681,2.73-0.681
						c1.066,0,1.979,0.22,2.739,0.66c0.761,0.44,1.334,1.017,1.721,1.73c0.387,0.713,0.58,1.477,0.58,2.29
						c0,0.733-0.13,1.38-0.391,1.939c-0.26,0.561-0.604,1.14-1.029,1.74l-3.881,5.439c-0.093,0.12-0.183,0.217-0.27,0.29
						c-0.087,0.074-0.21,0.11-0.37,0.11h-1C680.453,780.828,680.356,780.785,680.283,780.698z M684.054,774.008
						c0.479-0.253,0.859-0.609,1.14-1.069s0.42-0.99,0.42-1.591c0-0.612-0.14-1.152-0.42-1.619s-0.66-0.827-1.14-1.08
						c-0.48-0.254-1.007-0.38-1.58-0.38c-0.561,0-1.077,0.126-1.55,0.38c-0.474,0.253-0.851,0.613-1.131,1.08
						c-0.279,0.467-0.42,1.007-0.42,1.619c0,0.601,0.141,1.131,0.42,1.591c0.28,0.46,0.653,0.816,1.12,1.069
						c0.467,0.254,0.987,0.38,1.561,0.38S683.573,774.262,684.054,774.008z"/>
					<path fill="#00B9D2" d="M692.143,780.519c-0.793-0.341-1.41-0.83-1.85-1.471c-0.44-0.64-0.66-1.387-0.66-2.239
						c0-0.787,0.196-1.477,0.59-2.07s0.923-1.05,1.59-1.37c-0.533-0.307-0.946-0.71-1.24-1.21c-0.293-0.5-0.439-1.09-0.439-1.771
						c0-1.159,0.433-2.076,1.3-2.75c0.866-0.673,2.007-1.01,3.42-1.01s2.55,0.334,3.41,1c0.86,0.667,1.29,1.587,1.29,2.76
						c0,0.667-0.146,1.25-0.44,1.75c-0.293,0.5-0.699,0.91-1.22,1.23c0.667,0.32,1.196,0.776,1.59,1.37s0.59,1.29,0.59,2.09
						c0,0.854-0.22,1.597-0.659,2.23c-0.44,0.633-1.058,1.119-1.851,1.46c-0.793,0.34-1.696,0.51-2.71,0.51
						S692.936,780.858,692.143,780.519z M697.223,778.748c0.633-0.479,0.95-1.12,0.95-1.92s-0.317-1.44-0.95-1.92
						c-0.634-0.48-1.424-0.72-2.37-0.72c-0.96,0-1.757,0.239-2.39,0.72c-0.634,0.479-0.95,1.12-0.95,1.92s0.316,1.44,0.95,1.92
						c0.633,0.48,1.43,0.72,2.39,0.72C695.799,779.468,696.589,779.229,697.223,778.748z M696.913,772.028
						c0.56-0.4,0.84-0.934,0.84-1.601c0-0.68-0.277-1.223-0.83-1.63c-0.554-0.406-1.243-0.609-2.07-0.609
						c-0.84,0-1.533,0.203-2.08,0.609c-0.547,0.407-0.819,0.95-0.819,1.63c0,0.681,0.272,1.224,0.819,1.631
						c0.547,0.406,1.24,0.609,2.08,0.609C695.666,772.642,696.353,772.428,696.913,772.028z"/>
					<path fill="#00B9D2" d="M702.402,770.309c-0.06-0.08-0.077-0.181-0.05-0.301l0.439-2.8c0.054-0.387,0.24-0.58,0.561-0.58h1.28
						c0.093,0,0.17,0.033,0.229,0.101c0.061,0.066,0.09,0.146,0.09,0.239c0,0.134-0.02,0.24-0.06,0.32l-1.04,2.7
						c-0.067,0.146-0.141,0.257-0.22,0.33c-0.08,0.073-0.2,0.109-0.36,0.109h-0.62C702.546,770.428,702.462,770.388,702.402,770.309
						z M705.542,770.309c-0.06-0.08-0.076-0.181-0.05-0.301l0.44-2.8c0.053-0.387,0.24-0.58,0.56-0.58h1.28
						c0.093,0,0.17,0.033,0.229,0.101c0.061,0.066,0.091,0.146,0.091,0.239c0,0.134-0.021,0.24-0.061,0.32l-1.04,2.7
						c-0.066,0.146-0.14,0.257-0.22,0.33s-0.2,0.109-0.36,0.109h-0.62C705.686,770.428,705.603,770.388,705.542,770.309z"/>
					<path fill="#00B9D2" d="M715.412,784.858c-0.08-0.087-0.12-0.197-0.12-0.33v-21.16c0-0.133,0.04-0.243,0.12-0.33
						s0.187-0.13,0.32-0.13h0.739c0.134,0,0.243,0.043,0.33,0.13s0.13,0.197,0.13,0.33v21.16c0,0.133-0.043,0.243-0.13,0.33
						c-0.087,0.086-0.196,0.13-0.33,0.13h-0.739C715.599,784.988,715.492,784.944,715.412,784.858z"/>
					<path fill="#00B9D2" d="M726.042,780.698c-0.073-0.087-0.11-0.19-0.11-0.311l0.04-0.18l5-11.7h-6.6
						c-0.134,0-0.243-0.043-0.33-0.13c-0.087-0.086-0.13-0.196-0.13-0.33v-0.739c0-0.147,0.04-0.264,0.12-0.351
						s0.193-0.13,0.34-0.13h8.16c0.146,0,0.26,0.043,0.34,0.13s0.12,0.203,0.12,0.351v0.68c0,0.24-0.054,0.5-0.16,0.78l-4.94,11.56
						c-0.066,0.146-0.14,0.267-0.22,0.36c-0.08,0.093-0.193,0.14-0.34,0.14h-1C726.212,780.828,726.115,780.785,726.042,780.698z"/>
					<path fill="#00B9D2" d="M736.751,780.488c-0.733-0.36-1.293-0.83-1.68-1.41s-0.594-1.203-0.62-1.87v-0.04
						c0-0.106,0.04-0.193,0.12-0.26s0.173-0.1,0.28-0.1h0.979c0.28,0,0.46,0.146,0.54,0.439c0.2,0.72,0.57,1.257,1.11,1.61
						s1.163,0.529,1.87,0.529c0.906,0,1.66-0.276,2.26-0.829c0.6-0.554,0.9-1.317,0.9-2.29c0-0.894-0.301-1.604-0.9-2.131
						c-0.6-0.526-1.354-0.79-2.26-0.79c-0.48,0-0.867,0.061-1.16,0.181c-0.294,0.12-0.594,0.293-0.9,0.52
						c-0.173,0.134-0.316,0.23-0.43,0.29c-0.113,0.061-0.237,0.09-0.37,0.09h-0.96c-0.12,0-0.227-0.043-0.32-0.13
						c-0.093-0.086-0.133-0.189-0.12-0.31l0.62-6.66c0.04-0.333,0.207-0.5,0.5-0.5h6.92c0.146,0,0.261,0.04,0.341,0.12
						c0.079,0.08,0.119,0.193,0.119,0.34v0.74c0,0.133-0.043,0.24-0.13,0.319c-0.087,0.08-0.196,0.12-0.33,0.12h-5.76l-0.359,4.021
						c0.64-0.453,1.5-0.68,2.579-0.68c0.894,0,1.707,0.177,2.44,0.529c0.733,0.354,1.316,0.87,1.75,1.55
						c0.434,0.681,0.65,1.487,0.65,2.421c0,0.986-0.217,1.836-0.65,2.55c-0.434,0.713-1.033,1.253-1.8,1.62
						c-0.767,0.366-1.644,0.55-2.63,0.55C738.352,781.028,737.484,780.848,736.751,780.488z"/>
					<path fill="#00B9D2" d="M746.682,780.698c-0.087-0.087-0.13-0.196-0.13-0.33v-1.38c0-0.133,0.043-0.247,0.13-0.34
						c0.086-0.094,0.196-0.141,0.33-0.141h1.38c0.133,0,0.243,0.047,0.33,0.141c0.086,0.093,0.13,0.207,0.13,0.34v1.38
						c0,0.134-0.044,0.243-0.13,0.33c-0.087,0.087-0.197,0.13-0.33,0.13h-1.38C746.878,780.828,746.768,780.785,746.682,780.698z"/>
					<path fill="#00B9D2" d="M752.302,780.698c-0.073-0.087-0.11-0.19-0.11-0.311l0.04-0.18l5-11.7h-6.6
						c-0.134,0-0.243-0.043-0.33-0.13c-0.087-0.086-0.13-0.196-0.13-0.33v-0.739c0-0.147,0.04-0.264,0.12-0.351
						s0.193-0.13,0.34-0.13h8.16c0.146,0,0.26,0.043,0.34,0.13s0.12,0.203,0.12,0.351v0.68c0,0.24-0.054,0.5-0.16,0.78l-4.94,11.56
						c-0.066,0.146-0.14,0.267-0.22,0.36c-0.08,0.093-0.193,0.14-0.34,0.14h-1C752.472,780.828,752.375,780.785,752.302,780.698z"/>
					<path fill="#00B9D2" d="M766.341,780.698c-0.087-0.087-0.13-0.196-0.13-0.33v-9.48c0-0.133,0.043-0.243,0.13-0.329
						c0.087-0.087,0.196-0.131,0.33-0.131h0.84c0.134,0,0.24,0.044,0.32,0.131c0.08,0.086,0.12,0.196,0.12,0.329v0.681
						c0.72-0.894,1.693-1.34,2.92-1.34c1.467,0,2.507,0.613,3.12,1.84c0.319-0.561,0.776-1.007,1.37-1.34
						c0.593-0.334,1.256-0.5,1.989-0.5c1.094,0,1.987,0.373,2.681,1.119c0.692,0.747,1.04,1.827,1.04,3.24v5.78
						c0,0.134-0.044,0.243-0.13,0.33c-0.087,0.087-0.197,0.13-0.33,0.13h-0.86c-0.134,0-0.243-0.043-0.33-0.13
						s-0.13-0.196-0.13-0.33v-5.6c0-1.067-0.22-1.83-0.66-2.29c-0.439-0.46-1.02-0.69-1.74-0.69c-0.64,0-1.189,0.237-1.649,0.71
						c-0.46,0.474-0.69,1.23-0.69,2.271v5.6c0,0.134-0.043,0.243-0.13,0.33s-0.197,0.13-0.33,0.13h-0.88
						c-0.134,0-0.243-0.043-0.33-0.13s-0.13-0.196-0.13-0.33v-5.6c0-1.054-0.23-1.813-0.69-2.28s-1.029-0.7-1.71-0.7
						c-0.64,0-1.189,0.233-1.649,0.7s-0.69,1.22-0.69,2.26v5.62c0,0.134-0.043,0.243-0.13,0.33s-0.197,0.13-0.33,0.13h-0.88
						C766.537,780.828,766.428,780.785,766.341,780.698z"/>
					<path fill="#00B9D2" d="M784.101,780.698c-0.087-0.087-0.13-0.196-0.13-0.33v-9.48c0-0.133,0.043-0.243,0.13-0.329
						c0.087-0.087,0.196-0.131,0.33-0.131h0.84c0.134,0,0.24,0.044,0.32,0.131c0.08,0.086,0.12,0.196,0.12,0.329v0.681
						c0.72-0.894,1.693-1.34,2.92-1.34c1.467,0,2.507,0.613,3.12,1.84c0.319-0.561,0.776-1.007,1.37-1.34
						c0.593-0.334,1.256-0.5,1.989-0.5c1.094,0,1.987,0.373,2.681,1.119c0.692,0.747,1.04,1.827,1.04,3.24v5.78
						c0,0.134-0.044,0.243-0.13,0.33c-0.087,0.087-0.197,0.13-0.33,0.13h-0.86c-0.134,0-0.243-0.043-0.33-0.13
						s-0.13-0.196-0.13-0.33v-5.6c0-1.067-0.22-1.83-0.66-2.29c-0.439-0.46-1.02-0.69-1.74-0.69c-0.64,0-1.189,0.237-1.649,0.71
						c-0.46,0.474-0.69,1.23-0.69,2.271v5.6c0,0.134-0.043,0.243-0.13,0.33s-0.197,0.13-0.33,0.13h-0.88
						c-0.134,0-0.243-0.043-0.33-0.13s-0.13-0.196-0.13-0.33v-5.6c0-1.054-0.23-1.813-0.69-2.28s-1.029-0.7-1.71-0.7
						c-0.64,0-1.189,0.233-1.649,0.7s-0.69,1.22-0.69,2.26v5.62c0,0.134-0.043,0.243-0.13,0.33s-0.197,0.13-0.33,0.13h-0.88
						C784.297,780.828,784.188,780.785,784.101,780.698z"/>
				</g>
			</g>
		</g>
		<g>
			<g id="POLYLINE_123_">
				
					<polyline fill="none" stroke="#00B9D2" stroke-width="2" stroke-linecap="round" stroke-linejoin="round" stroke-miterlimit="10" points="
					107.837,660.766 102.11,666.493 107.837,672.22 				"/>
			</g>
			<g id="POLYLINE_122_">
				
					<line fill="none" stroke="#00B9D2" stroke-width="2" stroke-linecap="round" stroke-linejoin="round" stroke-miterlimit="10" x1="102.11" y1="666.493" x2="229.031" y2="666.493"/>
			</g>
			<g id="POLYLINE_121_">
				
					<line fill="none" stroke="#00B9D2" stroke-width="2" stroke-linecap="round" stroke-linejoin="round" stroke-miterlimit="10" x1="306.231" y1="666.493" x2="370.09" y2="666.493"/>
			</g>
			<g id="POLYLINE_114_">
				
					<polyline fill="none" stroke="#00B9D2" stroke-width="2" stroke-linecap="round" stroke-linejoin="round" stroke-miterlimit="10" points="
					364.351,660.776 370.079,666.503 364.351,672.23 				"/>
			</g>
			<g id="MTEXT_34_">
				<g>
					<path fill="#00B9D2" d="M239.28,672.462c-0.793-0.341-1.41-0.83-1.85-1.471c-0.44-0.64-0.66-1.387-0.66-2.239
						c0-0.787,0.196-1.477,0.59-2.07s0.923-1.05,1.59-1.37c-0.533-0.307-0.946-0.71-1.24-1.21c-0.293-0.5-0.439-1.09-0.439-1.771
						c0-1.159,0.433-2.076,1.3-2.75c0.866-0.673,2.007-1.01,3.42-1.01s2.55,0.334,3.41,1c0.86,0.667,1.29,1.587,1.29,2.76
						c0,0.667-0.146,1.25-0.44,1.75c-0.293,0.5-0.699,0.91-1.22,1.23c0.667,0.32,1.196,0.776,1.59,1.37s0.59,1.29,0.59,2.09
						c0,0.854-0.22,1.597-0.659,2.23c-0.44,0.633-1.058,1.119-1.851,1.46c-0.793,0.34-1.696,0.51-2.71,0.51
						S240.073,672.802,239.28,672.462z M244.36,670.691c0.633-0.479,0.95-1.12,0.95-1.92s-0.317-1.44-0.95-1.92
						c-0.634-0.48-1.424-0.72-2.37-0.72c-0.96,0-1.757,0.239-2.39,0.72c-0.634,0.479-0.95,1.12-0.95,1.92s0.316,1.44,0.95,1.92
						c0.633,0.48,1.43,0.72,2.39,0.72C242.937,671.411,243.727,671.172,244.36,670.691z M244.051,663.972
						c0.56-0.4,0.84-0.934,0.84-1.601c0-0.68-0.277-1.223-0.83-1.63c-0.554-0.406-1.243-0.609-2.07-0.609
						c-0.84,0-1.533,0.203-2.08,0.609c-0.547,0.407-0.819,0.95-0.819,1.63c0,0.681,0.272,1.224,0.819,1.631
						c0.547,0.406,1.24,0.609,2.08,0.609C242.804,664.585,243.49,664.371,244.051,663.972z"/>
					<path fill="#00B9D2" d="M249.44,672.642c-0.087-0.087-0.13-0.196-0.13-0.33v-0.6c0-0.307,0.166-0.601,0.5-0.881l4.359-4.34
						c0.986-0.84,1.667-1.526,2.04-2.06s0.561-1.101,0.561-1.7c0-0.786-0.221-1.403-0.66-1.85c-0.44-0.447-1.08-0.67-1.92-0.67
						c-0.801,0-1.434,0.233-1.9,0.699c-0.467,0.467-0.753,1.094-0.86,1.88c-0.026,0.147-0.093,0.261-0.199,0.341
						c-0.107,0.08-0.214,0.12-0.32,0.12h-0.96c-0.12,0-0.22-0.04-0.3-0.12s-0.12-0.174-0.12-0.28c0.026-0.707,0.217-1.39,0.569-2.05
						c0.354-0.66,0.877-1.2,1.57-1.62s1.533-0.63,2.521-0.63c1.493,0,2.616,0.39,3.37,1.17c0.753,0.78,1.13,1.77,1.13,2.97
						c0,0.84-0.204,1.597-0.61,2.271c-0.407,0.673-1.043,1.383-1.91,2.13l-3.939,4h6.3c0.146,0,0.26,0.04,0.34,0.12
						c0.08,0.079,0.12,0.193,0.12,0.34v0.76c0,0.134-0.044,0.243-0.13,0.33c-0.087,0.087-0.197,0.13-0.33,0.13h-8.76
						C249.637,672.771,249.526,672.729,249.44,672.642z"/>
					<path fill="#00B9D2" d="M263.64,672.462c-0.793-0.341-1.41-0.83-1.85-1.471c-0.44-0.64-0.66-1.387-0.66-2.239
						c0-0.787,0.196-1.477,0.59-2.07s0.923-1.05,1.59-1.37c-0.533-0.307-0.946-0.71-1.24-1.21c-0.293-0.5-0.439-1.09-0.439-1.771
						c0-1.159,0.433-2.076,1.3-2.75c0.866-0.673,2.007-1.01,3.42-1.01s2.55,0.334,3.41,1c0.86,0.667,1.29,1.587,1.29,2.76
						c0,0.667-0.146,1.25-0.44,1.75c-0.293,0.5-0.699,0.91-1.22,1.23c0.667,0.32,1.196,0.776,1.59,1.37s0.59,1.29,0.59,2.09
						c0,0.854-0.22,1.597-0.659,2.23c-0.44,0.633-1.058,1.119-1.851,1.46c-0.793,0.34-1.696,0.51-2.71,0.51
						S264.433,672.802,263.64,672.462z M268.72,670.691c0.633-0.479,0.95-1.12,0.95-1.92s-0.317-1.44-0.95-1.92
						c-0.634-0.48-1.424-0.72-2.37-0.72c-0.96,0-1.757,0.239-2.39,0.72c-0.634,0.479-0.95,1.12-0.95,1.92s0.316,1.44,0.95,1.92
						c0.633,0.48,1.43,0.72,2.39,0.72C267.296,671.411,268.086,671.172,268.72,670.691z M268.41,663.972
						c0.56-0.4,0.84-0.934,0.84-1.601c0-0.68-0.277-1.223-0.83-1.63c-0.554-0.406-1.243-0.609-2.07-0.609
						c-0.84,0-1.533,0.203-2.08,0.609c-0.547,0.407-0.819,0.95-0.819,1.63c0,0.681,0.272,1.224,0.819,1.631
						c0.547,0.406,1.24,0.609,2.08,0.609C267.163,664.585,267.85,664.371,268.41,663.972z"/>
					<path fill="#00B9D2" d="M279.26,676.451c-0.087-0.08-0.131-0.193-0.131-0.34v-13.28c0-0.146,0.044-0.26,0.131-0.34
						c0.086-0.08,0.196-0.12,0.33-0.12h0.84c0.146,0,0.26,0.04,0.34,0.12s0.12,0.193,0.12,0.34v0.881
						c0.772-1.027,1.873-1.54,3.3-1.54c1.4,0,2.45,0.443,3.15,1.33c0.699,0.887,1.069,2.017,1.109,3.39
						c0.014,0.146,0.021,0.373,0.021,0.68s-0.007,0.533-0.021,0.681c-0.04,1.359-0.41,2.486-1.109,3.38
						c-0.7,0.894-1.75,1.34-3.15,1.34c-1.427,0-2.507-0.507-3.24-1.521v4.66c0,0.133-0.043,0.243-0.13,0.33s-0.197,0.13-0.33,0.13
						h-0.899C279.456,676.571,279.346,676.531,279.26,676.451z M285.909,670.512c0.44-0.601,0.681-1.387,0.72-2.36
						c0.014-0.133,0.021-0.326,0.021-0.58c0-2.56-0.947-3.84-2.84-3.84c-0.934,0-1.637,0.31-2.11,0.93s-0.724,1.351-0.75,2.19
						c-0.014,0.146-0.02,0.407-0.02,0.78s0.006,0.633,0.02,0.779c0.026,0.813,0.283,1.518,0.771,2.11
						c0.486,0.594,1.183,0.89,2.09,0.89C284.77,671.411,285.47,671.111,285.909,670.512z"/>
					<path fill="#00B9D2" d="M289.93,672.651c-0.08-0.08-0.12-0.18-0.12-0.3s0.047-0.247,0.141-0.38l3.479-4.521l-3.26-4.3
						c-0.106-0.146-0.16-0.267-0.16-0.36c0-0.119,0.043-0.22,0.13-0.3s0.184-0.12,0.29-0.12h0.96c0.2,0,0.373,0.107,0.521,0.32
						l2.7,3.5l2.699-3.5c0.08-0.106,0.157-0.187,0.23-0.24c0.073-0.053,0.17-0.08,0.29-0.08h0.92c0.106,0,0.2,0.04,0.28,0.12
						s0.12,0.174,0.12,0.28c0,0.134-0.047,0.26-0.141,0.38l-3.3,4.34l3.48,4.48c0.093,0.133,0.14,0.26,0.14,0.38
						s-0.04,0.22-0.12,0.3s-0.18,0.12-0.3,0.12h-0.98c-0.2,0-0.373-0.1-0.52-0.3l-2.86-3.7l-2.859,3.7
						c-0.08,0.093-0.157,0.167-0.23,0.22c-0.073,0.054-0.17,0.08-0.29,0.08h-0.94C290.11,672.771,290.01,672.731,289.93,672.651z"/>
				</g>
			</g>
		</g>
		<g>
			<g id="POLYLINE_113_">
				
					<polyline fill="none" stroke="#00B9D2" stroke-width="2" stroke-linecap="round" stroke-linejoin="round" stroke-miterlimit="10" points="
					342.491,109.815 336.764,104.088 331.038,109.815 				"/>
			</g>
			<g id="POLYLINE_112_">
				
					<line fill="none" stroke="#00B9D2" stroke-width="2" stroke-linecap="round" stroke-linejoin="round" stroke-miterlimit="10" x1="336.764" y1="104.088" x2="336.764" y2="545.259"/>
			</g>
			<g id="POLYLINE_111_">
				
					<line fill="none" stroke="#00B9D2" stroke-width="2" stroke-linecap="round" stroke-linejoin="round" stroke-miterlimit="10" x1="336.764" y1="574.959" x2="336.764" y2="703.143"/>
			</g>
			<g id="POLYLINE_110_">
				
					<polyline fill="none" stroke="#00B9D2" stroke-width="2" stroke-linecap="round" stroke-linejoin="round" stroke-miterlimit="10" points="
					342.481,697.404 336.754,703.131 331.027,697.404 				"/>
			</g>
			<g id="MTEXT_31_">
				<g>
					<path fill="#00B9D2" d="M305.583,566.78c-0.08-0.087-0.12-0.196-0.12-0.33v-11.28l-3.36,2.58c-0.093,0.08-0.193,0.12-0.3,0.12
						c-0.12,0-0.233-0.066-0.34-0.2l-0.48-0.62c-0.066-0.093-0.1-0.187-0.1-0.279c0-0.146,0.066-0.267,0.2-0.36l4.34-3.36
						c0.146-0.093,0.32-0.14,0.52-0.14h0.94c0.133,0,0.243,0.043,0.33,0.13s0.13,0.197,0.13,0.33v13.08
						c0,0.134-0.043,0.243-0.13,0.33s-0.197,0.13-0.33,0.13h-0.98C305.77,566.91,305.663,566.867,305.583,566.78z"/>
					<path fill="#00B9D2" d="M311.593,566.78c-0.073-0.087-0.11-0.19-0.11-0.311l0.04-0.18l5-11.7h-6.6
						c-0.134,0-0.243-0.043-0.33-0.13c-0.087-0.086-0.13-0.196-0.13-0.33v-0.739c0-0.147,0.04-0.264,0.12-0.351
						s0.193-0.13,0.34-0.13h8.16c0.146,0,0.26,0.043,0.34,0.13s0.12,0.203,0.12,0.351v0.68c0,0.24-0.054,0.5-0.16,0.78l-4.94,11.56
						c-0.066,0.146-0.14,0.267-0.22,0.36c-0.08,0.093-0.193,0.14-0.34,0.14h-1C311.763,566.91,311.666,566.867,311.593,566.78z"/>
					<path fill="#00B9D2" d="M322.672,566.78c-0.073-0.087-0.109-0.19-0.109-0.311c0-0.093,0.026-0.18,0.079-0.26l3.08-4.28
						c-0.319,0.08-0.693,0.12-1.12,0.12c-0.96-0.013-1.8-0.236-2.52-0.67c-0.72-0.433-1.27-1-1.65-1.7
						c-0.38-0.699-0.569-1.449-0.569-2.25c0-0.8,0.189-1.56,0.569-2.279c0.381-0.721,0.947-1.307,1.7-1.76s1.663-0.681,2.73-0.681
						c1.066,0,1.979,0.22,2.739,0.66c0.761,0.44,1.334,1.017,1.721,1.73c0.387,0.713,0.58,1.477,0.58,2.29
						c0,0.733-0.13,1.38-0.391,1.939c-0.26,0.561-0.604,1.14-1.029,1.74l-3.881,5.439c-0.093,0.12-0.183,0.217-0.27,0.29
						c-0.087,0.074-0.21,0.11-0.37,0.11h-1C322.842,566.91,322.745,566.867,322.672,566.78z M326.442,560.09
						c0.479-0.253,0.859-0.609,1.14-1.069s0.42-0.99,0.42-1.591c0-0.612-0.14-1.152-0.42-1.619s-0.66-0.827-1.14-1.08
						c-0.48-0.254-1.007-0.38-1.58-0.38c-0.561,0-1.077,0.126-1.55,0.38c-0.474,0.253-0.851,0.613-1.131,1.08
						c-0.279,0.467-0.42,1.007-0.42,1.619c0,0.601,0.141,1.131,0.42,1.591c0.28,0.46,0.653,0.816,1.12,1.069
						c0.467,0.254,0.987,0.38,1.561,0.38S325.962,560.344,326.442,560.09z"/>
					<path fill="#00B9D2" d="M332.013,566.78c-0.087-0.087-0.13-0.196-0.13-0.33v-0.6c0-0.307,0.166-0.601,0.5-0.881l4.359-4.34
						c0.986-0.84,1.667-1.526,2.04-2.06s0.561-1.101,0.561-1.7c0-0.786-0.221-1.403-0.66-1.85c-0.44-0.447-1.08-0.67-1.92-0.67
						c-0.801,0-1.434,0.233-1.9,0.699c-0.467,0.467-0.753,1.094-0.86,1.88c-0.026,0.147-0.093,0.261-0.199,0.341
						c-0.107,0.08-0.214,0.12-0.32,0.12h-0.96c-0.12,0-0.22-0.04-0.3-0.12s-0.12-0.174-0.12-0.28c0.026-0.707,0.217-1.39,0.569-2.05
						c0.354-0.66,0.877-1.2,1.57-1.62s1.533-0.63,2.521-0.63c1.493,0,2.616,0.39,3.37,1.17c0.753,0.78,1.13,1.77,1.13,2.97
						c0,0.84-0.204,1.597-0.61,2.271c-0.407,0.673-1.043,1.383-1.91,2.13l-3.939,4h6.3c0.146,0,0.26,0.04,0.34,0.12
						c0.08,0.079,0.12,0.193,0.12,0.34v0.76c0,0.134-0.044,0.243-0.13,0.33c-0.087,0.087-0.197,0.13-0.33,0.13h-8.76
						C332.209,566.91,332.099,566.867,332.013,566.78z"/>
					<path fill="#00B9D2" d="M349.152,570.59c-0.087-0.08-0.131-0.193-0.131-0.34v-13.28c0-0.146,0.044-0.26,0.131-0.34
						c0.086-0.08,0.196-0.12,0.33-0.12h0.84c0.146,0,0.26,0.04,0.34,0.12s0.12,0.193,0.12,0.34v0.881
						c0.772-1.027,1.873-1.54,3.3-1.54c1.4,0,2.45,0.443,3.15,1.33c0.699,0.887,1.069,2.017,1.109,3.39
						c0.014,0.146,0.021,0.373,0.021,0.68s-0.007,0.533-0.021,0.681c-0.04,1.359-0.41,2.486-1.109,3.38
						c-0.7,0.894-1.75,1.34-3.15,1.34c-1.427,0-2.507-0.507-3.24-1.521v4.66c0,0.133-0.043,0.243-0.13,0.33s-0.197,0.13-0.33,0.13
						h-0.899C349.349,570.71,349.238,570.67,349.152,570.59z M355.802,564.65c0.44-0.601,0.681-1.387,0.72-2.36
						c0.014-0.133,0.021-0.326,0.021-0.58c0-2.56-0.947-3.84-2.84-3.84c-0.934,0-1.637,0.31-2.11,0.93s-0.724,1.351-0.75,2.19
						c-0.014,0.146-0.02,0.407-0.02,0.78s0.006,0.633,0.02,0.779c0.026,0.813,0.283,1.518,0.771,2.11
						c0.486,0.594,1.183,0.89,2.09,0.89C354.662,565.55,355.362,565.25,355.802,564.65z"/>
					<path fill="#00B9D2" d="M359.821,566.79c-0.08-0.08-0.12-0.18-0.12-0.3s0.047-0.247,0.141-0.38l3.479-4.521l-3.26-4.3
						c-0.106-0.146-0.16-0.267-0.16-0.36c0-0.119,0.043-0.22,0.13-0.3s0.184-0.12,0.29-0.12h0.96c0.2,0,0.373,0.107,0.521,0.32
						l2.7,3.5l2.699-3.5c0.08-0.106,0.157-0.187,0.23-0.24c0.073-0.053,0.17-0.08,0.29-0.08h0.92c0.106,0,0.2,0.04,0.28,0.12
						s0.12,0.174,0.12,0.28c0,0.134-0.047,0.26-0.141,0.38l-3.3,4.34l3.48,4.48c0.093,0.133,0.14,0.26,0.14,0.38
						s-0.04,0.22-0.12,0.3s-0.18,0.12-0.3,0.12h-0.98c-0.2,0-0.373-0.1-0.52-0.3l-2.86-3.7l-2.859,3.7
						c-0.08,0.093-0.157,0.167-0.23,0.22c-0.073,0.054-0.17,0.08-0.29,0.08h-0.94C360.002,566.91,359.901,566.87,359.821,566.79z"/>
				</g>
			</g>
		</g>
		<g>
			<g id="POLYLINE_99_">
				
					<polyline fill="none" stroke="#00B9D2" stroke-width="2" stroke-linecap="round" stroke-linejoin="round" stroke-miterlimit="10" points="
					887.157,58.811 881.43,53.084 875.703,58.811 				"/>
			</g>
			<g id="POLYLINE_97_">
				
					<line fill="none" stroke="#00B9D2" stroke-width="2" stroke-linecap="round" stroke-linejoin="round" stroke-miterlimit="10" x1="881.43" y1="53.084" x2="881.43" y2="369.727"/>
			</g>
			<g id="POLYLINE_96_">
				
					<line fill="none" stroke="#00B9D2" stroke-width="2" stroke-linecap="round" stroke-linejoin="round" stroke-miterlimit="10" x1="881.43" y1="429" x2="881.43" y2="749.69"/>
			</g>
			<g id="POLYLINE_94_">
				
					<polyline fill="none" stroke="#00B9D2" stroke-width="2" stroke-linecap="round" stroke-linejoin="round" stroke-miterlimit="10" points="
					887.147,743.951 881.42,749.678 875.693,743.951 				"/>
			</g>
			<g id="MTEXT_15_" opacity="0.98">
				<g>
					<path fill="#00B9D2" d="M878.372,395.206c-0.733-0.36-1.293-0.83-1.68-1.41s-0.594-1.203-0.62-1.87v-0.04
						c0-0.106,0.04-0.193,0.12-0.26s0.173-0.1,0.28-0.1h0.979c0.28,0,0.46,0.146,0.54,0.439c0.2,0.72,0.57,1.257,1.11,1.61
						s1.163,0.529,1.87,0.529c0.906,0,1.66-0.276,2.26-0.829c0.6-0.554,0.9-1.317,0.9-2.29c0-0.894-0.301-1.604-0.9-2.131
						c-0.6-0.526-1.354-0.79-2.26-0.79c-0.48,0-0.867,0.061-1.16,0.181c-0.294,0.12-0.594,0.293-0.9,0.52
						c-0.173,0.134-0.316,0.23-0.43,0.29c-0.113,0.061-0.237,0.09-0.37,0.09h-0.96c-0.12,0-0.227-0.043-0.32-0.13
						c-0.093-0.086-0.133-0.189-0.12-0.31l0.62-6.66c0.04-0.333,0.207-0.5,0.5-0.5h6.92c0.146,0,0.261,0.04,0.341,0.12
						c0.079,0.08,0.119,0.193,0.119,0.34v0.74c0,0.133-0.043,0.24-0.13,0.319c-0.087,0.08-0.196,0.12-0.33,0.12h-5.76l-0.359,4.021
						c0.64-0.453,1.5-0.68,2.579-0.68c0.894,0,1.707,0.177,2.44,0.529c0.733,0.354,1.316,0.87,1.75,1.55
						c0.434,0.681,0.65,1.487,0.65,2.421c0,0.986-0.217,1.836-0.65,2.55c-0.434,0.713-1.033,1.253-1.8,1.62
						c-0.767,0.366-1.644,0.55-2.63,0.55C879.973,395.746,879.105,395.565,878.372,395.206z"/>
					<path fill="#00B9D2" d="M888.303,395.416c-0.087-0.087-0.13-0.196-0.13-0.33v-1.38c0-0.133,0.043-0.247,0.13-0.34
						c0.086-0.094,0.196-0.141,0.33-0.141h1.38c0.133,0,0.243,0.047,0.33,0.141c0.086,0.093,0.13,0.207,0.13,0.34v1.38
						c0,0.134-0.044,0.243-0.13,0.33c-0.087,0.087-0.197,0.13-0.33,0.13h-1.38C888.499,395.546,888.389,395.503,888.303,395.416z"/>
					<path fill="#00B9D2" d="M894.502,395.416c-0.073-0.087-0.109-0.19-0.109-0.311c0-0.093,0.026-0.18,0.079-0.26l3.08-4.28
						c-0.319,0.08-0.693,0.12-1.12,0.12c-0.96-0.013-1.8-0.236-2.52-0.67c-0.72-0.433-1.27-1-1.65-1.7
						c-0.38-0.699-0.569-1.449-0.569-2.25c0-0.8,0.189-1.56,0.569-2.279c0.381-0.721,0.947-1.307,1.7-1.76s1.663-0.681,2.73-0.681
						c1.066,0,1.979,0.22,2.739,0.66c0.761,0.44,1.334,1.017,1.721,1.73c0.387,0.713,0.58,1.477,0.58,2.29
						c0,0.733-0.13,1.38-0.391,1.939c-0.26,0.561-0.604,1.14-1.029,1.74l-3.881,5.439c-0.093,0.12-0.183,0.217-0.27,0.29
						c-0.087,0.074-0.21,0.11-0.37,0.11h-1C894.672,395.546,894.575,395.503,894.502,395.416z M898.272,388.726
						c0.479-0.253,0.859-0.609,1.14-1.069s0.42-0.99,0.42-1.591c0-0.612-0.14-1.152-0.42-1.619s-0.66-0.827-1.14-1.08
						c-0.48-0.254-1.007-0.38-1.58-0.38c-0.561,0-1.077,0.126-1.55,0.38c-0.474,0.253-0.851,0.613-1.131,1.08
						c-0.279,0.467-0.42,1.007-0.42,1.619c0,0.601,0.141,1.131,0.42,1.591c0.28,0.46,0.653,0.816,1.12,1.069
						c0.467,0.254,0.987,0.38,1.561,0.38S897.792,388.979,898.272,388.726z"/>
					<path fill="#00B9D2" d="M910.143,395.416c-0.087-0.087-0.13-0.196-0.13-0.33v-2.92h-6.5c-0.134,0-0.243-0.043-0.33-0.13
						s-0.13-0.197-0.13-0.33v-0.74c0-0.187,0.073-0.387,0.22-0.6l6.021-8.48c0.066-0.106,0.166-0.189,0.3-0.25
						c0.133-0.06,0.28-0.09,0.439-0.09h1.36c0.146,0,0.26,0.04,0.34,0.12s0.12,0.193,0.12,0.34v8.48h1.82
						c0.133,0,0.243,0.043,0.33,0.13c0.086,0.087,0.13,0.196,0.13,0.33v0.76c0,0.133-0.044,0.243-0.13,0.33
						c-0.087,0.087-0.197,0.13-0.33,0.13h-1.82v2.92c0,0.134-0.043,0.243-0.13,0.33s-0.197,0.13-0.33,0.13h-0.92
						C910.339,395.546,910.229,395.503,910.143,395.416z M905.133,390.526h4.899v-6.961L905.133,390.526z"/>
					<path fill="#00B9D2" d="M916.002,385.026c-0.06-0.08-0.077-0.181-0.05-0.301l0.439-2.8c0.054-0.387,0.24-0.58,0.561-0.58h1.28
						c0.093,0,0.17,0.033,0.229,0.101c0.061,0.066,0.09,0.146,0.09,0.239c0,0.134-0.02,0.24-0.06,0.32l-1.04,2.7
						c-0.067,0.146-0.141,0.257-0.22,0.33c-0.08,0.073-0.2,0.109-0.36,0.109h-0.62C916.146,385.146,916.062,385.105,916.002,385.026
						z M919.142,385.026c-0.06-0.08-0.076-0.181-0.05-0.301l0.44-2.8c0.053-0.387,0.24-0.58,0.56-0.58h1.28
						c0.093,0,0.17,0.033,0.229,0.101c0.061,0.066,0.091,0.146,0.091,0.239c0,0.134-0.021,0.24-0.061,0.32l-1.04,2.7
						c-0.066,0.146-0.14,0.257-0.22,0.33s-0.2,0.109-0.36,0.109h-0.62C919.285,385.146,919.202,385.105,919.142,385.026z"/>
					<path fill="#00B9D2" d="M880.353,417.216c-0.08-0.087-0.12-0.196-0.12-0.33v-11.28l-3.36,2.58c-0.093,0.08-0.193,0.12-0.3,0.12
						c-0.12,0-0.233-0.066-0.34-0.2l-0.48-0.62c-0.066-0.093-0.1-0.187-0.1-0.279c0-0.146,0.066-0.267,0.2-0.36l4.34-3.36
						c0.146-0.093,0.32-0.14,0.52-0.14h0.94c0.133,0,0.243,0.043,0.33,0.13s0.13,0.197,0.13,0.33v13.08
						c0,0.134-0.043,0.243-0.13,0.33s-0.197,0.13-0.33,0.13h-0.98C880.539,417.346,880.433,417.303,880.353,417.216z"/>
					<path fill="#00B9D2" d="M886.872,417.006c-0.733-0.36-1.293-0.83-1.68-1.41s-0.594-1.203-0.62-1.87v-0.04
						c0-0.106,0.04-0.193,0.12-0.26s0.173-0.1,0.28-0.1h0.979c0.28,0,0.46,0.146,0.54,0.439c0.2,0.72,0.57,1.257,1.11,1.61
						s1.163,0.529,1.87,0.529c0.906,0,1.66-0.276,2.26-0.829c0.6-0.554,0.9-1.317,0.9-2.29c0-0.894-0.301-1.604-0.9-2.131
						c-0.6-0.526-1.354-0.79-2.26-0.79c-0.48,0-0.867,0.061-1.16,0.181c-0.294,0.12-0.594,0.293-0.9,0.52
						c-0.173,0.134-0.316,0.23-0.43,0.29c-0.113,0.061-0.237,0.09-0.37,0.09h-0.96c-0.12,0-0.227-0.043-0.32-0.13
						c-0.093-0.086-0.133-0.189-0.12-0.31l0.62-6.66c0.04-0.333,0.207-0.5,0.5-0.5h6.92c0.146,0,0.261,0.04,0.341,0.12
						c0.079,0.08,0.119,0.193,0.119,0.34v0.74c0,0.133-0.043,0.24-0.13,0.319c-0.087,0.08-0.196,0.12-0.33,0.12h-5.76l-0.359,4.021
						c0.64-0.453,1.5-0.68,2.579-0.68c0.894,0,1.707,0.177,2.44,0.529c0.733,0.354,1.316,0.87,1.75,1.55
						c0.434,0.681,0.65,1.487,0.65,2.421c0,0.986-0.217,1.836-0.65,2.55c-0.434,0.713-1.033,1.253-1.8,1.62
						c-0.767,0.366-1.644,0.55-2.63,0.55C888.473,417.546,887.605,417.365,886.872,417.006z"/>
					<path fill="#00B9D2" d="M898.042,416.036c-0.793-1.007-1.217-2.323-1.27-3.95l-0.021-1.721l0.021-1.779
						c0.04-1.613,0.463-2.924,1.27-3.931c0.807-1.006,2.063-1.51,3.771-1.51c1.72,0,2.982,0.504,3.79,1.51
						c0.807,1.007,1.229,2.317,1.27,3.931c0.014,0.373,0.021,0.967,0.021,1.779c0,0.787-0.007,1.36-0.021,1.721
						c-0.054,1.627-0.477,2.943-1.27,3.95c-0.794,1.007-2.058,1.51-3.79,1.51C900.092,417.546,898.835,417.043,898.042,416.036z
						 M904.132,414.865c0.521-0.68,0.794-1.64,0.82-2.88c0.013-0.386,0.021-0.939,0.021-1.659c0-0.733-0.008-1.28-0.021-1.641
						c-0.026-1.227-0.304-2.183-0.83-2.87c-0.526-0.687-1.297-1.029-2.31-1.029c-1.014,0-1.78,0.343-2.301,1.029
						c-0.52,0.688-0.793,1.644-0.819,2.87l-0.021,1.641l0.021,1.659c0.026,1.24,0.3,2.2,0.819,2.88
						c0.521,0.681,1.287,1.021,2.301,1.021C902.839,415.886,903.612,415.546,904.132,414.865z"/>
					<path fill="#00B9D2" d="M909.322,417.216c-0.087-0.087-0.13-0.196-0.13-0.33v-1.38c0-0.133,0.043-0.247,0.13-0.34
						c0.086-0.094,0.196-0.141,0.33-0.141h1.38c0.133,0,0.243,0.047,0.33,0.141c0.086,0.093,0.13,0.207,0.13,0.34v1.38
						c0,0.134-0.044,0.243-0.13,0.33c-0.087,0.087-0.197,0.13-0.33,0.13h-1.38C909.519,417.346,909.408,417.303,909.322,417.216z"/>
					<path fill="#00B9D2" d="M915.521,417.216c-0.073-0.087-0.109-0.19-0.109-0.311c0-0.093,0.026-0.18,0.079-0.26l3.08-4.28
						c-0.319,0.08-0.693,0.12-1.12,0.12c-0.96-0.013-1.8-0.236-2.52-0.67c-0.72-0.433-1.27-1-1.65-1.7
						c-0.38-0.699-0.569-1.449-0.569-2.25c0-0.8,0.189-1.56,0.569-2.279c0.381-0.721,0.947-1.307,1.7-1.76s1.663-0.681,2.73-0.681
						c1.066,0,1.979,0.22,2.739,0.66c0.761,0.44,1.334,1.017,1.721,1.73c0.387,0.713,0.58,1.477,0.58,2.29
						c0,0.733-0.13,1.38-0.391,1.939c-0.26,0.561-0.604,1.14-1.029,1.74l-3.881,5.439c-0.093,0.12-0.183,0.217-0.27,0.29
						c-0.087,0.074-0.21,0.11-0.37,0.11h-1C915.691,417.346,915.595,417.303,915.521,417.216z M919.292,410.525
						c0.479-0.253,0.859-0.609,1.14-1.069s0.42-0.99,0.42-1.591c0-0.612-0.14-1.152-0.42-1.619s-0.66-0.827-1.14-1.08
						c-0.48-0.254-1.007-0.38-1.58-0.38c-0.561,0-1.077,0.126-1.55,0.38c-0.474,0.253-0.851,0.613-1.131,1.08
						c-0.279,0.467-0.42,1.007-0.42,1.619c0,0.601,0.141,1.131,0.42,1.591c0.28,0.46,0.653,0.816,1.12,1.069
						c0.467,0.254,0.987,0.38,1.561,0.38S918.812,410.779,919.292,410.525z"/>
					<path fill="#00B9D2" d="M930.302,417.216c-0.087-0.087-0.13-0.196-0.13-0.33v-9.48c0-0.133,0.043-0.243,0.13-0.329
						c0.087-0.087,0.196-0.131,0.33-0.131h0.84c0.134,0,0.24,0.044,0.32,0.131c0.08,0.086,0.12,0.196,0.12,0.329v0.681
						c0.72-0.894,1.693-1.34,2.92-1.34c1.467,0,2.507,0.613,3.12,1.84c0.319-0.561,0.776-1.007,1.37-1.34
						c0.593-0.334,1.256-0.5,1.989-0.5c1.094,0,1.987,0.373,2.681,1.119c0.692,0.747,1.04,1.827,1.04,3.24v5.78
						c0,0.134-0.044,0.243-0.13,0.33c-0.087,0.087-0.197,0.13-0.33,0.13h-0.86c-0.134,0-0.243-0.043-0.33-0.13
						s-0.13-0.196-0.13-0.33v-5.6c0-1.067-0.22-1.83-0.66-2.29c-0.439-0.46-1.02-0.69-1.74-0.69c-0.64,0-1.189,0.237-1.649,0.71
						c-0.46,0.474-0.69,1.23-0.69,2.271v5.6c0,0.134-0.043,0.243-0.13,0.33s-0.197,0.13-0.33,0.13h-0.88
						c-0.134,0-0.243-0.043-0.33-0.13s-0.13-0.196-0.13-0.33v-5.6c0-1.054-0.23-1.813-0.69-2.28s-1.029-0.7-1.71-0.7
						c-0.64,0-1.189,0.233-1.649,0.7s-0.69,1.22-0.69,2.26v5.62c0,0.134-0.043,0.243-0.13,0.33s-0.197,0.13-0.33,0.13h-0.88
						C930.498,417.346,930.389,417.303,930.302,417.216z"/>
					<path fill="#00B9D2" d="M948.062,417.216c-0.087-0.087-0.13-0.196-0.13-0.33v-9.48c0-0.133,0.043-0.243,0.13-0.329
						c0.087-0.087,0.196-0.131,0.33-0.131h0.84c0.134,0,0.24,0.044,0.32,0.131c0.08,0.086,0.12,0.196,0.12,0.329v0.681
						c0.72-0.894,1.693-1.34,2.92-1.34c1.467,0,2.507,0.613,3.12,1.84c0.319-0.561,0.776-1.007,1.37-1.34
						c0.593-0.334,1.256-0.5,1.989-0.5c1.094,0,1.987,0.373,2.681,1.119c0.692,0.747,1.04,1.827,1.04,3.24v5.78
						c0,0.134-0.044,0.243-0.13,0.33c-0.087,0.087-0.197,0.13-0.33,0.13h-0.86c-0.134,0-0.243-0.043-0.33-0.13
						s-0.13-0.196-0.13-0.33v-5.6c0-1.067-0.22-1.83-0.66-2.29c-0.439-0.46-1.02-0.69-1.74-0.69c-0.64,0-1.189,0.237-1.649,0.71
						c-0.46,0.474-0.69,1.23-0.69,2.271v5.6c0,0.134-0.043,0.243-0.13,0.33s-0.197,0.13-0.33,0.13h-0.88
						c-0.134,0-0.243-0.043-0.33-0.13s-0.13-0.196-0.13-0.33v-5.6c0-1.054-0.23-1.813-0.69-2.28s-1.029-0.7-1.71-0.7
						c-0.64,0-1.189,0.233-1.649,0.7s-0.69,1.22-0.69,2.26v5.62c0,0.134-0.043,0.243-0.13,0.33s-0.197,0.13-0.33,0.13h-0.88
						C948.258,417.346,948.148,417.303,948.062,417.216z"/>
				</g>
			</g>
		</g>
		<g>
			<g id="POLYLINE_93_">
				
					<polyline fill="none" stroke="#00B9D2" stroke-width="2" stroke-linecap="round" stroke-linejoin="round" stroke-miterlimit="10" points="
					435.157,804.811 429.43,799.084 423.703,804.811 				"/>
			</g>
			<g id="POLYLINE_92_">
				
					<line fill="none" stroke="#00B9D2" stroke-width="2" stroke-linecap="round" stroke-linejoin="round" stroke-miterlimit="10" x1="429.43" y1="800" x2="429.43" y2="837.69"/>
			</g>
			<g id="POLYLINE_91_">
				
					<polyline fill="none" stroke="#00B9D2" stroke-width="2" stroke-linecap="round" stroke-linejoin="round" stroke-miterlimit="10" points="
					435.147,831.951 429.42,837.678 423.693,831.951 				"/>
			</g>
			<g id="MTEXT_4_" opacity="0.98">
				<g>
					<path fill="#00B9D2" d="M449.643,824.416c-0.087-0.087-0.13-0.196-0.13-0.33v-1.38c0-0.133,0.043-0.247,0.13-0.34
						c0.086-0.094,0.196-0.141,0.33-0.141h1.38c0.133,0,0.243,0.047,0.33,0.141c0.086,0.093,0.13,0.207,0.13,0.34v1.38
						c0,0.134-0.044,0.243-0.13,0.33c-0.087,0.087-0.197,0.13-0.33,0.13h-1.38C449.839,824.546,449.729,824.503,449.643,824.416z"/>
					<path fill="#00B9D2" d="M456.372,824.236c-0.76-0.341-1.337-0.783-1.729-1.33c-0.394-0.547-0.604-1.113-0.63-1.7
						c0-0.12,0.04-0.217,0.12-0.29c0.079-0.073,0.18-0.11,0.3-0.11h0.899c0.146,0,0.267,0.03,0.36,0.09
						c0.093,0.061,0.167,0.178,0.22,0.351c0.174,0.68,0.55,1.16,1.13,1.439c0.58,0.28,1.264,0.42,2.051,0.42
						c0.96,0,1.723-0.229,2.29-0.689c0.566-0.46,0.85-1.116,0.85-1.97c0-1.627-0.993-2.44-2.98-2.44h-1.88
						c-0.133,0-0.243-0.043-0.33-0.13s-0.13-0.196-0.13-0.33v-0.52c0-0.2,0.073-0.374,0.221-0.521l3.899-4.32h-5.92
						c-0.134,0-0.243-0.04-0.33-0.12c-0.087-0.079-0.13-0.187-0.13-0.319v-0.72c0-0.147,0.043-0.264,0.13-0.351
						s0.196-0.13,0.33-0.13h7.92c0.146,0,0.264,0.043,0.351,0.13c0.086,0.087,0.13,0.203,0.13,0.351v0.659
						c0,0.147-0.067,0.301-0.2,0.46l-3.9,4.381h0.32c1.36,0.039,2.437,0.393,3.229,1.06c0.794,0.667,1.19,1.64,1.19,2.92
						c0,0.88-0.217,1.637-0.65,2.271c-0.433,0.633-1.036,1.119-1.81,1.46c-0.773,0.34-1.646,0.51-2.62,0.51
						C458.032,824.746,457.133,824.576,456.372,824.236z"/>
					<path fill="#00B9D2" d="M468.332,824.236c-0.76-0.341-1.337-0.783-1.729-1.33c-0.394-0.547-0.604-1.113-0.63-1.7
						c0-0.12,0.04-0.217,0.12-0.29c0.079-0.073,0.18-0.11,0.3-0.11h0.899c0.146,0,0.267,0.03,0.36,0.09
						c0.093,0.061,0.167,0.178,0.22,0.351c0.174,0.68,0.55,1.16,1.13,1.439c0.58,0.28,1.264,0.42,2.051,0.42
						c0.96,0,1.723-0.229,2.29-0.689c0.566-0.46,0.85-1.116,0.85-1.97c0-1.627-0.993-2.44-2.98-2.44h-1.88
						c-0.133,0-0.243-0.043-0.33-0.13s-0.13-0.196-0.13-0.33v-0.52c0-0.2,0.073-0.374,0.221-0.521l3.899-4.32h-5.92
						c-0.134,0-0.243-0.04-0.33-0.12c-0.087-0.079-0.13-0.187-0.13-0.319v-0.72c0-0.147,0.043-0.264,0.13-0.351
						s0.196-0.13,0.33-0.13h7.92c0.146,0,0.264,0.043,0.351,0.13c0.086,0.087,0.13,0.203,0.13,0.351v0.659
						c0,0.147-0.067,0.301-0.2,0.46l-3.9,4.381h0.32c1.36,0.039,2.437,0.393,3.229,1.06c0.794,0.667,1.19,1.64,1.19,2.92
						c0,0.88-0.217,1.637-0.65,2.271c-0.433,0.633-1.036,1.119-1.81,1.46c-0.773,0.34-1.646,0.51-2.62,0.51
						C469.992,824.746,469.093,824.576,468.332,824.236z"/>
					<path fill="#00B9D2" d="M478.553,814.286l-0.341-3.48v-0.08c0-0.12,0.037-0.213,0.11-0.279c0.073-0.067,0.17-0.101,0.29-0.101
						h1.26c0.134,0,0.236,0.044,0.311,0.13c0.073,0.087,0.103,0.197,0.09,0.33l-0.34,3.48c-0.027,0.293-0.16,0.439-0.4,0.439h-0.58
						C478.712,814.726,478.579,814.579,478.553,814.286z M481.612,814.286l-0.34-3.48v-0.04c0-0.133,0.036-0.236,0.109-0.31
						s0.171-0.11,0.29-0.11h1.261c0.133,0,0.236,0.044,0.31,0.13c0.073,0.087,0.104,0.197,0.09,0.33l-0.34,3.48
						c-0.026,0.293-0.16,0.439-0.4,0.439h-0.579C481.772,814.726,481.639,814.579,481.612,814.286z"/>
					<path fill="#00B9D2" d="M491.012,828.576c-0.08-0.087-0.12-0.197-0.12-0.33v-21.16c0-0.133,0.04-0.243,0.12-0.33
						s0.187-0.13,0.32-0.13h0.739c0.134,0,0.243,0.043,0.33,0.13s0.13,0.197,0.13,0.33v21.16c0,0.133-0.043,0.243-0.13,0.33
						c-0.087,0.086-0.196,0.13-0.33,0.13h-0.739C491.198,828.706,491.092,828.662,491.012,828.576z"/>
					<path fill="#00B9D2" d="M502.562,824.236c-0.793-0.341-1.41-0.83-1.85-1.471c-0.44-0.64-0.66-1.387-0.66-2.239
						c0-0.787,0.196-1.477,0.59-2.07s0.923-1.05,1.59-1.37c-0.533-0.307-0.946-0.71-1.24-1.21c-0.293-0.5-0.439-1.09-0.439-1.771
						c0-1.159,0.433-2.076,1.3-2.75c0.866-0.673,2.007-1.01,3.42-1.01s2.55,0.334,3.41,1c0.86,0.667,1.29,1.587,1.29,2.76
						c0,0.667-0.146,1.25-0.44,1.75c-0.293,0.5-0.699,0.91-1.22,1.23c0.667,0.32,1.196,0.776,1.59,1.37s0.59,1.29,0.59,2.09
						c0,0.854-0.22,1.597-0.659,2.23c-0.44,0.633-1.058,1.119-1.851,1.46c-0.793,0.34-1.696,0.51-2.71,0.51
						S503.354,824.576,502.562,824.236z M507.642,822.466c0.633-0.479,0.95-1.12,0.95-1.92s-0.317-1.44-0.95-1.92
						c-0.634-0.48-1.424-0.72-2.37-0.72c-0.96,0-1.757,0.239-2.39,0.72c-0.634,0.479-0.95,1.12-0.95,1.92s0.316,1.44,0.95,1.92
						c0.633,0.48,1.43,0.72,2.39,0.72C506.218,823.186,507.008,822.946,507.642,822.466z M507.332,815.746
						c0.56-0.4,0.84-0.934,0.84-1.601c0-0.68-0.277-1.223-0.83-1.63c-0.554-0.406-1.243-0.609-2.07-0.609
						c-0.84,0-1.533,0.203-2.08,0.609c-0.547,0.407-0.819,0.95-0.819,1.63c0,0.681,0.272,1.224,0.819,1.631
						c0.547,0.406,1.24,0.609,2.08,0.609C506.085,816.359,506.771,816.146,507.332,815.746z"/>
					<path fill="#00B9D2" d="M512.901,824.416c-0.087-0.087-0.13-0.196-0.13-0.33v-1.38c0-0.133,0.043-0.247,0.13-0.34
						c0.086-0.094,0.196-0.141,0.33-0.141h1.38c0.133,0,0.243,0.047,0.33,0.141c0.086,0.093,0.13,0.207,0.13,0.34v1.38
						c0,0.134-0.044,0.243-0.13,0.33c-0.087,0.087-0.197,0.13-0.33,0.13h-1.38C513.098,824.546,512.987,824.503,512.901,824.416z"/>
					<path fill="#00B9D2" d="M519.631,824.236c-0.76-0.341-1.337-0.783-1.729-1.33c-0.394-0.547-0.604-1.113-0.63-1.7
						c0-0.12,0.04-0.217,0.12-0.29c0.079-0.073,0.18-0.11,0.3-0.11h0.899c0.146,0,0.267,0.03,0.36,0.09
						c0.093,0.061,0.167,0.178,0.22,0.351c0.174,0.68,0.55,1.16,1.13,1.439c0.58,0.28,1.264,0.42,2.051,0.42
						c0.96,0,1.723-0.229,2.29-0.689c0.566-0.46,0.85-1.116,0.85-1.97c0-1.627-0.993-2.44-2.98-2.44h-1.88
						c-0.133,0-0.243-0.043-0.33-0.13s-0.13-0.196-0.13-0.33v-0.52c0-0.2,0.073-0.374,0.221-0.521l3.899-4.32h-5.92
						c-0.134,0-0.243-0.04-0.33-0.12c-0.087-0.079-0.13-0.187-0.13-0.319v-0.72c0-0.147,0.043-0.264,0.13-0.351
						s0.196-0.13,0.33-0.13h7.92c0.146,0,0.264,0.043,0.351,0.13c0.086,0.087,0.13,0.203,0.13,0.351v0.659
						c0,0.147-0.067,0.301-0.2,0.46l-3.9,4.381h0.32c1.36,0.039,2.437,0.393,3.229,1.06c0.794,0.667,1.19,1.64,1.19,2.92
						c0,0.88-0.217,1.637-0.65,2.271c-0.433,0.633-1.036,1.119-1.81,1.46c-0.773,0.34-1.646,0.51-2.62,0.51
						C521.291,824.746,520.392,824.576,519.631,824.236z"/>
					<path fill="#00B9D2" d="M534.921,824.416c-0.087-0.087-0.13-0.196-0.13-0.33v-9.48c0-0.133,0.043-0.243,0.13-0.329
						c0.087-0.087,0.196-0.131,0.33-0.131h0.84c0.134,0,0.24,0.044,0.32,0.131c0.08,0.086,0.12,0.196,0.12,0.329v0.681
						c0.72-0.894,1.693-1.34,2.92-1.34c1.467,0,2.507,0.613,3.12,1.84c0.319-0.561,0.776-1.007,1.37-1.34
						c0.593-0.334,1.256-0.5,1.989-0.5c1.094,0,1.987,0.373,2.681,1.119c0.692,0.747,1.04,1.827,1.04,3.24v5.78
						c0,0.134-0.044,0.243-0.13,0.33c-0.087,0.087-0.197,0.13-0.33,0.13h-0.86c-0.134,0-0.243-0.043-0.33-0.13
						s-0.13-0.196-0.13-0.33v-5.6c0-1.067-0.22-1.83-0.66-2.29c-0.439-0.46-1.02-0.69-1.74-0.69c-0.64,0-1.189,0.237-1.649,0.71
						c-0.46,0.474-0.69,1.23-0.69,2.271v5.6c0,0.134-0.043,0.243-0.13,0.33s-0.197,0.13-0.33,0.13h-0.88
						c-0.134,0-0.243-0.043-0.33-0.13s-0.13-0.196-0.13-0.33v-5.6c0-1.054-0.23-1.813-0.69-2.28s-1.029-0.7-1.71-0.7
						c-0.64,0-1.189,0.233-1.649,0.7s-0.69,1.22-0.69,2.26v5.62c0,0.134-0.043,0.243-0.13,0.33s-0.197,0.13-0.33,0.13h-0.88
						C535.117,824.546,535.008,824.503,534.921,824.416z"/>
					<path fill="#00B9D2" d="M552.681,824.416c-0.087-0.087-0.13-0.196-0.13-0.33v-9.48c0-0.133,0.043-0.243,0.13-0.329
						c0.087-0.087,0.196-0.131,0.33-0.131h0.84c0.134,0,0.24,0.044,0.32,0.131c0.08,0.086,0.12,0.196,0.12,0.329v0.681
						c0.72-0.894,1.693-1.34,2.92-1.34c1.467,0,2.507,0.613,3.12,1.84c0.319-0.561,0.776-1.007,1.37-1.34
						c0.593-0.334,1.256-0.5,1.989-0.5c1.094,0,1.987,0.373,2.681,1.119c0.692,0.747,1.04,1.827,1.04,3.24v5.78
						c0,0.134-0.044,0.243-0.13,0.33c-0.087,0.087-0.197,0.13-0.33,0.13h-0.86c-0.134,0-0.243-0.043-0.33-0.13
						s-0.13-0.196-0.13-0.33v-5.6c0-1.067-0.22-1.83-0.66-2.29c-0.439-0.46-1.02-0.69-1.74-0.69c-0.64,0-1.189,0.237-1.649,0.71
						c-0.46,0.474-0.69,1.23-0.69,2.271v5.6c0,0.134-0.043,0.243-0.13,0.33s-0.197,0.13-0.33,0.13h-0.88
						c-0.134,0-0.243-0.043-0.33-0.13s-0.13-0.196-0.13-0.33v-5.6c0-1.054-0.23-1.813-0.69-2.28s-1.029-0.7-1.71-0.7
						c-0.64,0-1.189,0.233-1.649,0.7s-0.69,1.22-0.69,2.26v5.62c0,0.134-0.043,0.243-0.13,0.33s-0.197,0.13-0.33,0.13h-0.88
						C552.877,824.546,552.768,824.503,552.681,824.416z"/>
				</g>
			</g>
		</g>
	</g>
</g>
<g id="N-TEXT">
</g>
<g id="AG-DIGITAL">
	<g id="POLYLINE_90_">
		
			<path fill="none" stroke="#00B9D2" stroke-width="2.75" stroke-linecap="round" stroke-linejoin="round" stroke-miterlimit="10" d="
			M623.938,110.6c-0.001-2.259-1.458-4.329-3.585-5.091c-2.126-0.761-4.568-0.086-6.002,1.659c-1.433,1.745-1.621,4.272-0.46,6.21
			c1.161,1.938,3.475,2.966,5.691,2.526c2.207-0.438,3.952-2.26,4.293-4.484C623.917,111.149,623.938,110.874,623.938,110.6z"/>
	</g>
	<g id="POLYLINE_89_">
		
			<path fill="none" stroke="#00B9D2" stroke-width="2.75" stroke-linecap="round" stroke-linejoin="round" stroke-miterlimit="10" d="
			M630.59,144.393c-0.006-5.039-3.249-9.655-7.996-11.354c-4.742-1.698-10.188-0.192-13.385,3.701
			c-3.197,3.893-3.614,9.527-1.026,13.849c2.588,4.322,7.752,6.614,12.693,5.634c4.923-0.976,8.812-5.04,9.574-10
			C630.543,145.617,630.59,145.005,630.59,144.393z"/>
	</g>
	<g id="POLYLINE_88_">
		
			<path fill="none" stroke="#00B9D2" stroke-width="2.75" stroke-linecap="round" stroke-linejoin="round" stroke-miterlimit="10" d="
			M546.882,132.987c4.626,3.509,10.184,5.604,15.997,5.87c5.811,0.266,11.645-1.298,16.544-4.433
			c4.899-3.136,8.762-7.779,10.954-13.168c2.179-5.359,2.662-11.347,1.368-16.985c-1.294-5.638-4.34-10.817-8.638-14.689
			c-4.322-3.893-9.823-6.387-15.599-7.073c-5.776-0.686-11.709,0.451-16.822,3.225c-5.085,2.758-9.258,7.08-11.836,12.259
			s-3.51,11.114-2.646,16.834c0.869,5.752,3.538,11.17,7.567,15.366c0.474,0.494,0.966,0.97,1.475,1.429
			C545.542,131.888,546.498,132.987,546.882,132.987z"/>
	</g>
	<g id="POLYLINE_87_">
		
			<path fill="none" stroke="#00B9D2" stroke-width="2.75" stroke-linecap="round" stroke-linejoin="round" stroke-miterlimit="10" d="
			M546.882,200.573c4.626,3.509,10.184,5.604,15.997,5.87c5.811,0.266,11.645-1.298,16.544-4.433
			c4.899-3.136,8.762-7.779,10.954-13.168c2.179-5.359,2.662-11.347,1.368-16.985s-4.34-10.817-8.638-14.689
			c-4.322-3.893-9.823-6.387-15.599-7.073c-5.776-0.686-11.709,0.451-16.822,3.225c-5.085,2.758-9.258,7.08-11.836,12.259
			s-3.51,11.114-2.646,16.834c0.869,5.752,3.538,11.17,7.567,15.366c0.474,0.494,0.966,0.97,1.475,1.429
			C545.542,199.473,546.498,200.573,546.882,200.573z"/>
	</g>
	<g id="POLYLINE_86_">
		
			<path fill="none" stroke="#00B9D2" stroke-width="2.75" stroke-linecap="round" stroke-linejoin="round" stroke-miterlimit="10" d="
			M583.752,211.01c8.952,0,17.903,0,26.855,0c2.941,0,5.901,0.099,8.841-0.033c3.613-0.161,7.195-0.925,10.56-2.249
			c5.835-2.295,10.953-6.278,14.616-11.366c3.99-5.543,6.143-12.258,6.185-19.083c0.044-7.244,0.002-14.489,0.002-21.733
			c0-10.311,0-20.622,0-30.933c0-2.003,0-4.006,0-6.009c0-4.144,0.254-8.386-0.19-12.517c-0.707-6.571-3.428-12.869-7.739-17.879
			c-4.078-4.74-9.492-8.261-15.483-10.055c-3.189-0.955-6.478-1.377-9.802-1.379c-4.329-0.002-8.659,0-12.988,0
			c-7.534,0-15.069,0-22.603,0c-5.289,0-10.579,0-15.868,0c-3.097,0-6.143,0.118-9.181,0.804c-6.24,1.409-12.004,4.655-16.439,9.266
			c-4.523,4.702-7.577,10.734-8.689,17.163c-0.651,3.763-0.481,7.597-0.481,11.399c0,2.558,0,5.116,0,7.674
			c0,9.704,0,19.408,0,29.112c0,8.256-0.024,16.513,0,24.769c0.018,6.327,1.745,12.546,5.16,17.888
			c3.401,5.32,8.328,9.601,14.077,12.216c3.157,1.436,6.54,2.366,9.987,2.747c3.541,0.391,7.171,0.199,10.725,0.199
			C575.448,211.01,579.6,211.01,583.752,211.01z"/>
	</g>
	<g id="POLYLINE_85_">
		
			<path fill="none" stroke="#00B9D2" stroke-width="2.75" stroke-linecap="round" stroke-linejoin="round" stroke-miterlimit="10" d="
			M505.335,150.08c0.403,0,2.067-0.241,2.297,0.014c0.109,0.12,0,0.854,0,1.008c0,1.824,0,3.647,0,5.471c0,5.017,0,10.034,0,15.05
			c0,1.242,0,2.484,0,3.726c0-0.089-2.165,0.133-2.297-0.014c-0.109-0.12,0-0.854,0-1.008c0-1.824,0-3.647,0-5.471
			c0-5.017,0-10.034,0-15.05C505.335,152.564,505.335,151.322,505.335,150.08z"/>
	</g>
	<g id="POLYLINE_84_">
		
			<path fill="none" stroke="#00B9D2" stroke-width="2.75" stroke-linecap="round" stroke-linejoin="round" stroke-miterlimit="10" d="
			M505.335,197.946c0.378,0,2.077-0.243,2.297,0.001c0.048,0.054-0.009,0.319,0,0.389c0.115,0.866,0,1.829,0,2.701
			c0,3.652,0,7.304,0,10.957c0,9.043,0,18.087,0,27.13c0,1.418,0,2.835,0,4.253c0,0.39,0.229,1.697,0,2.031
			c-0.155,0.226-2.155,0.218-2.297-0.021c-0.23-0.385,0-1.621,0-2.055c0-8.134,0-16.268,0-24.402c0-6.878,0-13.756,0-20.634
			C505.335,198.18,505.335,198.063,505.335,197.946z"/>
	</g>
	<g id="POLYLINE_83_">
		
			<path fill="none" stroke="#00B9D2" stroke-width="2.75" stroke-linecap="round" stroke-linejoin="round" stroke-miterlimit="10" d="
			M505.335,257.672c0.378,0,2.077-0.243,2.297,0.001c0.048,0.054-0.009,0.319,0,0.389c0.115,0.866,0,1.829,0,2.701
			c0,3.652,0,7.304,0,10.957c0,9.043,0,18.087,0,27.13c0,1.418,0,2.835,0,4.253c0,0.39,0.229,1.697,0,2.031
			c-0.155,0.226-2.155,0.218-2.297-0.021c-0.23-0.385,0-1.621,0-2.055c0-8.134,0-16.268,0-24.402c0-6.878,0-13.756,0-20.634
			C505.335,257.906,505.335,257.789,505.335,257.672z"/>
	</g>
	<g id="POLYLINE_82_">
		
			<path fill="none" stroke="#00B9D2" stroke-width="2.75" stroke-linecap="round" stroke-linejoin="round" stroke-miterlimit="10" d="
			M855.424,213.718c0.462,0,2.085-0.226,2.297,0.084c0.108,0.157,0,0.777,0,0.962c0,1.585,0,3.171,0,4.756c0,5.913,0,11.827,0,17.74
			c0,7.532,0,15.064,0,22.596c0,6.605,0,13.211,0,19.816c0,2.202,0,4.404,0,6.606c0,0.68,0,1.36,0,2.041c0,0.234,0.118,0.863,0,1.07
			c-0.156,0.273-1.702,0.286-2.067,0.135c-0.321-0.132-0.207-0.013-0.23-0.443c-0.069-1.284,0-2.591,0-3.876c0-5.55,0-11.1,0-16.65
			c0-7.471,0-14.942,0-22.413c0-6.847,0-13.695,0-20.542c0-3.783,0-7.566,0-11.35C855.424,214.073,855.424,213.896,855.424,213.718z
			"/>
	</g>
	<g id="POLYLINE_81_">
		
			<path fill="none" stroke="#00B9D2" stroke-width="2.75" stroke-linecap="round" stroke-linejoin="round" stroke-miterlimit="10" d="
			M800.291,749.217c7.372-0.064,14.653-1.472,21.454-4.347c6.826-2.885,13.046-7.151,18.195-12.481
			c5.149-5.33,9.198-11.694,11.846-18.615c2.407-6.292,3.609-12.98,3.637-19.712c0.005-1.186,0-2.372,0-3.559
			c0-3.103,0-6.205,0-9.308c0-4.839,0-9.678,0-14.517c0-6.396,0-12.791,0-19.187c0-7.773,0-15.546,0-23.318
			c0-8.945,0-17.89,0-26.835c0-9.958,0-19.917,0-29.875c0-10.824,0-21.648,0-32.471c0-11.484,0-22.968,0-34.452
			c0-11.965,0-23.93,0-35.895c0-12.233,0-24.467,0-36.7c0-12.355,0-24.711,0-37.066c0-12.332,0-24.664,0-36.996
			c0-12.096,0-24.192,0-36.288c0-11.681,0-23.362,0-35.042c0-11.057,0-22.114,0-33.172c0-10.288,0-20.575,0-30.863
			c0-9.364,0-18.727,0-28.091c0-8.232,0-16.463,0-24.695c0-6.92,0-13.84,0-20.76c0-5.416,0-10.833,0-16.249
			c0-3.755,0-7.511,0-11.266c0-1.919,0-3.837,0-5.756c0-4.296-0.404-8.564-1.35-12.76c-1.616-7.169-4.677-13.999-8.956-19.974
			c-4.278-5.975-9.758-11.075-16.025-14.913c-6.271-3.841-13.297-6.401-20.568-7.502c-3.713-0.562-7.429-0.62-11.17-0.62
			c-5.11,0-10.219,0-15.329,0c-8.525,0-17.05,0-25.576,0c-10.86,0-21.721,0-32.581,0c-12.048,0-24.097,0-36.145,0
			c-12.291,0-24.582,0-36.873,0c-11.391,0-22.782,0-34.172,0c-9.41,0-18.82,0-28.23,0c-6.349,0-12.698,0-19.047,0
			c-2.515,0-5.032-0.035-7.547,0.008c-7.33,0.125-14.609,1.721-21.319,4.673c-6.762,2.975-12.898,7.328-17.956,12.71
			c-5.079,5.403-9.044,11.837-11.589,18.802c-2.223,6.086-3.333,12.513-3.357,18.988c-0.005,1.261,0,2.522,0,3.783
			c0,3.171,0,6.343,0,9.514c0,4.901,0,9.801,0,14.702c0,6.451,0,12.901,0,19.352c0,7.821,0,15.642,0,23.463
			c0,8.961,0,17.922,0,26.882c0,10.019,0,20.038,0,30.056c0,10.852,0,21.704,0,32.556c0,11.506,0,23.011,0,34.517
			c0,11.98,0,23.959,0,35.939c0,12.208,0,24.416,0,36.624c0,12.39,0,24.779,0,37.169c0,12.326,0,24.653,0,36.979
			c0,12.084,0,24.168,0,36.251c0,11.662,0,23.323,0,34.985c0,11.031,0,22.063,0,33.094c0,10.255,0,20.51,0,30.765
			c0,9.324,0,18.649,0,27.973c0,8.185,0,16.371,0,24.556c0,6.867,0,13.734,0,20.601c0,5.357,0,10.714,0,16.071
			c0,3.689,0,7.378,0,11.067c0,1.846,0,3.691,0,5.537c0,4.529,0.47,9.03,1.533,13.437c1.731,7.18,4.908,14,9.311,19.932
			c4.365,5.881,9.894,10.865,16.193,14.603c6.312,3.745,13.382,6.202,20.654,7.191c3.571,0.486,7.14,0.506,10.732,0.506
			c5.258,0,10.516,0,15.773,0c8.633,0,17.265,0,25.898,0c10.927,0,21.854,0,32.781,0c12.074,0,24.149,0,36.223,0
			c12.277,0,24.554,0,36.831,0c11.336,0,22.672,0,34.008,0c9.314,0,18.629,0,27.943,0c6.213,0,12.425,0,18.638,0
			c1.512,0,3.024,0,4.536,0C798.997,749.217,800.018,749.034,800.291,749.217z"/>
	</g>
	<g id="POLYLINE_80_">
		
			<path fill="none" stroke="#00B9D2" stroke-width="2.75" stroke-linecap="round" stroke-linejoin="round" stroke-miterlimit="10" d="
			M82.284,798.971c-5.166,0.013-10.191,2.143-13.767,5.877c-3.553,3.709-5.484,8.801-5.284,13.933
			c0.202,5.172,2.559,10.132,6.44,13.556c3.49,3.079,8.006,4.737,12.647,4.767c1.297,0.008,2.594,0,3.891,0c3.247,0,6.494,0,9.742,0
			c4.947,0,9.893,0,14.84,0c6.339,0,12.678,0,19.016,0c7.475,0,14.949,0,22.424,0c8.339,0,16.679,0,25.018,0
			c8.933,0,17.866,0,26.799,0c9.255,0,18.511,0,27.766,0c9.307,0,18.613,0,27.92,0c9.087,0,18.174,0,27.261,0
			c8.596,0,17.192,0,25.788,0c7.834,0,15.668,0,23.502,0c6.823,0,13.646,0,20.468,0c5.491,0,10.982,0,16.474,0
			c3.915,0,7.829,0,11.744,0c2.067,0,4.134,0,6.202,0c2.945,0,5.81-0.441,8.522-1.648c4.715-2.099,8.441-6.11,10.189-10.966
			c1.747-4.856,1.427-10.324-0.871-14.944c-2.287-4.599-6.426-8.139-11.323-9.688c-2.297-0.726-4.635-0.888-7.018-0.888
			c-2.341,0-4.682,0-7.022,0c-4.151,0-8.301,0-12.452,0c-5.689,0-11.378,0-17.068,0c-6.957,0-13.914,0-20.87,0
			c-7.953,0-15.906,0-23.86,0c-8.71,0-17.421,0-26.131,0c-9.134,0-18.267,0-27.401,0c-9.316,0-18.632,0-27.947,0
			c-9.227,0-18.453,0-27.68,0c-8.897,0-17.794,0-26.692,0c-8.232,0-16.465,0-24.697,0c-7.329,0-14.658,0-21.987,0
			c-6.154,0-12.309,0-18.463,0c-4.709,0-9.417,0-14.126,0c-2.992,0-5.984,0-8.975,0C84.294,798.971,83.289,798.971,82.284,798.971z"
			/>
	</g>
	<g id="POLYLINE_79_">
		
			<path fill="none" stroke="#00B9D2" stroke-width="2.75" stroke-linecap="round" stroke-linejoin="round" stroke-miterlimit="10" d="
			M223.789,824.708c-1.469-0.001-2.88-0.725-3.735-1.92c-0.855-1.194-1.087-2.764-0.614-4.155c0.475-1.397,1.625-2.503,3.04-2.924
			c0.713-0.212,1.433-0.191,2.168-0.191c2.619,0,5.237,0,7.856,0c5.862,0,11.724-0.014,17.585,0
			c1.433,0.003,2.758,0.415,3.747,1.504c0.993,1.092,1.405,2.632,1.089,4.074c-0.315,1.435-1.325,2.658-2.675,3.238
			c-0.622,0.267-1.265,0.363-1.937,0.373c-2.046,0.03-4.095,0-6.142,0c-6.352,0-12.703,0-19.055,0
			C224.673,824.708,224.231,824.708,223.789,824.708z"/>
	</g>
	<g id="POLYLINE_78_">
		
			<path fill="none" stroke="#00B9D2" stroke-width="2.75" stroke-linecap="round" stroke-linejoin="round" stroke-miterlimit="10" d="
			M206.904,821.477c3.163-0.001,4.633-4.1,2.187-6.109c-2.445-2.008-6.182,0.23-5.567,3.333c0.152,0.768,0.57,1.472,1.17,1.973
			C204.847,820.803,206.904,821.77,206.904,821.477z"/>
	</g>
	<g id="POLYLINE_77_">
		
			<path fill="none" stroke="#00B9D2" stroke-width="2.75" stroke-linecap="round" stroke-linejoin="round" stroke-miterlimit="10" d="
			M183.035,821.072c2.792,0,4.088-3.619,1.93-5.391c-2.158-1.772-5.455,0.203-4.912,2.942c0.134,0.677,0.503,1.299,1.033,1.742
			C181.22,820.477,183.035,821.33,183.035,821.072z"/>
	</g>
	<g id="POLYLINE_76_">
		
			<path fill="none" stroke="#00B9D2" stroke-width="2.75" stroke-linecap="round" stroke-linejoin="round" stroke-miterlimit="10" d="
			M172.468,821.072c2.792,0,4.087-3.619,1.93-5.391c-2.158-1.772-5.455,0.203-4.912,2.942c0.134,0.677,0.503,1.299,1.033,1.742
			C170.653,820.477,172.468,821.33,172.468,821.072z"/>
	</g>
	<g id="POLYLINE_75_">
		
			<path fill="none" stroke="#00B9D2" stroke-width="2.75" stroke-linecap="round" stroke-linejoin="round" stroke-miterlimit="10" d="
			M161.901,821.072c2.792,0,4.087-3.619,1.93-5.391c-2.158-1.772-5.455,0.203-4.912,2.942c0.134,0.677,0.503,1.299,1.033,1.742
			C160.086,820.477,161.901,821.33,161.901,821.072z"/>
	</g>
	<g id="POLYLINE_74_">
		
			<path fill="none" stroke="#00B9D2" stroke-width="2.75" stroke-linecap="round" stroke-linejoin="round" stroke-miterlimit="10" d="
			M151.334,821.072c2.792,0,4.088-3.619,1.93-5.391c-2.158-1.772-5.455,0.203-4.912,2.942c0.134,0.677,0.503,1.299,1.033,1.742
			c0.271,0.226,0.581,0.405,0.913,0.525C150.557,820.984,151.136,820.94,151.334,821.072z"/>
	</g>
	<g id="POLYLINE_70_">
		
			<path fill="none" stroke="#00B9D2" stroke-width="2.75" stroke-linecap="round" stroke-linejoin="round" stroke-miterlimit="10" d="
			M140.767,821.072c2.792,0,4.087-3.619,1.93-5.391c-2.158-1.772-5.455,0.203-4.912,2.942c0.134,0.677,0.503,1.299,1.033,1.742
			c0.271,0.226,0.581,0.405,0.913,0.525C139.99,820.984,140.569,820.94,140.767,821.072z"/>
	</g>
	<g id="POLYLINE_68_">
		
			<path fill="none" stroke="#00B9D2" stroke-width="2.75" stroke-linecap="round" stroke-linejoin="round" stroke-miterlimit="10" d="
			M130.2,821.072c2.792,0,4.087-3.619,1.93-5.391c-2.158-1.772-5.455,0.203-4.912,2.942c0.134,0.677,0.503,1.299,1.033,1.742
			C128.385,820.477,130.2,821.33,130.2,821.072z"/>
	</g>
	<g id="POLYLINE_67_">
		
			<path fill="none" stroke="#00B9D2" stroke-width="2.75" stroke-linecap="round" stroke-linejoin="round" stroke-miterlimit="10" d="
			M344.026,821.072c-2.792,0-4.087-3.619-1.93-5.391c2.158-1.772,5.455,0.203,4.912,2.942c-0.134,0.677-0.503,1.299-1.033,1.742
			c-0.271,0.226-0.581,0.405-0.913,0.525C344.803,820.984,344.224,820.94,344.026,821.072z"/>
	</g>
	<g id="POLYLINE_66_">
		
			<path fill="none" stroke="#00B9D2" stroke-width="2.75" stroke-linecap="round" stroke-linejoin="round" stroke-miterlimit="10" d="
			M333.459,821.072c-2.792,0-4.088-3.619-1.93-5.391c2.158-1.772,5.455,0.203,4.912,2.942c-0.134,0.677-0.503,1.299-1.033,1.742
			c-0.271,0.226-0.581,0.405-0.913,0.525C334.236,820.984,333.657,820.94,333.459,821.072z"/>
	</g>
	<g id="POLYLINE_65_">
		
			<path fill="none" stroke="#00B9D2" stroke-width="2.75" stroke-linecap="round" stroke-linejoin="round" stroke-miterlimit="10" d="
			M322.892,821.072c-2.792,0-4.087-3.619-1.93-5.391c2.158-1.772,5.455,0.203,4.912,2.942c-0.134,0.677-0.503,1.299-1.033,1.742
			c-0.271,0.226-0.581,0.405-0.913,0.525C323.669,820.984,323.09,820.94,322.892,821.072z"/>
	</g>
	<g id="POLYLINE_64_">
		
			<path fill="none" stroke="#00B9D2" stroke-width="2.75" stroke-linecap="round" stroke-linejoin="round" stroke-miterlimit="10" d="
			M312.325,821.072c-2.792,0-4.087-3.619-1.93-5.391c2.158-1.772,5.455,0.203,4.912,2.942c-0.134,0.677-0.503,1.299-1.033,1.742
			C314.14,820.477,312.325,821.33,312.325,821.072z"/>
	</g>
	<g id="POLYLINE_24_">
		
			<path fill="none" stroke="#00B9D2" stroke-width="2.75" stroke-linecap="round" stroke-linejoin="round" stroke-miterlimit="10" d="
			M301.758,821.072c-2.792,0-4.088-3.619-1.93-5.391c2.158-1.772,5.455,0.203,4.912,2.942c-0.134,0.677-0.503,1.299-1.033,1.742
			C303.573,820.477,301.758,821.33,301.758,821.072z"/>
	</g>
	<g id="POLYLINE_23_">
		
			<path fill="none" stroke="#00B9D2" stroke-width="2.75" stroke-linecap="round" stroke-linejoin="round" stroke-miterlimit="10" d="
			M291.191,821.072c-2.792,0-4.087-3.619-1.93-5.391c2.158-1.772,5.455,0.203,4.912,2.942c-0.134,0.677-0.503,1.299-1.033,1.742
			C293.006,820.477,291.191,821.33,291.191,821.072z"/>
	</g>
	<g id="POLYLINE_22_">
		
			<path fill="none" stroke="#00B9D2" stroke-width="2.75" stroke-linecap="round" stroke-linejoin="round" stroke-miterlimit="10" d="
			M267.322,821.477c-3.163-0.001-4.633-4.1-2.187-6.109c2.445-2.008,6.182,0.23,5.567,3.333c-0.152,0.768-0.57,1.472-1.17,1.973
			C269.379,820.803,267.322,821.77,267.322,821.477z"/>
	</g>
	<g id="POLYLINE_21_">
		
			<path fill="none" stroke="#00B9D2" stroke-width="2.75" stroke-linecap="round" stroke-linejoin="round" stroke-miterlimit="10" d="
			M355.876,749.217c7.372-0.064,14.653-1.472,21.454-4.347c6.826-2.885,13.046-7.151,18.195-12.481
			c5.149-5.33,9.198-11.694,11.846-18.615c2.407-6.292,3.609-12.98,3.637-19.712c0.005-1.186,0-2.372,0-3.559
			c0-3.103,0-6.205,0-9.308c0-4.839,0-9.678,0-14.517c0-6.396,0-12.791,0-19.187c0-7.773,0-15.546,0-23.318
			c0-8.945,0-17.89,0-26.835c0-9.958,0-19.917,0-29.875c0-10.824,0-21.648,0-32.471c0-11.484,0-22.968,0-34.452
			c0-11.965,0-23.93,0-35.895c0-12.233,0-24.467,0-36.7c0-12.355,0-24.711,0-37.066c0-12.332,0-24.664,0-36.996
			c0-12.096,0-24.192,0-36.288c0-11.681,0-23.362,0-35.042c0-11.057,0-22.114,0-33.172c0-10.288,0-20.575,0-30.863
			c0-9.364,0-18.727,0-28.091c0-8.232,0-16.463,0-24.695c0-6.92,0-13.84,0-20.76c0-5.416,0-10.833,0-16.249
			c0-3.755,0-7.511,0-11.266c0-1.919,0-3.837,0-5.756c0-4.296-0.404-8.564-1.35-12.76c-1.616-7.169-4.677-13.999-8.956-19.974
			c-4.278-5.975-9.758-11.075-16.025-14.913c-6.271-3.841-13.297-6.401-20.568-7.502c-3.713-0.562-7.429-0.62-11.17-0.62
			c-5.11,0-10.219,0-15.329,0c-8.525,0-17.05,0-25.576,0c-10.86,0-21.721,0-32.581,0c-12.048,0-24.097,0-36.145,0
			c-12.291,0-24.582,0-36.873,0c-11.391,0-22.782,0-34.172,0c-9.41,0-18.82,0-28.23,0c-6.349,0-12.698,0-19.047,0
			c-2.515,0-5.032-0.035-7.547,0.008c-7.33,0.125-14.609,1.721-21.319,4.673c-6.762,2.975-12.898,7.328-17.956,12.71
			c-5.079,5.403-9.044,11.837-11.589,18.802c-2.223,6.086-3.333,12.513-3.357,18.988c-0.005,1.261,0,2.522,0,3.783
			c0,3.171,0,6.343,0,9.514c0,4.901,0,9.801,0,14.702c0,6.451,0,12.901,0,19.352c0,7.821,0,15.642,0,23.463
			c0,8.961,0,17.922,0,26.882c0,10.019,0,20.038,0,30.056c0,10.852,0,21.704,0,32.556c0,11.506,0,23.011,0,34.517
			c0,11.98,0,23.959,0,35.939c0,12.208,0,24.416,0,36.624c0,12.39,0,24.779,0,37.169c0,12.326,0,24.653,0,36.979
			c0,12.084,0,24.168,0,36.251c0,11.662,0,23.323,0,34.985c0,11.031,0,22.063,0,33.094c0,10.255,0,20.51,0,30.765
			c0,9.324,0,18.649,0,27.973c0,8.185,0,16.371,0,24.556c0,6.867,0,13.734,0,20.601c0,5.357,0,10.714,0,16.071
			c0,3.689,0,7.378,0,11.067c0,1.846,0,3.691,0,5.537c0,4.529,0.47,9.03,1.533,13.437c1.731,7.18,4.908,14,9.311,19.932
			c4.365,5.881,9.894,10.865,16.193,14.603c6.312,3.745,13.382,6.202,20.654,7.191c3.571,0.486,7.14,0.506,10.732,0.506
			c5.258,0,10.516,0,15.773,0c8.633,0,17.265,0,25.898,0c10.927,0,21.854,0,32.781,0c12.074,0,24.149,0,36.223,0
			c12.277,0,24.554,0,36.831,0c11.336,0,22.672,0,34.008,0c9.314,0,18.629,0,27.943,0c6.213,0,12.425,0,18.638,0
			C350.039,749.217,355.876,749.217,355.876,749.217z"/>
	</g>
	<g id="POLYLINE_18_">
		
			<path fill="none" stroke="#00B9D2" stroke-width="2.75" stroke-linecap="round" stroke-linejoin="round" stroke-miterlimit="10" d="
			M298.457,104.401c-6.509,0-13.018,0-19.527,0c-10.806,0-21.612,0-32.419,0c-4.052,0-8.104,0-12.156,0c-9.405,0-18.809,0-28.214,0
			c-9.292,0-18.585,0-27.877,0c-5.331,0-10.759-0.199-15.484-2.999c-2.827-1.675-5.036-4.167-6.465-7.117
			c-0.779-1.61-1.332-3.323-1.716-5.067c-0.284-1.294-0.366-2.628-0.671-3.914c-0.381-1.607-1.256-3.109-2.904-3.644
			c-0.635-0.206-1.289-0.229-1.95-0.23c-1.497-0.002-2.994,0-4.491,0c-8.742,0-17.485-0.037-26.227,0
			c-7.356,0.031-14.536,2.777-19.978,7.741c-5.463,4.984-8.915,11.97-9.552,19.338c-0.134,1.546-0.11,3.096-0.11,4.646
			c0,2.382,0,4.764,0,7.146c0,3.935,0,7.87,0,11.805c0,5.343,0,10.687,0,16.03c0,6.628,0,13.256,0,19.885c0,7.754,0,15.508,0,23.262
			c0,8.708,0,17.415,0,26.123c0,9.538,0,19.075,0,28.613c0,10.223,0,20.447,0,30.67c0,10.765,0,21.529,0,32.294
			c0,11.161,0,22.323,0,33.484c0,11.447,0,22.894,0,34.341c0,11.555,0,23.111,0,34.666c0,11.485,0,22.97,0,34.455
			c0,11.303,0,22.607,0,33.91c0,10.978,0,21.955,0,32.933c0,10.507,0,21.015,0,31.522c0,9.893,0,19.785,0,29.678
			c0,9.133,0,18.267,0,27.4c0,8.252,0,16.505,0,24.757c0,7.198,0,14.396,0,21.594c0,5.982,0,11.965,0,17.947
			c0,4.645,0,9.29,0,13.935c0,3.163,0,6.326,0,9.489c0,1.537-0.002,3.074,0,4.61c0.006,4.76,1.015,9.434,3.161,13.699
			c3.336,6.632,9.165,11.859,16.122,14.45c3.937,1.466,7.988,1.868,12.146,1.868c4.1,0,8.2,0,12.3,0c7.251,0,14.501,0,21.752,0
			c9.532,0,19.064,0,28.596,0c10.944,0,21.888,0,32.832,0c11.487,0,22.974,0,34.461,0c11.16,0,22.32,0,33.481,0
			c9.99,0,19.981,0,29.971,0c7.911,0,15.821,0,23.732,0c4.945,0,9.89,0,14.834,0c2.967,0,5.922,0.072,8.862-0.44
			c7.285-1.27,13.948-5.311,18.442-11.183c3.958-5.172,6.077-11.551,6.101-18.054c0.004-1.11,0-2.22,0-3.33c0-2.783,0-5.565,0-8.348
			c0-4.309,0-8.617,0-12.926c0-5.671,0-11.342,0-17.013c0-6.899,0-13.798,0-20.698c0-7.983,0-15.966,0-23.949
			c0-8.922,0-17.845,0-26.767c0-9.717,0-19.435,0-29.152c0-10.368,0-20.736,0-31.104c0-10.906,0-21.812,0-32.719
			c0-11.27,0-22.539,0-33.809c0-11.454,0-22.908,0-34.363c0-11.526,0-23.053,0-34.579c0-11.454,0-22.908,0-34.363
			c0-11.238,0-22.475,0-33.713c0-10.877,0-21.753,0-32.63c0-10.4,0-20.801,0-31.201c0-9.746,0-19.493,0-29.239
			c0-8.922,0-17.845,0-26.767c0-7.983,0-15.966,0-23.949c0-6.899,0-13.798,0-20.698c0-5.671,0-11.342,0-17.013
			c0-4.298,0-8.597,0-12.895c0-2.781,0-5.563,0-8.344c0-1.121,0.004-2.242,0-3.362c-0.025-6.504-2.143-12.883-6.101-18.056
			c-4.494-5.873-11.157-9.913-18.442-11.183c-2.73-0.476-5.465-0.44-8.222-0.44c-5.194,0-10.389,0-15.583,0
			c-4.011,0-8.022-0.009-12.033,0c-1.459,0.003-2.829,0.32-3.777,1.518c-1.401,1.773-1.282,4.298-1.755,6.399
			c-0.747,3.319-2.14,6.532-4.455,9.062c-2.068,2.26-4.755,3.824-7.661,4.747c-1.461,0.464-2.968,0.775-4.488,0.97
			C302.597,104.177,298.457,104.509,298.457,104.401z"/>
	</g>
	<g id="POLYLINE_17_">
		
			<path fill="none" stroke="#00B9D2" stroke-width="2.75" stroke-linecap="round" stroke-linejoin="round" stroke-miterlimit="10" d="
			M411.009,213.718c0.462,0,2.085-0.226,2.297,0.084c0.108,0.157,0,0.777,0,0.962c0,1.585,0,3.171,0,4.756c0,5.913,0,11.827,0,17.74
			c0,7.532,0,15.064,0,22.596c0,6.605,0,13.211,0,19.816c0,2.202,0,4.404,0,6.606c0,0.68,0,1.36,0,2.041c0,0.234,0.118,0.863,0,1.07
			c-0.156,0.273-1.702,0.286-2.067,0.135c-0.321-0.132-0.207-0.013-0.23-0.443c-0.069-1.284,0-2.591,0-3.876c0-5.55,0-11.1,0-16.65
			c0-7.471,0-14.942,0-22.413c0-6.847,0-13.695,0-20.542c0-3.783,0-7.566,0-11.35C411.009,214.073,411.009,213.896,411.009,213.718z
			"/>
	</g>
	<g id="POLYLINE_14_">
		
			<path fill="none" stroke="#00B9D2" stroke-width="2.75" stroke-linecap="round" stroke-linejoin="round" stroke-miterlimit="10" d="
			M60.92,257.672c0.378,0,2.077-0.243,2.297,0.001c0.048,0.054-0.009,0.319,0,0.389c0.115,0.866,0,1.829,0,2.701
			c0,3.652,0,7.304,0,10.957c0,9.043,0,18.087,0,27.13c0,1.418,0,2.835,0,4.253c0,0.39,0.229,1.697,0,2.031
			c-0.155,0.226-2.155,0.218-2.297-0.021c-0.23-0.385,0-1.621,0-2.055c0-8.134,0-16.268,0-24.402c0-6.878,0-13.756,0-20.634
			C60.92,257.906,60.92,257.789,60.92,257.672z"/>
	</g>
	<g id="POLYLINE_13_">
		
			<path fill="none" stroke="#00B9D2" stroke-width="2.75" stroke-linecap="round" stroke-linejoin="round" stroke-miterlimit="10" d="
			M60.92,197.946c0.378,0,2.077-0.243,2.297,0.001c0.048,0.054-0.009,0.319,0,0.389c0.115,0.866,0,1.829,0,2.701
			c0,3.652,0,7.304,0,10.957c0,9.043,0,18.087,0,27.13c0,1.418,0,2.835,0,4.253c0,0.39,0.229,1.697,0,2.031
			c-0.155,0.226-2.155,0.218-2.297-0.021c-0.23-0.385,0-1.621,0-2.055c0-8.134,0-16.268,0-24.402c0-6.878,0-13.756,0-20.634
			C60.92,198.18,60.92,198.063,60.92,197.946z"/>
	</g>
	<g id="POLYLINE_12_">
		
			<path fill="none" stroke="#00B9D2" stroke-width="2.75" stroke-linecap="round" stroke-linejoin="round" stroke-miterlimit="10" d="
			M60.92,150.08c0.403,0,2.067-0.241,2.297,0.014c0.109,0.12,0,0.854,0,1.008c0,1.824,0,3.647,0,5.471c0,5.017,0,10.034,0,15.05
			c0,1.242,0,2.484,0,3.726c0-0.089-2.165,0.133-2.297-0.014c-0.109-0.12,0-0.854,0-1.008c0-1.824,0-3.647,0-5.471
			c0-5.017,0-10.034,0-15.05C60.92,152.564,60.92,151.322,60.92,150.08z"/>
	</g>
</g>
<g id="AG-OUTLINE">
	<g id="POLYLINE_10_">
		
			<path fill="none" stroke="#00B9D2" stroke-width="3.5" stroke-linecap="round" stroke-linejoin="round" stroke-miterlimit="10" d="
			M355.876,749.217c7.616-0.042,15.169-1.579,22.148-4.645c6.639-2.916,12.697-7.143,17.704-12.392
			c5.014-5.256,8.987-11.49,11.593-18.273c2.434-6.336,3.671-13.075,3.688-19.86c0.003-1.24,0-2.481,0-3.721
			c0-3.141,0-6.282,0-9.423c0-4.863,0-9.727,0-14.59c0-6.408,0-12.816,0-19.224c0-7.774,0-15.549,0-23.323
			c0-8.988,0-17.977,0-26.965c0-9.948,0-19.895,0-29.843c0-10.836,0-21.672,0-32.508c0-11.43,0-22.86,0-34.29
			c0-11.969,0-23.939,0-35.908c0-12.202,0-24.405,0-36.607c0-12.389,0-24.778,0-37.166c0-12.265,0-24.529,0-36.794
			c0-12.094,0-24.189,0-36.283c0-11.617,0-23.233,0-34.85c0-11.086,0-22.172,0-33.258c0-10.259,0-20.517,0-30.776
			c0-9.364,0-18.727,0-28.091c0-8.191,0-16.381,0-24.572c0-6.927,0-13.855,0-20.782c0-5.412,0-10.825,0-16.237
			c0-3.777,0-7.554,0-11.332c0-1.924,0-3.848,0-5.772c0-4.47-0.436-8.908-1.459-13.266c-1.641-6.991-4.66-13.629-8.831-19.473
			c-4.271-5.985-9.757-11.077-16.02-14.925c-6.281-3.86-13.349-6.434-20.64-7.524c-3.748-0.561-7.495-0.611-11.27-0.611
			c-5.135,0-10.271,0-15.406,0c-8.556,0-17.112,0-25.668,0c-10.817,0-21.633,0-32.45,0c-12.119,0-24.238,0-36.356,0
			c-12.223,0-24.445,0-36.668,0c-11.383,0-22.766,0-34.149,0c-9.353,0-18.706,0-28.06,0c-6.349,0-12.698,0-19.047,0
			c-2.487,0-4.976-0.03-7.463,0.007c-7.573,0.114-15.104,1.804-21.999,4.94c-6.633,3.017-12.655,7.358-17.607,12.705
			c-4.927,5.32-8.793,11.608-11.298,18.414c-2.254,6.124-3.388,12.61-3.402,19.132c-0.003,1.316,0,2.632,0,3.948
			c0,3.198,0,6.396,0,9.594c0,4.936,0,9.872,0,14.808c0,6.463,0,12.925,0,19.388c0,7.822,0,15.645,0,23.467
			c0,9.004,0,18.008,0,27.013c0,10.008,0,20.016,0,30.024c0,10.834,0,21.667,0,32.501c0,11.481,0,22.963,0,34.444
			c0,11.984,0,23.968,0,35.951c0,12.21,0,24.42,0,36.631c0,12.39,0,24.78,0,37.17c0,12.259,0,24.518,0,36.777
			c0,12.082,0,24.164,0,36.246c0,11.598,0,23.195,0,34.793c0,11.06,0,22.12,0,33.18c0,10.226,0,20.453,0,30.679
			c0,9.324,0,18.649,0,27.973c0,8.145,0,16.289,0,24.434c0,6.875,0,13.749,0,20.624c0,5.353,0,10.706,0,16.059
			c0,3.711,0,7.422,0,11.133c0,1.851,0,3.703,0,5.554c0,4.735,0.515,9.434,1.671,14.031c1.749,6.955,4.872,13.55,9.136,19.316
			c4.371,5.909,9.924,10.921,16.249,14.664c6.323,3.742,13.381,6.192,20.66,7.184c3.615,0.493,7.228,0.501,10.863,0.501
			c5.282,0,10.565,0,15.847,0c8.663,0,17.326,0,25.989,0c10.883,0,21.766,0,32.648,0c12.145,0,24.289,0,36.434,0
			c12.208,0,24.416,0,36.624,0c11.328,0,22.656,0,33.984,0c9.258,0,18.516,0,27.774,0c6.213,0,12.425,0,18.638,0
			C350.039,749.217,355.876,749.217,355.876,749.217z"/>
	</g>
	<g id="POLYLINE_9_">
		
			<path fill="none" stroke="#00B9D2" stroke-width="3.5" stroke-linecap="round" stroke-linejoin="round" stroke-miterlimit="10" d="
			M82.284,798.971c-5.465,0.004-10.771,2.411-14.366,6.531c-3.52,4.034-5.2,9.479-4.566,14.794
			c0.66,5.534,3.793,10.601,8.448,13.666c3.216,2.118,6.951,3.138,10.784,3.142c1.663,0.002,3.326,0,4.99,0
			c3.542,0,7.083,0,10.625,0c5.108,0,10.216,0,15.324,0c6.459,0,12.918,0,19.377,0c7.532,0,15.063,0,22.595,0
			c8.311,0,16.621,0,24.932,0c8.921,0,17.842,0,26.763,0c9.142,0,18.283,0,27.425,0c9.198,0,18.396,0,27.594,0
			c8.959,0,17.919,0,26.878,0c8.458,0,16.916,0,25.374,0c7.694,0,15.388,0,23.082,0c6.646,0,13.292,0,19.938,0
			c5.384,0,10.768,0,16.152,0c3.834,0,7.667,0,11.501,0c2.021,0,4.041,0,6.062,0c2.99,0,5.896-0.463,8.64-1.711
			c5.117-2.327,9.018-6.909,10.499-12.332c1.388-5.082,0.579-10.624-2.205-15.097c-2.953-4.745-7.958-8.01-13.491-8.801
			c-1.608-0.23-3.224-0.192-4.843-0.192c-2.665,0-5.331,0-7.996,0c-4.371,0-8.741,0-13.112,0c-5.869,0-11.738,0-17.608,0
			c-7.022,0-14.044,0-21.066,0c-7.983,0-15.966,0-23.948,0c-8.658,0-17.315,0-25.973,0c-9.037,0-18.073,0-27.11,0
			c-9.253,0-18.505,0-27.758,0c-9.074,0-18.149,0-27.223,0c-8.733,0-17.467,0-26.2,0c-8.096,0-16.193,0-24.289,0
			c-7.197,0-14.394,0-21.591,0c-6.035,0-12.07,0-18.106,0c-4.597,0-9.194,0-13.791,0c-2.931,0-5.861,0-8.792,0
			C84.251,798.971,83.267,798.971,82.284,798.971z"/>
	</g>
	<g id="POLYLINE_3_">
		
			<path fill="none" stroke="#00B9D2" stroke-width="3.5" stroke-linecap="round" stroke-linejoin="round" stroke-miterlimit="10" d="
			M800.291,749.217c7.616-0.042,15.169-1.579,22.148-4.645c6.639-2.916,12.697-7.143,17.704-12.392
			c5.014-5.256,8.987-11.49,11.593-18.273c2.434-6.336,3.671-13.075,3.688-19.86c0.003-1.24,0-2.481,0-3.721
			c0-3.141,0-6.282,0-9.423c0-4.863,0-9.727,0-14.59c0-6.408,0-12.816,0-19.224c0-7.774,0-15.549,0-23.323
			c0-8.988,0-17.977,0-26.965c0-9.948,0-19.895,0-29.843c0-10.836,0-21.672,0-32.508c0-11.43,0-22.86,0-34.29
			c0-11.969,0-23.939,0-35.908c0-12.202,0-24.405,0-36.607c0-12.389,0-24.778,0-37.166c0-12.265,0-24.529,0-36.794
			c0-12.094,0-24.189,0-36.283c0-11.617,0-23.233,0-34.85c0-11.086,0-22.172,0-33.258c0-10.259,0-20.517,0-30.776
			c0-9.364,0-18.727,0-28.091c0-8.191,0-16.381,0-24.572c0-6.927,0-13.855,0-20.782c0-5.412,0-10.825,0-16.237
			c0-3.777,0-7.554,0-11.332c0-1.924,0-3.848,0-5.772c0-4.47-0.436-8.908-1.459-13.266c-1.641-6.991-4.66-13.629-8.831-19.473
			c-4.271-5.985-9.757-11.077-16.02-14.925c-6.281-3.86-13.349-6.434-20.64-7.524c-3.748-0.561-7.495-0.611-11.27-0.611
			c-5.135,0-10.271,0-15.406,0c-8.556,0-17.112,0-25.668,0c-10.817,0-21.633,0-32.45,0c-12.119,0-24.238,0-36.356,0
			c-12.223,0-24.445,0-36.668,0c-11.383,0-22.766,0-34.149,0c-9.353,0-18.706,0-28.06,0c-6.349,0-12.698,0-19.047,0
			c-2.487,0-4.976-0.03-7.463,0.007c-7.573,0.114-15.104,1.804-21.999,4.94c-6.633,3.017-12.655,7.358-17.607,12.705
			c-4.927,5.32-8.793,11.608-11.298,18.414c-2.254,6.124-3.388,12.61-3.402,19.132c-0.003,1.316,0,2.632,0,3.948
			c0,3.198,0,6.396,0,9.594c0,4.936,0,9.872,0,14.808c0,6.463,0,12.925,0,19.388c0,7.822,0,15.645,0,23.467
			c0,9.004,0,18.008,0,27.013c0,10.008,0,20.016,0,30.024c0,10.834,0,21.667,0,32.501c0,11.481,0,22.963,0,34.444
			c0,11.984,0,23.968,0,35.951c0,12.21,0,24.42,0,36.631c0,12.39,0,24.78,0,37.17c0,12.259,0,24.518,0,36.777
			c0,12.082,0,24.164,0,36.246c0,11.598,0,23.195,0,34.793c0,11.06,0,22.12,0,33.18c0,10.226,0,20.453,0,30.679
			c0,9.324,0,18.649,0,27.973c0,8.145,0,16.289,0,24.434c0,6.875,0,13.749,0,20.624c0,5.353,0,10.706,0,16.059
			c0,3.711,0,7.422,0,11.133c0,1.851,0,3.703,0,5.554c0,4.735,0.515,9.434,1.671,14.031c1.749,6.955,4.872,13.55,9.136,19.316
			c4.371,5.909,9.924,10.921,16.249,14.664c6.323,3.742,13.381,6.192,20.66,7.184c3.615,0.493,7.228,0.501,10.863,0.501
			c5.282,0,10.565,0,15.847,0c8.663,0,17.326,0,25.989,0c10.883,0,21.766,0,32.648,0c12.145,0,24.289,0,36.434,0
			c12.208,0,24.416,0,36.624,0c11.328,0,22.656,0,33.984,0c9.258,0,18.516,0,27.774,0c6.213,0,12.425,0,18.638,0
			c1.512,0,3.024,0,4.536,0C798.998,749.217,800.018,749.034,800.291,749.217z"/>
	</g>
</g>
<g id="Layer_1">
</g>
</svg>
